<svg xml:space="preserve" xmlns="http://www.w3.org/2000/svg" viewBox="0 0 530.766 465.521"><g id="bl" style="fill:#fff;fill-opacity:1;stroke:#fff"><g style="fill:#fff;fill-opacity:1;stroke:#fff"><path class="st1" d="M557.15 521.28c2.6-2.54 2.64-6.71.1-9.31-2.54-2.6-6.71-2.64-9.31-.1-.86.84-1.41 1.87-1.71 2.95l-.13-.13-5.82 12.87 14.01-4.51-.13-.13a6.29 6.29 0 0 0 2.99-1.64zm-16.97-6.09c.63-2.1-.56-4.32-2.66-4.95-2.1-.63-4.32.56-4.95 2.66-.21.7-.2 1.4-.04 2.06l-.11-.03.68 8.5 6.09-6.47-.11-.03c.49-.46.89-1.04 1.1-1.74zm16.22 19.48a3.99 3.99 0 0 0 2.19-5.18 3.986 3.986 0 0 0-5.18-2.19c-.67.27-1.22.72-1.63 1.26l-.04-.1-6.2 5.86 8.86.69-.04-.1c.67.1 1.37.04 2.04-.24z" style="fill:#fff;fill-opacity:1;stroke:#fff" transform="translate(-68.18 -192.049)"/><path
  style="color:#000;fill:#fff;stroke-miterlimit:10;-inkscape-stroke:none;fill-opacity:1;stroke:#fff"
  d="M516.389 533.984c-4.338.32-8.669 1.765-12.784 3.686-5.663 2.644-9.055 6.681-10.878 10.57-1.824 3.89-2.157 7.552-1.723 9.947 1.112 6.121 4.217 11.29 8.55 14.22 4.335 2.928 9.988 3.452 15.41.355 3.11-1.777 4.442-5.05 4.485-8.153.043-3.102-1.055-6.17-3.127-8.136v-.002a7.139 7.139 0 0 0-7.013-1.641c-2.346.725-4.352 2.793-4.774 5.727l2.969.427c.268-1.866 1.347-2.874 2.69-3.289a4.134 4.134 0 0 1 4.064.953c1.268 1.204 2.223 3.605 2.191 5.92-.032 2.316-.901 4.407-2.972 5.59-4.558 2.603-8.727 2.138-12.243-.238s-6.29-6.828-7.279-12.268c-.276-1.524-.073-4.81 1.488-8.138 1.561-3.329 4.405-6.779 9.432-9.125 5.204-2.43 10.565-3.922 15.498-3.346 4.933.575 9.544 3.104 13.629 9.238 3.93 5.898 3.429 13.116 1.33 19.932-2.099 6.816-5.766 13.038-7.807 16.637-6.458 11.397-2.617 25.736 4.4 35.988 3.51 5.126 7.832 9.283 12.32 11.601 4.487 2.318 9.376 2.75 13.255-.008 4.216-2.997 12.492-6.356 19.102-5.353 3.304.501 6.181 1.967 8.334 5.086 2.152 3.119 3.579 8.019 3.464 15.422l3 .047c.121-7.807-1.365-13.363-3.996-17.174-2.63-3.812-6.408-5.75-10.351-6.348-7.886-1.197-16.477 2.455-21.291 5.877-2.816 2.002-6.267 1.786-10.14-.215-3.875-2-7.937-5.833-11.22-10.629-6.565-9.59-9.929-22.822-4.267-32.814 2.009-3.542 5.828-9.973 8.064-17.234 2.236-7.262 2.919-15.545-1.701-22.477-4.465-6.706-10.016-9.883-15.777-10.555a22.839 22.839 0 0 0-4.332-.08z"
  transform="translate(-68.18 -192.049)"/><path class="st1"
                                                d="M589.6 657.57s.27-3.09-5.58-5.02c-8.39-2.77-2.97-12.59-.09-12.62 4.81-.06 5.91 3.65 5.91 3.65s.65-3.33 4.66-3.33c3.86 0 6.27 6.42 2.7 10.34-3.56 3.93-6.56 1.99-7.6 6.98zm-85.1-97.02c.18 4.19 4.19 5.26 7.57 3.43 3.23-1.74 4.81 2.85 4.81 2.85l-.89-9.09-3.39-3.03-4.28 1.6z"
                                                style="fill:#fff;fill-opacity:1;stroke:#fff"
                                                transform="translate(-68.18 -192.049)"/><path
  style="color:#000;fill:#fff;stroke-miterlimit:10;-inkscape-stroke:none;fill-opacity:1;stroke:#fff"
  d="M545.818 578.295c-4.107-.327-7.703.946-10.521 3.223-2.818 2.276-4.89 5.506-6.27 9.142-2.76 7.273-2.842 16.231.078 23.21l2.768-1.16c-2.55-6.09-2.51-14.479-.041-20.985 1.235-3.254 3.058-6.022 5.35-7.873 2.292-1.852 5.023-2.835 8.4-2.567zm-1.06 20.443c-4.332.678-8.168 3.74-9.694 8.578-1.525 4.839-.796 11.318 3.375 19.047l2.641-1.426c-3.908-7.24-4.364-12.881-3.154-16.718 1.21-3.837 4.028-6.006 7.297-6.518zm10.982 16.912c-3.347.975-5.762 3.604-5.803 6.704-.04 3.1 2.4 6.12 7.157 7.79l.994-2.83c-4.043-1.42-5.17-3.388-5.15-4.921.02-1.533 1.29-3.178 3.642-3.864z"
  transform="translate(-68.18 -192.049)"/><path class="st1" style="fill:#fff;fill-opacity:1;stroke:#fff"
                                                d="M552.59 580.02a4.04 4.04 0 0 1-4.04 4.04 4.04 4.04 0 0 1-4.04-4.04 4.04 4.04 0 0 1 4.04-4.04 4.04 4.04 0 0 1 4.04 4.04zm-.95 19.37a4.04 4.04 0 0 1-4.04 4.04 4.04 4.04 0 0 1-4.04-4.04 4.04 4.04 0 0 1 4.04-4.04 4.04 4.04 0 0 1 4.04 4.04zm10.69 16.63a4.04 4.04 0 0 1-4.04 4.04 4.04 4.04 0 0 1-4.04-4.04 4.04 4.04 0 0 1 4.04-4.04 4.04 4.04 0 0 1 4.04 4.04z"
                                                transform="translate(-68.18 -192.049)"/><path
  style="color:#000;fill:#fff;stroke-miterlimit:10;-inkscape-stroke:none;fill-opacity:1;stroke:#fff"
  d="M507.846 584.637c-4.588-.367-8.118.513-10.633 1.685-3.353 1.563-4.998 3.735-4.998 3.735l2.41 1.787s1.089-1.513 3.855-2.803c2.767-1.29 7.117-2.266 13.592-.674 5.59 1.373 8.65 3.897 10.375 6.033 1.725 2.137 2.059 3.762 2.059 3.762l2.93-.644s-.552-2.395-2.655-5c-2.102-2.606-5.812-5.547-11.992-7.065h-.002a31.054 31.054 0 0 0-4.941-.816zm11.484 23.113c-4.942 0-8.385 1.547-10.547 3.143-2.162 1.595-3.133 3.341-3.133 3.341l2.64 1.43s.574-1.103 2.274-2.357c1.701-1.255 4.439-2.557 8.766-2.557 6.153 0 11.397 6.54 11.397 6.54l2.386-1.82s-5.636-7.72-13.783-7.72z"
  transform="translate(-68.18 -192.049)"/><path
  style="color:#000;fill:#fff;stroke-miterlimit:10;-inkscape-stroke:none;fill-opacity:1;stroke:#fff"
  d="M269.314 516.5c-8.389.138-15.403 3.32-21.736 7.988-6.333 4.668-12.045 10.812-18.062 17.073-12.035 12.521-25.175 25.466-46.418 28.656-34.121 5.129-51.824-1.83-61.07-9.795-9.247-7.964-10.167-16.924-10.167-16.924l-2.982.324s1.16 10.23 11.191 18.871c10.032 8.641 28.804 15.702 63.473 10.49 22.246-3.34 36.062-16.98 48.137-29.544 6.037-6.282 11.668-12.304 17.68-16.735 6.01-4.43 12.34-7.277 20.005-7.404 20.917-.347 32.64 9.11 39.381 18.701 6.74 9.592 8.303 19.246 8.303 19.246l.931 5.793 1.963-5.527s11.735-33.31 48.598-36.076c20.955-1.568 32.511 6.517 44.053 19.117 14.246 15.566 18.03 34.93 23.14 52.348 2.556 8.708 5.447 16.931 10.282 23.859 4.834 6.927 11.652 12.51 21.748 15.805 34.212 11.165 69.31 8.81 86.732-.823l-1.451-2.627c-16.077 8.888-50.842 11.533-84.35.598-9.533-3.11-15.702-8.198-20.218-14.67-4.516-6.471-7.338-14.378-9.864-22.986-5.052-17.218-8.904-37.248-23.806-53.531-11.799-12.88-24.664-21.715-46.489-20.082-31.886 2.39-45.453 25.771-49.412 34.2-.989-3.763-2.842-9.45-7.705-16.368-7.162-10.191-20.034-20.34-41.887-19.977z"
  transform="translate(-68.18 -192.049)"/><path class="st1"
                                                d="M293.72 595.53c7.02.29 13.46-2.45 18.05-7.07-.07 6.58 2.55 13.17 7.78 17.97a23.923 23.923 0 0 0 6.31-15.62c4.08 3.95 9.57 6.47 15.69 6.73.55-13.2-9.65-24.35-22.81-25.01v-.01c-.03 0-.17-.01-.2-.01h-.4c-.02-.01-.07-.02-.08 0-12.96-.18-23.79 9.99-24.34 23.02zM319.25 613l-3.13 7.42s-2.31 5.94 3.63 5.94c5.94 0 2.8-6.76 2.8-6.76zm64.91-85.34s-7.98 2.35-9.17 9c-1.19 6.65 6.23 13.14 6.23 13.14s8.23-2.82 8.85-10.09c.61-7.27-5.91-12.05-5.91-12.05zm-30.62 3.77s-4.67 4.13-3.36 9.03c1.31 4.9 8.41 6.94 8.41 6.94s4.69-4.53 2.8-9.66c-1.9-5.15-7.85-6.31-7.85-6.31zm-20.05 14.7s-2.45 3.81-.58 6.98c1.88 3.17 7.24 3.2 7.24 3.2s2.39-4.09.06-7.31c-2.33-3.22-6.72-2.87-6.72-2.87zm78.58 2.85s-5.7-2.53-9.61.69c-3.91 3.22-2.81 10.53-2.81 10.53s6.07 2.38 9.95-1.47c3.88-3.85 2.47-9.75 2.47-9.75zm12.38 22.64s-3.87-2.36-6.99-.4-3.01 7.32-3.01 7.32 4.15 2.29 7.31-.13c3.15-2.41 2.69-6.79 2.69-6.79zm8.09 23.39s-1.99-2.75-4.71-2.3c-2.72.45-4.2 4.18-4.2 4.18s2.2 2.78 5.08 2.03 3.83-3.91 3.83-3.91zm5.68 18.69s-1.3-1.79-3.08-1.5c-1.78.29-2.74 2.73-2.74 2.73s1.44 1.82 3.32 1.33 2.5-2.56 2.5-2.56zm-177.93-85.68s7.11 2.09 8.18 8.03c1.06 5.94-5.56 11.72-5.56 11.72s-7.34-2.51-7.89-9c-.55-6.49 5.27-10.75 5.27-10.75zm26.6 3.71s4.16 3.68 3 8.05c-1.17 4.37-7.5 6.19-7.5 6.19s-4.19-4.04-2.5-8.62c1.69-4.58 7-5.62 7-5.62zm17.88 13.12s2.19 3.4.52 6.22c-1.67 2.83-6.46 2.86-6.46 2.86s-2.13-3.65-.05-6.52c2.08-2.87 5.99-2.56 5.99-2.56zm-66.29 2.78s5.08-2.26 8.57.62 2.51 9.39 2.51 9.39-5.42 2.13-8.88-1.31c-3.46-3.44-2.2-8.7-2.2-8.7zm-15.32 16.63s3.45-2.1 6.23-.36c2.78 1.75 2.69 6.53 2.69 6.53s-3.7 2.04-6.52-.11c-2.81-2.15-2.4-6.06-2.4-6.06zm-15 10.79s3.01-.3 4.32 1.78c1.31 2.08-.3 5.28-.3 5.28s-3.16.18-4.36-2.19c-1.21-2.37.34-4.87.34-4.87zm-20.03 6.05s1.94.36 2.39 1.9c.45 1.54-1.15 3.26-1.15 3.26s-2.01-.46-2.34-2.17c-.32-1.7 1.1-2.99 1.1-2.99zm-19.26 2.59s1.81.8 1.89 2.4c.08 1.6-1.87 2.91-1.87 2.91s-1.85-.91-1.78-2.65c.08-1.73 1.76-2.66 1.76-2.66zm-49.14-22.03s-6.42-12.24-4.99-17.05c1.43-4.81 6.36-1.51 6.71-6.42.88-12.03-12.22-10.39-15.27-1.37-3.56 10.59 13.55 24.84 13.55 24.84zm376.31 31.79a4.16 4.16 0 0 1-4.16 4.16 4.16 4.16 0 0 1-4.16-4.16 4.16 4.16 0 0 1 4.16-4.16 4.16 4.16 0 0 1 4.16 4.16zm13.78 24.12a3.8 3.8 0 0 1-3.8 3.8 3.8 3.8 0 0 1-3.8-3.8 3.8 3.8 0 0 1 3.8-3.8 3.8 3.8 0 0 1 3.8 3.8z"
                                                style="fill:#fff;fill-opacity:1;stroke:#fff"
                                                transform="translate(-68.18 -192.049)"/><path
  style="color:#000;fill:#fff;stroke-miterlimit:10;-inkscape-stroke:none;fill-opacity:1;stroke:#fff"
  d="m105.205 562.125-2.451 1.73s24.762 35.06 72.373 39.28c16.718 1.478 32.703-3.4 46.75-8.322 14.047-4.922 26.252-9.792 34.85-8.91 8.806.902 13.953 5.446 16.752 10.447 2.798 5 2.926 10.634 2.001 12.617-2.223 4.774-5.528 7.39-9.285 8.49-3.756 1.1-8.032.63-12.035-1.148h-.002c-3.804-1.69-5.452-4.736-5.65-7.467-.199-2.73 1.003-4.879 3.025-5.387 2.66-.663 4.695-.579 5.932.018 1.236.596 1.983 1.626 2.191 3.894l2.988-.273c-.271-2.962-1.666-5.259-3.875-6.324-2.208-1.066-4.923-.982-7.962-.225h-.002c-3.677.922-5.566 4.714-5.29 8.516.277 3.8 2.67 7.879 7.426 9.99 4.547 2.02 9.535 2.622 14.096 1.287 4.56-1.335 8.626-4.659 11.162-10.104v-.002c1.685-3.617 1.097-9.628-2.103-15.347-3.202-5.72-9.339-10.97-19.063-11.967-9.933-1.019-22.19 4.172-36.148 9.062-13.958 4.891-29.521 9.578-45.493 8.166-46.249-4.1-70.187-38.021-70.187-38.021z"
  transform="translate(-68.18 -192.049)"/><path class="st1"
                                                d="M247.07 608.36c2.32-1.96 4.3-4.86 7.6-2.26.83.65-1.43 4.46 3.27 5.58 1.21.29 3.74-.48 4.46-2.26.71-1.78-.06-4.1-.06-4.1l-4.16-3.5-3.62-1.13-3.39 1.31-2.85 2.44z"
                                                style="fill:#fff;fill-opacity:1;stroke:#fff"
                                                transform="translate(-68.18 -192.049)"/><path
  style="color:#000;fill:#fff;stroke-miterlimit:10;-inkscape-stroke:none;fill-opacity:1;stroke:#fff"
  d="M376.832 581.48c-9.812.375-16.013 5.669-19.201 11.545-1.594 2.939-2.475 6.017-2.791 8.776-.316 2.758-.12 5.178.73 7.002 2.537 5.445 6.602 8.768 11.162 10.103 4.56 1.335 9.55.735 14.096-1.285 4.756-2.111 7.15-6.189 7.426-9.99.276-3.801-1.612-7.593-5.29-8.516h-.001c-3.04-.757-5.754-.841-7.963.225-2.209 1.066-3.601 3.36-3.873 6.322l2.986.275c.208-2.268.955-3.297 2.192-3.894 1.235-.596 3.271-.68 5.93-.018 2.023.508 3.225 2.656 3.027 5.387-.199 2.731-1.846 5.778-5.65 7.467-4.004 1.779-8.28 2.248-12.036 1.148-3.757-1.1-7.063-3.715-9.287-8.49-.455-.976-.741-3.016-.469-5.394.273-2.379 1.053-5.116 2.448-7.686 2.789-5.14 7.871-9.643 16.68-9.979 8.33-.316 13.621 1.746 17.685 5.083 4.063 3.336 6.904 8.081 9.834 13.214 2.93 5.134 5.948 10.637 10.562 15.264 4.614 4.627 10.851 8.318 19.92 9.791 35.181 5.702 24.397 3.545 35.569 5.928l.625-2.936c-11.149-2.377-.555-.255-35.713-5.953-8.511-1.382-14.045-4.703-18.278-8.947-4.232-4.245-7.135-9.474-10.08-14.633-2.945-5.16-5.932-10.267-10.535-14.047-4.603-3.78-10.816-6.1-19.705-5.762z"
  transform="translate(-68.18 -192.049)"/><path class="st1"
                                                d="M386.7 606.93c-2.32-1.96-4.3-4.86-7.6-2.26-.83.65 1.43 4.46-3.27 5.58-1.21.29-3.74-.48-4.46-2.26-.71-1.78.06-4.1.06-4.1l4.16-3.5 3.62-1.13 3.39 1.31 2.85 2.44zM95.22 546.16s-2.5-5.35-7.84-2.14c-5.35 3.21-3.92 9.62 3.92 12.83 4.41 1.8 9.76 6.27 12.3 8.2 2.6 1.98 2.67-.71 2.67-.71zm5.17 34.57s-16.4-22.81-27.56-13.54c-11.17 9.27.24 16.87 8.55 13.31 8.32-3.57 19.01.23 19.01.23z"
                                                style="fill:#fff;fill-opacity:1;stroke:#fff"
                                                transform="translate(-68.18 -192.049)"/><path
  style="color:#000;fill:#fff;stroke-miterlimit:10;-inkscape-stroke:none;fill-opacity:1;stroke:#fff"
  d="m273.727 551.654-9.457 8.264-7.756-5.717-1.977 11.488H242.8l.453 7.65 2.996-.179-.268-4.47h11.084l1.582-9.192 5.784 4.264 7.664-6.696 1.914 7.012 10.365-3.111.68 9.91 12.148-.408-.101-2.998-9.252.31-.74-10.767-11.016 3.308zm94.213-.935-6.227 7.695-7.68-5.117-6.63 11.432-10.659-2.907-.789 2.895 12.883 3.513 6.19-10.668 7.298 4.864 5.895-7.285 7.582 7.257 9.656-1.998 1.662 7.653 12.326 3.17.686 9.98 9.863 6.82 1.707-2.466-8.676-6-.734-10.7-12.633-3.25-1.9-8.748-11.022 2.282zm125.662-32.879c-34.222 31.105-27.134 70.326-22.95 84.998-.149-.231-.216-.239-.37-.49-2.921-4.754-6.795-13.28-10.333-28.135-7.29-30.616-32.67-42.365-32.67-42.365l-1.258 2.724s24.041 11.072 31.01 40.336c3.592 15.084 7.558 23.903 10.696 29.01 1.568 2.553 2.93 4.176 3.935 5.182 1.005 1.005 1.78 1.46 1.78 1.46l3.734 2.077-1.617-3.955s-21.075-51.233 20.06-88.621z"
  transform="translate(-68.18 -192.049)"/><path
  style="color:#000;fill:#fff;stroke-miterlimit:10;-inkscape-stroke:none;fill-opacity:1;stroke:#fff"
  d="M454.21 497.97c-7.896 0-14.33 6.434-14.33 14.33 0 7.897 6.434 14.33 14.33 14.33 7.897 0 14.33-6.433 14.33-14.33 0-7.896-6.433-14.33-14.33-14.33zm0 3a11.306 11.306 0 0 1 11.33 11.33c0 6.276-5.054 11.33-11.33 11.33a11.307 11.307 0 0 1-11.33-11.33c0-6.274 5.056-11.33 11.33-11.33z"
  transform="translate(-68.18 -192.049)"/><path
  style="color:#000;fill:#fff;stroke-miterlimit:10;-inkscape-stroke:none;fill-opacity:1;stroke:#fff"
  d="M444.455 508.064a22.048 22.048 0 0 0-2.226.069c-.6.052-.973.087-1.446.246l.955 2.844c-.115.039.27-.06.752-.102a19.25 19.25 0 0 1 1.918-.058c1.56.024 3.614.207 5.838.728 4.448 1.041 9.528 3.396 13.072 8.486l2.463-1.714c-4.066-5.84-9.914-8.536-14.851-9.692a30.802 30.802 0 0 0-6.475-.807z"
  transform="translate(-68.18 -192.049)"/><path
  style="color:#000;fill:#fff;stroke-miterlimit:10;-inkscape-stroke:none;fill-opacity:1;stroke:#fff"
  d="M462.943 501.18s-2.195-.248-4.687.826c-2.492 1.073-5.36 3.542-6.897 8.412l2.862.904c1.313-4.16 3.435-5.791 5.22-6.56 1.786-.77 3.155-.602 3.155-.602zm-4.158 27.537-2.97.426 5.11 35.64 2.97-.426z"
  transform="translate(-68.18 -192.049)"/></g><g style="fill:#fff;fill-opacity:1;stroke:#fff"><path style="color:#000;fill:#fff;stroke-miterlimit:10;-inkscape-stroke:none;fill-opacity:1;stroke:#fff" d="M373.602 192.074c-7.56-.194-15.583.745-23.893 2.317-16.62 3.144-34.46 8.857-52.227 13.478-17.555 4.566-29.646 2.647-40.408-.176-10.762-2.822-20.26-6.673-32.064-5.566-23.428 2.198-35.196 20.425-35.303 20.592-4.871 6.028-15.828 23.589-22.826 44.494-7.02 20.972-10.026 45.335 2.119 64.111 11.762 18.183 24.384 37.578 32.691 55.254 8.308 17.676 12.134 33.517 7.123 44.541-5.154 11.34-16.394 21.957-26.369 29.637-9.974 7.68-18.61 12.44-18.61 12.44l-.036.02-.037.024s-6.346 3.986-12.877 10.063c-6.532 6.077-13.422 14.245-14.2 23.156-1.293 14.867 4.704 25.004 13.329 30.145 8.625 5.14 19.705 5.417 28.71 1.29 8.883-4.07 13.863-10.287 16.178-16.683 2.316-6.396 2.036-12.915.686-17.865-1.217-4.46-5.003-8.859-10.418-10.86-5.415-2-12.453-1.419-19.725 3.99-5.214 3.88-6.573 10.842-4.84 16.346.867 2.753 2.544 5.207 5.034 6.666 2.489 1.459 5.743 1.823 9.363.649 5.697-1.848 7.952-6.015 7.434-9.594-.519-3.579-3.608-6.621-7.372-6.152l-.002.002h-.002c-4.54.575-6.517 5.129-6.517 5.129l2.715 1.277s1.62-3.102 4.177-3.43c1.937-.241 3.718 1.437 4.032 3.604.314 2.166-.638 4.768-5.39 6.31-2.975.965-5.196.629-6.92-.383-1.726-1.01-3.003-2.795-3.69-4.978-1.375-4.365-.236-10.06 3.77-13.04 6.627-4.929 12.419-5.237 16.894-3.583 4.475 1.654 7.64 5.455 8.562 8.836 1.2 4.4 1.453 10.355-.611 16.056-2.064 5.702-6.38 11.205-14.607 14.975-8.104 3.713-18.24 3.441-25.924-1.139-7.685-4.58-13.093-13.334-11.877-27.306.653-7.49 6.953-15.36 13.254-21.223 6.298-5.86 12.42-9.713 12.425-9.717l.004-.002c.115-.063 8.822-4.872 18.918-12.646 10.164-7.825 21.734-18.592 27.27-30.772 5.68-12.496 1.306-29.09-7.139-47.058-8.445-17.97-21.128-37.43-32.886-55.608-11.375-17.584-8.675-40.98-1.795-61.531 6.879-20.55 17.957-38.202 22.369-43.639l.054-.066.045-.07s11.013-17.204 33.098-19.276c11.006-1.032 20.041 2.6 31.022 5.48 10.98 2.88 23.84 4.882 41.925.178 17.875-4.649 35.677-10.34 52.03-13.433 16.352-3.093 31.183-3.559 43.209 1.935 6.068 2.775 9.468 5.706 11.23 8.395 1.762 2.69 1.982 5.158 1.55 7.432-.862 4.546-4.618 8.082-4.618 8.082l2.023 2.216s4.444-3.95 5.543-9.74c.55-2.895.192-6.308-1.988-9.635-2.18-3.326-6.086-6.548-12.492-9.478h-.002c-6.463-2.953-13.561-4.277-21.121-4.47z" transform="translate(-68.18 -192.049)"/>
  <path style="color:#000;fill:#fff;stroke-miterlimit:10;-inkscape-stroke:none;fill-opacity:1;stroke:#fff"
        d="M193.709 312.621s-5.913.255-11.432 3.604c-5.518 3.349-10.61 10.127-8.75 22.007l2.965-.464c-1.71-10.93 2.583-16.09 7.342-18.979 4.76-2.888 10.018-3.17 10.018-3.17zm-2.305-35.717a34.21 34.21 0 0 0-6.66 1.108c-9.261 2.526-19.415 10.054-23.785 28.634l2.922.688c4.18-17.77 13.271-24.142 21.652-26.428 4.19-1.143 8.232-1.213 11.36-.988a47.12 47.12 0 0 1 3.916.457c.509.08.937.153 1.29.209.354.056.568.105.952.105v-3c.116 0-.156-.016-.48-.068-.325-.051-.768-.126-1.3-.209a49.697 49.697 0 0 0-4.162-.486 40.688 40.688 0 0 0-5.705-.022zm21.133-49.354c-12.848-.122-28.747 5.108-40.03 25.493l2.626 1.453c10.818-19.545 25.333-24.06 37.375-23.945 12.042.115 21.441 5.056 21.441 5.056l1.4-2.654s-9.964-5.28-22.812-5.402z"
        transform="translate(-68.18 -192.049)"/>
  <path class="st1" style="fill:#fff;fill-opacity:1;stroke:#fff"
        d="M405.27 226.91a5.47 5.47 0 0 1-5.47 5.47 5.47 5.47 0 0 1-5.47-5.47 5.47 5.47 0 0 1 5.47-5.47 5.47 5.47 0 0 1 5.47 5.47zm-163.49 9.51a4.99 4.99 0 0 1-4.99 4.99 4.99 4.99 0 0 1-4.99-4.99 4.99 4.99 0 0 1 4.99-4.99 4.99 4.99 0 0 1 4.99 4.99zm-29.94 44.67a5.47 5.47 0 0 1-5.47 5.47 5.47 5.47 0 0 1-5.47-5.47 5.47 5.47 0 0 1 5.47-5.47 5.47 5.47 0 0 1 5.47 5.47zm-11.41 34.22a4.51 4.51 0 0 1-4.51 4.51 4.51 4.51 0 0 1-4.51-4.51 4.51 4.51 0 0 1 4.51-4.51 4.51 4.51 0 0 1 4.51 4.51z"
        transform="translate(-68.18 -192.049)"/>
  <g style="fill:#fff;fill-opacity:1;stroke:#fff"><path class="st1" d="M138.89 435.73c13.26 8.9 31.22 5.36 40.12-7.9-13.26-8.9-31.22-5.36-40.12 7.9z" style="fill:#fff;fill-opacity:1;stroke:#fff" transform="translate(-68.18 -192.049)"/>
    <path class="st1" d="M170.98 387.91c13.26 8.9 16.79 26.86 7.9 40.12-13.26-8.9-16.8-26.86-7.9-40.12z"
          style="fill:#fff;fill-opacity:1;stroke:#fff" transform="translate(-68.18 -192.049)"/></g>
  <path style="color:#000;fill:#fff;stroke-miterlimit:10;-inkscape-stroke:none;fill-opacity:1;stroke:#fff"
        d="m178.148 425.307-.816 2.886s11.1 3.424 13.596 10.91c.972 2.92.585 6.638-.801 10.327-1.386 3.688-3.75 7.313-6.438 10l2.122 2.12c3.012-3.012 5.573-6.94 7.125-11.066 1.55-4.126 2.115-8.488.837-12.328-3.204-9.613-15.625-12.85-15.625-12.85z"
        transform="translate(-68.18 -192.049)"/>
  <path class="st1"
        d="M143.58 407.57c4.4 15.35 20.41 24.23 35.76 19.83-4.4-15.35-20.41-24.23-35.76-19.83zm29.76-28.22a4.04 4.04 0 0 1-4.04 4.04 4.04 4.04 0 0 1-4.04-4.04 4.04 4.04 0 0 1 4.04-4.04 4.04 4.04 0 0 1 4.04 4.04zm-32.08 24.23a4.04 4.04 0 0 1-4.04 4.04 4.04 4.04 0 0 1-4.04-4.04 4.04 4.04 0 0 1 4.04-4.04 4.04 4.04 0 0 1 4.04 4.04zm-8.44 32.2a3.56 3.56 0 0 1-3.56 3.56 3.56 3.56 0 0 1-3.56-3.56 3.56 3.56 0 0 1 3.56-3.56 3.56 3.56 0 0 1 3.56 3.56zm157.57-192.53c5.08-1.29 9.1-4.64 11.39-8.92 1.36 4.72 4.64 8.87 9.41 11.18a17.88 17.88 0 0 0 1.17-12.52 17.84 17.84 0 0 0 12.66 1.45c-2.43-9.55-12.11-15.34-21.66-12.99-.02.01-.12.03-.14.04l-.29.09c-.01-.01-.05 0-.06.02-9.32 2.63-14.88 12.22-12.48 21.65z"
        style="fill:#fff;fill-opacity:1;stroke:#fff" transform="translate(-68.18 -192.049)"/>
  <path style="color:#000;fill:#fff;stroke-miterlimit:10;-inkscape-stroke:none;fill-opacity:1;stroke:#fff"
        d="M165.887 209.385a19.455 19.455 0 0 0-3.992.373c-3.964.769-7.235 2.554-9.174 5.219-1.94 2.664-2.37 6.225-.828 9.796v.002c2.756 6.38 12.32 7.274 16.503 1.34v-.002c1.368-1.94.957-4.332-.101-6.031-1.058-1.698-2.692-3.011-4.592-3.4-3.594-.743-5.922 2.664-5.922 2.664l2.377 1.83s1.692-1.814 2.938-1.557h.004c.788.161 2.01 1.023 2.648 2.049.64 1.026.766 1.907.195 2.717v.002c-2.837 4.025-9.533 3.279-11.296-.801-1.2-2.778-.859-4.978.5-6.844 1.358-1.865 3.911-3.378 7.318-4.039 5.003-.967 7.934.188 10.28 2.117 2.345 1.93 4.005 4.791 5.8 7.27l.002.002c3.225 4.44 4.752 10.185 4.752 10.185l2.902-.753s-1.552-6.135-5.226-11.194v-.002c-1.645-2.27-3.42-5.434-6.326-7.824-2.18-1.793-5.054-3.062-8.762-3.12zm-43.936 18.23a27.68 27.68 0 0 0-4.922.942c-6.361 1.818-11.835 5.703-14.709 10.4-2.917 4.77-3.239 11.28-.767 16.498 2.471 5.218 8.079 8.999 16.176 7.748 2.781-.43 4.827-1.61 6.08-3.228 1.252-1.62 1.675-3.571 1.617-5.395a11.517 11.517 0 0 0-1.324-4.969c-.751-1.413-1.65-2.61-3.147-3.05v.002a5.905 5.905 0 0 0-5.967 1.501 7.71 7.71 0 0 0-1.634 2.59l2.832.993s.306-.822.96-1.499c.655-.676 1.355-1.185 2.958-.71l.002.002c.063.018.812.575 1.345 1.58a8.76 8.76 0 0 1 .977 3.656c.041 1.299-.254 2.508-.992 3.463-.739.954-1.956 1.759-4.164 2.1-7.053 1.089-11.01-1.848-13.008-6.067-1.999-4.22-1.697-9.868.615-13.648 2.357-3.853 7.278-7.454 12.975-9.082 5.696-1.63 12.079-1.346 17.607 2.19 11.542 7.385 23.628 21.567 27.838 47.34l2.96-.484c-4.33-26.506-16.963-41.566-29.18-49.382-4.765-3.048-10.083-3.982-15.128-3.49zm1.938 59.825c-8.386.122-14.161 1.745-17.97 4.501-3.807 2.757-5.477 6.69-5.608 10.73-.113 3.492 1.086 7.13 3.736 9.86 2.65 2.731 6.744 4.47 12.078 4.278 4.363-.158 7.505-2.391 8.637-5.348 1.131-2.957.155-6.509-2.793-8.754-1.416-1.078-3.37-1.528-5.262-.926-1.893.603-3.506 2.494-3.789 5.3l2.984.3c.197-1.945.904-2.485 1.713-2.742.81-.258 1.94.003 2.535.455 2.042 1.554 2.472 3.567 1.81 5.295-.66 1.728-2.508 3.298-5.944 3.422-4.646.167-7.782-1.273-9.817-3.37-2.034-2.096-2.978-4.933-2.89-7.671v-.002c.108-3.328 1.29-6.167 4.37-8.397 3.083-2.23 8.238-3.814 16.253-3.932 11.992-.174 22.492 8.47 29.992 17.387s11.888 17.893 11.888 17.893l2.696-1.317s-4.522-9.27-12.29-18.506c-7.767-9.235-18.892-18.652-32.33-18.457zm19.289 53.564c-4.238-.055-8.184.622-11.33 1.766-2.774 1.006-5.538 3.43-7.471 6.642-1.933 3.212-2.986 7.305-1.777 11.467 1.16 3.989 5.146 5.92 8.994 6.23 3.848.312 7.94-.774 9.97-3.79a6.079 6.079 0 0 0 .76-5.223c-.514-1.643-1.632-3.038-3.06-4.014-1.428-.976-3.201-1.543-5.057-1.383-1.855.16-3.753 1.094-5.254 2.873l2.293 1.936c1.054-1.25 2.142-1.728 3.219-1.82 1.077-.093 2.187.245 3.105.873.918.627 1.61 1.535 1.89 2.431.282.897.228 1.741-.384 2.65-1.079 1.604-4.193 2.724-7.24 2.477-3.047-.246-5.646-1.637-6.356-4.078-.931-3.209-.137-6.416 1.467-9.082 1.605-2.666 4.068-4.696 5.924-5.37h.002c7.289-2.649 20.537-2.432 29.645 5.313 10.139 8.643 27.763 12.088 27.763 12.088l.598-2.94s-17.315-3.673-26.416-11.43v-.003h-.002c-6.345-5.396-14.22-7.522-21.283-7.613z"
        transform="translate(-68.18 -192.049)"/>
  <path class="st1"
        d="M168.59 509.45s-1.43 2.38-.12 3.92 4.75 2.26 6.53 0c1.78-2.26-1.43-4.28.12-5.7 1.55-1.42 5.11 1.07 5.11 1.07l-3.45-3.45-5.11 1.78zm-39.68-153.81s-1.19 2.08-.18 3.33 2.91 1.25 3.92.18c1.01-1.07-.06-3.68 2.97-3.45 3.03.24.06-2.38.06-2.38zm-15.98-48.53s-.42 2.76 1.84 2.91c2.26.15 2.64-.92 2.73-1.51.09-.59-.83-1.49-.59-2.47.24-.98.59-1.37 1.22-1.49.62-.12-.21-1.34-.21-1.34l-2.14.68zm.43-56.53s-1.11 2.27-.27 3.21c.85.94 2.81 1.16 3.52.94.71-.22 1.65-.62 1.69-1.25.04-.63.67-.94-.71-2.32-.32-.32.4-1.56 1.47-1.83 1.07-.27-.18-1.11-.18-1.11l-3.12.85zm44.51-31.54s-.8 2.23-.36 3.12c.45.89 2.32 1.25 3.21 1.07.89-.18.45-2.23 1.6-2.94 1.15-.71 2.58-.36 2.58-.36l-4.01-1.69zm144.15 32.82a3.21 3.21 0 0 1-3.21 3.21 3.21 3.21 0 0 1-3.21-3.21 3.21 3.21 0 0 1 3.21-3.21 3.21 3.21 0 0 1 3.21 3.21zm24.24-5.7a3.21 3.21 0 0 1-3.21 3.21 3.21 3.21 0 0 1-3.21-3.21 3.21 3.21 0 0 1 3.21-3.21 3.21 3.21 0 0 1 3.21 3.21z"
        style="fill:#fff;fill-opacity:1;stroke:#fff" transform="translate(-68.18 -192.049)"/>
  <path style="color:#000;fill:#fff;stroke-miterlimit:10;-inkscape-stroke:none;fill-opacity:1;stroke:#fff"
        d="M198.268 475.969c-4.416-.135-7.672.648-7.672.648l.668 2.926s11.933-2.569 19.765 3.633c3.82 3.024 7.362 9.646 9 17.017 1.639 7.371 1.416 15.449-1.57 21.416l2.53 1.586c4.734-6.143 12.702-14.9 21.6-21.738 8.9-6.837 18.7-11.633 26.903-10.482 8.607 1.207 13.897 4.605 17.082 7.664 3.185 3.058 4.192 5.662 4.192 5.662l2.789-1.102s-1.313-3.278-4.903-6.724c-3.59-3.447-9.531-7.179-18.744-8.471-9.617-1.35-19.955 4.011-29.146 11.074-6.887 5.292-12.646 11.334-17.407 16.834 1.01-5.288.797-11-.396-16.369-1.75-7.869-5.338-14.973-10.068-18.719-4.634-3.669-10.208-4.72-14.623-4.855z"
        transform="translate(-68.18 -192.049)"/>
  <path style="color:#000;fill:#fff;stroke-miterlimit:10;-inkscape-stroke:none;fill-opacity:1;stroke:#fff"
        d="m245.658 463.648-24.719 51.32 2.702 1.303 24.72-51.32z" transform="translate(-68.18 -192.049)"/>
  <path style="color:#000;fill:#fff;stroke-miterlimit:10;-inkscape-stroke:none;fill-opacity:1;stroke:#fff"
        d="m261.453 425.04-1.312.73c-5.688 3.161-9.843 7.954-12.43 13.421-3.349-5.157-8.206-9.404-14.389-11.753l-1.4-.534-.533 1.403c-5.727 15.051 1.555 31.808 16.2 38.123v.271l1.138.283c-.266-.066-.116-.033-.07-.015.044.017-.017.02.288.095l-.109-.03.402.134c.027.01.061.032.088.041.1.034.205.061.354.076l.013.002c15.173 5.113 31.818-2.642 37.559-17.734l.533-1.402-1.402-.534c-7.195-2.733-14.738-2.372-21.4.196 1.669-7.031.972-14.652-2.801-21.46zm-1.248 4.302c3.144 6.601 3.501 13.885 1.266 20.38l-1.198 3.483 3.291-1.654c6.067-3.051 13.227-3.7 20.131-1.555-5.74 12.66-20.118 19-33.332 14.383l-.105-.035-.512-.18-.002.002-.11-.043c-13.29-5.172-20.07-19.688-15.876-33.145 5.676 2.57 10.118 6.814 12.832 12.006l1.58 3.022 1.16-3.205c1.961-5.415 5.713-10.152 10.875-13.46zm2.77-143.494c-8.946 0-19 3.45-29.496 11.767-27.76 21.994-34.788 45.804-34.698 64.274.046 9.234 1.841 17.134 3.621 22.859a93.299 93.299 0 0 0 2.436 6.846c.33.83.604 1.498.785 1.965.09.233.157.416.191.523.035.107.006.218.006-.121h3c0-.473-.083-.59-.15-.799-.067-.209-.15-.43-.25-.687-.2-.516-.47-1.175-.793-1.989a90.056 90.056 0 0 1-2.361-6.629c-1.718-5.524-3.441-13.13-3.485-21.984-.087-17.708 6.43-40.412 33.56-61.908 13.45-10.656 25.55-12.72 35.42-10.12 9.872 2.601 17.632 9.991 22.01 18.706 4.379 8.714 5.299 18.665 1.827 26.203-3.472 7.537-11.21 12.97-25.238 12.797h-.02c-8.38 0-14.23-4.415-16.643-9.483-2.412-5.067-1.576-10.546 3.863-13.746 5.803-3.413 10.767-3.974 13.977-3.056 3.21.917 4.734 3 4.441 5.894h-.002v.002c-.301 3.028-1.916 4.397-3.879 5.05-1.963.655-4.299.225-5.138-.403l-1.797 2.402c2.02 1.512 5.033 1.796 7.883.848 2.848-.949 5.508-3.497 5.918-7.598v-.002c.426-4.234-2.326-7.856-6.6-9.078-4.275-1.222-10.007-.36-16.324 3.355-6.681 3.93-7.984 11.463-5.051 17.623 2.932 6.16 9.91 11.19 19.348 11.192h.004c14.83.177 24.015-5.932 27.982-14.543 3.968-8.615 2.84-19.43-1.871-28.805-4.71-9.375-13.08-17.4-23.926-20.258a33.477 33.477 0 0 0-8.55-1.097z"
        transform="translate(-68.18 -192.049)"/>
  <path class="st1" style="fill:#fff;fill-opacity:1;stroke:#fff"
        d="M237.5 338.83a3.33 3.33 0 0 1-3.33 3.33 3.33 3.33 0 0 1-3.33-3.33 3.33 3.33 0 0 1 3.33-3.33 3.33 3.33 0 0 1 3.33 3.33zm8 15a3.33 3.33 0 0 1-3.33 3.33 3.33 3.33 0 0 1-3.33-3.33 3.33 3.33 0 0 1 3.33-3.33 3.33 3.33 0 0 1 3.33 3.33zm16 8a3.33 3.33 0 0 1-3.33 3.33 3.33 3.33 0 0 1-3.33-3.33 3.33 3.33 0 0 1 3.33-3.33 3.33 3.33 0 0 1 3.33 3.33zm19 1a3.33 3.33 0 0 1-3.33 3.33 3.33 3.33 0 0 1-3.33-3.33 3.33 3.33 0 0 1 3.33-3.33 3.33 3.33 0 0 1 3.33 3.33zm18-6a3.33 3.33 0 0 1-3.33 3.33 3.33 3.33 0 0 1-3.33-3.33 3.33 3.33 0 0 1 3.33-3.33 3.33 3.33 0 0 1 3.33 3.33zm12-15a3.33 3.33 0 0 1-3.33 3.33 3.33 3.33 0 0 1-3.33-3.33 3.33 3.33 0 0 1 3.33-3.33 3.33 3.33 0 0 1 3.33 3.33zm3-20a3.33 3.33 0 0 1-3.33 3.33 3.33 3.33 0 0 1-3.33-3.33 3.33 3.33 0 0 1 3.33-3.33 3.33 3.33 0 0 1 3.33 3.33z"
        transform="translate(-68.18 -192.049)"/></g></g></svg>
