<?xml version="1.0" encoding="UTF-8" standalone="no"?>
<svg
  xmlns:rdf="http://www.w3.org/1999/02/22-rdf-syntax-ns#"
  xmlns:cc="http://creativecommons.org/ns#"
  xmlns:dc="http://purl.org/dc/elements/1.1/"
  viewBox="0 0 144 80"
  version="1.1"
  id="svg68"
  xmlns="http://www.w3.org/2000/svg">
  <metadata
    id="metadata72">
    <rdf:RDF>
      <cc:Work
        rdf:about="">
        <dc:format>image/svg+xml</dc:format>
        <dc:type
          rdf:resource="http://purl.org/dc/dcmitype/StillImage"/>
        <dc:title>Data Set 61</dc:title>
      </cc:Work>
    </rdf:RDF>
  </metadata>
  <defs
    id="defs4">
    <style
      id="style2">
      .cls-1, .cls-2 {
      fill: #fff;
      }

      .cls-2 {
      font-size: 10px;
      font-family: WorkSans-Bold, Work Sans;
      font-weight: 700;
      }

      .cls-3 {
      letter-spacing: -0.02em;
      }
    </style>
    <clipPath
      clipPathUnits="userSpaceOnUse"
      id="clipPath875">
      <path
        d="M 0,80 H 144 V 0 H 0 Z"
        id="path873"/>
    </clipPath>
    <style
      id="style1018">
      .cls-1, .cls-2 {
      fill: #000;
      }

      .cls-2 {
      font-size: 10px;
      font-family: WorkSans-Bold, Work Sans;
      font-weight: 700;
      }

      .cls-3 {
      letter-spacing: -0.02em;
      }
    </style>
  </defs>
  <title
    id="title6">Data Set 61
  </title>
  <g
    aria-label="Brno United"
    id="text863"
    style="font-weight:bold;font-size:9.00004px;font-family:'Work Sans';-inkscape-font-specification:WorkSans-Bold;fill:#000000">
    <path
      d="m 82.532346,71.470001 v -5.940026 h 2.889013 q 1.098005,0.009 1.620007,0.423002 0.522003,0.405001 0.522003,1.179005 0,0.504002 -0.297002,0.873004 -0.297001,0.360001 -0.909004,0.459002 v 0.009 q 0.684003,0.09 1.017005,0.477002 0.342001,0.378002 0.342001,0.918004 0,0.765003 -0.540002,1.188005 -0.540002,0.414002 -1.620007,0.414002 z m 1.494007,-1.089005 h 1.269006 q 0.423001,0 0.630002,-0.171 0.207001,-0.171001 0.207001,-0.495003 0,-0.315001 -0.207001,-0.477002 -0.207001,-0.171 -0.630002,-0.171 h -1.269006 z m 0,-2.42101 h 1.125005 q 0.828004,0 0.828004,-0.648003 0,-0.648003 -0.828004,-0.648003 h -1.125005 z"
      id="path1341"/>
    <path
      d="m 88.761283,71.470001 v -4.50002 h 1.350006 l 0.063,0.972005 q 0.171001,-0.504003 0.504002,-0.783004 0.342002,-0.279001 0.864004,-0.279001 0.171001,0 0.288001,0.027 0.126001,0.027 0.198001,0.072 l -0.153,1.260006 q -0.09,-0.036 -0.234001,-0.054 -0.135001,-0.027 -0.333002,-0.027 -0.270001,0 -0.504002,0.117001 -0.234001,0.117001 -0.378002,0.351002 -0.135,0.225001 -0.135,0.576002 v 2.26801 z"
      id="path1338"/>
    <path
      d="m 92.774398,71.470001 v -4.50002 h 1.368006 l 0.081,1.548007 -0.171001,-0.171001 q 0.09,-0.486002 0.315002,-0.810003 0.234001,-0.324002 0.576002,-0.486002 0.351002,-0.171001 0.783004,-0.171001 0.468002,0 0.810003,0.180001 0.351002,0.18 0.549003,0.531002 0.198001,0.351002 0.198001,0.882004 v 2.997013 H 95.753411 V 68.87799 q 0,-0.468002 -0.180001,-0.648003 -0.180001,-0.180001 -0.459002,-0.180001 -0.216001,0 -0.405002,0.108 -0.189001,0.099 -0.297001,0.324002 -0.108001,0.225001 -0.108001,0.603003 v 2.38501 z"
      id="path1335"/>
    <path
      d="m 100.61344,66.879981 q 0.711,0 1.242,0.279001 0.54,0.270001 0.83701,0.801004 0.306,0.522002 0.306,1.260005 0,0.738003 -0.306,1.269006 -0.29701,0.522002 -0.83701,0.801003 -0.531,0.270002 -1.242,0.270002 -0.693007,0 -1.233009,-0.270002 -0.540003,-0.279001 -0.846004,-0.801003 -0.297001,-0.531003 -0.297001,-1.269006 0,-0.738003 0.297001,-1.260005 0.306001,-0.531003 0.846004,-0.801004 0.540002,-0.279001 1.233009,-0.279001 z m 0,1.089005 q -0.261,0 -0.45001,0.126 -0.188997,0.126001 -0.287997,0.405002 -0.099,0.279001 -0.099,0.720003 0,0.441002 0.099,0.720003 0.099,0.270002 0.287997,0.405002 0.18901,0.126001 0.45001,0.126001 0.27,0 0.459,-0.126001 0.189,-0.135 0.288,-0.405002 0.099,-0.279001 0.099,-0.720003 0,-0.441002 -0.099,-0.720003 -0.099,-0.279001 -0.288,-0.405002 -0.189,-0.126 -0.459,-0.126 z"
      id="path1332"/>
    <path
      d="m 111.76448,65.529975 v 3.519015 q 0,1.260006 -0.67501,1.890009 -0.666,0.621003 -1.98,0.621003 -1.30501,0 -1.98001,-0.621003 -0.67501,-0.630003 -0.67501,-1.890009 v -3.519015 h 1.55701 v 3.546016 q 0,0.639002 0.27,0.954004 0.279,0.315001 0.82801,0.315001 0.558,0 0.828,-0.315001 0.279,-0.315002 0.279,-0.954004 v -3.546016 z"
      id="path1329"/>
    <path
      d="m 113.02449,71.470001 v -4.50002 h 1.36801 l 0.081,1.548007 -0.17101,-0.171001 q 0.09,-0.486002 0.31501,-0.810003 0.234,-0.324002 0.576,-0.486002 0.351,-0.171001 0.783,-0.171001 0.468,0 0.81001,0.180001 0.351,0.18 0.549,0.531002 0.198,0.351002 0.198,0.882004 v 2.997013 H 116.0035 V 68.87799 q 0,-0.468002 -0.18,-0.648003 -0.18,-0.180001 -0.459,-0.180001 -0.216,0 -0.405,0.108 -0.189,0.099 -0.297,0.324002 -0.108,0.225001 -0.108,0.603003 v 2.38501 z"
      id="path1326"/>
    <path
      d="m 119.48653,66.447979 q -0.468,0 -0.684,-0.171001 -0.207,-0.180001 -0.207,-0.558002 0,-0.387002 0.207,-0.558003 0.216,-0.180001 0.684,-0.180001 0.459,0 0.675,0.180001 0.216,0.171001 0.216,0.558003 0,0.378001 -0.216,0.558002 -0.216,0.171001 -0.675,0.171001 z m 0.765,0.522002 v 4.50002 h -1.53 v -4.50002 z"
      id="path1323"/>
    <path
      d="m 123.33855,65.538975 v 4.329019 q 0,0.324002 0.153,0.468002 0.162,0.135001 0.441,0.135001 0.216,0 0.369,-0.045 0.162,-0.054 0.28801,-0.153001 l 0.162,0.945004 q -0.22501,0.162001 -0.56701,0.252001 -0.342,0.09 -0.702,0.09 -0.513,0 -0.891,-0.144001 -0.36901,-0.144001 -0.57601,-0.459002 -0.198,-0.315001 -0.207,-0.837004 v -4.158018 z m 1.34101,1.431006 v 1.089005 h -3.64502 v -1.089005 z"
      id="path1320"/>
    <path
      d="m 127.73145,71.560002 q -0.747,0 -1.296,-0.279002 -0.54,-0.279001 -0.837,-0.801003 -0.29701,-0.522003 -0.29701,-1.260006 0,-0.738003 0.29701,-1.260005 0.297,-0.522003 0.828,-0.801004 0.54,-0.279001 1.233,-0.279001 0.71101,0 1.20601,0.279001 0.504,0.270001 0.765,0.756003 0.261,0.477003 0.261,1.098005 0,0.162001 -0.009,0.324002 -0.009,0.162 -0.027,0.270001 h -3.56401 v -0.819004 h 2.88901 l -0.729,0.279002 q 0,-0.540003 -0.198,-0.828004 -0.189,-0.288001 -0.59401,-0.288001 -0.288,0 -0.495,0.135 -0.198,0.135001 -0.306,0.423002 -0.099,0.288001 -0.099,0.738003 0,0.441002 0.117,0.720004 0.117,0.270001 0.333,0.396001 0.216,0.117001 0.522,0.117001 0.34201,0 0.54001,-0.135001 0.207,-0.135 0.306,-0.378001 l 1.224,0.405001 q -0.126,0.387002 -0.441,0.657003 -0.306,0.261001 -0.738,0.396002 -0.423,0.135001 -0.89101,0.135001 z"
      id="path1317"/>
    <path
      d="m 132.55999,71.560002 q -0.558,0 -0.981,-0.270002 -0.41401,-0.279001 -0.64801,-0.801003 -0.225,-0.522002 -0.225,-1.251006 0,-0.756003 0.234,-1.278005 0.243,-0.522003 0.66601,-0.801004 0.432,-0.279001 0.99,-0.279001 0.612,0 0.981,0.378001 0.37801,0.369002 0.48601,0.945005 l -0.144,0.189001 v -3.330015 h 1.53 v 6.408028 h -1.368 l -0.099,-1.530007 0.18,0.135001 q -0.054,0.450002 -0.279,0.783003 -0.216,0.333002 -0.55801,0.522003 -0.333,0.180001 -0.765,0.180001 z m 0.531,-1.125005 q 0.261,0 0.441,-0.135001 0.18901,-0.144001 0.28801,-0.423002 0.099,-0.279001 0.099,-0.684003 0,-0.378002 -0.099,-0.639003 -0.09,-0.270001 -0.27901,-0.405002 -0.18,-0.144 -0.441,-0.144 -0.396,0 -0.63,0.297001 -0.225,0.288001 -0.225,0.918004 0,0.630003 0.225,0.927004 0.225,0.288002 0.621,0.288002 z"
      id="path1314"/>
  </g>
  <g
    id="g865"
    transform="matrix(1.0000047,0,0,-1.0000047,12.541021,60.195046)">
    <path
      d="m 0,0 v -0.71 h -4.541 v 6.242 h 4.398 V 4.823 H -3.781 V 2.809 H -0.95 V 2.099 H -3.781 V 0 Z"
      style="fill:#000000;fill-opacity:1;fill-rule:nonzero;stroke:none"
      id="path1344"/>
  </g>
  <g
    id="g1122">
    <g
      id="logo">
      <path
        id="path1419"
        class="cls-1"
        d="m 8,54.66 v 6.25 h 4.54 V 60.2 H 8.76 v -2.1 h 2.83 V 57.39 H 8.76 v -2.02 h 3.64 v -0.71 z"/>
      <path
        class="cls-1"
        d="M 14.69,57 14.58,56.23 H 14 v 4.67 h 0.76 v -2.55 a 1.84,1.84 0 0 1 0.19,-0.85 1.23,1.23 0 0 1 0.47,-0.53 1.16,1.16 0 0 1 0.6,-0.18 1.31,1.31 0 0 1 0.6,0.12 l 0.15,-0.73 A 1.07,1.07 0 0 0 16.25,56.08 1.51,1.51 0 0 0 14.69,57 Z"
        id="path1416"/>
      <path
        class="cls-1"
        d="m 21.62,60.27 a 0.37,0.37 0 0 1 -0.08,-0.25 v -2.33 a 1.42,1.42 0 0 0 -0.52,-1.2 2.11,2.11 0 0 0 -1.35,-0.41 2.34,2.34 0 0 0 -1.21,0.31 1.55,1.55 0 0 0 -0.71,0.85 l 0.56,0.4 a 1.44,1.44 0 0 1 0.53,-0.67 1.52,1.52 0 0 1 0.83,-0.23 1.11,1.11 0 0 1 0.81,0.29 1,1 0 0 1 0.3,0.75 v 0.27 l -1.27,0.21 a 2.85,2.85 0 0 0 -1.37,0.54 1.17,1.17 0 0 0 -0.48,0.93 1.06,1.06 0 0 0 0.46,0.94 1.92,1.92 0 0 0 1.16,0.33 2.28,2.28 0 0 0 0.89,-0.18 1.52,1.52 0 0 0 0.64,-0.52 0.74,0.74 0 0 0 0.27,0.54 0.91,0.91 0 0 0 0.58,0.16 1.56,1.56 0 0 0 0.57,-0.1 l 0.05,-0.59 a 1.65,1.65 0 0 1 -0.38,0 0.38,0.38 0 0 1 -0.28,-0.04 z m -0.84,-1 a 0.86,0.86 0 0 1 -0.43,0.73 1.87,1.87 0 0 1 -1,0.29 1,1 0 0 1 -0.63,-0.16 0.51,0.51 0 0 1 -0.23,-0.45 0.62,0.62 0 0 1 0.31,-0.54 2.66,2.66 0 0 1 0.95,-0.33 l 1.07,-0.2 z"
        id="path1413"/>
      <path
        class="cls-1"
        d="m 25.48,58.21 a 3.28,3.28 0 0 1 -1,-0.29 0.57,0.57 0 0 1 -0.28,-0.49 0.59,0.59 0 0 1 0.33,-0.48 1.59,1.59 0 0 1 1.56,0 1.15,1.15 0 0 1 0.46,0.65 l 0.65,-0.37 a 1.62,1.62 0 0 0 -0.66,-0.86 2.32,2.32 0 0 0 -1.22,-0.28 2.5,2.5 0 0 0 -1,0.19 1.6,1.6 0 0 0 -0.66,0.52 1.23,1.23 0 0 0 -0.23,0.71 1.13,1.13 0 0 0 0.19,0.67 1.32,1.32 0 0 0 0.57,0.44 4.74,4.74 0 0 0 1.09,0.3 3.13,3.13 0 0 1 1,0.29 0.49,0.49 0 0 1 0.27,0.44 0.59,0.59 0 0 1 -0.29,0.5 1.56,1.56 0 0 1 -0.86,0.2 2,2 0 0 1 -0.94,-0.21 1.19,1.19 0 0 1 -0.56,-0.63 l -0.62,0.43 a 1.7,1.7 0 0 0 0.81,0.8 2.79,2.79 0 0 0 1.21,0.26 2.85,2.85 0 0 0 1.05,-0.18 1.59,1.59 0 0 0 0.69,-0.5 1.16,1.16 0 0 0 0.24,-0.72 1.08,1.08 0 0 0 -0.41,-0.91 3.2,3.2 0 0 0 -1.39,-0.48 z"
        id="path1410"/>
      <path
        class="cls-1"
        d="m 35.17,56.27 a 2.17,2.17 0 0 0 -0.88,-0.19 2.11,2.11 0 0 0 -1,0.24 1.44,1.44 0 0 0 -0.69,0.69 1.54,1.54 0 0 0 -0.67,-0.69 2,2 0 0 0 -1,-0.24 1.86,1.86 0 0 0 -0.87,0.21 1.61,1.61 0 0 0 -0.65,0.62 L 29.36,56.18 H 28.7 v 4.72 h 0.76 v -2.52 a 1.84,1.84 0 0 1 0.2,-0.92 1.4,1.4 0 0 1 0.54,-0.54 1.31,1.31 0 0 1 0.66,-0.18 1.09,1.09 0 0 1 0.81,0.3 1.19,1.19 0 0 1 0.31,0.91 v 2.95 h 0.76 v -2.59 a 1.71,1.71 0 0 1 0.2,-0.84 1.33,1.33 0 0 1 0.51,-0.54 1.29,1.29 0 0 1 0.7,-0.19 1.13,1.13 0 0 1 0.85,0.26 1.19,1.19 0 0 1 0.31,0.91 v 2.99 h 0.76 v -3 a 1.83,1.83 0 0 0 -0.26,-1 1.51,1.51 0 0 0 -0.64,-0.63 z"
        id="path1407"/>
      <path
        class="cls-1"
        d="m 41.22,58.75 a 1.56,1.56 0 0 1 -0.43,1.19 1.59,1.59 0 0 1 -1.09,0.4 1.14,1.14 0 0 1 -0.84,-0.29 1.37,1.37 0 0 1 -0.28,-1 v -2.87 h -0.76 v 3.09 a 1.62,1.62 0 0 0 0.49,1.3 2.12,2.12 0 0 0 2.95,-0.38 l 0.05,0.71 H 42 v -4.72 h -0.76 z"
        id="path1404"/>
      <path
        class="cls-1"
        d="m 45.61,58.21 a 3.19,3.19 0 0 1 -1,-0.29 0.55,0.55 0 0 1 -0.28,-0.49 0.59,0.59 0 0 1 0.32,-0.48 1.43,1.43 0 0 1 0.79,-0.21 1.46,1.46 0 0 1 0.78,0.2 1.2,1.2 0 0 1 0.46,0.65 l 0.64,-0.37 a 1.53,1.53 0 0 0 -0.66,-0.86 2.27,2.27 0 0 0 -1.22,-0.28 2.57,2.57 0 0 0 -1,0.19 1.63,1.63 0 0 0 -0.65,0.52 1.23,1.23 0 0 0 -0.23,0.71 1.2,1.2 0 0 0 0.18,0.67 1.29,1.29 0 0 0 0.58,0.44 4.79,4.79 0 0 0 1.08,0.3 3,3 0 0 1 1,0.29 0.48,0.48 0 0 1 0.28,0.44 0.58,0.58 0 0 1 -0.3,0.5 1.52,1.52 0 0 1 -0.85,0.2 A 2,2 0 0 1 44.59,60.13 1.12,1.12 0 0 1 44,59.5 l -0.62,0.43 a 1.7,1.7 0 0 0 0.81,0.8 2.74,2.74 0 0 0 1.23,0.27 2.82,2.82 0 0 0 1,-0.18 1.68,1.68 0 0 0 0.7,-0.5 1.16,1.16 0 0 0 0.24,-0.72 1.11,1.11 0 0 0 -0.41,-0.91 3.25,3.25 0 0 0 -1.34,-0.48 z"
        id="path1401"/>
      <path
        class="cls-1"
        d="m 56.25,57.44 a 5,5 0 0 1 -1,-0.26 1.26,1.26 0 0 1 -0.54,-0.34 0.81,0.81 0 0 1 -0.16,-0.5 0.89,0.89 0 0 1 0.42,-0.76 2.32,2.32 0 0 1 2.21,0 2.06,2.06 0 0 1 0.68,0.88 l 0.66,-0.53 a 2.58,2.58 0 0 0 -2.43,-1.32 2.79,2.79 0 0 0 -1.23,0.25 1.92,1.92 0 0 0 -0.82,0.68 1.61,1.61 0 0 0 -0.28,0.92 1.35,1.35 0 0 0 0.52,1.14 4.11,4.11 0 0 0 1.77,0.62 3.68,3.68 0 0 1 1.35,0.42 0.73,0.73 0 0 1 0.38,0.66 0.84,0.84 0 0 1 -0.43,0.76 2.24,2.24 0 0 1 -1.18,0.27 A 2.3,2.3 0 0 1 54.88,60 1.93,1.93 0 0 1 54.12,59.14 l -0.65,0.53 a 2.54,2.54 0 0 0 1,1 3.75,3.75 0 0 0 2.89,0.15 1.92,1.92 0 0 0 0.85,-0.63 1.52,1.52 0 0 0 0.3,-0.93 A 1.37,1.37 0 0 0 58,58.07 3.87,3.87 0 0 0 56.25,57.44 Z"
        id="path1398"/>
      <path
        class="cls-1"
        d="m 62,60.29 a 0.77,0.77 0 0 1 -0.51,-0.17 0.67,0.67 0 0 1 -0.2,-0.52 v -2.77 h 1.76 v -0.65 h -1.72 v -1.35 l -0.76,0.21 v 1.14 h -1 v 0.65 h 1 v 2.9 a 1.22,1.22 0 0 0 0.38,1 1.44,1.44 0 0 0 0.94,0.31 1.76,1.76 0 0 0 1.23,-0.43 L 62.85,59.98 A 1.11,1.11 0 0 1 62,60.29 Z"
        id="path1395"/>
      <path
        class="cls-1"
        d="m 67.72,58.75 a 1.52,1.52 0 0 1 -0.43,1.19 1.57,1.57 0 0 1 -1.09,0.4 1.12,1.12 0 0 1 -0.83,-0.29 1.37,1.37 0 0 1 -0.29,-1 v -2.87 h -0.76 v 3.09 a 1.62,1.62 0 0 0 0.49,1.3 1.84,1.84 0 0 0 1.26,0.43 1.8,1.8 0 0 0 1.7,-0.81 v 0.71 h 0.66 v -4.72 h -0.76 z"
        id="path1392"/>
      <path
        class="cls-1"
        d="m 73.77,56.91 a 1.61,1.61 0 0 0 -0.64,-0.6 1.91,1.91 0 0 0 -0.93,-0.23 2,2 0 0 0 -1.59,0.66 3.08,3.08 0 0 0 0,3.6 2,2 0 0 0 1.59,0.66 1.91,1.91 0 0 0 1,-0.25 1.59,1.59 0 0 0 0.64,-0.67 l 0.05,0.82 h 0.66 V 54 h -0.76 z m 0,1.69 a 1.85,1.85 0 0 1 -0.4,1.26 1.35,1.35 0 0 1 -1.09,0.48 1.33,1.33 0 0 1 -1.09,-0.49 2.35,2.35 0 0 1 0,-2.62 1.33,1.33 0 0 1 1.09,-0.49 1.35,1.35 0 0 1 1.09,0.48 1.85,1.85 0 0 1 0.4,1.26 z"
        id="path1389"/>
      <path
        class="cls-1"
        d="m 79.46,56.37 a 2.21,2.21 0 0 0 -1.15,-0.29 2.12,2.12 0 0 0 -1.65,0.65 2.63,2.63 0 0 0 -0.59,1.81 2.55,2.55 0 0 0 0.62,1.81 2.2,2.2 0 0 0 1.68,0.65 2.45,2.45 0 0 0 1.22,-0.27 2,2 0 0 0 0.76,-0.76 l -0.64,-0.33 a 1,1 0 0 1 -0.47,0.52 1.87,1.87 0 0 1 -0.87,0.18 1.51,1.51 0 0 1 -1.07,-0.4 1.76,1.76 0 0 1 -0.48,-1.12 h 3.58 a 3.08,3.08 0 0 0 0,-0.53 2.56,2.56 0 0 0 -0.24,-1.12 1.9,1.9 0 0 0 -0.7,-0.8 z m -2.63,1.78 a 1.74,1.74 0 0 1 0.47,-1 1.44,1.44 0 0 1 1,-0.37 1.27,1.27 0 0 1 1,0.38 1.72,1.72 0 0 1 0.44,1 z"
        id="path1386"/>
      <path
        class="cls-1"
        d="m 84.28,56.08 a 2.2,2.2 0 0 0 -0.94,0.2 1.54,1.54 0 0 0 -0.66,0.63 V 56.18 H 82 v 4.72 h 0.76 v -2.51 a 1.9,1.9 0 0 1 0.21,-0.94 1.35,1.35 0 0 1 0.55,-0.54 1.58,1.58 0 0 1 0.71,-0.17 1.11,1.11 0 0 1 0.85,0.33 1.47,1.47 0 0 1 0.32,1.07 v 2.76 h 0.76 v -3 a 1.66,1.66 0 0 0 -0.52,-1.33 1.93,1.93 0 0 0 -1.36,-0.49 z"
        id="path1383"/>
      <path
        class="cls-1"
        d="M 89.72,60.29 A 0.79,0.79 0 0 1 89.2,60.12 0.67,0.67 0 0 1 89,59.6 v -2.77 h 1.76 V 56.18 H 89 v -1.35 l -0.76,0.21 v 1.14 h -1 v 0.65 h 1 v 2.9 a 1.21,1.21 0 0 0 0.37,1 1.47,1.47 0 0 0 0.95,0.31 1.72,1.72 0 0 0 1.22,-0.43 l -0.26,-0.63 a 1.13,1.13 0 0 1 -0.8,0.31 z"
        id="path1380"/>
      <path
        id="path1377"
        class="cls-1"
        d="m 98.2,56.72 2.63,4.19 h 0.94 v -6.25 h -0.73 v 4.41 l 0.04,1 h -0.01 l -0.67,-1.25 -2.62,-4.16 h -0.94 v 6.25 h 0.73 V 56.5 l -0.04,-1.01 h 0.01 z"/>
      <path
        class="cls-1"
        d="m 106.85,56.37 a 2.23,2.23 0 0 0 -1.15,-0.29 2.12,2.12 0 0 0 -1.66,0.65 2.63,2.63 0 0 0 -0.58,1.81 2.54,2.54 0 0 0 0.61,1.81 2.22,2.22 0 0 0 1.69,0.65 2.41,2.41 0 0 0 1.21,-0.27 1.92,1.92 0 0 0 0.76,-0.76 l -0.63,-0.33 a 1,1 0 0 1 -0.47,0.52 1.87,1.87 0 0 1 -0.87,0.18 1.49,1.49 0 0 1 -1.07,-0.4 1.66,1.66 0 0 1 -0.48,-1.12 h 3.58 a 3.08,3.08 0 0 0 0,-0.53 2.43,2.43 0 0 0 -0.25,-1.12 1.88,1.88 0 0 0 -0.69,-0.8 z m -2.63,1.78 a 1.68,1.68 0 0 1 0.47,-1 1.43,1.43 0 0 1 1,-0.37 1.27,1.27 0 0 1 1,0.38 1.72,1.72 0 0 1 0.44,1 z"
        id="path1374"/>
      <path
        class="cls-1"
        d="m 111.19,60.29 a 0.79,0.79 0 0 1 -0.52,-0.17 0.67,0.67 0 0 1 -0.19,-0.52 v -2.77 h 1.76 v -0.65 h -1.76 v -1.35 l -0.76,0.21 v 1.14 h -1 v 0.65 h 1 v 2.9 a 1.21,1.21 0 0 0 0.37,1 1.47,1.47 0 0 0 1,0.31 1.72,1.72 0 0 0 1.22,-0.43 l -0.26,-0.63 a 1.13,1.13 0 0 1 -0.86,0.31 z"
        id="path1371"/>
      <path
        id="path1368"
        class="cls-1"
        d="m 114.06,56.18 h -0.84 l 1.65,4.73 h 0.76 l 1.26,-3.77 1.34,3.77 h 0.76 l 1.65,-4.73 h -0.84 l -1.2,3.85 -1.29,-3.85 h -0.76 l -1.29,3.85 z"/>
      <path
        class="cls-1"
        d="m 123.85,56.08 a 2.18,2.18 0 0 0 -1.68,0.65 3,3 0 0 0 0,3.62 2.18,2.18 0 0 0 1.68,0.65 2.22,2.22 0 0 0 1.69,-0.65 3,3 0 0 0 0,-3.62 2.22,2.22 0 0 0 -1.69,-0.65 z m 1.15,3.78 a 1.55,1.55 0 0 1 -2.26,0 2.33,2.33 0 0 1 0,-2.64 1.55,1.55 0 0 1 2.26,0 2.33,2.33 0 0 1 0,2.64 z"
        id="path1365"/>
      <path
        class="cls-1"
        d="m 128.42,57 -0.11,-0.77 h -0.62 v 4.67 h 0.76 v -2.55 a 1.84,1.84 0 0 1 0.19,-0.85 1.23,1.23 0 0 1 0.47,-0.53 1.13,1.13 0 0 1 0.6,-0.18 1.31,1.31 0 0 1 0.6,0.12 l 0.15,-0.73 a 1.07,1.07 0 0 0 -0.52,-0.1 1.51,1.51 0 0 0 -1.52,0.92 z"
        id="path1362"/>
      <path
        id="path1359"
        class="cls-1"
        d="m 132.48,59.57 1,-1 1.6,2.34 H 136 l -1.97,-2.89 1.86,-1.84 h -0.95 l -2.46,2.45 V 54 h -0.76 v 6.91 h 0.76 z"/>
      <path
        class="cls-1"
        d="M 77,43 V 40 A 1,1 0 0 0 76,39 H 61 v -8 h 11 a 1,1 0 0 0 1,-1 V 27 A 1,1 0 0 0 72,26 H 61 v -9 h 14 a 1,1 0 0 0 1,-1 V 13 A 1,1 0 0 0 75,12 H 57 a 1,1 0 0 0 -1,1 v 30 a 1,1 0 0 0 1,1 h 19 a 1,1 0 0 0 1,-1 z"
        id="path1356"/>
      <path
        class="cls-1"
        d="m 135,12 h -3 a 1,1 0 0 0 -1,1 V 36 L 118.28,12.52 A 1,1 0 0 0 117.4,12 H 113 a 1,1 0 0 0 -1,1 v 30 a 1,1 0 0 0 1,1 h 3 a 1,1 0 0 0 1,-1 V 21 l 12.71,22.47 a 1,1 0 0 0 0.87,0.51 H 135 a 1,1 0 0 0 1,-1 V 13 a 1,1 0 0 0 -1,-1 z"
        id="path1353"/>
      <path
        class="cls-1"
        d="M 47,25 H 35.24 l 8.07,-8.29 a 1,1 0 0 0 0,-1.41 l -2.6,-2.6 a 1,1 0 0 0 -1.41,0 L 31,20.76 V 9 A 1,1 0 0 0 30,8 h -4 a 1,1 0 0 0 -1,1 v 11.76 l -8.29,-8.07 a 1,1 0 0 0 -1.41,0 l -2.6,2.6 a 1,1 0 0 0 0,1.41 L 20.76,25 H 9 a 1,1 0 0 0 -1,1 v 4 a 1,1 0 0 0 1,1 h 11.76 l -8.29,8.29 a 1,1 0 0 0 0,1.44 l 2.81,2.62 a 1,1 0 0 0 1.38,0 L 25,35.24 V 47 a 1,1 0 0 0 1,1 h 4 a 1,1 0 0 0 1,-1 V 35.24 l 8.29,8.07 a 1,1 0 0 0 1.41,0 l 2.6,-2.6 a 1,1 0 0 0 0,-1.41 L 35.24,31 H 47 a 1,1 0 0 0 1,-1 V 26 A 1,1 0 0 0 47,25 Z M 29.66,32 H 26.34 L 24,29.66 V 26.34 L 26.34,24 h 3.32 L 32,26.34 v 3.32 z"
        id="path1350"/>
      <path
        class="cls-1"
        d="m 104.56,40.23 a 8.31,8.31 0 0 0 1.52,-4.93 7.59,7.59 0 0 0 -2.63,-6.12 16.34,16.34 0 0 0 -7,-2.9 c -0.51,-0.12 -1,-0.22 -1.59,-0.32 A 25.08,25.08 0 0 1 90,24.7 5.74,5.74 0 0 1 87.65,23.14 3.4,3.4 0 0 1 87,21 a 4,4 0 0 1 1.76,-3.39 8.36,8.36 0 0 1 5.11,-1.38 8.39,8.39 0 0 1 4.84,1.21 9.11,9.11 0 0 1 2.8,2.66 1,1 0 0 0 1.44,0.27 l 2.36,-1.77 a 1,1 0 0 0 0.21,-1.39 C 102.99,13.54 98.78,11.7 93.83,11.7 a 13.81,13.81 0 0 0 -6.17,1.3 9.92,9.92 0 0 0 -4.08,3.54 8.86,8.86 0 0 0 -1.44,4.88 7.38,7.38 0 0 0 2.67,6 17.44,17.44 0 0 0 7.19,2.89 c 0.49,0.11 1,0.21 1.54,0.31 a 17.84,17.84 0 0 1 6.23,2 3.29,3.29 0 0 1 1.59,2.88 3.75,3.75 0 0 1 -1.85,3.37 9.79,9.79 0 0 1 -5.34,1.26 10.33,10.33 0 0 1 -5.67,-1.45 6.77,6.77 0 0 1 -1.88,-1.81 1,1 0 0 0 -1.42,-0.23 l -2.33,1.75 a 1,1 0 0 0 -0.16,1.45 13.78,13.78 0 0 0 3.4,2.92 17.64,17.64 0 0 0 14.23,0.75 9.63,9.63 0 0 0 4.22,-3.28 z"
        id="path1347"/>
    </g>
  </g>
</svg>
