<?xml version="1.0" encoding="UTF-8" standalone="no"?>
<!-- Created with Inkscape (http://www.inkscape.org/) -->

<svg
   viewBox="0 0 82.385718 70.540856"
   version="1.1"
   id="main"
   xmlns="http://www.w3.org/2000/svg"
   xmlns:svg="http://www.w3.org/2000/svg">
  <defs
     id="defs13119" />
  <g
     id="layer1"
     transform="translate(-201.3951,-134.97519)">
    <g
       id="lc"
       transform="matrix(0.35277777,0,0,-0.35277777,173.3866,303.27694)">
      <path
         d="m 282.8133,318.7152 c -0.367,1.307 -1.278,2.433 -2.799,2.384 -1.459,-0.047 -2.653,-0.989 -2.633,-2.653 0.018,-1.464 1.006,-2.271 2.421,-2.333 1.615,-0.07 2.532,0.886 3.011,2.602 m -138.85,-1.281 c 6.928,2.493 13.942,3.175 21.118,1.113 11.094,-3.188 16.95,-14.531 12.354,-23.989 -2.53,-5.206 -7.055,-7.773 -12.674,-7.186 -5.041,0.527 -8.855,3.764 -9.916,8.416 -0.818,3.591 0.974,7.398 3.948,8.385 4.188,1.39 6.916,-0.995 6.39,-5.591 -0.254,0.029 -0.707,0.008 -0.731,0.102 -0.635,2.392 -1.275,4.918 -4.601,4.006 -3.181,-0.873 -3.943,-3.42 -3.445,-6.337 0.701,-4.106 3.481,-6.26 7.357,-7.169 4.482,-1.051 8.875,0.712 11.387,4.508 4.849,7.331 1.846,17.308 -6.79,21.735 -9.333,4.784 -18.696,3.388 -27.563,-1.156 -14.89,-7.63 -23.583,-20.751 -30.184,-35.532 -0.285,-0.637 -0.31,-1.545 -1.094,-1.615 -1.204,-0.106 -1.586,1.071 -2.035,1.866 -4.96,8.777 -4.914,17.977 -2.243,27.397 1.237,4.365 3.629,8.211 5.428,12.321 0.613,0.286 0.814,0.709 0.442,1.323 -0.333,-0.207 -0.666,-0.413 -0.998,-0.619 -11.207,-8.093 -16.917,-19.464 -19.324,-32.954 -5.68,10.451 -6.464,20.944 -1.771,31.613 4.592,10.439 13.459,16.624 22.902,22.854 -4.044,0.473 -8.093,0.903 -12.13,1.429 -6.317,0.822 -12.41,2.402 -18.144,5.281 -3.115,1.564 -2.854,2.899 -0.107,4.588 7.381,4.536 15.553,6.362 24.032,7.185 2.161,0.209 4.384,0.04 7.121,1.206 -13.122,4.864 -23.363,12.094 -27.113,25.701 -2.889,10.484 -1.28,20.765 2.627,30.938 1.226,-8.318 3.877,-16.001 8.198,-23.079 -0.26,-0.285 -0.519,-0.569 -0.778,-0.855 -4.156,4.825 -5.637,10.895 -7.66,16.958 -5.34,-14.635 -1.396,-31.828 11.096,-40.867 10.752,-7.78 23.042,-10.019 35.847,-10.763 2.099,-0.122 4.193,-0.358 6.288,-0.54 l -0.097,-1.152 c -9.305,-0.301 -18.468,1.87 -27.79,1.498 -9.928,-0.395 -19.629,-1.66 -28.622,-6.219 -1.062,-0.539 -2.757,-0.949 -2.654,-2.335 0.096,-1.306 1.753,-1.69 2.881,-2.118 11.639,-4.419 23.732,-5.732 36.07,-4.87 11.058,0.774 21.879,2.745 32.108,7.407 -3.289,-3.593 -7.795,-4.587 -12.119,-5.74 -6.249,-1.665 -12.741,-2.143 -19.082,-3.275 -12.163,-2.171 -21.596,-9.234 -28.741,-19.124 -5.989,-8.291 -6.64,-17.713 -4.484,-27.456 0.256,-1.16 0.371,-2.459 1.882,-3.45 2.798,12.891 9.36,23.2 20.12,30.599 6.04,4.155 12.37,7.981 19.359,10.224 13.129,4.213 25.501,10.419 38.668,14.458 9.449,2.899 19.214,4.258 29.107,4.576 0.673,0.022 1.371,0.147 2.184,-0.91 -6.808,-0.901 -13.284,-1.573 -19.694,-2.643 -18.351,-3.063 -34.779,-10.119 -48.023,-23.631 -0.521,-0.531 -0.9,-2.027 -2.231,-0.992 2.249,4.638 7.138,6.794 10.503,10.81 -18.028,-2.5 -29.796,-12.725 -34.249,-29.499 -2.156,-8.125 -2.176,-15.991 2.778,-24.486 2.169,8.757 4.034,16.278 7.451,23.241 3.574,7.282 7.018,14.707 13.57,19.99 0.946,-1.83 -0.938,-2.349 -1.656,-3.289 -6.798,-8.89 -12.001,-18.566 -14.894,-29.42 -0.226,-0.364 -0.369,-0.724 0.081,-1.037 0.144,0.215 0.289,0.43 0.434,0.645 9.818,14.115 21.267,26.602 35.944,35.832 20.582,12.945 43.048,18.791 67.256,16.637 15.806,-1.406 29.292,-7.714 37.99,-21.877 2.241,-3.648 3.733,-7.617 4.158,-11.864 0.216,-2.155 1.301,-3.247 3.026,-4.14 13.888,-7.186 33.348,2.062 36.441,17.334 1.27,6.272 -2.179,12.887 -8.155,15.642 -5.231,2.412 -11.801,0.676 -15.499,-4.173 -2.093,-2.746 -2.995,-5.759 -1.317,-9.056 0.909,-1.788 1.77,-3.327 4.483,-2.171 2.379,1.015 4.924,0.534 5.642,-2.572 0.551,-2.38 -0.501,-4.212 -2.929,-4.863 -2.879,-0.773 -4.591,0.669 -5.354,3.353 -0.27,0.951 -0.365,1.929 -1.158,2.645 -6.41,5.792 -2.626,16.95 8.293,19.148 10.208,2.055 19.366,-7.382 17.51,-17.636 -2.774,-15.338 -20.466,-25.603 -35.392,-20.223 -3.866,1.393 -5.215,1.864 -5.726,-3.245 -1.15,-11.507 -10.553,-19.678 -20.521,-18.879 -8.794,0.704 -14.148,9.477 -10.427,17.086 1.933,3.953 6.232,5.799 10.694,4.591 4.39,-1.189 6.541,-3.906 6.213,-7.807 -0.162,-1.937 -0.728,-3.482 -3.811,-3.807 2.337,2.764 3.365,5.277 1.069,7.797 -2.31,2.536 -5.316,3.24 -8.5,2.203 -3.067,-0.998 -4.715,-3.331 -5.072,-6.599 -0.433,-3.957 0.624,-7.325 3.941,-9.641 4.148,-2.894 8.758,-3.101 13.264,-1.152 8.301,3.592 13.141,13.477 11.974,24.069 -1.619,14.706 -10.584,23.82 -23.282,29.803 -8.37,3.943 -17.383,4.998 -26.701,4.685 11.321,-3.857 21.975,-8.45 26.29,-20.91 1.458,-4.211 1.474,-8.03 -0.39,-12.158 0.629,12.58 -3.973,21.247 -14.065,26.301 -9.783,4.898 -20.01,8.17 -31.22,4.671 9.637,-1.522 18.747,-4.237 25.978,-11.152 7.42,-7.095 10.441,-15.593 7.619,-25.914 1.779,16.131 -6.143,26.192 -20.204,31.911 -8.792,3.577 -18.016,4.761 -27.376,1.405 9.117,-1.68 18.024,-3.621 24.61,-10.843 l -0.984,-0.709 c -6.233,5.455 -13.524,8.292 -21.724,9.281 -8.852,1.069 -16.211,-2.205 -23.139,-7.125 -0.359,-0.213 -1.123,-0.135 -0.826,-0.812 0.077,-0.174 0.928,-0.008 1.423,0.003 7.4,1.858 14.779,2.2 21.978,-0.768 11.015,-4.542 16.349,-14.652 13.567,-25.445 -3.032,-11.761 -13.033,-18.948 -24.773,-17.805 -9.162,0.893 -14.93,5.311 -16.833,12.892 -0.699,2.788 -0.511,4.439 0.822,7.127 0.953,-0.364 0.498,-1.128 0.448,-1.713 -0.64,-7.581 3.677,-13.895 10.923,-15.942 12.847,-3.629 25.258,3.451 28.08,16.018 2.735,12.178 -5.256,23.204 -18.787,25.063 -9.444,1.298 -18.471,-0.645 -26.618,-5.883 -0.502,-0.319 -1.005,-0.638 -1.508,-0.957 -0.277,-0.323 -1.068,-0.518 -0.625,-1.038 0.343,-0.403 0.929,-0.1 1.233,0.397 0.652,0.17 1.303,0.34 1.953,0.51"
         style="fill:#c9dff8;fill-opacity:1;fill-rule:nonzero;stroke:none"
         id="path82" />
      <path
         d="m 161.8602,400.4076 -0.175,-0.215 0.237,-0.056 z m 30.128,74.191 c -7.815,-4.503 -12.375,-10.219 -14.327,-17.738 -2.912,-11.213 -1.621,-22.054 3.987,-32.271 2.259,-4.116 4.638,-8.164 6.963,-12.244 -8.515,2.762 -14.317,8.775 -20.423,15.596 0.203,-5.1 1.229,-8.977 3.019,-12.708 1.84,-3.832 4.892,-6.585 8.778,-9.538 -1.357,-0.132 -1.92,-0.343 -2.381,-0.208 -5.171,1.519 -9.38,4.792 -14.152,8.375 0.799,-7.737 5.141,-12.965 9.375,-18.896 -4.629,0.058 -6.839,3.83 -11.004,4.493 1.688,-9.086 6.128,-15.665 14.161,-19.482 8.168,-3.879 16.863,-5.388 25.898,-4.542 17.768,1.665 24.629,16.089 14.663,30.766 -3.511,5.171 -8.202,9.239 -12.65,13.537 -13.745,13.281 -24.15,30.207 -11.907,54.86 m -25.019,-74.323 c -2.566,3.933 -4.349,8.179 -5.144,12.822 -0.186,1.085 -0.824,2.398 0.222,3.155 1.262,0.91 1.937,-0.607 2.762,-1.219 1.796,-1.331 3.302,-3.06 5.43,-3.935 0.348,-0.011 0.696,-0.023 1.044,-0.036 -0.102,0.342 -0.202,0.685 -0.304,1.027 -3.136,6.174 -5.081,12.571 -3.994,20.868 5.035,-7.154 9.777,-12.976 16.904,-17.022 0.082,2.154 -1.091,3.268 -1.822,4.49 -6.478,10.824 -8.983,22.383 -6.402,34.839 1.914,9.234 7.314,15.999 15.336,20.734 1.122,0.662 2.38,1.627 4.174,0.684 -1.417,-2.731 -2.993,-5.362 -4.196,-8.154 -6.992,-16.216 -1.723,-29.966 9.007,-42.357 4.599,-5.311 9.858,-10.043 14.646,-15.197 1.898,-2.042 3.575,-4.379 4.937,-6.813 7.307,-13.053 1.442,-26.226 -13.172,-29.475 -12.099,-2.69 -24.571,-1.632 -33.894,5.977 -10.534,8.598 -21.995,17.097 -27.817,30.373 -1.764,4.022 -2.738,8.25 -3.875,12.489 -4.263,-4.485 -4.919,-13.017 -1.71,-20.892 2.824,-6.931 7.955,-12.096 13.776,-17.235 -6.831,-0.263 -20.933,9.741 -27.947,19.261 -6.898,9.365 -10.451,20.018 -12.285,31.426 -5.132,-13.063 -6.663,-26.1 0.467,-38.921 6.884,-12.375 18.492,-18.804 31.891,-23.803 -15.383,-2.364 -40.157,4.998 -49.377,19.958 0.259,0.285 0.518,0.569 0.778,0.855 10.81,-13.739 26.222,-18.871 40.369,-19.396 -13.205,6.733 -23.728,14.816 -27.996,28.593 -4.174,13.472 -1.402,26.176 4.857,38.546 1.66,-21.866 10.192,-39.571 29.348,-51.349 1.226,2.118 -0.468,3.036 -1.276,4.194 -6.532,9.367 -8.386,19.205 -3.033,29.759 0.607,1.196 0.944,2.707 3.118,3.308 1.888,-13.442 6.686,-25.358 18.36,-33.351 0.307,-0.1 0.612,-0.201 0.919,-0.302 0.004,0.348 0.008,0.698 0.012,1.046 -0.396,2.531 -2.741,5.829 -0.994,7.331 1.874,1.611 3.737,-2.347 6.101,-2.87 0.288,-0.337 0.635,-0.562 0.967,-0.13 0.094,0.121 -0.116,0.475 -0.187,0.722"
         style="fill:#c9dff8;fill-opacity:1;fill-rule:nonzero;stroke:none"
         id="path90" />
      <path
         d="m 311.0223,371.514 c -0.229,1.017 -1.026,1.578 -2.313,1.453 -1.332,-0.128 -2.014,-0.955 -1.879,-2.221 0.131,-1.248 1,-2.03 2.274,-1.854 1.221,0.169 1.866,1.06 1.918,2.622 m -34.177,26.049 c -1.223,-0.291 -2.43,-0.979 -2.22,-2.672 0.167,-1.346 1.173,-2.29 2.577,-2.128 1.469,0.171 2.588,1.039 2.499,2.735 -0.084,1.593 -1.244,1.97 -2.856,2.065 m -3.569,-23.903 c -5.513,-21.252 -22.464,-26.133 -41.484,-28.167 9.285,-2.686 18.514,-2.462 27.762,-0.117 12.924,3.278 22.34,10.45 26.134,23.733 1.739,6.091 1.209,12.025 -2.124,17.51 -1.551,2.553 -2.767,5.416 -6.972,4.657 -2.299,-0.416 -3.817,1.692 -3.658,4.183 0.161,2.52 1.79,3.69 4.251,3.747 2.536,0.059 4.59,-1.375 4.085,-3.67 -0.618,-2.814 0.981,-4.155 2.208,-5.919 3.957,-5.691 5.789,-11.838 4.163,-18.773 -0.251,-1.068 -0.301,-2.184 -0.521,-3.877 5.666,3.019 11.135,4.908 17.09,5.219 0.916,0.048 1.724,1.317 2.668,1.875 1.792,1.059 3.557,0.921 4.96,-0.672 1.459,-1.657 1.201,-3.471 -0.269,-4.914 -1.446,-1.422 -3.608,-1.941 -4.915,-0.333 -2.652,3.263 -5.7,2.241 -8.797,1.465 -6.484,-1.626 -11.682,-4.705 -15.339,-10.808 -6.32,-10.546 -17.026,-14.454 -28.434,-16.105 -10.417,-1.507 -20.819,-0.547 -30.803,3.207 -0.616,0.231 -1.157,0.66 -2.865,1.659 4.348,0 7.48,-0.065 10.61,0.012 10.898,0.267 21.254,2.355 30.203,9.122 5.886,4.45 9.677,10.295 12.047,16.966"
         style="fill:#c9dff8;fill-opacity:1;fill-rule:nonzero;stroke:none"
         id="path150" />
      <path
         d="m 247.6609,384.9593 c -0.012,-9.191 -4.837,-15.781 -11.957,-21.024 -7.001,-5.155 -15.243,-7.514 -24.123,-9.894 1.178,-0.686 1.648,-1.198 2.115,-1.196 15.804,0.075 30.398,3.476 40.424,16.928 8.591,11.525 9.268,24.113 3.193,37.099 -0.331,0.707 -1.132,1.3 -0.589,2.566 1.926,-0.757 2.319,-2.588 2.966,-4.121 8.863,-20.983 -2.251,-43.714 -24.925,-50.998 -5.118,-1.643 -10.445,-2.169 -15.724,-3.04 -7.959,-1.312 -11.733,3.202 -14.635,8.167 -1.466,2.508 -2.377,5.275 -2.41,8.449 0.67,-0.243 1.094,-0.276 1.145,-0.432 1.836,-5.522 1.851,-5.595 7.522,-4.018 8.721,2.425 15.812,7.22 20.922,14.786 2.307,3.416 3.49,7.231 3.512,12.243 2.165,-2.192 1.489,-3.845 1.071,-5.302 -3.733,-13.005 -13.404,-19.534 -25.53,-23.487 -1.479,-0.483 -4.758,0.68 -4.109,-2.429 0.556,-2.659 2.826,-3.898 5.922,-3.198 10.745,2.424 20.768,6.114 28.351,14.669 3.675,4.145 5.356,9.107 6.859,14.232"
         style="fill:#c9dff8;fill-opacity:1;fill-rule:nonzero;stroke:none"
         id="path170" />
      <path
         d="m 243.6561,443.1712 c -4.093,4.093 -8.724,7.267 -14.75,7.188 -8.029,-0.105 -14.57,-6.523 -15.967,-15.296 -0.622,-3.912 -0.915,-7.816 -0.283,-11.772 0.224,-1.402 0.591,-2.923 -0.523,-4.273 -1.681,7.817 -2.195,15.605 1.632,23.018 1.521,2.945 0.588,5.257 -1.259,7.308 -1.785,1.981 -4.228,2.89 -6.909,1.97 -2.963,-1.018 -4.356,-3.233 -3.36,-6.263 0.466,-1.418 1.478,-3.372 3.704,-1.779 0.57,0.407 1.069,1.132 1.652,0.27 0.473,-0.697 -0.059,-1.414 -0.648,-1.795 -1.977,-1.28 -3.796,-0.882 -5.232,0.881 -1.793,2.2 -1.927,4.634 -0.513,7.083 1.581,2.739 4.102,3.786 7.137,3.482 2.164,-0.215 3.896,-1.407 5.524,-2.848 1.182,-1.047 1.173,-4.019 3.004,-3.305 2.364,0.921 4.902,2.662 6.188,4.769 1.727,2.828 1.438,6.324 -0.737,9.156 -1.737,2.262 -4.025,3.324 -6.476,1.057 -2.798,-2.588 -1.733,-4.932 1.053,-7.072 -3.241,-0.168 -4.149,1.637 -4.103,4.253 0.053,3.055 2.749,5.497 5.852,5.384 3.907,-0.143 7.474,-3.926 6.778,-8.624 -0.705,-4.755 1.583,-4.318 4.727,-4.283 5.213,0.057 8.187,2.688 8.367,7.996 0.095,2.79 -0.42,5.385 -3.12,6.899 -1.485,0.834 -3.021,0.708 -4.335,-0.411 -2.311,-1.97 -1.791,-4.34 0.276,-7.597 -3.677,2.863 -3.986,6.218 -1.805,8.505 2.111,2.215 6.136,2.072 8.313,-0.297 2.99,-3.252 3.294,-8.751 0.094,-13.311 -1.782,-2.538 -1.143,-3.449 1.215,-4.629 2.141,-1.071 3.983,-2.645 5.287,-4.733 -0.261,-0.31 -0.522,-0.62 -0.783,-0.931"
         style="fill:#c9dff8;fill-opacity:1;fill-rule:nonzero;stroke:none"
         id="path194" />
      <path
         d="m 215.0916,413.0746 c 0,0.747 -0.058,0.927 0.008,1.021 1.591,2.297 3.147,5.791 5.531,5.918 2.786,0.15 2.533,-4.41 4.614,-6.198 0.29,0.208 0.588,0.322 0.732,0.539 1.235,1.857 2.131,4.895 3.731,5.323 2.308,0.617 2.884,-2.851 4.421,-4.364 1.435,-1.411 1.787,-0.203 2.435,0.687 3.214,4.411 3.232,4.415 6.626,0.332 0.435,-0.525 0.673,-1.213 0.925,-1.685 2.629,1.721 2.45,6.022 4.876,5.391 2.489,-0.648 4.179,-3.701 5.719,-7.209 -3.044,1.299 -3.793,3.832 -5.645,5.193 -2.229,-1.252 -1.874,-5.165 -4.249,-5.249 -2.361,-0.084 -2.731,3.617 -4.975,4.736 -0.673,0.158 -0.914,-0.449 -1.182,-0.875 -3.006,-4.784 -3.06,-4.843 -6.89,-0.63 -1.389,1.526 -2.106,1.334 -3.123,-0.293 -1.024,-1.637 -1.55,-3.654 -3.318,-4.78 -0.265,0.145 -0.566,0.217 -0.72,0.408 -1.572,1.941 -1.615,5.506 -4.033,6.066 -2.18,0.505 -2.76,-3.466 -5.483,-4.331"
         style="fill:#c9dff8;fill-opacity:1;fill-rule:nonzero;stroke:none"
         id="path310" />
      <path
         d="m 312.9285,422.1273 c -7.889,8.72 -16.897,11.834 -27.645,10.094 -10.64,-1.725 -18.668,-7.113 -24.316,-17.505 0.731,8.821 12.377,17.112 24.332,19.152 10.574,1.806 25.389,-3.496 27.629,-11.741"
         style="fill:#c9dff8;fill-opacity:1;fill-rule:nonzero;stroke:none"
         id="path338" />
      <path
         d="m 309.5662,404.2787 c -3.174,10.122 -10.43,15.561 -20.361,17.202 -10.45,1.727 -18.002,-3.663 -24.475,-12.077 1.517,8.18 13.655,14.778 23.868,13.69 11.44,-1.216 21.398,-9.936 20.968,-18.815"
         style="fill:#c9dff8;fill-opacity:1;fill-rule:nonzero;stroke:none"
         id="path354" />
      <path
         d="m 299.6707,395.0697 c -0.554,8.093 -4.142,14.292 -12.128,16.261 -8.192,2.018 -14.628,-1.881 -19.587,-9.001 0.152,3.931 3.416,7.329 8.511,9.463 7.056,2.955 13.502,2.06 19.088,-3.259 3.84,-3.657 5.395,-8.137 4.116,-13.464"
         style="fill:#c9dff8;fill-opacity:1;fill-rule:nonzero;stroke:none"
         id="path462" />
      <path
         d="m 195.9236,366.5384 c -14.253,-1.864 -28.261,-0.655 -42.045,3.41 13.927,-2.452 27.945,-3.552 42.045,-3.41"
         style="fill:#c9dff8;fill-opacity:1;fill-rule:nonzero;stroke:none"
         id="path478" />
      <path
         d="m 244.4393,444.1019 c 0.996,-1.001 1.994,-1.017 2.994,-0.006 0.335,-0.229 0.669,-0.459 1.003,-0.689 -0.924,-1.77 0.171,-1.772 1.483,-1.823 2.499,-0.097 5.01,0.843 7.487,-0.111 0.081,-0.031 0.094,-0.239 0.41,-1.132 -2.37,0 -4.513,-0.01 -6.654,0.002 -2.477,0.016 -3.322,-0.848 -2.198,-3.351 1.895,-4.221 2.733,-8.682 2.264,-13.417 -1.558,6.945 -3.034,13.873 -7.572,19.597 0.261,0.31 0.522,0.62 0.783,0.93"
         style="fill:#c9dff8;fill-opacity:1;fill-rule:nonzero;stroke:none"
         id="path526" />
      <path
         d="m 166.367,357.889 c 2.079,0.225 4.153,0.508 6.237,0.663 8.311,0.617 16.625,1.195 24.989,1.197 -10.325,-1.753 -20.694,-2.95 -31.193,-2.824 -0.011,0.321 -0.021,0.643 -0.033,0.964"
         style="fill:#c9dff8;fill-opacity:1;fill-rule:nonzero;stroke:none"
         id="path538" />
      <path
         d="m 230.9617,442.5238 c -1.673,-0.325 -2.908,-1.328 -2.937,-3.256 -0.032,-2.129 1.261,-3.602 3.319,-3.41 5.22,0.488 -1.784,3.939 1.191,5.498 0.899,0.471 -0.711,0.899 -1.573,1.168 m -0.022,1.565 c 3.664,-0.004 5.416,-1.981 5.367,-4.985 -0.045,-2.783 -1.779,-4.684 -4.876,-4.731 -3.059,-0.047 -4.786,1.505 -4.933,4.528 -0.158,3.239 1.635,4.883 4.442,5.188"
         style="fill:#c9dff8;fill-opacity:1;fill-rule:nonzero;stroke:none"
         id="path550" />
      <path
         d="m 199.3533,324.3402 c 6.805,-5.965 10.929,-20.838 5.554,-28.448 3.072,10.578 0.102,19.624 -6.538,27.739 z"
         style="fill:#c9dff8;fill-opacity:1;fill-rule:nonzero;stroke:none"
         id="path566" />
      <path
         d="m 166.367,357.889 c 0.012,-0.321 0.022,-0.643 0.033,-0.964 -8.433,0.01 -16.866,0.02 -25.3,0.03 l 0.097,1.152 c 8.387,-0.527 16.778,-0.405 25.17,-0.218"
         style="fill:#f6f9fb;fill-opacity:1;fill-rule:nonzero;stroke:none"
         id="path666" />
      <path
         d="m 254.8074,450.1937 c -1.636,-1.384 -3.271,-2.768 -4.906,-4.151 1.2,1.805 2.161,3.844 4.906,4.151"
         style="fill:#c9dff8;fill-opacity:1;fill-rule:nonzero;stroke:none"
         id="path694" />
      <path
         d="m 247.4334,444.096 c 0.521,0.724 1.203,1.998 2.003,1.312 0.919,-0.791 -0.509,-1.373 -1,-2.001 -0.334,0.23 -0.668,0.46 -1.003,0.689"
         style="fill:#c9dff8;fill-opacity:1;fill-rule:nonzero;stroke:none"
         id="path710" />
      <path
         d="m 205.0076,410.5179 c 4.962,-4.092 8.276,-9.129 9.133,-15.519 0.675,-5.032 -1.817,-9.939 -6.454,-12.224 -9.774,-4.819 -19.259,-2.252 -28.641,1.273 3.181,0.633 6.011,-0.98 9.039,-1.469 5.315,-0.859 10.558,-1.617 15.817,0.276 7.909,2.846 10.515,8.398 7.701,16.277 -1.509,4.224 -4.608,7.476 -6.595,11.386"
         style="fill:#c9dff8;fill-opacity:1;fill-rule:nonzero;stroke:none"
         id="path858" />
      <path
         d="m 199.157,401.1107 c -1.297,2.896 -2.594,5.794 -4.072,9.098 2.63,-1.626 5.603,-7.314 6.435,-11.845 -3.314,-0.096 -6.351,1.075 -9.413,1.889 -3.119,0.829 -4.504,0.617 -3.414,-3.179 1.662,-5.785 1.408,-6.114 -4.159,-4.114 -3.47,1.247 -4.015,-0.156 -3.77,-3.127 -1.686,0.883 -1.539,2.247 -1.8,3.447 -0.487,2.227 0.307,2.913 2.432,2.132 0.526,-0.194 1.056,-0.376 1.596,-0.525 5.007,-1.375 5.02,-1.359 3.727,3.743 -1.142,4.509 -0.915,4.71 3.836,3.611 2.592,-0.6 5.2,-1.129 7.8,-1.691 0.722,-0.462 0.933,-0.194 0.802,0.561"
         style="fill:#c9dff8;fill-opacity:1;fill-rule:nonzero;stroke:none"
         id="path862" />
    </g>
  </g>
</svg>
