<?xml version="1.0" encoding="UTF-8" standalone="no"?>
<svg
   enable-background="new 0 0 91 91"
   height="64"
   id="Layer_1"
   version="1.1"
   viewBox="0 0 48.000004 64"
   width="48.000004"
   xml:space="preserve"
   xmlns="http://www.w3.org/2000/svg"
   xmlns:svg="http://www.w3.org/2000/svg"><defs
     id="defs11" /><path
     id="path944"
     style="fill:#ffffff;stroke:#000000;stroke-width:1px;stroke-linecap:butt;stroke-linejoin:miter;stroke-opacity:1"
     d="M 19.234375 2.6308594 L 6.28125 10.673828 L 1.9375 25.148438 L 3.9160156 33.724609 L 8.0585938 39.527344 L 17.914062 52.777344 L 24.080078 61.570312 C 24.080078 61.570312 40.256823 41.018264 40.335938 40.466797 C 40.415048 39.91533 46.643606 27.26844 46.578125 26.736328 C 46.512643 26.204216 44.087891 15.164062 44.087891 15.164062 L 38.580078 7.3632812 L 28.605469 2.6777344 L 19.234375 2.6308594 z M 24.234375 13.908203 A 10.113247 10.113247 0 0 1 34.347656 24.021484 A 10.113247 10.113247 0 0 1 24.234375 34.134766 A 10.113247 10.113247 0 0 1 14.121094 24.021484 A 10.113247 10.113247 0 0 1 24.234375 13.908203 z " /><g
     id="g6"
     transform="matrix(1.079161,0,0,1.115799,-25.644103,-21.061822)"><path
       d="m 57.264,40.626 c 0,-6.208 -5.053,-11.259 -11.262,-11.259 -6.209,0 -11.262,5.051 -11.262,11.259 0,6.21 5.053,11.263 11.262,11.263 6.209,0 11.262,-5.053 11.262,-11.263 z m -19.124,0 c 0,-4.333 3.527,-7.859 7.862,-7.859 4.335,0 7.861,3.525 7.861,7.859 0,4.335 -3.526,7.862 -7.861,7.862 -4.335,0 -7.862,-3.527 -7.862,-7.862 z"
       fill="#010101"
       id="path2" /><path
       d="m 46,76.234 1.225,-1.271 c 0.857,-0.892 21.017,-21.952 21.017,-33.845 0,-12.264 -9.978,-22.242 -22.241,-22.242 -12.262,0 -22.238,9.978 -22.238,22.242 0,11.893 20.156,32.953 21.014,33.844 z m 0,-53.956 c 10.389,0 18.841,8.452 18.841,18.841 C 64.841,49.275 52.219,64.592 46,71.307 39.782,64.594 27.162,49.282 27.162,41.119 27.162,30.73 35.613,22.278 46,22.278 Z"
       fill="#010101"
       id="path4" /></g></svg>
