<?xml version="1.0" encoding="iso-8859-1"?>
<!-- Generator: Adobe Illustrator 19.0.0, SVG Export Plug-In . SVG Version: 6.00 Build 0)  -->
<svg version="1.1" id="Layer_1" xmlns="http://www.w3.org/2000/svg" xmlns:xlink="http://www.w3.org/1999/xlink" x="0px" y="0px"
	 viewBox="0 0 512 512" style="enable-background:new 0 0 512 512;" xml:space="preserve">
<g>
	<g>
		<path d="M405.961,62.117C365.904,22.06,312.647,0,255.999,0c-56.647,0-109.904,22.06-149.96,62.117
			C23.35,144.804,23.35,279.35,106.04,362.039L256,512l149.962-149.961C488.648,279.352,488.65,144.806,405.961,62.117z
			 M380.254,336.332L255.999,460.585L131.748,336.332c-68.513-68.515-68.513-179.994-0.001-248.508
			c33.19-33.187,77.316-51.467,124.252-51.467c46.937,0,91.064,18.28,124.255,51.468
			C448.767,156.339,448.767,267.818,380.254,336.332z"/>
	</g>
</g>
<g>
	<g>
		<path d="M311.7,156.378c-14.878-14.878-34.66-23.072-55.7-23.072s-40.822,8.193-55.7,23.072c-30.713,30.714-30.713,80.687,0,111.4
			c14.876,14.877,34.657,23.072,55.698,23.074c0.002,0,0.005,0,0.007,0c21.036,0,40.817-8.196,55.695-23.074
			C342.414,237.064,342.414,187.092,311.7,156.378z M285.993,242.072c-8.012,8.01-18.66,12.424-29.988,12.424c0,0-0.002,0-0.004,0
			c-11.331-0.002-21.983-4.415-29.993-12.424c-16.537-16.54-16.537-43.448,0.001-59.985c8.01-8.012,18.663-12.424,29.991-12.424
			c11.329,0,21.981,4.411,29.993,12.424C302.53,198.624,302.53,225.532,285.993,242.072z"/>
	</g>
</g>
<g>
</g>
<g>
</g>
<g>
</g>
<g>
</g>
<g>
</g>
<g>
</g>
<g>
</g>
<g>
</g>
<g>
</g>
<g>
</g>
<g>
</g>
<g>
</g>
<g>
</g>
<g>
</g>
<g>
</g>
</svg>
