<?xml version="1.0" encoding="UTF-8" standalone="no"?>
<!-- Created with Inkscape (http://www.inkscape.org/) -->

<svg
   viewBox="0 0 164.38843 84.490944"
   version="1.1"
   id="main"
   xmlns="http://www.w3.org/2000/svg"
   xmlns:svg="http://www.w3.org/2000/svg">
  <defs
     id="defs13119" />
  <g
     id="layer1"
     transform="translate(-148.94345,-170.12611)">
    <g
       id="rb"
       transform="matrix(0.35277777,0,0,-0.35277777,-75.525589,267.92937)">
      <path
         d="m 729.6404,127.9662 c -0.085,0.101 -0.162,0.273 -0.256,0.283 -0.095,0.01 -0.205,-0.143 -0.308,-0.225 0.085,-0.102 0.162,-0.275 0.255,-0.285 0.094,-0.009 0.205,0.145 0.309,0.227 m 282.07,139.605 c 1.988,0.396 3.529,1.42 3.436,3.585 -0.082,1.935 -1.569,3.143 -3.395,3.088 -2.001,-0.06 -3.484,-1.351 -3.382,-3.528 0.089,-1.934 1.418,-2.954 3.341,-3.145 m 42.852,-166.51 c 1.247,0.204 3.111,0.277 4.822,0.827 11.204,3.601 9.534,3.829 4.298,12.036 -3.71,5.815 -9.383,8.755 -16.404,8.46 -4.612,-0.193 -7.729,-2.703 -9.112,-6.85 -1.474,-4.422 0.437,-7.591 3.727,-10.267 3.523,-2.866 7.663,-3.949 12.669,-4.206 m -358.432,32.834 c -0.072,7.616 -6.148,13.723 -13.676,13.748 -8.023,0.026 -14.591,-6.507 -14.53,-14.452 0.059,-7.687 6.508,-14.039 14.091,-13.881 7.682,0.161 14.188,6.885 14.115,14.585 m 65.905,-36.907 c -0.037,-13.55 11.303,-24.81 25.071,-24.895 13.756,-0.085 25.238,11.45 25.17,25.284 -0.066,13.302 -11.476,24.362 -25.12,24.352 -13.879,-0.011 -25.085,-11.047 -25.121,-24.741 m 278.996,33.129 c -0.249,-0.325 -0.447,-0.714 -0.755,-0.966 -1.7,-1.383 -4.737,-0.254 -5.74,-2.163 -1.866,-3.551 -3.584,-7.21 -6.108,-11.267 4.554,0.95 8.187,0.798 10.98,4.615 3.426,4.685 11.883,4.85 18.352,1.182 5.673,-3.216 8.914,-8.435 11.465,-14.203 0.723,-1.632 0.169,-2.594 -1.275,-3.458 -8.2,-4.913 -16.543,-6.154 -25.183,-1.159 -3.608,2.086 -6.278,5.042 -6.553,9.275 -0.207,3.189 -1.797,3.461 -4.116,2.836 -7.286,-1.964 -13.022,-6.205 -18.24,-12.658 13.209,-0.166 24.667,-3.012 32.479,-13.89 2.88,-4.011 5.019,-8.302 4.861,-14.222 -1.925,2.439 -1.745,4.777 -2.525,6.764 -6.153,15.696 -22.473,20.843 -35.468,19.428 -1.502,-0.164 -2.498,-1.087 -3.549,-2.072 -3.496,-3.267 -6.909,-6.658 -10.667,-9.599 -3.645,-2.852 -7.679,-5.207 -11.823,-7.968 7.117,-6.073 11.235,-13.51 9.716,-23.326 -1.829,0.171 -1.156,1.201 -1.131,1.906 0.203,5.698 -1.315,10.829 -4.859,15.356 -4.403,5.626 -6.399,5.991 -12.933,1.983 3.308,-2.916 6.228,-6.095 7.861,-10.197 1.61,-4.046 2.716,-8.16 1.163,-13.221 -1.346,1.849 -0.803,3.374 -0.854,4.731 -0.25,6.745 -3.023,12.199 -8.238,16.435 -0.977,0.794 -2.022,1.94 -3.307,1.574 -1.86,-0.531 -4.573,-0.055 -5.393,-1.722 -0.721,-1.466 1.816,-2.416 2.867,-3.618 4.575,-5.229 6.675,-13.067 4.814,-19.781 -1.54,11.824 -2.649,23.532 -19.565,22.738 3.21,-3.974 6.211,-6.986 7.479,-11.032 1.225,-3.907 2.509,-7.864 0.875,-12.348 -1.504,1.413 -0.744,2.71 -0.779,3.852 -0.17,5.4 -1.828,10.223 -5.324,14.365 -2.564,3.039 -5.608,4.854 -9.841,4.832 -4.602,-0.023 -9.208,0.552 -13.916,0.874 0.856,-1.799 2.672,-2.494 3.985,-3.697 3.872,-3.552 6.606,-7.667 7.049,-13.04 0.427,-5.173 -1.864,-9.148 -6.47,-11.29 -4.975,-2.313 -10.108,-1.541 -13.671,2.053 -2.883,2.908 -3.438,7.293 -1.361,10.907 2.074,3.608 5.357,4.322 9.107,3.623 3.395,-0.632 5.713,-3.997 5.079,-7.142 -0.653,-3.243 -3.329,-4.278 -7.07,-2.161 2.386,0.195 4.781,-0.394 5.435,2.234 0.46,1.846 -0.192,3.376 -1.625,4.491 -2.058,1.603 -4.351,1.919 -6.733,0.724 -2.863,-1.435 -4.02,-3.897 -3.741,-6.961 0.348,-3.848 2.812,-6.168 6.307,-7.108 8.134,-2.187 14.862,4.443 12.819,12.64 -2.214,8.875 -8.948,14.329 -16.905,16.221 -29.27,6.956 -55.783,20.083 -81.846,34.458 -4.802,2.648 -9.607,5.311 -14.76,7.248 -0.247,0.028 -0.606,0.177 -0.727,0.067 -0.434,-0.396 -0.077,-0.679 0.249,-0.928 1.977,-3.096 3.808,-6.275 4.397,-9.963 0.572,-3.584 -1.442,-6.932 -4.865,-7.911 -3.088,-0.882 -5.657,-0.135 -7.246,2.933 1.068,0.944 1.451,0.021 1.917,-0.327 1.847,-1.379 3.774,-1.936 5.868,-0.633 2.287,1.422 3.302,3.598 2.67,6.152 -1.593,6.443 -5.005,11.997 -11.166,14.566 -21.164,8.822 -43.077,14.056 -66.239,11.562 -16.409,-1.766 -31.452,-7.177 -44.529,-17.505 -0.276,-0.227 -0.554,-0.456 -0.83,-0.683 0.498,-0.462 0.901,-0.353 1.23,0.204 14.317,4.765 29.053,6.854 43.586,2.448 7.513,-2.278 12.378,-1.456 19.047,2.891 8.866,5.78 18.871,5.061 29.131,-2.695 8.422,-6.367 11.819,-17.63 8.855,-27.688 -3.031,-10.291 -12.212,-17.98 -22.63,-18.844 -10.356,-0.859 -18.941,2.601 -24.901,11.233 -5.951,8.621 -6.39,17.922 -1.569,27.175 1.573,3.019 0.541,3.855 -1.995,4.734 -16.386,5.675 -32.579,4.589 -48.854,-0.762 -12.013,-3.951 -18.664,-13.657 -25.641,-22.947 -8.24,-10.97 -14.085,-23.295 -18.783,-36.649 -1.515,1.835 -0.438,3.201 0.027,4.46 2.44,6.611 5.323,13.018 8.705,19.214 2.634,4.827 1.189,12.455 -2.837,16.301 -4.544,4.341 -8.964,3.424 -12.842,-2.665 -0.437,3.522 1.43,5.793 5.455,6.633 6.165,1.286 10.407,-2.951 13.345,-13.327 4.283,3.742 5.414,8.176 3.288,12.894 -3.37,7.479 -8.178,9.642 -18.678,8.399 5.922,5.658 14.322,1.916 21.411,-9.875 2.398,7.011 3.142,13.818 2.488,20.825 -0.27,2.895 -1.96,2.199 -3.877,1.852 -7.548,-1.364 -14.233,2.039 -17.109,8.531 -3.027,6.832 -1.165,14.252 4.758,18.953 6.369,5.054 16.231,4.221 21.431,-1.812 5.368,-6.227 5.153,-15.864 -0.985,-21.393 -2.446,-2.203 -3.042,-4.218 -2.715,-7.284 0.338,-3.191 0.123,-6.48 -0.194,-9.693 -0.314,-3.189 -1.057,-6.335 -1.626,-9.58 1.471,-0.15 1.851,1.063 2.492,1.822 7.967,9.424 16.909,17.717 27.564,24.067 2.053,1.223 4.08,2.53 5.955,4.006 5.249,4.133 7.81,9.464 6.966,16.262 -0.634,5.107 -4.121,8.864 -9.142,9.687 -5.126,0.839 -11.276,-2.18 -13.168,-6.464 -1.719,-3.894 -0.398,-8.606 2.911,-10.385 3.029,-1.628 5.85,-0.502 8.739,3.444 0.216,0.296 0.644,0.438 1.657,1.094 -0.73,-4.379 -3.358,-5.937 -6.535,-6.63 -3.656,-0.797 -6.336,0.971 -7.975,4.146 -3.368,6.524 0.985,14.28 8.83,15.906 11.051,2.291 19.016,-6.447 15.904,-17.526 -0.637,-2.265 -1.64,-4.426 -2.049,-6.979 12.174,4.166 18.705,13.369 22.084,25.805 1.366,-5.479 -1.788,-11.631 -11.442,-22.512 3.916,0.7 7.055,1.327 10.215,1.814 24.904,3.837 48.343,-1.792 71.36,-10.759 9.969,-3.885 20.347,-5.986 30.862,-1.863 6.726,2.637 12.258,6.555 12.526,14.777 0.316,9.653 -10.585,16.553 -19.047,12.024 -3.216,-1.722 -5.135,-4.371 -4.917,-8.183 0.193,-3.339 2.028,-5.409 5.175,-6.441 3.115,-1.021 5.083,0.505 6.834,2.81 0.464,0.61 0.262,1.764 1.414,1.856 0.207,-3.097 -1.055,-5.03 -4.074,-6.012 -3.603,-1.17 -6.742,-0.26 -9.084,2.66 -3.953,4.927 -1.643,12.348 4.568,15.047 6.823,2.967 14.605,0.403 18.737,-6.17 3.574,-5.686 2.222,-14.243 -3.138,-18.835 -5.195,-4.453 -11.311,-6.78 -18.134,-7.139 -2.523,-0.134 -5.059,-0.022 -7.67,-0.022 9.086,-8.591 20.279,-10.372 30.729,-4.951 10.768,5.587 13.135,14.487 6.707,25.227 2.79,-0.771 4.677,-3.316 5.131,-7.324 1.19,-10.504 -4.969,-16.36 -13.581,-20.692 11.076,-3.965 20.005,6.377 19.684,22.084 1.481,-2.1 1.712,-4.499 1.306,-7.042 -2.135,-13.349 -11.131,-19.671 -24.544,-17.109 -2.273,0.434 -4.403,0.698 -6.912,-0.444 3.952,-3.046 8.314,-4.859 12.47,-6.954 22.199,-11.188 44.988,-20.619 69.758,-24.722 12.449,-2.062 27.762,9.85 27.329,24.541 -0.176,6.002 -3.007,10.035 -8.055,11.626 -3.563,1.122 -8.083,-0.26 -10.167,-3.361 -2.077,-3.092 -2.244,-6.46 0.065,-9.454 2.482,-3.216 5.856,-3.571 9.505,-2.03 0.359,0.152 0.763,0.209 1.152,0.269 0.089,0.013 0.205,-0.142 0.309,-0.22 -3.397,-3.844 -9.903,-2.997 -12.658,1.648 -2.453,4.137 -1.732,9.132 1.783,12.332 3.597,3.276 9.608,3.694 13.741,0.825 5.266,-3.656 6.384,-9.005 5.694,-14.929 -0.258,-2.217 -0.915,-4.388 -1.43,-6.77 3.483,-0.895 7.899,1.78 10.351,-2.588 0.839,-1.493 0.544,-2.898 -1.177,-4.436 -0.284,2.219 0.496,4.644 -2.332,5.236 -3.385,0.709 -7.043,0.42 -9.066,-2.051 -3.802,-4.645 -7.963,-8.58 -13.442,-11.225 17.313,-0.809 33.041,3.357 47.1,13.592 7.699,5.604 13.831,12.802 20.629,19.326 1.615,1.549 0.564,2.762 -0.148,4.093 -4.399,8.213 -8.204,16.662 -10.389,25.771 -0.989,4.127 -1.657,8.313 -1.718,12.538 -0.148,10.435 -4.738,18.318 -13.301,24.058 -0.437,0.293 -0.811,0.679 -1.372,1.159 4.201,0.129 4.883,-0.554 15.188,-15.005 2.798,16.15 11.56,29.715 17.117,44.537 5.219,13.92 7.095,28.063 2.746,42.596 -1.887,6.306 -5.452,11.697 -9.305,16.939 -1.158,1.575 -2.557,1.815 -4.367,1.829 -3.333,0.029 -4.863,1.975 -4.455,5.248 0.424,3.392 2.801,4.392 5.789,4.049 3.156,-0.362 4.675,-2.714 3.723,-5.411 -1.007,-2.854 0.183,-4.436 1.665,-6.363 12.346,-16.051 12.986,-33.901 7.953,-52.585 -2.617,-9.716 -6.943,-18.79 -11.523,-27.636 -12.643,-24.419 -9.709,-47.786 3.497,-70.83 1.188,-2.072 2.033,-2.263 3.805,-0.958 4.921,3.627 8.001,8.592 10.42,14.055 0.527,1.192 0.158,1.923 -0.991,2.762 -8.74,6.395 -9.973,17.182 -2.986,25.552 1.17,1.401 2.424,2.781 3.845,3.913 6.783,5.407 6.37,5.23 11.299,-1.326 5.498,-7.309 5.665,-16.627 0.907,-23.776 -0.828,-1.244 -1.495,-2.794 -3.346,-2.921 -0.871,0.73 -0.074,1.185 0.306,1.66 6.605,8.253 6.278,18.896 -0.834,26.376 -1.165,1.227 -2.196,2.525 -4.231,1.134 -5.784,-3.954 -10.213,-8.779 -10.885,-16.124 -0.907,-9.92 6.359,-16.278 14.227,-12.758 0.533,0.238 1.055,0.308 1.478,-0.226"
         style="fill:#c9dff8;fill-opacity:1;fill-rule:nonzero;stroke:none"
         id="path66" />
      <path
         d="m 974.8934,198.0423 c -0.342,1.276 -1.24,2.356 -2.815,2.358 -1.761,0.002 -2.962,-1.028 -2.902,-2.883 0.057,-1.737 1.039,-3.027 2.89,-2.91 1.783,0.113 2.591,1.455 2.827,3.435 m -0.254,-30.06 c -1.817,-0.326 -2.962,-1.258 -2.999,-3.054 -0.042,-2.044 1.235,-3.104 3.143,-3.139 1.92,-0.035 3.344,1.059 3.173,3.04 -0.157,1.82 -1.646,2.785 -3.317,3.153 m 0.43,25.469 c 4.386,0.801 5.621,3.686 6.289,6.97 0.709,3.483 -0.4,6.435 -3.11,8.676 -5.161,4.264 -13.232,3.578 -17.993,-1.441 -4.771,-5.031 -5.087,-12.587 -0.737,-17.706 6.206,-7.306 18.353,-8.765 26.073,-3.132 8.029,5.858 10.073,17.815 4.616,26.983 -5.863,9.849 -16.71,14.866 -26.868,12.427 -11.272,-2.707 -20.823,-13.937 -21.307,-25.054 -0.66,-15.114 9.103,-28.867 23.59,-33.238 2.185,-0.66 4.092,-0.944 6.345,0.531 2.406,1.574 5.304,1.345 6.916,-1.591 1.206,-2.196 1.008,-4.629 -1.374,-5.899 -2.856,-1.525 -5.899,-1.019 -7.058,2.167 -0.968,2.66 -2.999,2.641 -4.858,3.238 -13.719,4.4 -22.094,13.606 -24.664,27.778 -2.183,12.035 2.377,21.605 11.968,28.693 8.754,6.468 8.671,18.429 -0.591,24.544 -4.725,3.121 -9.958,3.845 -15.362,2.205 -6.65,-2.019 -9.927,-8.331 -7.541,-14.136 2.192,-5.337 6.901,-6.256 13.697,-2.673 -0.893,-2.587 -2.436,-3.69 -5.689,-3.795 -3.766,-0.121 -6.967,1.051 -8.835,4.584 -3.775,7.137 -0.05,15.032 8.066,17.62 11.462,3.654 28.383,-5.066 23.309,-23.466 0.806,-1.127 1.811,-0.34 2.652,-0.157 17.278,3.762 33.166,-9.772 32.047,-27.335 -0.521,-8.155 -6.667,-15.636 -14.585,-17.751 -8.358,-2.231 -18.179,1.04 -22.657,7.548 -3.916,5.692 -2.864,14.469 2.319,19.331 5.222,4.898 13.84,5.364 19.417,1.051 3.706,-2.866 4.77,-7.965 2.924,-13.031 -1.46,-4.01 -4.34,-5.78 -8.422,-5.642 -4.067,0.137 -6.976,3.204 -6.118,6.378 0.684,2.537 2.223,4.353 5.155,3.895 3.004,-0.468 3.744,-2.679 3.459,-5.336 -0.101,-0.939 -0.594,-1.835 -1.073,-3.236"
         style="fill:#c9dff8;fill-opacity:1;fill-rule:nonzero;stroke:none"
         id="path106" />
      <path
         d="m 1065.989,224.6273 c -11.795,-0.293 -22.249,-12.176 -21.675,-24.184 0.55,-11.515 14.576,-21.211 23.105,-20.048 -7.418,14.509 -8.008,29.258 -1.43,44.232 m 11.183,0.709 c 7.958,-14.739 8.488,-29.75 1.637,-45.028 11.599,0.788 22.26,11.961 22.065,23.123 -0.196,11.179 -11.278,21.421 -23.702,21.905 m -14.152,-21.317 c 0.203,-6.89 0.97,-14.138 4.885,-20.62 3.291,-5.45 7.402,-5.395 10.418,0.154 3.555,6.543 4.006,13.707 3.495,20.915 -0.459,6.467 -1.336,12.93 -5.436,18.333 -3.196,4.211 -6.528,4.058 -9.296,-0.448 -3.359,-5.469 -3.941,-11.62 -4.066,-18.334 m -3.298,-67.821 c 10.663,9.661 13.097,22.172 13.399,35.658 0.097,4.37 -0.886,6.297 -5.569,6.368 -5.461,0.082 -10.389,2.33 -14.782,5.565 -13.457,9.913 -13.538,27.08 -0.21,37.204 11.751,8.926 29.803,8.616 41.243,-0.705 10.994,-8.958 11.341,-24.901 0.717,-34.307 -4.639,-4.107 -10.029,-6.866 -16.174,-7.61 -3.185,-0.386 -3.889,-1.723 -3.783,-4.634 0.285,-7.783 -0.618,-15.461 -3.237,-22.833 -2.187,-6.151 -5.713,-11.362 -11.604,-14.706"
         style="fill:#c9dff8;fill-opacity:1;fill-rule:nonzero;stroke:none"
         id="path118" />
      <path
         d="m 886.7615,210.5872 c 10.871,-0.617 21.356,-0.238 31.704,2.518 3.657,0.974 7.41,1.268 9.923,-2.389 1.944,-2.83 0.683,-7.823 -2.514,-11.198 -3.05,-3.22 -7.019,-4.092 -11.181,-4.114 -12.096,-0.061 -20.783,6.217 -27.932,15.183"
         style="fill:#f6f9fb;fill-opacity:1;fill-rule:nonzero;stroke:none"
         id="path122" />
      <path
         d="m 881.4774,199.2904 c 7.818,-6.956 16.452,-12.262 25.88,-16.433 3.089,-1.367 5.113,-4.056 3.634,-7.914 -1.408,-3.672 -6.519,-6.299 -10.829,-5.507 -5.448,1.003 -9.399,4.355 -12.47,8.67 -4.435,6.23 -5.944,13.458 -6.215,21.184"
         style="fill:#f6f9fb;fill-opacity:1;fill-rule:nonzero;stroke:none"
         id="path126" />
      <path
         d="m 946.8445,141.3324 c -0.679,1.288 -1.153,2.427 -1.834,3.426 -0.951,1.398 -2.173,3.262 -3.852,2.854 -2.014,-0.489 -0.706,-2.647 -0.734,-4.007 -0.128,-6.128 -2.766,-9.451 -8.851,-10.277 -3.613,-0.491 -7.286,-0.529 -10.929,-0.797 -7.967,-0.586 -15.659,-1.887 -21.704,-7.853 -7.47,-7.373 -7.778,-18.534 -0.672,-27.093 6.91,-8.326 18.274,-10.33 26.383,-4.649 6.622,4.638 9.552,11.529 11.691,18.956 1.201,4.17 1.694,8.57 3.879,12.434 2.577,4.557 6.068,6.088 10.921,4.903 1.106,-0.269 2.466,-1.668 3.352,-0.167 0.672,1.136 -0.351,2.405 -1.115,3.429 -0.333,0.446 -0.701,0.915 -1.158,1.212 -2.34,1.523 -2.85,2.684 0.131,4.275 2.336,1.249 4.084,3.333 4.4,6.289 -3.943,1.133 -6.969,-0.531 -9.908,-2.935 m -8.145,2.407 c -0.019,0.422 -0.13,0.863 -0.048,1.262 0.35,1.701 -1.966,4.054 0.121,4.915 2.026,0.837 4.72,-0.504 5.905,-2.383 2.057,-3.262 4.206,-2.877 7.257,-1.686 2.069,0.807 5.264,1.57 6.609,-0.535 1.256,-1.964 -0.877,-4.451 -2.425,-5.808 -2.92,-2.562 -3.61,-4.659 -0.583,-7.561 0.983,-0.942 0.967,-2.602 0.833,-4.04 -0.14,-1.522 -0.578,-2.242 -2.43,-1.662 -9.008,2.818 -12.078,1.055 -14.493,-8.395 -1.779,-6.962 -3.419,-13.938 -7.571,-19.999 -6.589,-9.619 -17.634,-12.404 -27.84,-6.964 -10.269,5.474 -15.277,17.989 -10.843,28.036 4.269,9.674 12.675,13.495 22.576,14.616 4.752,0.538 9.556,0.6 14.328,0.975 5.954,0.468 8.71,3.476 8.604,9.229"
         style="fill:#c9dff8;fill-opacity:1;fill-rule:nonzero;stroke:none"
         id="path166" />
      <path
         d="m 748.9861,67.3587 c -3.574,-3.072 -6.411,-5.913 -10.46,-7.086 -6.517,-1.889 -13.136,-0.201 -16.794,4.667 -3.348,4.455 -3.374,12.596 -0.058,17.607 2.729,4.124 7.994,5.9 12.66,4.271 3.55,-1.239 5.838,-4.702 5.606,-8.568 -0.137,-2.276 -0.866,-4.241 -2.963,-5.544 -0.825,1.223 0.166,1.776 0.459,2.481 1.372,3.296 1.35,6.341 -1.592,8.81 -3.14,2.636 -6.778,2.716 -10.118,0.332 -4.868,-3.479 -6.569,-11.161 -3.713,-16.769 2.691,-5.279 9.168,-7.875 15.182,-6.083 9.012,2.686 16.116,13.438 15.162,22.945 -1.027,10.231 -9.441,18.566 -19.697,19.509 -12.227,1.123 -22.784,-2.447 -31.503,-11.196 -0.695,-0.698 -1.415,-1.373 -2.141,-2.04 -0.074,-0.068 -0.266,-0.009 -0.575,-0.009 -0.088,0.278 -0.397,0.754 -0.273,0.938 7.751,11.506 28.698,17.594 41.482,12.091 11.807,-5.082 17.135,-17.249 12.567,-29.322 -2.146,-5.675 -1.981,-11.383 -0.725,-17.014 2.145,-9.623 6.888,-12.924 18.274,-13.556 -4.511,-3.01 -11.886,-0.704 -16.108,4.943 -3.98,5.324 -4.723,11.522 -4.672,18.593"
         style="fill:#c9dff8;fill-opacity:1;fill-rule:nonzero;stroke:none"
         id="path174" />
      <path
         d="m 886.3875,222.2328 c 7.705,4.311 13.673,9.104 18.913,14.871 2.34,2.574 5.323,3.092 8.108,0.247 2.929,-2.993 3.143,-7.602 0.403,-10.71 -3.355,-3.803 -7.868,-5.345 -12.698,-5.904 -4.589,-0.531 -9.152,-0.055 -14.726,1.496"
         style="fill:#f6f9fb;fill-opacity:1;fill-rule:nonzero;stroke:none"
         id="path190" />
      <path
         d="m 867.5281,84.9242 c -0.073,0.092 -0.147,0.183 -0.221,0.274 -0.091,-0.075 -0.18,-0.15 -0.271,-0.224 0.115,-0.096 0.23,-0.191 0.345,-0.286 0.048,0.079 0.098,0.157 0.147,0.236 m -11.703,-43.279 c 20.784,6.509 24.067,32.115 11.494,42.693 2.697,-10.779 2.928,-20.659 -4.584,-29.042 -2.696,-3.009 -5.588,-4.316 -9.329,-4.295 9.51,3.831 13.787,11.082 14.117,20.897 0.317,9.422 -3.647,17.11 -9.966,23.758 1.353,1.132 2.033,0.083 2.704,-0.487 9.909,-8.403 17.839,-17.953 15.766,-32.07 -1.329,-9.045 -5.816,-16.38 -14.289,-20.684 -1.56,-0.792 -3.208,-1.759 -5.913,-0.77"
         style="fill:#c9dff8;fill-opacity:1;fill-rule:nonzero;stroke:none"
         id="path202" />
      <path
         d="m 1036.8113,74.5931 c -0.048,8.99 -7.419,16.182 -16.569,16.165 -9.271,-0.017 -17.241,-7.792 -17.184,-16.763 0.056,-8.721 7.773,-16.169 16.731,-16.145 9.439,0.025 17.072,7.532 17.022,16.743 m -17.091,-18.174 c -10.198,0.042 -18.061,7.745 -18.117,17.748 -0.055,10.017 8.48,18.143 18.925,18.019 9.977,-0.118 17.837,-7.84 17.873,-17.561 0.039,-10.252 -8.168,-18.25 -18.681,-18.206"
         style="fill:#c9dff8;fill-opacity:1;fill-rule:nonzero;stroke:none"
         id="path214" />
      <path
         d="m 888.5096,76.2025 c 0.083,0.235 0.193,0.444 0.217,0.664 0.011,0.094 -0.16,0.207 -0.249,0.312 -0.149,-0.142 -0.444,-0.33 -0.416,-0.414 0.068,-0.209 0.283,-0.371 0.448,-0.562 m -0.157,0.023 c 2.51,-8.335 3.197,-15.636 -2.126,-22.118 -1.784,-2.172 -3.897,-3.859 -7.201,-3.787 6.983,3.759 10.247,9.434 9.598,17.23 -0.618,7.42 -4.254,13.196 -10.775,18.173 9.205,-1.692 20.822,-15.192 19.494,-26.189 -1.134,-9.388 -7.475,-18.234 -13.737,-17.967 13.621,10.003 16.354,26.008 4.747,34.658"
         style="fill:#c9dff8;fill-opacity:1;fill-rule:nonzero;stroke:none"
         id="path222" />
      <path
         d="m 977.4422,117.4857 c 4.373,6.061 12.505,7.776 19.513,4.117 6.598,-3.445 9.818,-11.626 7.232,-18.382 -2.708,-7.075 -10.464,-11.398 -17.663,-9.849 -5.986,1.288 -10.31,4.641 -12.005,10.595 -1.399,4.917 -1.036,9.719 2.984,13.578 1.065,-1.395 -0.361,-2.251 -0.783,-3.268 -1.096,-2.641 -1.836,-5.275 -1.243,-8.177 1.238,-6.068 6.458,-10.866 12.486,-11.392 6.332,-0.553 12.233,2.931 14.586,8.613 2.21,5.334 0.644,11.428 -3.91,15.214 -5.002,4.16 -11.681,4.408 -17.262,0.991 -1.214,-0.743 -1.801,-3.03 -3.935,-2.04"
         style="fill:#c9dff8;fill-opacity:1;fill-rule:nonzero;stroke:none"
         id="path254" />
      <path
         d="m 885.032,237.3997 c 1.539,5.65 2.884,10.361 3.01,15.329 0.058,2.339 0.806,4.611 3.904,4.437 3.126,-0.177 5.061,-1.912 5.193,-5.024 0.152,-3.551 -1.424,-6.563 -3.885,-9.06 -2.171,-2.204 -4.634,-4.028 -8.222,-5.682"
         style="fill:#f6f9fb;fill-opacity:1;fill-rule:nonzero;stroke:none"
         id="path282" />
      <path
         d="m 815.1609,135.4896 c 6.507,-0.151 11.742,2.572 15.644,7.546 3.27,4.17 2.465,7.093 -2.726,12.619 3.246,-0.195 5.354,-2.301 5.87,-5.959 0.611,-4.33 -1.259,-7.615 -4.424,-10.364 -7.071,-6.142 -15.27,-6.78 -24.647,-5.328 1.518,1.849 3.144,1.722 4.485,2.014 2.931,0.637 5.651,1.735 8.199,3.267 7.341,4.413 7.74,8.415 1.207,14.478 3.7,0.094 5.471,-2.127 6.025,-4.915 1.524,-7.69 -5.173,-9.643 -9.633,-13.358"
         style="fill:#c9dff8;fill-opacity:1;fill-rule:nonzero;stroke:none"
         id="path294" />
      <path
         d="m 1000.3289,226.5013 c -3.362,2.336 -6.143,5.179 -5.555,9.608 0.441,3.32 2.767,5.578 5.983,6.414 3.553,0.925 6.675,-0.076 8.922,-3.168 6.108,-8.404 5.127,-17.422 2.207,-26.563 -0.453,-1.418 -0.833,-2.969 -2.824,-4.737 -1.441,7.182 -4.961,12.924 -8.789,18.498 2.088,0.76 2.326,-1.252 3.166,-2.213 2.892,-3.306 4.15,-7.612 6.658,-11.939 3.135,9.417 4.258,17.948 -1.692,25.923 -2.611,3.5 -6.367,4.002 -9.53,1.545 -3.281,-2.548 -3.391,-5.804 -0.599,-9.544 0.84,-1.124 3.075,-1.661 2.053,-3.824"
         style="fill:#c9dff8;fill-opacity:1;fill-rule:nonzero;stroke:none"
         id="path298" />
      <path
         d="m 907.7772,42.5033 c 9.041,9.689 9.801,19.128 1.658,25.36 0.074,-3.886 2.089,-7.325 0.841,-11.081 -1.181,-3.552 -2.683,-6.493 -7.413,-8.045 8.959,10.428 8.143,16.695 -2.638,26.365 6.268,0.463 15.484,-8.686 16.342,-16.224 0.9,-7.903 -3.085,-15.327 -8.79,-16.375"
         style="fill:#c9dff8;fill-opacity:1;fill-rule:nonzero;stroke:none"
         id="path306" />
      <path
         d="m 945.4998,154.3763 c -1.167,3.188 -2.225,6.181 -4.668,8.403 -4.422,4.022 -10.388,4.805 -15.599,1.86 -4.783,-2.703 -7.342,-8.094 -6.241,-13.147 0.791,-3.631 3.453,-5.74 6.491,-5.144 3.125,0.613 4.446,3.247 3.596,7.26 -0.138,0.649 -0.651,1.289 0.236,1.773 2.621,-3.558 2.172,-7.594 -1.063,-9.629 -3.497,-2.2 -8.225,-0.848 -10.085,2.886 -1.992,3.998 -0.757,10.742 2.67,14.578 3.842,4.298 10.699,5.882 16.278,3.759 4.986,-1.898 9.039,-7.028 9.133,-11.603 0.005,-0.196 -0.287,-0.397 -0.748,-0.996"
         style="fill:#c9dff8;fill-opacity:1;fill-rule:nonzero;stroke:none"
         id="path314" />
      <path
         d="m 1085.6746,106.4056 c 3.436,0.028 6.024,2.465 5.895,5.212 -0.146,3.084 -2.238,4.426 -4.928,4.719 -2.613,0.284 -5.559,-2.702 -5.398,-5.294 0.186,-2.986 2.008,-4.426 4.431,-4.637 m -27.638,-19.82 c 3.479,0.559 6.64,0.799 9.648,1.605 6.933,1.859 12.648,5.496 15.776,12.279 0.94,2.039 1.77,3.964 -1.185,5.638 -2.738,1.551 -3.234,4.511 -2.058,7.456 1.354,3.39 4.166,4.415 7.551,4.081 3.114,-0.307 4.812,-2.438 5.307,-5.239 0.55,-3.107 -0.979,-5.624 -3.843,-6.773 -2.184,-0.876 -3.103,-2.073 -3.792,-4.346 -3.389,-11.172 -18.72,-17.355 -27.404,-14.701"
         style="fill:#c9dff8;fill-opacity:1;fill-rule:nonzero;stroke:none"
         id="path318" />
      <path
         d="m 1036.8171,254.5335 c 14.313,1.658 25.878,-2.976 34.157,-15.904 2.354,6.576 -0.057,12.208 -0.829,17.921 4.109,-6.995 4.047,-14.269 1.52,-23.215 -7.334,15.765 -19.41,21.345 -34.848,21.198"
         style="fill:#c9dff8;fill-opacity:1;fill-rule:nonzero;stroke:none"
         id="path322" />
      <path
         d="m 717.0252,49.6585 c 1.848,0.271 3.335,1.015 3.333,3.333 -0.002,2.159 -1.41,2.968 -3.221,3.008 -2.097,0.046 -3.43,-1.126 -3.461,-3.301 -0.029,-2.072 1.338,-2.879 3.349,-3.04 m -39.485,4.166 c 8.145,13.98 25.066,16.041 35.615,4.79 1.37,-1.461 2.749,-0.999 4.2,-1.085 3.063,-0.182 4.805,-1.864 4.612,-4.828 -0.202,-3.127 -2.305,-4.753 -5.437,-4.605 -3.049,0.144 -5.139,2.213 -4.417,4.952 1.489,5.647 -2.28,7.721 -5.92,9.619 -7.335,3.821 -17.092,1.659 -23.658,-4.739 -1.364,-1.33 -2.3,-3.173 -4.995,-4.104"
         style="fill:#c9dff8;fill-opacity:1;fill-rule:nonzero;stroke:none"
         id="path334" />
      <path
         d="m 983.3152,241.3744 c -0.073,3.733 -2.68,6.319 -5.704,6.267 -3.298,-0.057 -4.772,-2.181 -4.992,-5.104 -0.2,-2.654 3.103,-5.826 5.8,-5.606 3.019,0.246 4.839,1.956 4.896,4.443 m 2.14,1.39 c 3.967,8.829 2.68,16.489 -2.241,24.466 3.416,-2.174 4.334,-3.745 5.604,-8.981 1.772,-7.312 0.254,-13.942 -4.489,-19.734 -3.359,-4.101 -9.185,-3.934 -11.872,0.152 -2.09,3.179 -1.477,7.371 1.379,9.41 3.106,2.219 7.336,1.419 9.631,-1.87 0.619,-0.886 1.09,-1.875 1.988,-3.443"
         style="fill:#c9dff8;fill-opacity:1;fill-rule:nonzero;stroke:none"
         id="path342" />
      <path
         d="m 828.6561,72.6107 c 4.874,-0.004 8.951,3.897 9.08,8.688 0.131,4.883 -4.036,9.172 -9.011,9.275 -5.043,0.103 -9.231,-3.944 -9.252,-8.943 -0.021,-5.005 4.063,-9.016 9.183,-9.02 m 0.168,-1.651 c -5.855,-0.118 -10.911,4.768 -10.942,10.57 -0.031,5.646 4.703,10.42 10.475,10.565 5.779,0.146 10.808,-4.511 10.892,-10.086 0.09,-6.031 -4.534,-10.932 -10.425,-11.049"
         style="fill:#c9dff8;fill-opacity:1;fill-rule:nonzero;stroke:none"
         id="path366" />
      <path
         d="m 794.0291,140.1224 c -0.246,0.076 -0.462,0.144 -0.678,0.211 -0.036,-0.208 -0.071,-0.416 -0.107,-0.624 0.124,-0.021 0.291,-0.101 0.364,-0.049 0.162,0.115 0.277,0.296 0.421,0.462 m 6.364,16.25 c 5.949,-0.814 8.145,-6.23 5.121,-10.857 -3.127,-4.786 -7.838,-7.189 -13.412,-7.783 -2.585,-0.274 -5.221,-0.047 -7.851,-0.047 -0.045,2.097 1.303,1.578 2.078,1.88 1.959,0.768 4.049,1.286 5.877,2.286 6.719,3.674 7.272,6.851 2.03,12.633 2.725,-0.125 4.134,-1.451 4.9,-3.521 1.732,-4.679 -1.737,-7.177 -4.719,-9.966 3.616,-0.576 8.414,2.298 10.094,5.935 1.866,4.034 0.095,6.953 -4.118,9.44"
         style="fill:#c9dff8;fill-opacity:1;fill-rule:nonzero;stroke:none"
         id="path370" />
      <path
         d="m 1100.2722,177.4652 c 5.694,-16.063 -6.064,-44.382 -20.95,-50.617 16.068,13.147 23.062,29.991 20.95,50.617"
         style="fill:#c9dff8;fill-opacity:1;fill-rule:nonzero;stroke:none"
         id="path378" />
      <path
         d="m 810.4676,52.18 c 4.937,0.031 8.938,3.897 9.005,8.702 0.072,5.104 -3.888,9.222 -8.906,9.264 -5.094,0.042 -9.237,-3.953 -9.242,-8.914 -0.005,-5.025 4.095,-9.084 9.143,-9.052 m 10.649,8.733 c -0.108,-5.821 -5.171,-10.473 -11.184,-10.278 -5.749,0.187 -10.24,4.961 -10.163,10.806 0.074,5.619 5.02,10.401 10.713,10.357 5.914,-0.046 10.745,-4.99 10.634,-10.885"
         style="fill:#c9dff8;fill-opacity:1;fill-rule:nonzero;stroke:none"
         id="path402" />
      <path
         d="m 1052.6062,172.4164 c -2.047,-0.323 -3.44,-1.412 -3.301,-3.547 0.123,-1.881 1.412,-3.031 3.355,-2.872 2.03,0.167 3.488,1.424 3.368,3.487 -0.107,1.826 -1.503,2.86 -3.422,2.932 m 1.384,-33.416 c 1.29,6.49 2.398,12.916 1.431,19.56 -0.442,3.037 -0.829,5.523 -4.713,6.329 -2.753,0.57 -3.869,3.282 -2.664,6.086 1.25,2.91 3.722,3.818 6.616,2.653 2.851,-1.15 3.842,-3.733 2.326,-6.19 -1.475,-2.387 -0.809,-4.312 -0.388,-6.616 1.374,-7.513 0.978,-14.889 -2.608,-21.822"
         style="fill:#c9dff8;fill-opacity:1;fill-rule:nonzero;stroke:none"
         id="path410" />
      <path
         d="m 1026.6033,168.222 c -0.226,-2.876 -3.038,-3.931 -4.114,-6.412 -3.754,7.073 1.651,20.223 8.895,22.254 2.722,0.762 4.989,-0.103 6.607,-2.455 1.623,-2.36 1.926,-5.044 -0.243,-6.913 -3.285,-2.828 -6.97,-5.22 -11.207,-6.536 1.633,3.288 5.09,4.137 7.883,5.858 2.552,1.572 4.292,3.47 2.326,6.48 -1.817,2.785 -4.367,2.825 -6.924,1.022 -5.263,-3.71 -6.953,-9.053 -6.984,-15.256 1.812,-0.012 2.133,2.16 3.761,1.958"
         style="fill:#c9dff8;fill-opacity:1;fill-rule:nonzero;stroke:none"
         id="path414" />
      <path
         d="m 831.8201,54.929 c 0.659,3.588 2.486,4.627 4.724,5.031 2.962,0.536 5.592,-0.229 7.5,-2.694 2.447,-3.161 2.318,-7.892 -0.222,-10.917 -5.538,-6.597 -20.054,-5.358 -24.397,2.576 3.258,-1.498 5.661,-3.613 8.698,-4.555 4.116,-1.275 8.081,-1.189 11.843,0.785 5.122,2.686 5.817,9.662 1.33,12.472 -3.474,2.177 -6.261,0.282 -9.476,-2.698"
         style="fill:#c9dff8;fill-opacity:1;fill-rule:nonzero;stroke:none"
         id="path418" />
      <path
         d="m 775.6942,142.4779 c 1.137,0.804 2.427,1.458 3.381,2.439 3.203,3.296 2.931,5.338 -1.045,9.458 4.282,-0.274 6.104,-4.143 3.891,-8.258 -2.955,-5.492 -10.54,-8.296 -17.09,-6.321 12.354,7.101 12.739,7.722 7.655,12.894 2.185,0.555 3.235,-0.648 4.025,-2.138 1.537,-2.897 -0.075,-5.086 -1.768,-7.224 -0.244,-0.38 -0.746,-1.05 -0.695,-1.096 0.596,-0.529 1.135,-0.148 1.646,0.246"
         style="fill:#c9dff8;fill-opacity:1;fill-rule:nonzero;stroke:none"
         id="path442" />
      <path
         d="m 796.783,49.4759 c -6.431,-4.307 -16.4,-3.986 -24.044,0.662 -6.937,4.22 -11.583,10.136 -12.482,18.434 11.784,-19.92 15.422,-21.904 36.526,-19.096"
         style="fill:#c9dff8;fill-opacity:1;fill-rule:nonzero;stroke:none"
         id="path458" />
      <path
         d="m 673.4442,50.263 c -5.98,-10.27 -28.837,-12.348 -37.154,-3.097 13.067,-6.756 25.466,-6.34 37.154,3.097"
         style="fill:#c9dff8;fill-opacity:1;fill-rule:nonzero;stroke:none"
         id="path494" />
      <path
         d="m 991.1951,144.6927 c -0.03,2.276 -2.186,3.777 -5.341,4.021 -3.158,0.242 -6.247,-2.632 -6.074,-5.677 0.185,-3.273 2.012,-5.141 5.403,-5.217 3.493,-0.079 5.995,2.277 6.012,6.873 m -12.924,-1.606 c 0.046,4.105 3.473,7.345 7.661,7.244 3.994,-0.097 6.975,-3.109 6.902,-6.976 -0.077,-4.088 -3.561,-7.351 -7.733,-7.242 -4.03,0.106 -6.875,3.011 -6.83,6.974"
         style="fill:#c9dff8;fill-opacity:1;fill-rule:nonzero;stroke:none"
         id="path506" />
      <path
         d="m 1052.7644,264.7806 c 3.546,0.002 6.848,2.994 6.51,5.819 -0.393,3.272 -2.539,4.916 -5.793,4.963 -3.126,0.044 -5.861,-2.563 -5.741,-5.518 0.137,-3.414 2.305,-4.888 5.024,-5.264 m 0.576,-1.518 c -3.982,-0.004 -7.208,2.914 -7.307,6.614 -0.103,3.833 3.577,7.364 7.672,7.361 3.968,-0.002 6.937,-2.958 6.886,-6.854 -0.054,-4.06 -3.165,-7.115 -7.251,-7.121"
         style="fill:#c9dff8;fill-opacity:1;fill-rule:nonzero;stroke:none"
         id="path514" />
      <path
         d="m 1069.8679,133.7494 c 9.469,7.19 15.122,16.611 16.493,29.668 2.779,-9.314 -6.685,-25.771 -16.493,-29.668"
         style="fill:#c9dff8;fill-opacity:1;fill-rule:nonzero;stroke:none"
         id="path518" />
      <path
         d="m 713.0164,78.7415 c -11.022,5.731 -20.619,4.214 -29.006,-5.437 0.393,3.65 3.796,6.724 9.1,8.734 7.242,2.744 13.849,1.483 19.906,-3.297"
         style="fill:#c9dff8;fill-opacity:1;fill-rule:nonzero;stroke:none"
         id="path534" />
      <path
         d="m 903.7938,144.9496 c -0.596,2.372 -1.961,4.021 -4.6,3.962 -2.38,-0.054 -4.189,-1.357 -4.113,-3.81 0.085,-2.728 1.987,-4.368 4.703,-4.271 2.341,0.085 3.748,1.642 4.01,4.119 m -4.479,-5.599 c -3.513,0.117 -5.809,2.506 -5.695,5.929 0.108,3.21 2.527,5.363 5.862,5.216 3.358,-0.149 5.864,-2.75 5.755,-5.975 -0.107,-3.157 -2.54,-5.281 -5.922,-5.17"
         style="fill:#c9dff8;fill-opacity:1;fill-rule:nonzero;stroke:none"
         id="path558" />
      <path
         d="m 1074.0789,118.9603 c -5.608,5.611 -12.078,9.301 -20.403,9.526 5.304,2.952 16.276,-2.033 20.403,-9.526"
         style="fill:#c9dff8;fill-opacity:1;fill-rule:nonzero;stroke:none"
         id="path582" />
      <path
         d="m 841.8895,83.014 c 8.825,3.74 8.266,8.396 3.648,14.197 3.499,-0.799 5.277,-3.875 4.689,-8.116 -0.579,-4.18 -2.907,-6.074 -8.337,-6.081"
         style="fill:#c9dff8;fill-opacity:1;fill-rule:nonzero;stroke:none"
         id="path602" />
      <path
         d="m 972.6961,122.0921 c -0.872,7.392 -5.153,11.302 -12.473,12.459 6.609,2.539 13.552,-4.282 12.473,-12.459"
         style="fill:#c9dff8;fill-opacity:1;fill-rule:nonzero;stroke:none"
         id="path610" />
      <path
         d="m 1039.4236,37.7357 c -0.363,7.454 -2.095,13.276 -7.203,18.912 6.132,-3.128 9.3,-11.626 7.203,-18.912"
         style="fill:#c9dff8;fill-opacity:1;fill-rule:nonzero;stroke:none"
         id="path614" />
      <path
         d="m 775.1277,63.2611 c 5.088,-4.643 11.145,-4.949 18.366,-3.208 -5.379,-4.351 -13.559,-3.04 -19.149,2.229 0.261,0.327 0.521,0.653 0.783,0.979"
         style="fill:#c9dff8;fill-opacity:1;fill-rule:nonzero;stroke:none"
         id="path622" />
      <path
         d="m 842.4461,79.1683 c 7.361,-0.121 10.995,-7.009 6.555,-14.222 1.837,7.471 -0.132,12.022 -6.555,14.222"
         style="fill:#c9dff8;fill-opacity:1;fill-rule:nonzero;stroke:none"
         id="path634" />
      <path
         d="m 813.6961,47.179 c 1.265,-2.825 0.332,-5.241 -1.907,-7.123 -1.734,-1.457 -3.701,-2.737 -6.54,-1.173 6.476,2.109 6.978,2.65 8.447,8.296"
         style="fill:#c9dff8;fill-opacity:1;fill-rule:nonzero;stroke:none"
         id="path654" />
      <path
         d="m 1044.9031,49.8968 c -2.574,3.153 -5.252,6.177 -7.959,9.186 4.246,-1.7 6.673,-4.978 7.959,-9.186"
         style="fill:#c9dff8;fill-opacity:1;fill-rule:nonzero;stroke:none"
         id="path678" />
      <path
         d="m 774.3445,62.2826 c -1.047,0.66 -2.09,1.321 -1.997,2.964 1.647,0.262 1.934,-1.28 2.78,-1.985 -0.262,-0.327 -0.522,-0.653 -0.783,-0.979"
         style="fill:#c9dff8;fill-opacity:1;fill-rule:nonzero;stroke:none"
         id="path706" />
      <path
         d="m 773.5887,106.3451 c 1.111,-5.229 5.893,-7.82 8.553,-11.991 -4.48,1.87 -6.934,5.888 -10.258,10.069 -0.775,-6.736 3.215,-10.424 6.23,-14.643 -4.471,1.881 -6.272,5.987 -8.117,10.459 -1.538,-10.71 4.45,-17.765 17.524,-21.184 -5.04,-1.598 -12.099,1.825 -16.324,7.917 -4.629,6.675 -4.231,16.063 0.951,22.437 5.128,6.308 14.321,8.363 22.283,4.98 7.113,-3.023 11.845,-9.549 11.188,-15.435 -6.902,13.425 -13.417,17.481 -24.192,14.323 7.861,-1.914 13.933,-5.323 17.042,-12.659 -5.56,6.495 -11.558,11.934 -21.016,9.966 4.334,-2.161 8.605,-4.37 12.111,-7.774 -0.273,-0.255 -0.546,-0.51 -0.82,-0.765 -4.27,2.765 -8.376,5.872 -14.658,7.093 3.004,-2.733 5.198,-4.73 7.392,-6.727 -0.241,-0.308 -0.481,-0.618 -0.722,-0.927 -2.523,1.423 -4.213,4.038 -7.087,4.961 -0.16,0.4 -0.305,0.429 -0.387,0.077 -0.007,-0.033 0.2,-0.116 0.307,-0.177"
         style="fill:#c9dff8;fill-opacity:1;fill-rule:nonzero;stroke:none"
         id="path734" />
      <path
         d="m 781.4774,102.4115 c 1.936,-1.259 3.986,-2.396 4.534,-5.231 -1.752,1.434 -3.504,2.87 -5.256,4.304 0.242,0.309 0.482,0.618 0.722,0.927"
         style="fill:#c9dff8;fill-opacity:1;fill-rule:nonzero;stroke:none"
         id="path738" />
      <path
         d="m 789.5633,102.8099 c 1.253,-0.958 2.903,-1.552 3.292,-3.853 -2.121,0.335 -3.033,1.835 -4.111,3.088 0.273,0.255 0.547,0.51 0.819,0.765"
         style="fill:#c9dff8;fill-opacity:1;fill-rule:nonzero;stroke:none"
         id="path742" />
      <path
         d="m 681.0604,134.2591 c 2.056,0.171 3.675,1.375 3.759,3.868 0.076,2.271 -1.191,3.741 -3.579,3.81 -2.525,0.072 -4.043,-1.295 -4.13,-3.781 -0.08,-2.272 1.168,-3.678 3.95,-3.897 m -0.65,-1.628 c -2.764,0.199 -4.742,1.749 -4.911,5.16 -0.157,3.186 2.156,5.729 5.266,5.838 3.107,0.109 5.72,-2.341 5.758,-5.397 0.037,-3.001 -2.515,-5.54 -6.113,-5.601"
         style="fill:#c9dff8;fill-opacity:1;fill-rule:nonzero;stroke:none"
         id="path746" />
      <path
         d="m 674.7596,128.4281 c 9.177,-3.993 11.29,-3.372 16.771,4.273 0.306,-3.082 -1.598,-5.9 -4.959,-7.34 -4.182,-1.792 -8.394,-0.895 -11.812,3.067"
         style="fill:#c9dff8;fill-opacity:1;fill-rule:nonzero;stroke:none"
         id="path750" />
      <path
         d="m 1035.3572,135.1703 c 0.61,4.813 1.253,9.589 1.839,14.378 1.383,-5.042 0.445,-9.812 -1.839,-14.378"
         style="fill:#c9dff8;fill-opacity:1;fill-rule:nonzero;stroke:none"
         id="path754" />
      <path
         d="m 1059.5056,110.097 c -5.803,2.348 -11.89,3.479 -18.943,4.897 5.484,1.246 15.373,-1.369 18.943,-4.897"
         style="fill:#c9dff8;fill-opacity:1;fill-rule:nonzero;stroke:none"
         id="path758" />
      <path
         d="m 897.9783,113.7611 c 2.548,2.171 5.257,2.623 8.095,1.305 3.105,-1.445 4.769,-4.163 4.171,-7.507 -0.466,-2.606 0.389,-3.025 2.644,-3.368 5.406,-0.823 7.313,-4.704 4.667,-8.997 -0.682,7.002 -0.779,7.143 -8.151,7.288 -1.799,0.036 -1.646,0.759 -1.405,2.091 1.495,8.297 -0.567,10.209 -9.1,8.588 -0.174,-0.033 -0.409,0.256 -0.921,0.6"
         style="fill:#c9dff8;fill-opacity:1;fill-rule:nonzero;stroke:none"
         id="path974" />
      <path
         d="m 924.2127,126.5706 c -7.543,0.361 -14.355,-1.471 -20.416,-6.716 1.489,5.631 12.286,9.184 20.416,6.716"
         style="fill:#c9dff8;fill-opacity:1;fill-rule:nonzero;stroke:none"
         id="path978" />
      <path
         d="m 923.1863,101.2747 c 3.896,4.71 6.329,10.156 8.242,15.884 -0.051,-6.661 -3.176,-11.782 -8.242,-15.884"
         style="fill:#c9dff8;fill-opacity:1;fill-rule:nonzero;stroke:none"
         id="path982" />
      <path
         d="m 1028.3015,68.6029 c -0.085,2.346 -1.27,3.846 -3.555,3.855 -2.25,0.01 -4.108,-0.935 -4.172,-3.647 -0.056,-2.394 1.262,-3.686 3.528,-3.79 2.402,-0.11 3.988,1.024 4.199,3.582 m -4.628,-5.241 c -2.691,0.406 -4.718,1.983 -4.737,5.403 -0.018,3.076 2.691,5.708 5.762,5.382 3.137,-0.333 5.23,-2.015 5.26,-5.446 0.029,-3.122 -2.549,-5.453 -6.285,-5.339"
         style="fill:#c9dff8;fill-opacity:1;fill-rule:nonzero;stroke:none"
         id="path1006" />
      <path
         d="m 1026.6755,83.8587 c -11.437,1.276 -15.685,-2.056 -17.686,-12.268 -1.373,3.392 10e-4,7.95 3.281,10.892 3.66,3.283 9.126,4.02 14.405,1.376"
         style="fill:#c9dff8;fill-opacity:1;fill-rule:nonzero;stroke:none"
         id="path1010" />
      <path
         d="m 1015.6834,77.4124 c 3.633,3.288 5.214,3.58 9.01,1.369 -3.015,-0.323 -5.894,-0.047 -8.061,-2.111 -0.316,0.247 -0.633,0.495 -0.949,0.742"
         style="fill:#c9dff8;fill-opacity:1;fill-rule:nonzero;stroke:none"
         id="path1014" />
      <path
         d="m 1016.6326,76.6703 c -0.711,-1.872 -1.421,-3.743 -2.381,-6.271 -0.903,3.163 -0.342,5.225 1.432,7.013 0.316,-0.247 0.633,-0.495 0.949,-0.742"
         style="fill:#c9dff8;fill-opacity:1;fill-rule:nonzero;stroke:none"
         id="path1018" />
      <path
         d="m 990.4295,113.2347 c -0.338,1.879 -1.323,3.207 -3.304,3.122 -1.708,-0.073 -2.931,-1.233 -3.002,-2.954 -0.079,-1.938 1.173,-3.235 3.061,-3.328 1.978,-0.099 2.926,1.307 3.245,3.16 m -2.769,-4.554 c -3.107,0.034 -5.045,1.333 -5.071,4.455 -0.023,2.81 1.517,4.415 4.404,4.504 3.012,0.093 4.869,-1.283 4.899,-4.4 0.028,-2.818 -1.523,-4.372 -4.232,-4.559"
         style="fill:#c9dff8;fill-opacity:1;fill-rule:nonzero;stroke:none"
         id="path1046" />
      <path
         d="m 997.9715,108.4642 c 0.01,-4.451 -2.539,-7.239 -6.498,-8.517 -3.558,-1.146 -6.979,-0.471 -10.489,2.955 10.843,-2.8 12.466,-2.182 16.987,5.562"
         style="fill:#c9dff8;fill-opacity:1;fill-rule:nonzero;stroke:none"
         id="path1050" />
      <path
         d="m 833.0496,81.6595 c 0.104,1.095 -0.866,2.108 -2.391,2.218 -1.532,0.11 -2.652,-0.847 -2.793,-2.468 -0.144,-1.659 0.82,-2.665 2.411,-2.763 1.555,-0.094 2.669,0.635 2.773,3.013 m 1.676,-0.688 c -0.156,-2.474 -1.481,-4.065 -4.181,-4.093 -2.946,-0.031 -4.368,1.787 -4.351,4.535 0.016,2.71 1.699,4.022 4.373,4.003 2.8,-0.022 3.973,-1.669 4.159,-4.445"
         style="fill:#c9dff8;fill-opacity:1;fill-rule:nonzero;stroke:none"
         id="path1054" />
      <path
         d="m 813.4901,59.0267 c -0.037,1.821 -1.012,2.663 -2.643,2.556 -1.611,-0.107 -2.503,-1.086 -2.414,-2.763 0.082,-1.546 1.161,-2.194 2.493,-2.252 1.648,-0.071 2.553,0.849 2.564,2.459 m -2.747,-4.264 c -2.514,0.527 -4.134,2.079 -3.936,4.622 0.198,2.538 2.004,4.085 4.6,3.845 2.352,-0.217 3.827,-1.752 3.707,-4.259 -0.129,-2.675 -1.811,-3.92 -4.371,-4.208"
         style="fill:#c9dff8;fill-opacity:1;fill-rule:nonzero;stroke:none"
         id="path1062" />
    </g>
  </g>
</svg>
