<?xml version="1.0" encoding="UTF-8" standalone="no"?>
<!-- Created with Inkscape (http://www.inkscape.org/) -->

<svg
   viewBox="0 0 82.225755 72.054314"
   version="1.1"
   id="main"
   xmlns="http://www.w3.org/2000/svg"
   xmlns:svg="http://www.w3.org/2000/svg">
  <defs
     id="defs13119" />
  <g
     id="layer1"
     transform="translate(-188.45944,-102.45978)">
    <g
       id="rc"
       transform="matrix(0.35277777,0,0,-0.35277777,-115.42024,270.24467)">
      <path
         d="m 1044.5671,385.2816 0.186,-0.144 0.039,0.213 z m -53.961,-103.896 c -0.071,-0.253 -0.221,-0.492 -0.176,-0.684 0.093,-0.39 0.32,-0.394 0.513,-0.037 0.058,0.106 0.144,0.281 0.1,0.345 -0.099,0.144 -0.271,0.241 -0.437,0.376 m -91.534,40.014 c -0.072,1.511 -0.968,2.406 -2.598,2.415 -1.621,0.008 -2.614,-0.883 -2.707,-2.524 -0.08,-1.412 0.494,-2.402 2.084,-2.527 1.835,-0.143 2.888,0.672 3.221,2.636 m 100.43,19.361 c 0.046,-0.787 -0.048,-1.238 0.109,-1.568 4.002,-8.374 6.211,-17.147 5.806,-26.472 -0.099,-2.253 1.074,-2.938 2.98,-3.199 5.286,-0.723 10.552,-1.617 15.852,-2.219 16.159,-1.833 32.272,-1.418 48.316,1.298 0.806,0.136 1.873,-0.112 2.285,0.723 0.589,1.191 -0.648,1.722 -1.291,2.339 -13.155,12.639 -28.454,20.336 -47.062,20.657 -3.745,0.065 -5.15,-0.875 -4.932,-4.918 0.231,-4.286 0.862,-8.814 -1.683,-13.87 -4.129,11.623 -10.513,20.551 -20.38,27.229 m 10.475,22.317 c -0.421,0.382 -0.911,0.557 -1.331,0.106 -0.085,-0.09 0.29,-0.613 0.453,-0.936 6.133,-7.437 10.145,-15.862 11.637,-25.406 0.383,-2.449 1.506,-3.171 3.963,-3.116 19.088,0.428 35.061,-7.014 48.752,-19.834 3.864,-3.619 7.328,-7.666 11.571,-12.145 -0.833,7.973 -3.182,14.642 -6.986,20.709 -9.171,14.623 -23.523,20.922 -40.049,23.666 0.496,0.705 0.643,1.097 0.794,1.097 0.691,0.006 1.391,-0.051 2.074,-0.167 7.266,-1.239 13.861,-4.78 20.821,-6.591 11.157,-2.903 21.297,-6.925 30.02,-15.925 -0.775,7.335 -4.113,12.104 -9.17,15.767 -6.632,4.803 -14.25,7.197 -22.178,8.857 -2.904,0.608 -6.057,0.379 -8.743,2.54 13.672,-2.96 26.974,-3.55 39.795,4.951 -14.562,6.041 -28.903,3.502 -43.2,1.755 27.246,5.909 35.433,13.048 36.366,32.501 -0.552,-0.446 -1.033,-0.728 -1.374,-1.129 -7.581,-8.93 -17.217,-14.872 -28.029,-18.972 -3.703,-1.403 -7.167,-3.093 -10.505,-5.21 -3.607,-2.287 -7.506,-4.016 -12.178,-5.01 0.737,2.198 2.242,2.071 3.309,2.465 8.538,3.152 15.461,8.471 21.453,15.249 8.737,9.881 7.811,20.944 4.516,33.377 -0.589,-1.681 -0.97,-2.441 -1.122,-3.244 -2.229,-11.855 -8.122,-21.138 -18.814,-27.145 -1.193,-0.671 -2.125,-1.81 -3.179,-2.731 -0.306,0.262 -0.614,0.523 -0.922,0.785 1.226,1.539 2.475,3.06 3.675,4.619 8.544,11.091 8.506,28.541 -0.268,37.842 -0.059,-0.846 -0.165,-1.51 -0.142,-2.17 0.597,-16.836 -9.686,-35.403 -26.521,-39.111 -2.769,-0.609 -1.69,-1.874 -0.76,-3.218 3.129,-4.522 5.681,-9.371 8.007,-14.336 1.259,-2.69 2.771,-5.329 2.966,-9.169 -5.023,3.718 -9.459,7.175 -14.701,9.279 m -78.768,-17.9 c 10.704,-8.274 21.775,-15.974 34.099,-21.697 6.985,-3.243 14.025,-6.348 22.115,-8.554 -1.343,4.477 -3.29,7.954 -5.185,11.473 -1.184,2.197 -3.315,1.927 -5.139,2.221 -11.796,1.902 -22.342,6.535 -31.595,14.098 0.306,0.253 0.614,0.505 0.92,0.758 8.296,-5.663 16.958,-10.551 26.943,-12.597 1.768,-0.363 3.554,-0.639 6.679,-1.195 -3.334,4.096 -4.633,7.844 -9.797,8.85 -23.907,4.656 -41.191,27.094 -38.455,49.562 0.82,6.739 3.408,12.771 8.912,17.358 -9.844,-13.522 -10.479,-27.423 -2.316,-41.791 7.204,-12.68 19.021,-21.284 32.673,-23.595 -1.188,2.512 -3.272,3.902 -4.962,5.593 -7.355,7.359 -14.077,15.13 -15.224,26.046 -0.8,7.609 2.05,14.046 7.232,19.518 0.414,0.438 0.983,1.115 1.709,0.303 -2.417,-3.907 -5.596,-7.368 -6.783,-11.99 -2.502,-9.74 1.348,-17.767 7.207,-24.94 4.437,-5.432 9.722,-10.164 14.389,-15.421 13.502,-15.21 20.266,-32.593 16.666,-53.199 -0.204,-1.163 -0.593,-2.401 0.112,-3.416 0.95,-0.202 1.242,0.328 1.539,0.777 11.12,16.806 14.775,34.416 6.045,53.516 -1.033,2.261 -4.373,5.248 -2.331,6.799 1.793,1.36 4.663,-2.17 6.861,-3.799 7.021,-5.202 11.743,-12.292 16.191,-21.139 1.1,9.864 0.075,18.189 -2.625,26.372 -2.762,8.371 -7.85,15.259 -13.868,21.743 6.664,-1.384 12.334,-4.544 17.869,-8.179 0.133,0.554 0.293,0.838 0.24,1.073 -0.126,0.541 -0.321,1.074 -0.548,1.583 -4.272,9.593 -9.747,18.407 -17.229,25.836 -7.29,7.24 -15.912,11.379 -26.448,11.091 -6.657,-0.182 -12.003,-3.417 -17.356,-6.776 0.974,2.584 2.837,4.473 7.547,5.963 3.65,1.154 4.52,3.094 4.414,6.721 -0.265,9.002 -0.378,17.998 -1.833,26.909 -1.402,8.581 -6.945,14.175 -14.744,14.955 -7.615,0.76 -14.23,-3.854 -17.355,-11.976 -1.78,-4.63 -2.713,-9.435 -3.393,-14.316 -0.203,-1.455 0.175,-3.092 -1.882,-5.127 0.296,5.941 0.671,10.996 2.485,15.742 1.548,4.047 0.103,4.756 -3.567,4.408 -2.012,-0.19 -4.145,-0.557 -6.599,0.47 3.414,2.201 7.093,0.279 10.813,1.777 -3.253,2.843 -6.271,5.479 -9.288,8.114 3.9,-0.787 6.146,-3.733 9.107,-5.672 1.013,-0.664 2.271,-2.68 3.088,-0.122 0.614,1.927 5.238,2.53 1.931,5.765 -5.714,5.59 -4.983,11.932 1.957,15.808 1.561,0.871 2.051,2.216 2.819,3.49 2.747,4.556 10.988,5.907 13.713,0.697 -2.596,-0.034 -4.584,2.386 -7.413,1.681 -2.19,-0.546 -4.115,-1.587 -5.003,-3.506 -1.171,-2.526 2.078,-2.003 2.844,-3.312 0.252,-0.43 0.298,-0.746 -0.242,-1.254 -0.908,0.37 -1.882,0.958 -2.93,1.157 -2.996,0.57 -5.309,-0.764 -6.732,-3.261 -1.752,-3.075 -1.578,-6.278 0.69,-9.081 1.782,-2.201 3.837,-2.534 6.696,-1.355 8.41,3.466 16.509,0.782 21.81,-6.844 0.791,-1.138 1.144,-2.722 3.108,-1.711 3.147,1.618 5.666,3.804 6.213,7.479 0.409,2.744 -0.764,5.188 -3.029,6.547 -2.059,1.236 -2.252,-1.976 -3.819,-2.323 -0.224,-0.05 -0.498,0.128 -0.782,0.209 -0.406,0.859 0.323,1.256 0.744,1.746 2.233,2.598 2.963,5.41 1.179,8.538 -1.648,2.889 -4.299,3.604 -7.468,3.839 -4.154,0.31 -2.851,-3.319 -4.085,-5.233 -0.288,2.458 -2.271,4.268 -1.83,6.737 1.276,-0.994 2.573,-0.496 3.972,-0.23 6.609,1.255 11.072,-1.959 11.967,-8.551 0.168,-1.242 0.195,-2.292 1.205,-3.387 5.213,-5.643 4.549,-12.019 -1.96,-15.816 -2.915,-1.702 -3.119,-3.279 -2.654,-6.347 1.372,-9.044 1.819,-18.196 1.853,-27.355 0.006,-2.013 -0.258,-3.912 2.938,-3.72 13.183,0.786 23.408,-5.155 31.559,-14.89 2.549,-3.045 4.764,-3.444 8.257,-2.245 12.726,4.368 22.414,17.546 23.183,31.973 0.244,4.589 0.183,9.166 -1.702,14.046 10.83,-6.741 14.292,-25.464 8.156,-41.019 -0.074,-0.46 -0.148,-0.92 -0.223,-1.381 0.331,0.107 0.662,0.216 0.992,0.323 9.754,7.915 13.21,18.703 13.549,31.237 9.346,-10.83 6.618,-31.78 -5.265,-44.488 -0.213,-0.301 -0.426,-0.605 -0.64,-0.909 0.551,-0.253 1.013,-0.156 1.371,0.348 12.118,4.565 22.332,11.678 30.442,23.446 0.939,-7.662 -0.496,-13.802 -3.122,-19.82 -2.676,-6.134 -7.332,-10.367 -13.097,-13.744 8.442,-0.933 16.679,-1.487 24.778,-5.473 -6.581,-5.74 -14.245,-7.608 -23.017,-9.085 12.308,-5.348 22.285,-11.711 21.051,-26.527 -6.405,7.892 -14.658,12.686 -24.169,15.552 -0.393,0.187 -0.801,0.312 -1.032,-0.185 -0.03,-0.066 0.371,-0.331 0.574,-0.503 9.844,-8.447 16.316,-18.864 18.446,-31.777 0.357,-2.168 0.916,-4.383 -0.03,-6.97 -2.858,1.925 -4.259,4.865 -6.253,7.215 -1.811,2.132 -3.451,3.088 -6.468,2.35 -4.071,-0.995 -8.34,-1.563 -12.528,-1.589 -4.463,-0.027 -6.94,-2.425 -9.131,-5.708 -2.922,-4.375 -3.21,-5.618 -3.695,-17.217 -3.273,4.142 -1.796,10.824 4.868,22.003 -10.255,-0.221 -13.567,3.567 -16.187,-16.412 -1.95,5.111 -0.706,9.187 1.344,12.976 1.484,2.745 1.163,3.719 -2.037,3.775 -9.73,0.171 -19.378,1.214 -28.895,3.253 -2.284,0.49 -2.485,-0.63 -2.858,-2.356 -2.263,-10.501 -7.158,-19.778 -13.488,-28.357 -0.834,-1.128 -1.79,-2.173 -2.749,-3.202 -0.246,-0.263 -0.719,-0.314 -1.557,-0.653 1.087,4.359 2.143,8.357 3.076,12.384 1.816,7.846 1.286,15.658 -0.458,23.449 -0.494,2.206 -1.438,3.514 -3.865,4.303 -5.608,1.821 -10.922,4.569 -16.558,6.27 -13.783,4.16 -27.005,3.909 -38.249,-6.693 -10.846,-10.227 -9.413,-28.358 2.818,-36.826 7.664,-5.306 19.412,-4.816 25.525,1.065 5.926,5.701 6.281,14.657 0.941,23.671 0.311,0.233 0.621,0.468 0.932,0.701 5.349,-6.09 5.492,-13 2.772,-20.103 -2.75,-7.184 -8.801,-9.993 -15.956,-10.495 -17.115,-1.203 -29.63,14.925 -24.951,31.961 0.298,1.083 0.709,2.135 1.067,3.202 0.002,0.322 0.005,0.644 0.009,0.965 -0.234,-0.064 -0.468,-0.127 -0.703,-0.192 -10.246,-6.051 -21.222,-9.63 -33.201,-9.86 -3.431,-0.067 -6.728,0.54 -9.913,1.78 -7.758,3.02 -11.56,11.729 -8.532,19.516 2.761,7.103 10.998,10.571 18.642,7.75 2.081,-0.769 3.905,-1.694 6.384,-1.186 2.3,0.471 4.046,-1.136 4.207,-3.668 0.156,-2.473 -1.289,-4.055 -3.583,-4.527 -2.385,-0.491 -4.151,0.682 -4.897,2.995 -1.65,5.113 -4.417,6.77 -9.717,5.657 -5.973,-1.255 -9.443,-4.864 -10.332,-10.749 -0.844,-5.573 1.973,-11.063 7.068,-13.707 5.978,-3.102 12.406,-2.646 18.627,-1.613 12.276,2.039 23.454,6.56 32.548,15.587 5.831,5.788 13.235,8.374 21.439,8.569 2.496,0.061 4.993,0.01 7.614,0.344 -7.471,3.915 -13.859,9.511 -21.587,12.861 -3.164,1.372 -6.516,1.685 -9.932,1.16 -7.294,-1.119 -10.204,-5.092 -10.636,-14.51 -3.365,4.056 -1.461,8.855 6.139,15.469 -5.787,1.636 -7.54,0.296 -11.468,-8.767 -1.359,7.24 5.259,13.034 12.451,10.568 3.327,-1.142 6.515,-0.947 10.651,-1.009 -1.966,1.82 -3.352,3.102 -4.738,4.385 z"
         style="fill:#c9dff8;fill-opacity:1;fill-rule:nonzero;stroke:none"
         id="path70" />
      <path
         d="m 994.5067,410.0951 c -1.941,-0.381 -3.415,-1.277 -3.372,-3.5 0.042,-2.17 1.388,-3.362 3.44,-3.349 2.068,0.015 3.369,1.26 3.36,3.418 -0.009,2.174 -1.353,3.189 -3.428,3.431 m 29.629,51.336 c -0.183,2.183 -1.317,3.508 -3.479,3.483 -2.154,-0.023 -3.385,-1.332 -3.347,-3.509 0.035,-2 1.28,-3.141 3.206,-3.209 2.129,-0.077 3.407,1.068 3.62,3.235 m 45.404,-15.659 c -4.354,3.774 -21.228,8.379 -26.319,7.259 -2.406,-0.531 -4.279,-1.802 -4.377,-4.405 -0.091,-2.415 1.585,-4.008 3.78,-4.448 7.307,-1.468 14.684,-2.25 22.07,-0.559 1.581,0.362 3.361,0.487 4.846,2.153 m 2.503,-22.511 0.173,0.205 -0.241,-0.235 c 0.904,1.528 0.277,3.01 -0.189,4.465 -2.44,7.616 -9.897,12.902 -19.109,13.632 -3.916,0.311 -7.927,0.108 -11.618,1.796 -2.552,1.168 -3.932,3.129 -3.642,6.047 0.288,2.904 1.879,4.511 4.75,5.112 1.975,0.415 3.887,0.49 5.859,0.134 2.63,-0.474 5.26,-1.022 7.915,-1.276 11.191,-1.072 16.743,5.456 14.009,17.089 -4.57,-7.464 -11.798,-8.85 -19.378,-9.664 -3.901,-0.419 -7.804,-0.859 -11.617,-2.044 -4.763,-1.482 -7.873,-4.302 -8.641,-9.295 -0.743,-4.82 1.315,-8.473 5.172,-11.223 4.375,-3.12 9.477,-4.134 14.624,-5.064 8.081,-1.461 16.081,-3.156 21.933,-9.679 m -92.038,50.217 c 0.285,2.945 2.483,2.02 4.11,1.906 2.08,-0.146 3.581,-1.527 3.62,-3.5 0.048,-2.512 1.509,-3.697 3.176,-5.068 4.559,-3.751 7.109,-8.945 9.552,-14.635 3.668,5.056 7.925,8.371 13.603,9.431 1.457,0.271 1.566,1.416 2.166,2.292 2.067,3.025 4.962,3.663 7.518,1.672 2.382,-1.853 2.801,-5.303 0.667,-7.437 -2.389,-2.39 -5.281,-2.437 -7.391,0.086 -1.819,2.172 -3.529,1.844 -5.591,1.057 -3.529,-1.346 -6.278,-3.685 -8.523,-6.684 -1.345,-1.798 -1.711,-3.58 -1.151,-5.899 0.814,-3.379 1.028,-6.904 1.58,-10.965 1.811,1.628 3.351,3.157 5.038,4.501 4.926,3.921 10.531,6.48 16.635,7.95 2.255,0.543 3.914,1.212 4.626,3.991 1.468,5.732 6.461,7.482 11.536,8.532 4.263,0.882 8.624,1.302 12.951,1.848 6.008,0.759 11.059,3.078 14.451,8.367 0.653,1.018 1.11,2.33 2.534,2.664 3.317,-8.513 0.652,-16.665 -7.387,-22.215 2.341,-1.351 4.635,-2.612 6.864,-3.981 2.055,-1.262 2.183,-2.555 -0.267,-3.463 -2.755,-1.021 -5.557,-1.92 -8.848,-3.046 9.21,-4.559 13.436,-11.737 12.402,-21.965 -4.673,6.904 -11.611,9.855 -19.198,11.63 -3.968,0.928 -8.099,1.271 -11.972,2.47 -6.441,1.994 -12.606,4.6 -13.79,12.526 -0.325,2.182 -1.872,1.675 -3.241,1.385 -15.851,-3.354 -26.994,-15.914 -28.646,-32.041 -0.42,-4.114 2.094,-7.448 3.527,-10.641 1.18,-2.631 6.327,-2.035 9.854,-1.309 8.95,1.841 15.909,9.255 16.186,17.157 0.181,5.21 -2.898,9.26 -7.086,9.319 -3.98,0.057 -6.288,-3.014 -6.453,-8.551 -0.01,-0.252 -0.212,-0.498 -0.566,-1.282 -1.996,3.453 -1.035,6.233 1.015,8.571 2.601,2.964 6.004,3.57 9.586,1.855 4.113,-1.97 6.06,-7.172 4.828,-12.404 -2.757,-11.698 -14.357,-18.552 -26.803,-15.729 -1.691,0.384 -3.162,0.591 -4.906,0.034 -2.97,-0.947 -5.325,0.156 -6.378,3.198 -1.004,2.899 0.258,5.107 2.922,6.132 1.851,0.711 2.593,1.597 2.729,3.551 0.175,2.517 -1.873,2.095 -3.093,2.62 -9.383,4.036 -11.81,14.153 -5.047,21.384 1.44,1.54 3.029,2.909 6.378,2.741 -1.785,-1.266 -2.951,-2.026 -4.043,-2.881 -3.505,-2.743 -5.159,-6.41 -4.418,-10.761 0.707,-4.157 3.377,-7.058 7.267,-8.688 1.35,-0.565 3.12,-1.52 3.758,0.873 1.863,6.975 6.041,13.304 4.958,21.107 -1.234,8.894 -4.041,16.933 -10.3,23.522 -1.604,1.689 -3.057,3.28 -5.971,1.379 -2.327,-1.518 -5.158,-0.559 -6.382,2.168 -0.825,1.841 -1.703,4.299 1.483,5.293 -0.179,-0.805 -0.449,-1.603 -0.522,-2.419 -0.214,-2.397 1.162,-3.843 3.314,-4.031 2.043,-0.179 3.526,1.227 3.602,3.303 0.086,2.318 -1.513,3.552 -3.69,3.762 -0.894,0.085 -1.847,-0.436 -2.773,-0.682"
         style="fill:#c9dff8;fill-opacity:1;fill-rule:nonzero;stroke:none"
         id="path94" />
      <path
         d="m 868.5555,380.4242 c -0.231,1.371 -0.862,2.472 -2.354,2.516 -1.816,0.052 -2.963,-0.97 -2.939,-2.81 0.02,-1.448 0.952,-2.251 2.481,-2.243 1.708,0.009 2.493,0.997 2.812,2.537 m 31.149,65.9 c -0.184,1.674 -1.101,2.69 -2.763,2.513 -1.464,-0.155 -2.803,-0.976 -2.802,-2.636 10e-4,-1.655 1.187,-2.527 2.803,-2.45 1.552,0.075 2.646,0.861 2.762,2.573 m 30.59,-101.918 c -2.695,2.47 -5.422,4.906 -8.076,7.418 -2.822,2.674 -6.194,3.889 -9.999,3.622 -4.87,-0.34 -6.847,-3.253 -7.411,-10.463 -2.503,4.133 -1.247,7.549 4.359,11.856 -3.781,1.074 -3.815,1.058 -8.913,-4.266 0.204,3.575 2.631,5.739 6.527,6.509 3.583,0.708 6.156,-2.754 9.899,-2.025 -7.842,13.456 -19.211,21.102 -34.599,22.559 -2.658,0.252 -5.341,0.243 -8.015,0.309 -1.836,0.046 -3.393,-0.111 -4.75,-1.912 -1.753,-2.325 -4.397,-2.675 -6.621,-0.565 -1.757,1.667 -1.717,3.884 -0.012,5.666 2.116,2.211 4.475,2.247 6.604,-0.031 0.903,-0.965 1.688,-1.729 3.162,-1.648 11.353,0.623 22.053,-1.573 31.731,-7.975 1.076,2.34 -0.57,3.586 -1.254,4.943 -9.717,19.289 -12.364,39.536 -8.513,60.71 0.277,1.517 0.387,2.809 -0.711,4.319 -1.685,2.32 -1.494,4.852 1.277,6.479 2.38,1.398 4.536,0.615 5.8,-1.583 1.595,-2.777 0.391,-5.01 -2.427,-6.032 -2.848,-1.031 -2.495,-3.466 -2.811,-5.526 -5.255,-34.297 6.126,-62.753 30.537,-86.603 1.706,-1.667 3.42,-3.327 5.13,-4.99 z"
         style="fill:#c9dff8;fill-opacity:1;fill-rule:nonzero;stroke:none"
         id="path146" />
      <path
         d="m 945.5037,342.7191 c -12.186,9.744 -20.759,21.867 -23.405,37.447 -1.824,10.744 1.199,20.654 7.125,29.684 0.441,0.672 0.665,1.977 2.009,1.66 0.59,-0.583 0.199,-1.072 -0.103,-1.52 -12.865,-19.089 -8.857,-37.379 3.387,-53.998 3.456,-4.69 7.799,-8.476 11.908,-12.515 -0.307,-0.253 -0.614,-0.505 -0.921,-0.758"
         style="fill:#c9dff8;fill-opacity:1;fill-rule:nonzero;stroke:none"
         id="path286" />
      <path
         d="m 959.8914,301.3226 c -6.31,5.567 -12.629,6.357 -17.835,2.341 -3.138,-2.421 -4.55,-5.477 -3.094,-9.223 1.375,-3.54 3.94,-5.772 8.134,-5.226 0.491,0.063 1.014,-0.109 1.807,-0.207 -3.422,-1.988 -7.203,-1.186 -9.719,1.814 -3.039,3.624 -3.15,8.605 -0.269,12.002 5.875,6.925 16.073,6.552 21.908,-0.8 -0.311,-0.233 -0.621,-0.468 -0.932,-0.701"
         style="fill:#c9dff8;fill-opacity:1;fill-rule:nonzero;stroke:none"
         id="path474" />
      <path
         d="m 953.0477,438.9251 c 2.822,-2.28 2.39,-4.948 0.312,-7.2 -1.96,-2.123 -4.699,-2.04 -6.805,-0.168 -2.105,1.871 -2.418,4.472 -0.597,6.763 2.065,2.597 4.582,2.821 7.153,0.543 -1.566,-0.987 -7.2,1.982 -3.79,-3.895 0.101,-0.174 -0.348,-0.714 -0.6,-1.036 -1.278,-1.636 0.015,-1.97 1.147,-1.941 2.537,0.067 3.706,1.51 3.507,4.062 -0.075,0.962 -1.625,1.758 -0.327,2.872"
         style="fill:#c9dff8;fill-opacity:1;fill-rule:nonzero;stroke:none"
         id="path570" />
      <path
         d="m 1036.1072,376.0374 c -1.887,-2.011 -3.836,-3.935 -7.183,-4.099 2.162,1.689 4.326,3.377 6.489,5.066 z"
         style="fill:#c9dff8;fill-opacity:1;fill-rule:nonzero;stroke:none"
         id="path762" />
      <path
         d="m 1036.0066,377.5999 c 0.572,0.58 1.144,1.16 1.715,1.741 0.307,-0.262 0.615,-0.522 0.922,-0.784 -0.561,-0.564 -1.121,-1.128 -1.682,-1.692 z"
         style="fill:#c9dff8;fill-opacity:1;fill-rule:nonzero;stroke:none"
         id="path766" />
      <path
         d="m 1035.4128,377.0042 0.595,0.595 c 0.317,-0.244 0.635,-0.49 0.954,-0.735 -0.285,-0.275 -0.57,-0.55 -0.855,-0.827 z"
         style="fill:#c9dff8;fill-opacity:1;fill-rule:nonzero;stroke:none"
         id="path770" />
      <path
         d="m 1000.5164,351.2611 c -3.424,6.934 -6.499,13.546 -9.934,19.967 -1.902,3.555 -0.733,4.024 2.623,3.739 3.023,-0.257 6.084,-0.054 9.299,-0.054 -0.8,3.714 -4.249,5.033 -7.124,8.273 5.248,-1.447 7.459,-4.462 8.915,-8.157 0.732,-1.855 -0.635,-2.172 -2.054,-2.1 -2.532,0.127 -5.067,0.246 -7.584,0.519 -2.563,0.277 -3.405,-0.203 -2.004,-2.865 3.01,-5.723 5.819,-11.555 8.648,-17.373 0.514,-1.056 1.778,-2.187 0.705,-3.42 -0.832,-0.956 -2.122,-0.382 -3.21,-0.166 -6.002,1.188 -11.911,2.653 -17.21,5.973 6.213,-1.199 12.037,-4.039 18.93,-4.336"
         style="fill:#c9dff8;fill-opacity:1;fill-rule:nonzero;stroke:none"
         id="path774" />
      <path
         d="m 965.5164,364.2523 c -4.452,4.817 -6.279,10.438 -3.719,16.6 2.56,6.158 7.747,9.004 14.384,9.179 5.045,0.134 9.794,-0.802 14.056,-3.853 -9.36,2.553 -18.91,5.779 -25.956,-4.083 -4.277,-5.987 -1.441,-11.774 2.144,-17.139 -0.303,-0.234 -0.606,-0.469 -0.909,-0.704"
         style="fill:#c9dff8;fill-opacity:1;fill-rule:nonzero;stroke:none"
         id="path778" />
      <path
         d="m 966.4256,364.9564 c 2.271,-2.175 4.659,-4.216 7.163,-6.167 -3.622,0.492 -6.1,2.607 -8.072,5.463 0.303,0.235 0.606,0.47 0.909,0.704"
         style="fill:#c9dff8;fill-opacity:1;fill-rule:nonzero;stroke:none"
         id="path782" />
      <path
         d="m 948.1697,451.2064 c 5.607,4.478 14.887,2.635 18.35,-3.653 -5.47,4.473 -11.518,6.036 -18.35,3.653"
         style="fill:#c9dff8;fill-opacity:1;fill-rule:nonzero;stroke:none"
         id="path786" />
    </g>
  </g>
</svg>
