<?xml version="1.0" encoding="UTF-8" standalone="no"?>
<!-- Created with Inkscape (http://www.inkscape.org/) -->

<svg
   viewBox="0 0 148.3029 41.617169"
   version="1.1"
   id="main"
   xmlns="http://www.w3.org/2000/svg"
   xmlns:svg="http://www.w3.org/2000/svg">
  <defs
     id="defs13119" />
  <g
     id="layer1"
     transform="translate(-151.05026,-70.7646)">
    <g
       id="rt"
       transform="matrix(0.35277777,0,0,-0.35277777,-84.840738,283.33002)">
      <path
         d="m 1045.8875,530.1409 c -0.084,-11.317 9.124,-20.539 20.638,-20.667 11.328,-0.126 20.85,9.215 20.874,20.477 0.023,11.001 -9.284,20.29 -20.481,20.44 -11.442,0.154 -20.948,-8.998 -21.031,-20.25 m -60.886,30.766 c -0.918,-1.021 -1.837,-2.041 -3.204,-3.561 6.749,1.466 13.252,1.876 18.882,4.308 12.422,5.366 14.445,17.608 5.33,28.002 3.125,-0.41 4.943,-2.085 6.438,-6.332 3.075,-8.742 -0.852,-15.244 -8.059,-21.889 7.41,1.384 14.119,-0.99 19.862,1.891 9.777,4.905 10.854,13.785 3.536,22.545 2.941,-0.378 4.262,-1.646 5.602,-5.374 2.194,-6.106 0.561,-10.49 -6.767,-18.121 0.42,-1.352 1.63,-0.758 2.457,-0.886 9.687,-1.498 18.938,-4.29 27.441,-9.25 1.957,-1.142 3.766,-1.221 5.983,-0.797 13.032,2.492 24.995,-6.525 26.439,-19.745 1.289,-11.802 -8.717,-23.117 -20.836,-23.562 -13.83,-0.509 -24.181,9.345 -23.823,22.679 0.2,7.494 3.296,12.362 12.495,19.356 -8.439,5.214 -17.422,8.143 -27.287,9.517 4.462,-7.901 4.039,-11.536 -2.141,-13.16 3.161,2.499 4.722,5.049 3.048,8.284 -1.876,3.624 -4.733,5.842 -9.091,5.72 -3.746,-0.106 -7.498,-0.023 -12.516,-0.023 3.995,-2.449 7.52,-3.213 9.994,-5.71 2.845,-2.873 3.267,-6.491 1.068,-9.538 -1.85,-2.56 -5.743,-3.289 -8.733,-1.633 -3.108,1.722 -3.907,4.99 -2.046,8.492 1.115,-0.754 0.265,-1.766 0.326,-2.625 0.178,-2.533 1.316,-4.304 3.827,-4.931 2.451,-0.612 4.417,0.123 5.761,2.382 1.488,2.501 0.856,4.773 -1.122,6.454 -5.029,4.271 -11.15,6.783 -17.543,5.927 -24.31,-3.256 -46.645,-12.509 -68.241,-23.734 -0.192,-0.099 -0.246,-0.466 -0.751,-1.498 5.402,2.266 10.322,-0.442 15.55,0.821 3.383,0.818 7.413,-0.815 11.103,-1.59 1.825,-0.384 3.136,-0.464 4.378,1.282 3.93,5.529 9.628,6.516 15.806,5.454 4.15,-0.713 8.212,-1.926 12.316,-2.908 4.279,-1.026 8.608,-1.76 12.931,-0.489 2.49,0.733 2.428,-0.587 1.935,-2.115 -1.281,-3.968 -3.815,-6.988 -7.811,-8.292 -2.651,-0.865 -2.316,-1.637 -0.683,-3.262 2.93,-2.915 3.859,-7.666 6.893,-9.93 2.891,-2.157 7.628,-0.56 11.421,-1.81 8.62,-2.84 15.253,-7.807 18.303,-16.758 -4.197,6.715 -9.46,12.106 -18.115,15.006 2.352,-4.038 4.48,-7.107 5.115,-10.879 0.992,-5.901 -2.282,-12.229 -7.315,-13.733 -2.534,-0.758 -4.731,-0.138 -6.539,1.791 -1.718,1.833 -2.109,3.994 -1.159,6.259 0.838,1.996 2.372,3.057 4.723,2.535 0,-0.291 0.078,-0.692 -0.012,-0.734 -2.838,-1.324 -5.082,-2.965 -2.81,-6.422 1.797,-2.736 5.148,-2.754 8.089,-0.219 3.719,3.206 4.647,8.537 2.437,14.009 -2.17,5.377 -7.107,8.778 -12.934,8.367 -4.637,-0.327 -9.241,-0.936 -13.889,-0.307 -2.359,0.32 -1.849,-1.161 -1.317,-2.327 1.389,-3.05 1.642,-6.225 1.435,-9.503 -0.101,-1.595 -0.553,-3.009 -1.498,-4.315 -0.92,-1.272 -1.85,-2.902 -3.429,-2.849 -1.97,0.067 -1.344,2.269 -1.564,3.41 -0.656,3.42 -3.547,5.87 -3.796,9.394 3.67,-2.387 4.006,-6.786 6.037,-10.502 3.049,2.788 3.027,5.904 2.614,9.383 -0.419,3.523 -2.777,6.313 -3.52,10.43 3.733,-1.788 7.218,-1.877 10.701,-1.685 1.587,0.088 3.879,-0.884 4.576,0.839 0.567,1.403 -1.078,3.022 -1.924,4.47 -2.017,3.452 -4.775,6.312 -7.834,9.18 5.708,0.821 9.818,2.989 12.27,8.743 -7.238,-1.33 -13.276,0.85 -19.404,2.368 -3.836,0.951 -7.674,1.741 -11.67,1.517 -5.07,-0.282 -8.247,-3.233 -10.466,-7.41 -2.138,-4.024 -1.286,-7.805 1.125,-11.52 2.634,-4.055 6.618,-6.416 10.44,-9.044 2.735,-1.88 5.851,-3.411 7.116,-6.838 -6.864,5.207 -15.183,8.681 -19.8,16.563 -1.401,2.39 -1.964,5.044 -1.451,7.736 0.501,2.624 -0.676,3.454 -2.971,3.939 -13.626,2.877 -26.906,2.388 -39.358,-4.449 -23.578,-12.947 -48.619,-21.531 -75.249,-25.219 -21.793,-3.02 -43.546,-2.599 -65.129,2.093 -0.788,0.171 -1.629,0.1 -3.434,0.193 6.433,-4.197 11.79,-8.254 15.768,-13.808 0.33,-0.461 0.573,-0.98 -0.357,-2.117 -7.801,11.545 -19.945,16.592 -32.246,21.289 0.755,1.808 1.629,1.026 2.294,0.81 34.888,-11.362 70.082,-11.151 105.406,-2.498 7.356,1.802 13.292,6.637 19.13,11.316 0.715,0.573 1.226,1.571 1.52,2.474 3.875,11.885 -2.632,29.844 -13.152,36.278 -6.532,3.996 -13.444,4.654 -20.675,2.13 -0.631,-0.221 -1.324,-0.27 -1.993,-0.365 -0.079,-0.011 -0.187,0.187 -0.282,0.289 3.415,3.137 8.395,3.78 17.429,2.252 0.747,-0.45 1.356,-0.679 0.999,0.628 -2.494,5.364 -5.235,10.674 -3.366,16.912 1.119,3.731 3.827,5.371 7.492,5.774 3.457,0.381 6.491,-0.251 8.299,-3.625 1.064,-1.983 1.273,-4.082 0.09,-6.034 -1.196,-1.976 -3.097,-2.563 -5.431,-2.298 0.314,1.383 1.351,1.257 2.044,1.637 3.072,1.686 3.538,4.269 1.222,6.87 -2.188,2.456 -4.903,2.456 -7.763,1.581 -2.845,-0.87 -4.637,-2.837 -4.834,-5.765 -0.493,-7.32 1.808,-13.931 7.575,-18.359 11.091,-8.515 15.275,-19.694 14.587,-33.196 -0.043,-0.844 -0.113,-1.688 -0.107,-2.531 10e-4,-0.205 0.252,-0.408 0.592,-0.917 6.512,5.608 11.423,12.284 14.915,20.054 0.752,1.673 0.027,2.606 -1.4,3.357 -8.057,4.239 -12.599,15.238 -9.675,24.793 2.843,9.288 10.919,15.347 21.586,15.954 3.368,0.19 3.893,1.35 2.096,4.315 -1.55,2.555 -4.36,3.149 -7.507,4.406 5.343,0.758 8.546,-1.493 9.961,-6.212 0.372,-1.241 -0.079,-3.119 1.912,-3.311 1.756,-0.17 2.18,1.519 2.968,2.61 1.266,1.758 2.045,3.887 4.332,5.781 -0.284,-3.303 -2.267,-5.027 -3.333,-7.167 -0.464,-0.933 -1.63,-1.781 -0.273,-2.907 1.361,-1.129 2.147,-0.226 3.191,0.64 4.914,4.068 9.744,4.605 14.311,1.737 0.58,-0.364 1.187,-0.733 0.885,-1.959 -1.723,0.67 -3.303,1.508 -4.986,1.882 -1.919,0.427 -3.891,0.304 -5.793,-0.52 -4.258,-1.847 -4.555,-3.019 -1.584,-6.834 -2.105,-0.95 -2.799,1.156 -3.963,1.983 -6.852,4.872 -16.551,5.208 -23.449,0.635 -7.774,-5.155 -11.316,-13.5 -9.156,-21.801 2.195,-8.439 7.686,-13.734 16.159,-15.301 8.597,-1.591 16.044,1.148 21.081,8.442 5.127,7.423 5.026,15.25 0.265,22.991 -0.557,0.904 -2.124,1.625 -1,3.117 5.927,-5.417 7.156,-12.334 5.393,-19.655 -1.996,-8.284 -7.531,-13.646 -15.766,-16.038 -3.71,-1.077 -7.475,-1.204 -11.249,-0.213 -1.394,0.365 -2.745,0.64 -3.521,-1.161 -5.355,-12.45 -14.784,-21.373 -25.413,-29.246 -0.676,-0.125 -1.636,-0.668 -1.334,-1.078 0.521,-0.705 1.459,-0.332 2.098,0.314 12.56,3.459 24.214,9.071 35.605,15.228 13.381,7.232 26.795,14.347 40.865,20.209 6.478,2.701 10.823,8.067 13.74,14.303 2.438,5.213 0.725,11.852 -3.137,14.664 -3.881,2.827 -11.337,2.534 -15.533,-0.798 -3.378,-2.681 -4.707,-6.329 -3.718,-10.528 0.693,-2.939 2.696,-5.057 5.768,-5.503 4.457,-0.646 6.302,2.667 8.038,6.245 0.634,-3.686 -1.47,-6.611 -5.224,-7.717 -3.598,-1.061 -8.069,1.287 -9.615,5.049 -3.163,7.696 2.341,15.734 11.506,16.653 4.717,0.473 9.073,-0.405 11.977,-4.621 3.123,-4.532 3.472,-9.393 1.287,-14.44 -1.468,-3.389 -3.961,-6.076 -6.964,-9.636 8.193,1.438 14.499,4.506 19.936,9.458 0.305,-0.254 0.611,-0.508 0.915,-0.762"
         style="fill:#c9dff8;fill-opacity:1;fill-rule:nonzero;stroke:none"
         id="path78" />
      <path
         d="m 838.7137,594.3909 c -12.857,0.117 -25.368,-3.086 -34.816,-8.504 -22.365,-12.827 -30.769,-34.095 -35.29,-57.783 -0.536,-2.808 0.938,-3.102 3.099,-2.79 5.849,0.842 11.736,1.472 17.544,2.541 33.634,6.192 52.274,28.076 58.668,58.454 1.708,8.114 3.22,8.663 -6.668,8.097 -0.843,-0.049 -1.691,-0.007 -2.537,-0.015 m 0.206,1.899 c 13.365,-0.384 12.753,1.664 10.353,-10.733 -6.287,-32.47 -28.277,-53.976 -60.96,-59.509 -6.096,-1.032 -12.279,-1.553 -18.422,-2.302 -2.116,-0.256 -3.687,-0.005 -3.158,2.832 4.383,23.565 11.986,45.318 33.665,58.961 12.128,7.632 25.543,10.783 38.522,10.751"
         style="fill:#c9dff8;fill-opacity:1;fill-rule:nonzero;stroke:none"
         id="path142" />
      <path
         d="m 675.4764,521.7552 c 3.492,4.192 8.236,5.46 13.243,4.566 3.589,-0.64 4.268,0.916 4.34,3.631 0.207,7.811 -2.539,14.857 -5.689,21.824 -3.933,8.698 -10.499,15.608 -15.644,23.478 -1.248,1.91 -2.411,3.877 -3.059,6.248 14.945,-22.899 34.013,-41.439 57.105,-55.924 -13.47,6.569 -24.702,16.069 -35.371,26.326 -0.24,0.241 -0.481,0.481 -0.722,0.721 -0.296,0.256 -0.808,0.768 -0.855,0.729 -0.609,-0.514 -0.281,-0.908 0.256,-1.23 0.151,-0.393 0.303,-0.787 0.456,-1.181 3.295,-7.84 6.168,-15.76 4.598,-24.516 -0.343,-1.911 1.391,-2.218 2.432,-3.022 6.025,-4.647 8.306,-11.885 5.894,-18.804 -2.261,-6.491 -9.138,-11.056 -16.136,-10.713 -7.314,0.359 -13.632,5.231 -15.355,12.359 -1.435,5.934 -0.518,11.434 4.576,15.574 1.237,-1.361 -0.342,-1.959 -0.839,-2.73 -4.462,-6.925 -3.422,-15.009 2.666,-20.111 5.813,-4.873 14.498,-4.588 20.017,0.656 5.281,5.018 5.936,13.239 1.526,19.181 -4.836,6.518 -12.993,8.043 -20.308,3.898 -0.913,-0.518 -1.64,-2.158 -3.131,-0.96"
         style="fill:#c9dff8;fill-opacity:1;fill-rule:nonzero;stroke:none"
         id="path162" />
      <path
         d="m 721.1346,583.6878 c -1.858,-2.965 -4.637,-3.229 -7.571,-2.405 -3.61,1.013 -5.701,3.522 -5.938,7.334 -0.595,9.617 11.487,16.869 21.201,12.753 10.061,-4.264 13.643,-15.156 8.079,-24.557 -11.089,-18.73 -38.264,-21.435 -53.98,-5.341 -2.218,2.272 -4.386,4.622 -6.048,7.855 2.508,0.079 2.739,-1.787 3.563,-2.797 15.515,-19.029 37.387,-18.122 52.14,-2.956 9.509,9.774 5.984,23.586 -6.501,27.091 -6.226,1.748 -14.178,-2.139 -16.319,-8.164 -1.035,-2.916 -1.005,-5.844 1.561,-8.181 2.546,-2.319 5.261,-2.314 8.117,-0.622 0.466,0.276 0.952,0.645 1.696,-0.01"
         style="fill:#c9dff8;fill-opacity:1;fill-rule:nonzero;stroke:none"
         id="path198" />
      <path
         d="m 736.2889,492.8372 c 8.779,-0.09 15.424,6.312 15.474,14.906 0.046,8 -6.609,14.697 -14.757,14.848 -8.652,0.16 -15.707,-6.448 -15.754,-14.756 -0.048,-8.264 6.619,-14.912 15.037,-14.998 m 0.352,-1.627 c -9.276,-0.05 -16.876,7.24 -16.963,16.271 -0.087,9 7.427,16.617 16.551,16.779 9.352,0.166 17.133,-7.376 17.126,-16.601 -0.005,-9.158 -7.362,-16.397 -16.714,-16.449"
         style="fill:#c9dff8;fill-opacity:1;fill-rule:nonzero;stroke:none"
         id="path226" />
      <path
         d="m 897.7869,510.7142 c 9.207,6.093 22.741,5.215 30.624,-1.068 5.226,-4.166 6.573,-9.908 3.422,-14.869 -0.874,-1.375 -1.752,-2.883 -3.747,-2.888 -0.109,0.318 -0.325,0.739 -0.258,0.791 6.62,5.079 4.789,12.945 -2.501,17.163 -5.666,3.277 -11.645,4.148 -19.28,2.855 5.186,-1.793 9.415,-2.788 12.888,-5.421 2.784,-2.11 4.206,-4.81 3.781,-8.396 -0.383,-3.227 -2.035,-5.341 -4.989,-6.563 -1.048,1.396 0.179,1.644 0.687,2.128 4.045,3.863 3.844,8.491 -0.72,11.728 -4.365,3.098 -9.355,4.433 -14.682,4.535 -1.742,0.033 -3.484,0.005 -5.225,0.005"
         style="fill:#c9dff8;fill-opacity:1;fill-rule:nonzero;stroke:none"
         id="path234" />
      <path
         d="m 821.2029,527.5071 c 5.897,-3.425 10.696,-6.332 15.614,-9.021 2.706,-1.478 5.615,-2.527 8.782,-2.722 6.343,-0.391 10.355,2.301 10.817,7.37 0.43,4.724 -3.508,8.828 -9.301,9.482 -8.772,0.991 -16.829,-1.676 -25.912,-5.109 m 21.995,7.019 c 3.897,0.005 7.604,-0.651 10.838,-2.954 3.189,-2.269 4.334,-5.492 3.747,-9.249 -0.586,-3.755 -2.617,-6.378 -6.41,-7.611 -4.473,-1.453 -8.71,-0.498 -12.741,1.24 -6.34,2.736 -12.074,6.623 -17.999,10.138 -1.861,1.103 -2.26,2.176 0.091,3.037 7.281,2.667 14.649,5.002 22.474,5.399"
         style="fill:#c9dff8;fill-opacity:1;fill-rule:nonzero;stroke:none"
         id="path242" />
      <path
         d="m 766.6317,565.0208 c 2.415,7.087 3.916,13.586 3.842,20.398 -0.033,2.98 -0.39,5.873 -1.793,8.564 -2.069,3.969 -5.793,5.636 -10.243,4.552 -3.566,-0.869 -5.716,-3.969 -5.797,-8.252 -0.061,-3.196 0.925,-6.135 2.468,-8.817 3.21,-5.582 7.005,-10.775 11.523,-16.445 m 5.445,19.409 c -0.136,-6.809 -1.864,-13.316 -3.831,-19.777 -0.474,-1.557 -1.313,-3.075 -2.694,-1.001 -5.095,7.65 -12.153,14.165 -14.093,23.681 -1.334,6.549 1.041,11.011 6.635,12.656 5.603,1.647 10.638,-1.209 12.829,-7.261 0.974,-2.686 1.314,-5.452 1.154,-8.298"
         style="fill:#c9dff8;fill-opacity:1;fill-rule:nonzero;stroke:none"
         id="path266" />
      <path
         d="m 896.6844,488.9906 c 2.307,2.719 4.29,5.609 1.99,9.06 -3.868,5.805 -9.797,6.966 -17.086,6.656 5.029,-2.921 11.669,-3.303 11.408,-10.567 -0.092,-2.578 -1.185,-3.673 -4.128,-4.833 -0.614,1.169 0.589,1.378 1.061,1.955 2.367,2.887 2.093,5.654 -0.963,7.953 -3.506,2.637 -7.614,3.475 -11.896,3.677 -1.06,0.051 -2.195,-0.369 -3.257,0.412 7.038,5.083 20.287,3.463 25.395,-2.984 3.328,-4.198 2.401,-9.085 -2.524,-11.329"
         style="fill:#c9dff8;fill-opacity:1;fill-rule:nonzero;stroke:none"
         id="path326" />
      <path
         d="m 795.8182,520.0276 c 5.34,-4.029 9.181,-8.411 14.838,-10.281 3.967,-1.312 7.508,-0.066 8.592,2.918 1.258,3.464 -0.415,6.676 -4.704,8.087 -5.93,1.95 -11.819,0.845 -18.726,-0.724 m 25.333,-4.777 c -0.112,-5.202 -3.935,-8.13 -8.68,-7.464 -5.929,0.833 -9.953,4.882 -14.28,8.383 -1.595,1.291 -4.639,2.444 -4.261,4.18 0.509,2.344 3.798,1.657 5.853,2.056 5.511,1.072 11.082,1.763 16.511,-0.694 3.139,-1.422 4.771,-3.732 4.857,-6.461"
         style="fill:#c9dff8;fill-opacity:1;fill-rule:nonzero;stroke:none"
         id="path358" />
      <path
         d="m 755.0975,543.7034 c -5.011,1.881 -9.494,9.36 -8.439,14.204 0.623,2.86 2.373,4.773 5.315,5.267 3.494,0.586 6.452,-0.408 8.226,-3.653 3.689,-6.75 2.421,-13.884 1.408,-20.969 -0.126,-0.878 -0.886,-1.806 -1.706,-0.911 -1.757,1.919 -4.737,2.918 -4.871,6.125 2.2,-0.284 2.643,-3.216 5.248,-3.379 0.848,5.308 1.333,10.57 -0.222,15.77 -1.348,4.507 -4.92,6.591 -8.502,5.244 -3.583,-1.345 -4.311,-5.076 -2.262,-9.621 1.411,-3.128 4.555,-4.902 5.805,-8.077"
         style="fill:#c9dff8;fill-opacity:1;fill-rule:nonzero;stroke:none"
         id="path390" />
      <path
         d="m 868.743,484.8783 c 2.6,2.721 4.895,5.313 2.565,8.626 -2.308,3.283 -5.388,5.525 -10.435,5.265 3.384,-2.637 7.328,-4.401 5.997,-9.161 -0.532,-1.902 -1.512,-3.59 -4.168,-3.38 4.247,5.266 3.38,8.343 -3.07,10.864 -2.452,0.958 -5.087,1.449 -7.638,2.154 5.735,4.206 18.787,0.6 21.251,-5.871 1.456,-3.825 -0.117,-7.235 -4.502,-8.497"
         style="fill:#c9dff8;fill-opacity:1;fill-rule:nonzero;stroke:none"
         id="path406" />
      <path
         d="m 848.0906,543.2005 c 5.456,-1.406 9.901,-3.243 14.755,-2.561 2.225,0.314 4.786,0.97 4.381,4.023 -0.352,2.654 -2.161,4.041 -4.992,4.148 -5.275,0.201 -9.227,-2.597 -14.144,-5.61 m 13.067,-4.367 c -4.79,0.539 -9.43,1.584 -13.992,3.012 -1.663,0.521 -1.705,1.31 -0.395,2.251 4.132,2.969 8.453,5.574 13.608,6.324 1.54,0.223 3.095,0.072 4.549,-0.568 2.972,-1.307 4.369,-3.725 3.655,-6.773 -0.892,-3.817 -4.444,-3.717 -7.425,-4.246"
         style="fill:#c9dff8;fill-opacity:1;fill-rule:nonzero;stroke:none"
         id="path454" />
      <path
         d="m 699.9178,554.3568 c 20.627,-5.253 25.02,-4.449 38.898,7.22 -2.515,-5.891 -7.573,-8.716 -13.43,-10.354 -8.917,-2.492 -17.58,-2.32 -25.468,3.134"
         style="fill:#c9dff8;fill-opacity:1;fill-rule:nonzero;stroke:none"
         id="path466" />
      <path
         d="m 984.0867,561.6693 c 4.879,5.909 7.885,12.244 5.385,20.201 -1.167,3.714 -3.817,6.1 -6.325,8.76 4.341,-0.552 6.062,-4.058 7.518,-7.395 3.159,-7.235 0.748,-16.123 -5.663,-22.329 -0.305,0.254 -0.61,0.509 -0.915,0.763"
         style="fill:#c9dff8;fill-opacity:1;fill-rule:nonzero;stroke:none"
         id="path522" />
      <path
         d="m 740.4012,548.4866 c -3.752,-8.25 -19.084,-11.788 -27.322,-6.476 4.86,-0.839 9.712,-1.406 14.598,-0.399 4.912,1.012 9.251,3.037 12.724,6.875"
         style="fill:#c9dff8;fill-opacity:1;fill-rule:nonzero;stroke:none"
         id="path562" />
      <path
         d="m 694.0096,588.7689 c -0.502,1.547 -1.405,3.074 -3.32,2.994 -2.142,-0.089 -3.766,-1.445 -3.753,-3.681 0.011,-1.976 1.726,-2.902 3.477,-2.869 1.984,0.038 3.303,1.26 3.596,3.556 m 1.397,-1.053 c -0.076,-2.326 -2.014,-4.08 -5.002,-4.158 -2.812,-0.072 -4.861,1.492 -4.937,4.607 -0.082,3.338 2.054,4.936 5.027,5.026 2.817,0.085 4.867,-1.308 4.912,-5.475"
         style="fill:#c9dff8;fill-opacity:1;fill-rule:nonzero;stroke:none"
         id="path578" />
      <path
         d="m 997.5242,488.3011 c 2.221,6.151 0.999,11.84 -2.695,17.812 5.448,-3.583 6.627,-11.909 2.695,-17.812"
         style="fill:#c9dff8;fill-opacity:1;fill-rule:nonzero;stroke:none"
         id="path630" />
      <path
         d="m 1018.9422,533.4095 c -1.603,-6.687 -7.652,-10.06 -13.578,-7.938 5.934,-0.476 9.818,2.727 13.578,7.938"
         style="fill:#c9dff8;fill-opacity:1;fill-rule:nonzero;stroke:none"
         id="path638" />
      <path
         d="m 1008.7391,519.6849 c 4.425,-0.624 8.378,0.36 11.732,3.384 -2.214,-4.597 -7.003,-6.002 -11.732,-3.384"
         style="fill:#c9dff8;fill-opacity:1;fill-rule:nonzero;stroke:none"
         id="path658" />
      <path
         d="m 899.2205,571.6097 c 2.555,-17.779 8.402,-21.573 23.692,-16.057 -2.874,-4.411 -10.444,-5.378 -16.797,-2.144 -6.25,3.181 -9.503,11.023 -6.895,18.201"
         style="fill:#c9dff8;fill-opacity:1;fill-rule:nonzero;stroke:none"
         id="path830" />
      <path
         d="m 920.0184,579.3441 c 3.241,-3.308 3.373,-6.865 0.365,-9.849 -2.402,-2.382 -7.096,-2.387 -9.645,-0.008 -2.561,2.39 -2.693,6.876 -0.282,9.551 2.571,2.853 6.326,2.946 9.623,0.238 -1.265,-0.999 -2.276,0.277 -3.417,0.389 -2.631,0.26 -4.671,-0.534 -5.955,-2.974 -1.261,-2.403 -0.443,-4.487 1.261,-6.111 1.772,-1.688 3.988,-1.902 6.247,-0.69 2.527,1.355 2.88,3.534 2.551,6.108 -0.147,1.154 -1.925,1.928 -0.748,3.346"
         style="fill:#c9dff8;fill-opacity:1;fill-rule:nonzero;stroke:none"
         id="path834" />
      <path
         d="m 1075.4646,525.4593 c -0.146,3.607 -3.664,6.611 -7.484,6.389 -3.746,-0.219 -6.578,-3.274 -6.405,-6.91 0.169,-3.546 3.378,-6.575 6.931,-6.541 3.58,0.035 7.098,3.605 6.958,7.062 m 1.293,-0.304 c -0.107,-4.726 -3.694,-8.343 -8.26,-8.327 -4.761,0.018 -8.487,3.867 -8.359,8.638 0.125,4.679 3.807,8.188 8.438,8.043 4.687,-0.148 8.284,-3.82 8.181,-8.354"
         style="fill:#c9dff8;fill-opacity:1;fill-rule:nonzero;stroke:none"
         id="path838" />
      <path
         d="m 966.3494,521.5237 c -2.443,2.259 -3.028,4.973 -1.837,8.032 1.311,3.365 4.2,4.44 7.435,4.548 7.44,0.248 14.505,-2.304 21.835,-3.149 -3.52,-1.403 -6.925,-0.105 -10.329,0.404 -4.165,0.623 -8.291,1.631 -12.538,1.09 -1.199,-0.154 -2.853,-0.351 -2.958,-1.831 -0.095,-1.34 1.575,-1.467 2.54,-1.812 7.316,-2.609 14.058,-6.357 20.741,-10.234 0.663,-0.386 1.679,-0.454 1.509,-1.945 -3.105,0.593 -5.528,2.534 -8.138,3.939 -4.827,2.6 -9.709,5.063 -14.88,6.881 -1.158,0.407 -2.668,1.883 -3.762,0.248 -0.787,-1.175 -0.333,-2.718 0.467,-3.981 0.301,-0.474 0.567,-0.97 0.85,-1.456 -0.312,-0.245 -0.623,-0.489 -0.935,-0.734"
         style="fill:#c9dff8;fill-opacity:1;fill-rule:nonzero;stroke:none"
         id="path842" />
      <path
         d="m 967.284,522.2581 c 4.696,-4.373 10.739,-7.03 15.166,-11.777 -5.483,3.544 -11.71,5.969 -16.101,11.043 0.312,0.245 0.623,0.489 0.935,0.734"
         style="fill:#c9dff8;fill-opacity:1;fill-rule:nonzero;stroke:none"
         id="path846" />
      <path
         d="m 782.6346,537.6605 c 1.23,-1.375 2.404,-0.18 3.438,0.229 10.927,4.337 21.319,9.537 29.061,18.806 0.377,0.452 0.73,0.846 1.919,0.163 -7.347,-10.225 -18.293,-15.089 -28.894,-20.472 15.876,3.068 29.622,9.788 39.767,23.781 -1.676,-10.939 -25.69,-24.649 -44.977,-26.425 0.362,1.344 -2.367,2.439 -0.314,3.918"
         style="fill:#c9dff8;fill-opacity:1;fill-rule:nonzero;stroke:none"
         id="path930" />
      <path
         d="m 778.8504,543.678 c 3.541,14.527 18.213,32.295 27.359,33.798 -1.177,-2.005 -3.184,-2.521 -4.68,-3.598 -9.049,-6.513 -15.128,-15.254 -19.437,-25.388 -0.697,-1.639 -0.907,-3.556 -2.428,-4.788 -0.271,-0.023 -0.543,-0.031 -0.814,-0.024"
         style="fill:#c9dff8;fill-opacity:1;fill-rule:nonzero;stroke:none"
         id="path934" />
      <path
         d="m 783.0613,539.3997 c 7.27,6.322 14.788,12.325 22.518,18.057 0.295,-0.362 0.591,-0.722 0.887,-1.083 -7.528,-5.905 -15.055,-11.809 -22.584,-17.713 -0.273,0.246 -0.548,0.492 -0.821,0.739"
         style="fill:#c9dff8;fill-opacity:1;fill-rule:nonzero;stroke:none"
         id="path938" />
      <path
         d="m 783.0613,539.3997 c 0.273,-0.247 0.548,-0.493 0.821,-0.739 -0.413,-0.332 -0.828,-0.663 -1.245,-0.998 -2.055,-1.482 0.673,-2.576 0.312,-3.92 -7.272,-1.003 -7.277,-1.002 -5.298,5.993 0.374,1.321 0.799,2.629 1.199,3.942 0.272,-0.007 0.543,0.001 0.815,0.025 0.191,-0.988 0.943,-0.804 1.62,-0.774 0.472,-0.036 0.945,-0.071 1.419,-0.106 -0.526,-1.063 -1.051,-2.124 -1.576,-3.187 -0.895,-0.703 -0.989,-1.519 -0.343,-2.439 -0.29,-0.084 -0.176,0.817 -0.656,0.268 0.216,-0.088 0.433,-0.177 0.65,-0.265 0.338,0.535 0.675,1.07 1.011,1.605 0.424,0.199 0.847,0.397 1.271,0.595"
         style="fill:#f6f9fb;fill-opacity:1;fill-rule:nonzero;stroke:none"
         id="path942" />
      <path
         d="m 789.0115,553.5716 c 4.217,5.521 9.038,10.344 15.469,13.337 -5.344,-4.199 -9.85,-9.229 -14.514,-14.096 z"
         style="fill:#c9dff8;fill-opacity:1;fill-rule:nonzero;stroke:none"
         id="path946" />
      <path
         d="m 782.7039,542.8226 c -0.474,0.035 -0.946,0.07 -1.419,0.106 2.174,3.839 4.837,7.324 7.727,10.643 l 0.955,-0.759 z"
         style="fill:#c9dff8;fill-opacity:1;fill-rule:nonzero;stroke:none"
         id="path950" />
      <path
         d="m 680.6785,501.4027 c -3.138,0.144 -2.765,2.62 -2.647,4.483 0.176,2.794 1.826,4.617 4.749,4.983 3.141,0.393 5.499,-0.708 6.724,-3.743 1.028,-2.548 0.261,-4.83 -1.752,-6.379 -2.236,-1.721 -4.819,-2.134 -7.236,-0.065 -0.107,0.091 0.064,0.506 0.106,0.771 0.672,-0.144 1.356,-0.244 2.013,-0.439 2.453,-0.722 4.081,0.422 5.169,2.43 0.997,1.843 0.491,3.629 -1.028,4.92 -1.429,1.214 -3.092,1.883 -4.983,0.681 -2.037,-1.295 -2.828,-2.998 -2.013,-5.329 0.273,-0.781 0.597,-1.542 0.898,-2.313"
         style="fill:#c9dff8;fill-opacity:1;fill-rule:nonzero;stroke:none"
         id="path966" />
      <path
         d="m 677.8592,515.5589 c 1.24,4.004 5.386,6.415 9.639,6.099 5.009,-0.373 8.785,-3.826 9.653,-9.383 -2.187,3.276 -4.271,6.67 -8.465,7.521 -4.467,0.907 -7.774,-1.18 -10.827,-4.237"
         style="fill:#c9dff8;fill-opacity:1;fill-rule:nonzero;stroke:none"
         id="path970" />
      <path
         d="m 734.6912,507.3148 c -2.588,-0.284 -4.354,-1.524 -4.35,-4.202 0.003,-2.595 1.51,-4.147 4.192,-4.183 2.684,-0.037 4.296,1.53 4.335,4.066 0.04,2.55 -1.625,4.019 -4.177,4.319 m -0.061,1.588 c 3.547,-0.134 6.059,-2.873 5.813,-6.34 -0.212,-2.985 -2.926,-5.419 -5.948,-5.334 -3.499,0.099 -5.978,2.834 -5.751,6.348 0.196,3.066 2.822,5.442 5.886,5.326"
         style="fill:#c9dff8;fill-opacity:1;fill-rule:nonzero;stroke:none"
         id="path1022" />
      <path
         d="m 745.8016,508.1917 c -5.806,9.924 -9.531,9.097 -16.808,6.229 1.612,2.927 5.282,4.049 9.559,2.922 4.535,-1.194 7.421,-4.838 7.249,-9.151"
         style="fill:#c9dff8;fill-opacity:1;fill-rule:nonzero;stroke:none"
         id="path1026" />
    </g>
  </g>
</svg>
