<svg xml:space="preserve" xmlns="http://www.w3.org/2000/svg" viewBox="0 0 968.067 180.367"><g id="top" style="fill:#fff;stroke:#fff"><g style="fill:#fff;stroke:#fff" transform="translate(-144.321 -57.973)"><path style="color:#000;fill:#fff;stroke:#fff;stroke-miterlimit:10;-inkscape-stroke:none" d="M588.46 137.73c-7.365.005-13.37 6.012-13.37 13.38 0 7.37 6.01 13.38 13.38 13.38a13.35 13.35 0 0 0 6.69-1.8l.027-.016.028-.018c3.421-2.174 6.834-2.381 10.271-1.08 3.438 1.301 6.872 4.226 9.78 8.445l.447.649h.787s1.5-1.546 1.498-1.568l-.002-.038c0-.015 0-.025-.002-.037l-.008-.084a30.606 30.606 0 0 0-.158-1.29 46.6 46.6 0 0 0-.66-3.546c-.658-2.924-1.805-6.814-3.795-10.732-3.978-7.833-11.595-15.843-24.912-15.645zm.01 3h.023c12.133-.185 18.534 6.77 22.207 14.002 1.66 3.27 2.648 6.5 3.29 9.137-2.29-2.3-4.777-4.091-7.44-5.1-4.198-1.588-8.796-1.282-12.944 1.354l.055-.031a10.308 10.308 0 0 1-5.19 1.398 10.36 10.36 0 0 1-10.38-10.38 10.359 10.359 0 0 1 10.38-10.38z"/><path
  class="st1"
  d="M205.02 142.86c-4.64-4.26-11.86-3.96-16.12.68-4.26 4.64-3.96 11.86.68 16.12 1.54 1.41 3.37 2.28 5.27 2.69l-.21.23 22.81 8.9-9.09-23.84-.21.23c-.58-1.84-1.59-3.59-3.13-5.01zm-16.4 27.05c-3.81.02-6.88 3.12-6.86 6.92.02 3.81 3.12 6.88 6.92 6.86 1.26-.01 2.43-.37 3.44-.97v.19l17.54-6.89-17.59-5.36v.19c-1.02-.59-2.19-.95-3.45-.94zm38.77-34.72c-1-3.67-4.78-5.84-8.46-4.85-3.67 1-5.84 4.78-4.85 8.46.33 1.22.99 2.25 1.82 3.08l-.18.05 7.67 18.25 4.16-21.46-.18.05c.31-1.14.35-2.36.02-3.58z"
  style="fill:#fff;stroke:#fff"/><path
  style="color:#000;fill:#fff;stroke:#fff;stroke-miterlimit:10;-inkscape-stroke:none"
  d="M212.002 99.791c-7.942-.327-12.561 2.924-14.91 6.3-1.064 1.53-1.658 3.044-2.03 4.286-1.758-1.424-4.474-3.3-8.914-4.453-6.785-1.762-16.305-.81-26.492 9.058-9.912 9.6-9.898 19.878-7.234 27.38 1.896 5.34 4.475 8.621 6.135 10.527-1.187.325-2.582.761-4.137 1.654-3.542 2.033-7.505 5.991-9.123 13.115-1.086 4.783-.237 8.733 1.713 11.72 1.95 2.989 4.894 5.008 7.88 6.407 5.974 2.798 12.339 3.201 12.339 3.201l.203-2.992s-5.945-.431-11.27-2.926c-2.662-1.247-5.114-2.99-6.64-5.33-1.528-2.34-2.238-5.283-1.3-9.416 1.442-6.346 4.739-9.483 7.692-11.177 2.953-1.695 5.461-1.848 5.461-1.848l3.361-.211-2.406-2.357s-4.686-4.623-7.082-11.372c-2.396-6.748-2.672-15.34 6.496-24.22 9.603-9.302 17.733-9.845 23.65-8.309 5.918 1.536 9.524 5.28 9.524 5.28l2.34 2.44.238-3.372s.203-2.703 2.059-5.371c1.856-2.668 5.206-5.309 12.324-5.016 7.63.312 11.974 3.687 14.576 7.004 2.602 3.317 3.322 6.49 3.322 6.49l2.926-.666s-.87-3.828-3.889-7.676c-3.018-3.847-8.323-7.802-16.812-8.15zm363.988 1.555c-9.873-.69-22.174 2.673-36.033 14.9-36.234 31.969-69.437 50.624-143.057 53.096-15.79.528-26.523-2.109-34.334-6.285-7.81-4.177-12.765-9.918-16.912-15.887-4.147-5.97-7.43-12.17-11.978-17.053-4.548-4.882-10.497-8.354-19.385-8.537-11.787-.245-20.762 2.666-26.727 7.705-5.964 5.04-8.806 12.201-8.421 19.95 1.13 22.65 28.955 29.695 41.242 15.466 3.63-4.203 4.503-8.574 3.42-12.222-1.084-3.65-3.938-6.47-7.258-8.178-3.32-1.71-7.173-2.367-10.555-1.365-3.382 1-6.166 3.903-6.76 8.47l2.975.387c.471-3.627 2.229-5.268 4.637-5.98 2.408-.713 5.591-.256 8.33 1.154 2.738 1.41 4.965 3.712 5.754 6.367.788 2.655.327 5.77-2.813 9.406-10.493 12.152-34.966 6.596-35.976-13.654-.345-6.942 2.096-13.062 7.361-17.51 5.265-4.448 13.466-7.23 24.729-6.996 8.162.168 13.086 3.108 17.251 7.58 4.166 4.472 7.438 10.57 11.711 16.72 4.273 6.152 9.604 12.353 17.961 16.821 8.358 4.469 19.678 7.18 35.848 6.639 74.1-2.488 108.457-21.654 144.943-53.846 17.882-15.777 32.113-15.947 42.086-12.453 9.974 3.494 15.612 10.813 15.612 10.813l2.379-1.827s-6.122-8.007-16.999-11.818a34.551 34.551 0 0 0-9.03-1.863z"/><path
  style="color:#000;fill:#fff;stroke:#fff;stroke-miterlimit:10;-inkscape-stroke:none"
  d="M533.512 128.73c-6.587.286-12.69 3.202-12.69 3.202l1.276 2.716s5.776-2.67 11.545-2.92c2.884-.124 5.675.356 7.79 1.877 2.116 1.522 3.747 4.109 4.194 8.856l2.986-.281c-.503-5.353-2.554-8.944-5.427-11.01-2.874-2.066-6.38-2.582-9.674-2.44zm-20.828 15.084c-1.757.01-3.497.193-5.159.471-6.644 1.113-12.144 3.817-12.144 3.817l1.318 2.695s5.194-2.526 11.322-3.553c3.064-.513 6.333-.637 9.225.053 2.892.69 5.394 2.129 7.25 4.89l2.488-1.673c-2.298-3.419-5.587-5.31-9.043-6.135-1.728-.413-3.5-.575-5.257-.565z"/><circle
  class="st1" cx="601.66" cy="118.44" r="3.92" style="fill:#fff;stroke:#fff"/><circle class="st1" cx="547.36"
                                                                                      cy="145.17" r="3.56"
                                                                                      style="fill:#fff;stroke:#fff"/><circle
  class="st1" cx="527.17" cy="153.96" r="4.04" style="fill:#fff;stroke:#fff"/><path
  style="color:#000;fill:#fff;stroke:#fff;stroke-miterlimit:10;-inkscape-stroke:none"
  d="M532.21 92.012a18.32 18.32 0 0 0-3.439.49c-4.283 1.022-7.445 3.187-7.445 3.187l1.688 2.48s2.778-1.871 6.455-2.75c3.677-.877 7.944-.821 11.57 3.02 3.615 3.825 3.312 8.058 2.104 11.682-1.209 3.624-3.368 6.303-3.368 6.303l2.329 1.892s2.478-3.027 3.884-7.246c1.407-4.218 1.697-9.964-2.767-14.69-3.34-3.538-7.388-4.527-11.01-4.368zm-28.655 24.285a8.48 8.48 0 0 0-1.112.064l.495 2.96s4.709-.902 8.039 3.68c1.774 2.444 2.956 5.197 3.164 7.68.208 2.484-.443 4.654-2.475 6.485l2.008 2.228c2.717-2.448 3.726-5.744 3.457-8.962-.27-3.22-1.702-6.407-3.727-9.194-3.202-4.407-7.768-4.947-9.85-4.941z"/><path
  class="st1"
  d="M358.99 123.5s-7.28 0-9.92 5.29c-2.65 5.29 1.98 12.57 1.98 12.57s7.61-.33 9.92-6.29c2.32-5.94-1.98-11.57-1.98-11.57zm30.99 7.76s-11.86 0-16.17 8.62c-4.31 8.62 3.23 20.48 3.23 20.48s12.39-.54 16.17-10.24c3.78-9.7-3.23-18.86-3.23-18.86zm23.04 6.96s-7.34 4.97-6.4 12.11c.94 7.15 10.58 11.32 10.58 11.32s7.45-5.53 5.72-13.12c-1.73-7.59-9.9-10.31-9.9-10.31zm-77.55-27.62s-4.17 0-5.68 3.03c-1.51 3.03 1.14 7.19 1.14 7.19s4.35-.19 5.68-3.6c1.32-3.4-1.14-6.62-1.14-6.62zm106.84 28.65s-5.44 4.62-4 10.34c1.45 5.72 9.62 8.32 9.62 8.32s5.48-5.08 3.36-11.09c-2.13-6.02-8.98-7.57-8.98-7.57zm27.25-1.93s-3.17 4.09-1.35 7.88c1.82 3.79 7.93 4.37 7.93 4.37s3.13-4.42.8-8.31c-2.33-3.89-7.38-3.94-7.38-3.94z"
  style="fill:#fff;stroke:#fff"/><path
  style="color:#000;fill:#fff;stroke:#fff;stroke-miterlimit:10;-inkscape-stroke:none"
  d="M304.568 89.28c-5.35-.408-11.55 2.393-15.304 11.095-1.934 4.482-1.605 8.524.078 11.734 1.683 3.211 4.568 5.6 7.595 7.412 6.055 3.625 12.899 5.018 12.899 5.018l.61-2.937s-6.484-1.372-11.968-4.655c-2.741-1.641-5.175-3.744-6.478-6.23-1.303-2.487-1.624-5.35.018-9.153 3.395-7.868 8.085-9.615 12.324-9.293 2.12.162 4.146.921 5.717 1.887 1.57.966 2.655 2.204 2.933 2.854l2.756-1.182c-.696-1.625-2.172-3.03-4.117-4.226-1.945-1.197-4.387-2.121-7.063-2.325z"/><path
  style="color:#000;fill:#fff;stroke:#fff;stroke-miterlimit:10;-inkscape-stroke:none"
  d="M315.19 95.04c-2.788 0-5.08 2.291-5.08 5.08 0 2.787 2.292 5.08 5.08 5.08 2.787 0 5.08-2.293 5.08-5.08 0-2.789-2.293-5.08-5.08-5.08zm0 3c1.166 0 2.08.913 2.08 2.08 0 1.166-.914 2.08-2.08 2.08a2.058 2.058 0 0 1-2.08-2.08c0-1.167.913-2.08 2.08-2.08z"/><circle
  class="st1" cx="500.43" cy="117.25" r="3.21" style="fill:#fff;stroke:#fff"/><circle class="st1" cx="520.75" cy="98.59"
                                                                                      r="3.8"
                                                                                      style="fill:#fff;stroke:#fff"/><path
  style="color:#000;fill:#fff;stroke:#fff;stroke-miterlimit:10;-inkscape-stroke:none"
  d="m417.904 169.738-2.468 1.703s6.112 8.78 21.677 17.104c15.566 8.325 40.679 16.34 78.924 15.385 37.988-.95 59.876-.252 72.611 1.822 6.368 1.037 10.424 2.419 13.055 4.01 2.632 1.59 3.905 3.336 4.889 5.523.67 1.493.543 4.137-.446 6.361-.988 2.225-2.676 3.899-4.646 4.19h-.002c-3.01.449-5.707-.457-7.174-1.932-1.466-1.474-1.967-3.358-.502-6.017l.002-.002c.902-1.625 2.367-2.156 3.826-2.137 1.46.02 2.603.887 2.67 1.063v.001h.002c.453 1.168.38 1.757.285 2.01-.095.253-.245.383-.615.535-.74.304-2.017.233-2.017.233l-.35 2.98s1.753.284 3.508-.437c.877-.36 1.842-1.088 2.281-2.254.44-1.167.323-2.558-.295-4.15-.822-2.125-3.1-2.95-5.43-2.981-2.33-.03-5.023 1.033-6.492 3.686v.002c-1.973 3.579-1.288 7.283 1 9.584 2.289 2.3 5.914 3.354 9.744 2.783l-.002.002c3.31-.49 5.673-3.069 6.95-5.94 1.276-2.87 1.628-6.163.44-8.81-1.157-2.568-2.944-4.967-6.075-6.86-3.131-1.892-7.541-3.332-14.123-4.404-13.164-2.144-35.116-2.812-73.168-1.861-37.795.944-62.346-6.96-77.436-15.03-15.09-8.07-20.623-16.162-20.623-16.162z"/><path
  style="color:#000;fill:#fff;stroke:#fff;stroke-miterlimit:10;-inkscape-stroke:none"
  d="m504.678 170.105-.877 2.87s2.88.938 4.709 2.992c.914 1.026 1.555 2.25 1.595 3.879.04 1.628-.544 3.758-2.466 6.515v.002c-3.955 5.676-9.372 8.798-15.438 10.356-6.065 1.557-12.762 1.495-18.988.681-12.453-1.627-22.91-6.203-22.91-6.203l-1.205 2.746s10.772 4.74 23.726 6.432c6.478.846 13.528.944 20.123-.75 6.596-1.694 12.755-5.233 17.155-11.547h-.002c2.177-3.122 3.065-5.892 3.005-8.306-.059-2.415-1.087-4.376-2.355-5.8-2.536-2.846-6.072-3.866-6.072-3.866zm54.648-5.093-1.832 2.377s2.909 2.261 4.969 5.802c2.06 3.542 3.281 8.034.025 13.245-3.147 5.037-11.509 8.938-19.13 11.304-7.623 2.366-14.38 3.334-14.38 3.334l.424 2.97s6.964-.992 14.844-3.439c7.88-2.446 16.803-6.207 20.785-12.58 3.874-6.199 2.421-12.222.024-16.343-2.398-4.122-5.729-6.67-5.729-6.67z"/><path
  style="color:#000;fill:#fff;stroke:#fff;stroke-miterlimit:10;-inkscape-stroke:none"
  d="m455.588 193.31-1.076 2.8s18.045 7.189 23.39 20.2l2.776-1.14c-6.075-14.788-25.09-21.86-25.09-21.86zm64.142 7.399-.341 2.98s7.52.88 14.898 4.698c7.379 3.817 14.411 10.261 14.074 21.93l2.998.085c.374-12.931-7.744-20.567-15.693-24.68-7.95-4.112-15.936-5.013-15.936-5.013z"/><circle
  class="st1" cx="501.92" cy="170.65" r="3.39" style="fill:#fff;stroke:#fff"/><circle class="st1" cx="558.06"
                                                                                      cy="165.49" r="4.63"
                                                                                      style="fill:#fff;stroke:#fff"/><circle
  class="st1" cx="549.68" cy="233.74" r="4.1" style="fill:#fff;stroke:#fff"/><circle class="st1" cx="480.71" cy="219.31"
                                                                                     r="4.99"
                                                                                     style="fill:#fff;stroke:#fff"/><circle
  class="st1" cx="271.46" cy="118.67" r="4.51" style="fill:#fff;stroke:#fff"/><circle class="st1" cx="257.22"
                                                                                      cy="136.26" r="4.51"
                                                                                      style="fill:#fff;stroke:#fff"/><circle
  class="st1" cx="256.49" cy="162.87" r="4.51" style="fill:#fff;stroke:#fff"/><circle class="st1" cx="273.57" cy="183.1"
                                                                                      r="4.51"
                                                                                      style="fill:#fff;stroke:#fff"/><circle
  class="st1" cx="307.13" cy="186.87" r="4.51" style="fill:#fff;stroke:#fff"/><circle class="st1" cx="336.71"
                                                                                      cy="171.55" r="4.51"
                                                                                      style="fill:#fff;stroke:#fff"/><path
  class="st1"
  d="M299.28 151.17s-.18 2.73 1.25 3.8c1.43 1.07 3.7 2.78 7.43 1.19 2.91-1.25 2.02-8.05 9.42-6.8 3.62.61 4.37 7.4 4.37 7.4l-.53-8.02-7.31-4.81-5.35-.71-4.1 1.6-2.67 2.67zm298.39 71.39s-2.9-.95-1.46-3.58c.88-1.59 4.75-1.68 1.19-3.33-4.47-2.07 4.32-.8 4.32-.8s.37 4.43.25 4.78c-.12.36-1.54 2.14-1.54 2.14z"
  style="fill:#fff;stroke:#fff"/></g><g style="fill:#fff;stroke:#fff" transform="translate(-144.321 -57.973)"><path style="color:#000;fill:#fff;stroke:#fff;stroke-miterlimit:10;-inkscape-stroke:none" d="M636.313 58.48a19.07 19.07 0 0 0-3.604.428c-4.492.99-9.251 4.473-11.201 11.916-4.27-3.8-8.776-4.423-12.176-3.597-3.909.95-6.521 3.353-6.521 3.353l-2.108 1.918 2.774.652s2.261.538 4.648 1.864c2.387 1.325 4.678 3.326 5.145 6.123.234 1.406.16 4.221.115 7.45-.046 3.23-.034 6.937.53 10.509.563 3.571 1.673 7.05 3.987 9.71 2.314 2.662 5.857 4.354 10.649 4.354 4.804 0 8.4-1.751 10.818-4.437 2.419-2.686 3.701-6.184 4.451-9.729.75-3.544.965-7.17 1.11-10.191.144-3.021.325-5.587.564-6.262.852-2.408 1.968-5.184 3.68-7.184 1.712-1.999 3.864-3.295 7.451-3.04l5.717.404-4.787-3.153s-2.918-1.918-7.215-2.162c-3.736-.212-8.593 1.084-13.463 5.434-.17-3.123.886-5.583 2.195-7.43 1.657-2.338 3.57-3.553 3.57-3.553l2.82-1.785-3.206-.924s-2.554-.755-5.943-.668zm.043 3.004c.804-.02 1.519.032 2.187.092-.639.635-1.267 1.18-1.918 2.1-2.01 2.837-3.694 7.184-2.275 12.539l.709 2.676 1.855-2.057c5.063-5.61 9.749-6.632 13.256-6.434.204.012.291.086.486.106a11.864 11.864 0 0 0-3.76 2.9c-2.167 2.531-3.352 5.651-4.23 8.133-.626 1.77-.589 4.13-.732 7.121-.144 2.991-.362 6.464-1.05 9.713-.687 3.25-1.849 6.238-3.743 8.342-1.895 2.103-4.48 3.445-8.59 3.445-4.123 0-6.62-1.292-8.385-3.322-1.765-2.03-2.775-4.95-3.289-8.21-.514-3.257-.537-6.81-.492-9.997.045-3.187.186-5.945-.155-7.988-.683-4.104-3.857-6.703-6.648-8.252-.876-.487-1.59-.732-2.357-1.043.825-.445 1.663-.927 2.816-1.207 3.079-.748 6.917-.517 11.1 4.365l2.148 2.508.475-3.268c1.225-8.434 5.463-10.999 9.59-11.908a15.9 15.9 0 0 1 3.001-.354zm-9.696 58.886v52.75h3v-52.75zm41.84 17.36c-13.48.45-21.06 8.427-24.994 16.108-1.967 3.84-3.08 7.618-3.71 10.45a42.901 42.901 0 0 0-.62 3.427 29.103 29.103 0 0 0-.145 1.246l-.006.08c0 .012 0 .02-.002.037l-.002.041c0 .024 1.498 1.55 1.498 1.55h.79l.447-.648c2.868-4.162 6.585-6.923 10.22-8.162 3.636-1.238 7.125-.975 9.813.786l.035.023.035.021a13.358 13.358 0 0 0 6.692 1.801c7.37 0 13.379-6.01 13.379-13.38 0-7.372-6.008-13.38-13.38-13.38h-.025zm.06 3.002a10.356 10.356 0 0 1 10.37 10.377c0 5.75-4.63 10.381-10.38 10.381-1.897 0-3.654-.512-5.19-1.398l.072.043c-3.573-2.34-8.095-2.59-12.422-1.115-2.83.964-5.574 2.725-8.05 5.082.613-2.548 1.571-5.684 3.216-8.895 3.62-7.066 10.052-14.049 22.385-14.475zm12.16-39.386c-3.29.23-6.311.91-9.03 1.863-10.877 3.81-17 11.818-17 11.818l2.38 1.827s5.638-7.319 15.612-10.813c9.973-3.494 24.204-3.324 42.086 12.453 36.486 32.192 70.84 51.358 144.941 53.846 16.17.541 27.492-2.17 35.85-6.639 8.357-4.468 13.687-10.67 17.96-16.82 4.274-6.151 7.546-12.249 11.711-16.72 4.166-4.473 9.088-7.413 17.25-7.58 11.263-.235 19.464 2.547 24.729 6.995 5.265 4.448 7.708 10.568 7.363 17.51-1.01 20.25-25.483 25.806-35.976 13.654-3.14-3.636-3.603-6.751-2.815-9.406.789-2.655 3.016-4.958 5.754-6.367 2.739-1.41 5.924-1.867 8.332-1.155 2.408.713 4.164 2.354 4.635 5.981l2.975-.387c-.594-4.567-3.376-7.47-6.758-8.47-3.382-1.002-7.237-.344-10.557 1.365-3.32 1.709-6.172 4.529-7.256 8.178-1.084 3.648-.212 8.019 3.418 12.222 12.287 14.229 40.115 7.183 41.244-15.467.385-7.748-2.457-14.91-8.422-19.949-5.964-5.039-14.94-7.95-26.726-7.705h-.002c-8.887.183-14.835 3.655-19.383 8.537-4.548 4.883-7.833 11.084-11.98 17.053-4.147 5.97-9.1 11.71-16.91 15.887-7.812 4.176-18.545 6.813-34.334 6.285-73.62-2.472-106.825-21.127-143.06-53.096-13.858-12.227-26.158-15.59-36.03-14.9z"/>
  <path style="color:#000;fill:#fff;stroke:#fff;stroke-miterlimit:10;-inkscape-stroke:none"
        d="M723.197 128.73c-3.293-.142-6.798.374-9.672 2.44-2.873 2.066-4.926 5.657-5.43 11.01l2.989.28c.446-4.746 2.078-7.333 4.193-8.855 2.116-1.52 4.907-2.001 7.791-1.876 5.769.25 11.543 2.92 11.543 2.92l1.278-2.717s-6.105-2.916-12.692-3.202zm20.828 15.084c-1.756-.01-3.53.153-5.257.565-3.456.825-6.745 2.716-9.043 6.135l2.49 1.673c1.856-2.76 4.358-4.2 7.25-4.89 2.892-.69 6.158-.566 9.223-.053 6.128 1.027 11.324 3.553 11.324 3.553l1.316-2.695s-5.5-2.704-12.144-3.817c-1.662-.278-3.402-.46-5.159-.47z"/>
  <circle class="st1" cx="709.35" cy="145.17" r="3.56" style="fill:#fff;stroke:#fff"/>
  <circle class="st1" cx="729.55" cy="153.96" r="4.04" style="fill:#fff;stroke:#fff"/>
  <path style="color:#000;fill:#fff;stroke:#fff;stroke-miterlimit:10;-inkscape-stroke:none"
        d="M724.5 92.012c-3.622-.159-7.672.83-11.012 4.369-4.464 4.73-4.172 10.476-2.765 14.693 1.406 4.218 3.882 7.242 3.882 7.242l2.329-1.892s-2.157-2.677-3.366-6.299c-1.208-3.622-1.513-7.855 2.102-11.686 3.626-3.841 7.895-3.897 11.572-3.02 3.677.879 6.455 2.75 6.455 2.75l1.686-2.48s-3.162-2.165-7.446-3.187a18.299 18.299 0 0 0-3.437-.49zm28.654 24.285c-2.081-.006-6.645.534-9.847 4.941-2.025 2.787-3.46 5.975-3.729 9.194-.27 3.218.74 6.514 3.457 8.963l2.01-2.229c-2.032-1.831-2.685-4-2.477-6.484.208-2.484 1.391-5.237 3.166-7.68 3.33-4.583 8.04-3.682 8.04-3.682l.492-2.959s-.418-.062-1.112-.064z"/>
  <path class="st1"
        d="M897.72 123.5s7.28 0 9.92 5.29c2.65 5.29-1.98 12.57-1.98 12.57s-7.61-.33-9.92-6.29c-2.32-5.94 1.98-11.57 1.98-11.57zm-30.99 7.76s11.86 0 16.17 8.62c4.31 8.62-3.23 20.48-3.23 20.48s-12.39-.54-16.17-10.24c-3.78-9.7 3.23-18.86 3.23-18.86zm-23.04 6.96s7.34 4.97 6.4 12.11c-.94 7.14-10.58 11.32-10.58 11.32s-7.45-5.53-5.72-13.12c1.73-7.59 9.9-10.31 9.9-10.31zm77.55-27.62s4.17 0 5.68 3.03c1.51 3.03-1.14 7.19-1.14 7.19s-4.35-.19-5.68-3.6c-1.32-3.4 1.14-6.62 1.14-6.62zM814.4 139.25s5.44 4.62 4 10.34c-1.45 5.72-9.62 8.32-9.62 8.32s-5.48-5.08-3.36-11.09c2.13-6.02 8.98-7.57 8.98-7.57zm-27.25-1.93s3.17 4.09 1.35 7.88c-1.82 3.79-7.93 4.37-7.93 4.37s-3.13-4.42-.8-8.31c2.33-3.89 7.38-3.94 7.38-3.94z"
        style="fill:#fff;stroke:#fff"/>
  <path style="color:#000;fill:#fff;stroke:#fff;stroke-miterlimit:10;-inkscape-stroke:none"
        d="M952.14 89.28c-2.675.203-5.117 1.127-7.062 2.324-1.945 1.196-3.42 2.601-4.117 4.226l2.758 1.182c.278-.65 1.361-1.888 2.931-2.854 1.57-.966 3.6-1.725 5.72-1.887 4.238-.322 8.928 1.425 12.323 9.293 1.642 3.804 1.321 6.666.018 9.153-1.303 2.486-3.739 4.589-6.48 6.23-5.484 3.283-11.965 4.655-11.965 4.655l.609 2.937s6.842-1.393 12.897-5.018c3.027-1.812 5.912-4.2 7.595-7.412 1.683-3.21 2.014-7.252.08-11.734-3.755-8.702-9.955-11.503-15.306-11.096z"/>
  <path style="color:#000;fill:#fff;stroke:#fff;stroke-miterlimit:10;-inkscape-stroke:none"
        d="M941.52 95.04c-2.788 0-5.08 2.291-5.08 5.08 0 2.787 2.292 5.08 5.08 5.08 2.787 0 5.08-2.293 5.08-5.08 0-2.789-2.293-5.08-5.08-5.08zm0 3c1.166 0 2.08.913 2.08 2.08 0 1.166-.914 2.08-2.08 2.08a2.058 2.058 0 0 1-2.08-2.08c0-1.167.913-2.08 2.08-2.08z"/>
  <circle class="st1" cx="756.28" cy="117.25" r="3.21" style="fill:#fff;stroke:#fff"/>
  <circle class="st1" cx="735.96" cy="98.59" r="3.8" style="fill:#fff;stroke:#fff"/>
  <path style="color:#000;fill:#fff;stroke:#fff;stroke-miterlimit:10;-inkscape-stroke:none"
        d="M838.805 169.738s-5.534 8.092-20.623 16.162c-15.09 8.07-39.64 15.974-77.434 15.03-38.052-.951-60.006-.283-73.17 1.861-6.582 1.072-10.992 2.512-14.123 4.404-3.13 1.893-4.916 4.292-6.072 6.86h-.002c-1.19 2.647-.835 5.94.441 8.81 1.276 2.871 3.639 5.45 6.95 5.94l-.003-.002c3.831.57 7.456-.483 9.745-2.784 2.288-2.3 2.973-6.004 1-9.583l-.002-.002c-1.47-2.653-4.162-3.717-6.493-3.686-2.33.03-4.605.856-5.427 2.98-.618 1.593-.736 2.984-.297 4.15.439 1.167 1.406 1.894 2.283 2.255 1.755.72 3.506.437 3.506.437l-.348-2.98s-1.28.071-2.02-.233c-.37-.152-.517-.282-.613-.535-.095-.253-.167-.842.286-2.01v-.002c.067-.175 1.212-1.043 2.671-1.062 1.46-.02 2.927.511 3.829 2.139 1.465 2.659.964 4.543-.502 6.017-1.467 1.475-4.167 2.38-7.176 1.932h-.002c-1.97-.291-3.658-1.965-4.647-4.19-.988-2.224-1.114-4.868-.443-6.361h-.002c.984-2.187 2.259-3.933 4.89-5.523 2.632-1.591 6.685-2.973 13.053-4.01 12.736-2.074 34.624-2.772 72.612-1.822 38.245.955 63.36-7.06 78.925-15.385 15.566-8.325 21.678-17.104 21.678-17.104z"/>
  <path style="color:#000;fill:#fff;stroke:#fff;stroke-miterlimit:10;-inkscape-stroke:none"
        d="M752.031 170.105s-3.536 1.021-6.072 3.868c-1.268 1.423-2.294 3.384-2.354 5.798-.059 2.415.827 5.185 3.004 8.307 4.4 6.314 10.557 9.853 17.153 11.547 6.595 1.694 13.645 1.596 20.123.75 12.954-1.693 23.728-6.432 23.728-6.432l-1.205-2.746s-10.46 4.576-22.912 6.203c-6.226.814-12.923.876-18.988-.681-6.066-1.558-11.483-4.68-15.438-10.356v-.002c-1.922-2.757-2.506-4.887-2.466-6.515.04-1.628.68-2.853 1.595-3.88 1.83-2.053 4.71-2.991 4.71-2.991zm-54.646-5.093s-3.333 2.548-5.73 6.67c-2.398 4.121-3.851 10.144.023 16.343 3.982 6.373 12.906 10.134 20.787 12.58 7.88 2.447 14.844 3.44 14.844 3.44l.423-2.97s-6.756-.969-14.379-3.335c-7.622-2.366-15.983-6.267-19.13-11.304-3.257-5.211-2.035-9.703.025-13.245 2.06-3.54 4.967-5.802 4.967-5.802z"/>
  <path style="color:#000;fill:#fff;stroke:#fff;stroke-miterlimit:10;-inkscape-stroke:none"
        d="M801.121 193.31s-19.013 7.072-25.088 21.86l2.774 1.14c5.345-13.011 23.392-20.2 23.392-20.2zm-64.142 7.399s-7.985.901-15.934 5.014c-7.95 4.112-16.067 11.748-15.693 24.68l2.998-.087c-.337-11.668 6.695-18.112 14.074-21.93 7.378-3.817 14.896-4.697 14.896-4.697z"/>
  <circle class="st1" cx="754.79" cy="170.65" r="3.39" style="fill:#fff;stroke:#fff"/>
  <circle class="st1" cx="698.65" cy="165.49" r="4.63" style="fill:#fff;stroke:#fff"/>
  <circle class="st1" cx="707.03" cy="233.74" r="4.1" style="fill:#fff;stroke:#fff"/>
  <circle class="st1" cx="776" cy="219.31" r="4.99" style="fill:#fff;stroke:#fff"/>
  <circle class="st1" cx="985.25" cy="118.67" r="4.51" style="fill:#fff;stroke:#fff"/>
  <circle class="st1" cx="999.49" cy="136.26" r="4.51" style="fill:#fff;stroke:#fff"/>
  <circle class="st1" cx="1000.22" cy="162.87" r="4.51" style="fill:#fff;stroke:#fff"/>
  <circle class="st1" cx="983.14" cy="183.1" r="4.51" style="fill:#fff;stroke:#fff"/>
  <circle class="st1" cx="949.59" cy="186.87" r="4.51" style="fill:#fff;stroke:#fff"/>
  <circle class="st1" cx="920" cy="171.55" r="4.51" style="fill:#fff;stroke:#fff"/>
  <path class="st1"
        d="M957.43 151.17s.18 2.73-1.25 3.8c-1.43 1.07-3.7 2.78-7.43 1.19-2.91-1.25-2.02-8.05-9.42-6.8-3.62.61-4.37 7.4-4.37 7.4l.53-8.02 7.31-4.81 5.35-.71 4.1 1.6 2.67 2.67z"
        style="fill:#fff;stroke:#fff"/>
  <circle class="st1" cx="654.66" cy="118.44" r="3.92" style="fill:#fff;stroke:#fff"/>
  <path class="st1"
        d="M1051.69 142.86c4.64-4.26 11.86-3.96 16.12.68 4.26 4.64 3.96 11.86-.68 16.12-1.54 1.41-3.37 2.28-5.27 2.69l.21.23-22.81 8.9 9.09-23.84.21.23c.58-1.84 1.59-3.59 3.13-5.01zm16.4 27.05c3.81.02 6.88 3.12 6.86 6.92-.02 3.81-3.12 6.88-6.92 6.86a6.816 6.816 0 0 1-3.44-.97v.19l-17.54-6.89 17.59-5.36v.19c1.02-.59 2.19-.95 3.45-.94zm-38.77-34.72c1-3.67 4.78-5.84 8.46-4.85 3.67 1 5.84 4.78 4.85 8.46-.33 1.22-.99 2.25-1.82 3.08l.18.05-7.67 18.25-4.16-21.46.18.05a6.79 6.79 0 0 1-.02-3.58z"
        style="fill:#fff;stroke:#fff"/>
  <path style="color:#000;fill:#fff;stroke:#fff;stroke-miterlimit:10;-inkscape-stroke:none"
        d="M1044.709 99.791c-8.49.348-13.796 4.303-16.814 8.15-3.018 3.848-3.887 7.676-3.887 7.676l2.926.666s.72-3.173 3.322-6.49c2.602-3.317 6.945-6.692 14.576-7.004 7.118-.293 10.468 2.348 12.324 5.016 1.856 2.668 2.057 5.37 2.057 5.37l.24 3.374 2.34-2.442s3.606-3.743 9.523-5.279c5.918-1.536 14.048-.993 23.65 8.309 9.169 8.88 8.891 17.472 6.495 24.22-2.396 6.749-7.08 11.372-7.08 11.372l-2.406 2.357 3.36.21s2.507.154 5.46 1.849c2.953 1.694 6.25 4.831 7.691 11.177.939 4.133.228 7.077-1.299 9.416-1.527 2.34-3.978 4.083-6.64 5.33-5.325 2.495-11.268 2.926-11.268 2.926l.203 2.992s6.365-.403 12.338-3.2c2.987-1.4 5.931-3.419 7.881-6.407 1.95-2.988 2.797-6.938 1.711-11.72-1.618-7.125-5.581-11.083-9.123-13.116-1.555-.892-2.95-1.327-4.137-1.652 1.66-1.905 4.24-5.187 6.137-10.53 2.664-7.501 2.676-17.778-7.236-27.379-10.187-9.868-19.705-10.82-26.49-9.058-4.442 1.153-7.158 3.03-8.917 4.455-.371-1.243-.963-2.757-2.027-4.287-2.349-3.377-6.968-6.628-14.91-6.301z"/></g></g></svg>
