<svg xml:space="preserve" xmlns="http://www.w3.org/2000/svg" viewBox="0 0 531.763 466.123"><g id="br" style="fill:#fff;stroke:#fff"><g style="fill:#fff;stroke:#fff" transform="translate(-657.265 -191.549)"><path class="st1" d="M699.56 521.28c-2.6-2.54-2.64-6.71-.1-9.31 2.54-2.6 6.71-2.64 9.31-.1.86.84 1.41 1.87 1.71 2.95l.13-.13 5.82 12.87-14.01-4.51.13-.13a6.29 6.29 0 0 1-2.99-1.64zm16.97-6.09c-.63-2.1.56-4.32 2.66-4.95 2.1-.63 4.32.56 4.95 2.66.21.7.2 1.4.04 2.06l.11-.03-.68 8.5-6.09-6.47.11-.03c-.49-.46-.89-1.04-1.1-1.74zm-16.22 19.48a3.99 3.99 0 0 1-2.19-5.18 3.986 3.986 0 0 1 5.18-2.19c.67.27 1.22.72 1.63 1.26l.04-.1 6.2 5.86-8.86.69.04-.1c-.67.1-1.37.04-2.04-.24z" style="fill:#fff;stroke:#fff"/><path
  style="color:#000;fill:#fff;stroke:#fff;stroke-miterlimit:10;-inkscape-stroke:none"
  d="M740.322 533.984a22.859 22.859 0 0 0-4.334.08c-5.761.673-11.312 3.85-15.777 10.555-4.62 6.932-3.935 15.215-1.7 22.477 2.237 7.261 6.056 13.692 8.065 17.234h-.002c5.662 9.992 2.3 23.224-4.265 32.815-3.283 4.795-7.347 8.627-11.221 10.628-3.874 2.002-7.323 2.217-10.139.215-4.814-3.422-13.405-7.074-21.29-5.877-3.944.599-7.722 2.537-10.352 6.348-2.631 3.811-4.117 9.367-3.996 17.174l3-.047c-.115-7.403 1.312-12.303 3.464-15.422 2.153-3.119 5.028-4.584 8.332-5.086 6.61-1.003 14.888 2.356 19.104 5.354 3.88 2.758 8.766 2.325 13.254.008 4.487-2.318 8.81-6.476 12.318-11.602 7.018-10.252 10.86-24.59 4.403-35.988-2.042-3.598-5.708-9.82-7.807-16.637-2.1-6.816-2.6-14.034 1.33-19.932 4.085-6.134 8.694-8.662 13.627-9.238 4.933-.575 10.296.917 15.5 3.346 5.026 2.346 7.87 5.796 9.432 9.125 1.56 3.328 1.762 6.614 1.486 8.139-.988 5.439-3.764 9.891-7.28 12.267-3.515 2.376-7.683 2.841-12.24.238-2.071-1.183-2.942-3.274-2.974-5.59-.032-2.315.925-4.716 2.193-5.92a4.13 4.13 0 0 1 4.063-.953c1.342.415 2.42 1.424 2.689 3.29l2.969-.428c-.422-2.934-2.426-5.002-4.772-5.727a7.139 7.139 0 0 0-7.013 1.64l-.002.003c-2.072 1.967-3.17 5.035-3.127 8.137.043 3.102 1.377 6.376 4.486 8.152 5.423 3.097 11.074 2.573 15.408-.356s7.44-8.098 8.551-14.218c.434-2.396.101-6.059-1.723-9.948-1.824-3.888-5.215-7.926-10.879-10.57-4.114-1.92-8.443-3.366-12.78-3.685z"/><path
  class="st1"
  d="M667.11 657.57s-.27-3.09 5.58-5.02c8.39-2.77 2.97-12.59.09-12.62-4.81-.06-5.91 3.65-5.91 3.65s-.65-3.33-4.66-3.33c-3.86 0-6.27 6.42-2.7 10.34 3.56 3.93 6.56 1.99 7.6 6.98zm85.1-97.02c-.18 4.19-4.19 5.26-7.57 3.43-3.23-1.74-4.81 2.85-4.81 2.85l.89-9.09 3.39-3.03 4.28 1.6z"
  style="fill:#fff;stroke:#fff"/><path
  style="color:#000;fill:#fff;stroke:#fff;stroke-miterlimit:10;-inkscape-stroke:none"
  d="m710.89 578.295.239 2.99c3.377-.268 6.108.715 8.4 2.567 2.292 1.85 4.113 4.62 5.348 7.873 2.47 6.506 2.508 14.894-.041 20.986l2.768 1.158c2.92-6.978 2.838-15.936.078-23.209-1.38-3.636-3.45-6.866-6.268-9.142-2.818-2.277-6.416-3.55-10.523-3.223zm1.061 20.443-.463 2.963c3.269.512 6.087 2.68 7.297 6.518 1.21 3.837.754 9.477-3.154 16.718l2.639 1.426c4.171-7.729 4.902-14.208 3.376-19.047-1.525-4.838-5.363-7.9-9.695-8.578zm-10.972 16.912-.838 2.88c2.352.685 3.622 2.33 3.642 3.863.02 1.533-1.107 3.502-5.15 4.921l.994 2.83c4.757-1.67 7.196-4.69 7.156-7.79-.04-3.1-2.457-5.729-5.804-6.704z"/><circle
  class="st1" cx="708.16" cy="580.02" r="4.04" style="fill:#fff;stroke:#fff"/><circle class="st1" cx="709.11"
                                                                                      cy="599.39" r="4.04"
                                                                                      style="fill:#fff;stroke:#fff"/><circle
  class="st1" cx="698.42" cy="616.02" r="4.04" style="fill:#fff;stroke:#fff"/><path
  style="color:#000;fill:#fff;stroke:#fff;stroke-miterlimit:10;-inkscape-stroke:none"
  d="M748.863 584.637a31.03 31.03 0 0 0-4.941.816c-6.181 1.518-9.89 4.459-11.992 7.065-2.103 2.605-2.655 5-2.655 5l2.93.644s.334-1.625 2.059-3.762c1.724-2.136 4.784-4.66 10.373-6.033h.002c6.475-1.592 10.823-.616 13.59.674 2.766 1.29 3.857 2.803 3.857 2.803l2.408-1.787s-1.645-2.172-4.998-3.735c-2.515-1.172-6.045-2.052-10.633-1.685zM737.38 607.75c-8.146 0-13.782 7.72-13.782 7.72l2.384 1.82s5.246-6.54 11.399-6.54c4.327 0 7.065 1.302 8.765 2.557 1.701 1.254 2.276 2.357 2.276 2.357l2.637-1.43s-.97-1.746-3.131-3.341c-2.162-1.596-5.605-3.143-10.547-3.143z"/><path
  style="color:#000;fill:#fff;stroke:#fff;stroke-miterlimit:10;-inkscape-stroke:none"
  d="M987.395 516.5c-21.853-.363-34.724 9.786-41.885 19.977-4.864 6.92-6.719 12.608-7.707 16.37-3.958-8.427-17.521-31.811-49.41-34.202-21.825-1.633-34.69 7.201-46.489 20.082-14.903 16.283-18.754 36.313-23.806 53.53-2.526 8.61-5.348 16.516-9.864 22.987-4.516 6.472-10.685 11.56-20.218 14.67h-.002c-33.508 10.935-68.27 8.29-84.348-.598l-1.451 2.627c17.422 9.632 52.518 11.988 86.73.823 10.097-3.295 16.914-8.877 21.748-15.805 4.835-6.928 7.726-15.15 10.282-23.86 5.11-17.416 8.895-36.78 23.14-52.347l.002-.002c11.54-12.598 23.097-20.683 44.051-19.115 36.864 2.764 48.598 36.076 48.598 36.076l1.964 5.527.93-5.793s1.562-9.654 8.303-19.246c6.74-9.592 18.465-19.048 39.383-18.701 7.666.126 13.996 2.974 20.007 7.404 6.012 4.43 11.644 10.453 17.682 16.735 12.076 12.563 25.892 26.204 48.133 29.545 34.67 5.21 53.441-1.85 63.473-10.49 10.03-8.641 11.191-18.872 11.191-18.872l-2.982-.324s-.922 8.96-10.168 16.924c-9.247 7.964-26.948 14.924-61.069 9.795-21.238-3.19-34.38-16.135-46.416-28.656-6.018-6.261-11.73-12.405-18.064-17.073-6.334-4.667-13.35-7.85-21.738-7.988z"/><path
  class="st1"
  d="M962.99 595.53c-7.02.29-13.46-2.45-18.05-7.07.07 6.58-2.55 13.17-7.78 17.97a23.923 23.923 0 0 1-6.31-15.62 23.937 23.937 0 0 1-15.69 6.73c-.55-13.2 9.65-24.35 22.81-25.01v-.01c.03 0 .17-.01.2-.01h.4c.02-.01.07-.02.08 0 12.96-.18 23.79 9.99 24.34 23.02zM937.46 613l3.13 7.42s2.31 5.94-3.63 5.94c-5.94 0-2.8-6.76-2.8-6.76zm-64.91-85.34s7.98 2.35 9.17 9c1.19 6.65-6.23 13.14-6.23 13.14s-8.23-2.82-8.85-10.09c-.61-7.27 5.91-12.05 5.91-12.05zm30.62 3.77s4.67 4.13 3.36 9.03c-1.31 4.9-8.41 6.94-8.41 6.94s-4.69-4.53-2.8-9.66c1.9-5.15 7.85-6.31 7.85-6.31zm20.05 14.7s2.45 3.81.58 6.98c-1.87 3.17-7.24 3.2-7.24 3.2s-2.39-4.09-.06-7.31c2.33-3.22 6.72-2.87 6.72-2.87zm-78.58 2.85s5.7-2.53 9.61.69c3.91 3.22 2.81 10.53 2.81 10.53s-6.07 2.38-9.95-1.47c-3.88-3.85-2.47-9.75-2.47-9.75zm-12.38 22.64s3.87-2.36 6.99-.4 3.01 7.32 3.01 7.32-4.15 2.29-7.31-.13c-3.15-2.41-2.69-6.79-2.69-6.79zm-8.09 23.39s1.99-2.75 4.71-2.3c2.72.45 4.2 4.18 4.2 4.18s-2.2 2.78-5.08 2.03-3.83-3.91-3.83-3.91zm-5.68 18.69s1.3-1.79 3.08-1.5c1.78.29 2.74 2.73 2.74 2.73s-1.44 1.82-3.32 1.33-2.5-2.56-2.5-2.56zm177.93-85.68s-7.11 2.09-8.18 8.03c-1.06 5.94 5.56 11.72 5.56 11.72s7.34-2.51 7.89-9c.55-6.49-5.27-10.75-5.27-10.75zm-26.59 3.71s-4.16 3.68-3 8.05c1.17 4.37 7.5 6.19 7.5 6.19s4.19-4.04 2.5-8.62c-1.7-4.58-7-5.62-7-5.62zm-17.89 13.12s-2.19 3.4-.52 6.22c1.67 2.83 6.46 2.86 6.46 2.86s2.13-3.65.05-6.52c-2.08-2.87-5.99-2.56-5.99-2.56zm66.29 2.78s-5.08-2.26-8.57.62-2.51 9.39-2.51 9.39 5.42 2.13 8.88-1.31c3.46-3.44 2.2-8.7 2.2-8.7zm15.32 16.63s-3.45-2.1-6.23-.36c-2.78 1.75-2.69 6.53-2.69 6.53s3.7 2.04 6.52-.11c2.82-2.15 2.4-6.06 2.4-6.06zm15.01 10.79s-3.01-.3-4.32 1.78c-1.31 2.08.3 5.28.3 5.28s3.16.18 4.36-2.19c1.2-2.37-.34-4.87-.34-4.87zm20.02 6.05s-1.94.36-2.39 1.9c-.45 1.54 1.15 3.26 1.15 3.26s2.01-.46 2.34-2.17c.32-1.7-1.1-2.99-1.1-2.99zm19.26 2.59s-1.81.8-1.89 2.4c-.08 1.6 1.87 2.91 1.87 2.91s1.85-.91 1.78-2.65c-.07-1.73-1.76-2.66-1.76-2.66zm49.14-22.03s6.42-12.24 4.99-17.05c-1.43-4.81-6.36-1.51-6.71-6.42-.88-12.03 12.22-10.39 15.27-1.37 3.56 10.59-13.55 24.84-13.55 24.84zm-48.86-52.21s1.43 2.38.12 3.92-4.75 2.26-6.53 0c-1.78-2.26 1.43-4.28-.12-5.7-1.55-1.42-5.11 1.07-5.11 1.07l3.45-3.45 5.11 1.78z"
  style="fill:#fff;stroke:#fff"/><circle class="st1" cx="764.83" cy="593.45" r="4.16" style="fill:#fff;stroke:#fff"/><circle
  class="st1" cx="750.69" cy="617.57" r="3.8" style="fill:#fff;stroke:#fff"/><path
  style="color:#000;fill:#fff;stroke:#fff;stroke-miterlimit:10;-inkscape-stroke:none"
  d="M1151.514 562.125s-23.937 33.922-70.186 38.021c-15.971 1.412-31.534-3.275-45.492-8.166-13.958-4.89-26.216-10.08-36.148-9.062-9.724.997-15.864 6.247-19.065 11.967-3.201 5.72-3.79 11.733-2.103 15.35 2.536 5.444 6.601 8.768 11.162 10.103 4.56 1.335 9.55.734 14.097-1.287 4.756-2.111 7.148-6.19 7.424-9.99.277-3.802-1.612-7.594-5.289-8.516-3.04-.757-5.752-.841-7.96.225-2.21 1.065-3.604 3.362-3.876 6.324l2.988.273c.209-2.268.953-3.298 2.19-3.894 1.236-.597 3.272-.68 5.932-.018 2.023.508 3.224 2.655 3.025 5.387-.199 2.731-1.846 5.778-5.65 7.467-4.003 1.779-8.279 2.248-12.036 1.148-3.756-1.1-7.061-3.716-9.285-8.49-.924-1.983-.796-7.617 2.002-12.617 2.799-5 7.944-9.545 16.75-10.448 8.598-.881 20.805 3.989 34.852 8.91 14.047 4.922 30.03 9.8 46.748 8.323 47.61-4.22 72.373-39.28 72.373-39.28z"/><path
  class="st1"
  d="M1009.64 608.36c-2.32-1.96-4.3-4.86-7.6-2.26-.83.65 1.43 4.46-3.27 5.58-1.21.29-3.74-.48-4.46-2.26-.71-1.78.06-4.1.06-4.1l4.16-3.5 3.62-1.13 3.39 1.31 2.85 2.44z"
  style="fill:#fff;stroke:#fff"/><path
  style="color:#000;fill:#fff;stroke:#fff;stroke-miterlimit:10;-inkscape-stroke:none"
  d="M879.877 581.48c-8.89-.338-15.1 1.982-19.703 5.762-4.603 3.78-7.592 8.888-10.537 14.047-2.945 5.16-5.848 10.388-10.08 14.633-4.233 4.244-9.767 7.565-18.278 8.947-35.159 5.698-24.564 3.576-35.713 5.953l.627 2.936c11.172-2.383.386-.226 35.567-5.928 9.069-1.473 15.308-5.164 19.922-9.79 4.614-4.628 7.63-10.131 10.56-15.265 2.93-5.133 5.773-9.878 9.836-13.214 4.063-3.337 9.355-5.4 17.686-5.082 8.808.335 13.89 4.837 16.68 9.978 1.394 2.57 2.174 5.307 2.447 7.686.272 2.378-.016 4.418-.471 5.394-2.224 4.775-5.526 7.39-9.281 8.49-3.756 1.1-8.033.631-12.041-1.148-3.805-1.689-5.45-4.736-5.649-7.467-.198-2.73 1.002-4.878 3.024-5.387 2.66-.662 4.697-.579 5.933.018 1.237.597 1.982 1.626 2.19 3.895l2.988-.276c-.272-2.961-1.666-5.256-3.875-6.322-2.209-1.066-4.921-.982-7.96-.225h-.005c-3.677.923-5.563 4.715-5.287 8.516.276 3.801 2.668 7.879 7.424 9.99 4.551 2.02 9.542 2.62 14.101 1.285 4.56-1.335 8.622-4.658 11.159-10.103h-.002c.85-1.824 1.048-4.244.732-7.002-.316-2.759-1.197-5.837-2.791-8.776-3.188-5.876-9.391-11.17-19.203-11.545z"/><path
  class="st1"
  d="M870.01 606.93c2.32-1.96 4.3-4.86 7.6-2.26.83.65-1.43 4.46 3.27 5.58 1.21.29 3.74-.48 4.46-2.26.71-1.78-.06-4.1-.06-4.1l-4.16-3.5-3.62-1.13-3.39 1.31-2.85 2.44zm291.48-60.77s2.5-5.35 7.84-2.14c5.35 3.21 3.92 9.62-3.92 12.83-4.41 1.8-9.76 6.27-12.3 8.2-2.6 1.98-2.67-.71-2.67-.71zm-5.17 34.57s16.4-22.81 27.56-13.54c11.17 9.27-.24 16.87-8.55 13.31-8.32-3.57-19.01.23-19.01.23z"
  style="fill:#fff;stroke:#fff"/><path
  style="color:#000;fill:#fff;stroke:#fff;stroke-miterlimit:10;-inkscape-stroke:none"
  d="m982.984 551.654-2.367 8.666-11.015-3.306-.739 10.767-9.242-.31-.101 2.998 12.138.408.68-9.91 10.363 3.111 1.914-7.012 7.664 6.696 5.785-4.264 1.582 9.191h11.083l-.266 4.471 2.994.18.455-7.65h-11.738l-1.979-11.489-7.756 5.717zm-94.213-.935-8.798 8.422-11.024-2.282-1.898 8.748-12.633 3.25-.734 10.7-8.676 6 1.705 2.466 9.863-6.82.686-9.98 12.328-3.17 1.66-7.653 9.658 1.998 7.582-7.257 5.895 7.285 7.299-4.864 6.199 10.668 12.873-3.513-.791-2.895-10.647 2.907-6.642-11.432-7.68 5.117zM763.11 517.84l-2.018 2.22c41.135 37.389 20.06 88.622 20.06 88.622l-1.619 3.955 3.735-2.076s.776-.456 1.78-1.461c1.006-1.006 2.368-2.629 3.936-5.182 3.138-5.107 7.104-13.926 10.696-29.01 6.969-29.264 31.01-40.336 31.01-40.336l-1.258-2.724s-25.38 11.749-32.67 42.365c-3.538 14.856-7.414 23.381-10.334 28.135-.154.25-.22.257-.367.486 4.184-14.678 11.265-53.894-22.952-84.994z"/><path
  style="color:#000;fill:#fff;stroke:#fff;stroke-miterlimit:10;-inkscape-stroke:none"
  d="M802.5 497.97c-7.896 0-14.33 6.434-14.33 14.33 0 7.897 6.434 14.33 14.33 14.33s14.33-6.433 14.33-14.33c0-7.896-6.434-14.33-14.33-14.33zm0 3c6.275 0 11.33 5.056 11.33 11.33 0 6.276-5.055 11.33-11.33 11.33a11.307 11.307 0 0 1-11.33-11.33c0-6.274 5.055-11.33 11.33-11.33z"/><path
  style="color:#000;fill:#fff;stroke:#fff;stroke-miterlimit:10;-inkscape-stroke:none"
  d="M812.254 508.064a30.782 30.782 0 0 0-6.473.807c-4.937 1.156-10.785 3.852-14.851 9.692l2.46 1.714c3.545-5.09 8.627-7.445 13.075-8.486a27.92 27.92 0 0 1 5.836-.728c.78-.012 1.437.016 1.92.058.482.042.867.14.752.102l.955-2.844c-.473-.159-.847-.194-1.448-.246-.6-.053-1.35-.082-2.226-.069z"/><path
  style="color:#000;fill:#fff;stroke:#fff;stroke-miterlimit:10;-inkscape-stroke:none"
  d="m793.766 501.18.347 2.98s1.37-.167 3.155.602c1.785.769 3.91 2.4 5.222 6.56l2.86-.904c-1.537-4.87-4.403-7.339-6.895-8.412-2.492-1.074-4.69-.826-4.69-.826zm4.16 27.537-5.112 35.64 2.971.426 5.11-35.64z"/></g><g
  style="fill:#fff;stroke:#fff" transform="translate(-657.265 -191.549)"><path style="color:#000;fill:#fff;stroke:#fff;stroke-miterlimit:10;-inkscape-stroke:none" d="M883.107 192.074c-7.56.194-14.658 1.518-21.12 4.47-6.408 2.928-10.313 6.15-12.493 9.476-2.18 3.326-2.538 6.738-1.988 9.634 1.1 5.792 5.543 9.744 5.543 9.744l2.023-2.216s-3.756-3.538-4.619-8.086c-.431-2.274-.213-4.743 1.549-7.432s5.162-5.618 11.23-8.39c12.026-5.495 26.86-5.03 43.211-1.936 16.352 3.093 34.155 8.784 52.03 13.433 18.084 4.704 30.943 2.703 41.924-.177 10.98-2.88 20.017-6.513 31.023-5.48 22.085 2.071 33.098 19.275 33.098 19.275l.045.07.053.066c4.412 5.437 15.49 23.089 22.369 43.639 6.88 20.55 9.581 43.947-1.793 61.531-11.758 18.177-24.444 37.639-32.889 55.608-8.445 17.969-12.818 34.562-7.138 47.058 5.535 12.18 17.106 22.947 27.269 30.772 10.1 7.776 18.813 12.588 18.922 12.648.01.004 6.128 3.857 12.426 9.717 6.3 5.863 12.6 13.734 13.254 21.223 1.216 13.972-4.19 22.726-11.875 27.306-7.685 4.58-17.822 4.852-25.926 1.139-8.228-3.77-12.543-9.273-14.608-14.975-2.064-5.701-1.809-11.657-.609-16.056.923-3.38 4.087-7.182 8.563-8.836 4.475-1.654 10.266-1.347 16.894 3.584 4.005 2.98 5.142 8.674 3.768 13.039-.688 2.183-1.963 3.967-3.688 4.978-1.725 1.011-3.948 1.348-6.922.383-4.753-1.542-5.702-4.144-5.388-6.31.313-2.167 2.094-3.845 4.03-3.604 2.558.328 4.179 3.43 4.179 3.43l2.714-1.278s-1.978-4.553-6.52-5.128v-.002c-3.762-.47-6.852 2.573-7.37 6.152-.519 3.579 1.736 7.746 7.433 9.594 3.621 1.175 6.874.81 9.364-.649 2.489-1.459 4.168-3.913 5.035-6.666 1.733-5.504.375-12.465-4.84-16.346-7.272-5.409-14.312-5.99-19.727-3.99-5.415 2.001-9.198 6.4-10.416 10.86-1.35 4.95-1.632 11.469.684 17.865 2.316 6.396 7.295 12.613 16.178 16.683 9.006 4.127 20.086 3.85 28.71-1.29 8.626-5.14 14.623-15.278 13.329-30.145-.777-8.91-7.666-17.08-14.197-23.156-6.532-6.078-12.88-10.063-12.88-10.063l-.034-.023-.04-.022s-8.634-4.76-18.609-12.44c-9.974-7.679-21.213-18.296-26.367-29.636-5.01-11.024-1.184-26.865 7.123-44.54 8.308-17.677 20.928-37.072 32.69-55.255 12.145-18.776 9.141-43.139 2.12-64.111-6.983-20.863-17.9-38.378-22.786-44.442l-.012-.015c-.032-.05-11.83-18.424-35.332-20.63-11.805-1.107-21.303 2.745-32.065 5.567-10.762 2.823-22.851 4.742-40.406.176-17.77-4.62-35.613-10.334-52.233-13.478-8.31-1.572-16.332-2.51-23.893-2.317z"/>
  <path style="color:#000;fill:#fff;stroke:#fff;stroke-miterlimit:10;-inkscape-stroke:none"
        d="m1063.002 312.621-.145 2.998s5.259.282 10.018 3.17c4.76 2.888 9.054 8.05 7.344 18.979l2.963.464c1.86-11.88-3.232-18.658-8.75-22.007-5.519-3.35-11.43-3.604-11.43-3.604zm2.303-35.717a40.654 40.654 0 0 0-5.703.022c-1.678.12-3.102.32-4.165.486-.53.083-.972.158-1.296.21-.325.05-.597.068-.48.068v3c.383 0 .595-.05.948-.106.354-.056.784-.13 1.293-.209 1.018-.16 2.35-.344 3.914-.457 3.128-.225 7.17-.155 11.36.988 8.38 2.286 17.474 8.658 21.654 26.428l2.92-.687c-4.37-18.58-14.522-26.109-23.783-28.635a34.228 34.228 0 0 0-6.662-1.108zm-21.131-49.354c-12.848.123-22.815 5.403-22.815 5.403l1.4 2.654s9.4-4.941 21.442-5.056c12.042-.115 26.56 4.4 37.377 23.945l2.625-1.453c-11.282-20.385-27.181-25.615-40.03-25.492z"/>
  <circle class="st1" cx="856.91" cy="226.91" r="5.47" style="fill:#fff;stroke:#fff"/>
  <circle class="st1" cx="1019.92" cy="236.42" r="4.99" style="fill:#fff;stroke:#fff"/>
  <circle class="st1" cx="1050.34" cy="281.09" r="5.47" style="fill:#fff;stroke:#fff"/>
  <circle class="st1" cx="1060.79" cy="315.31" r="4.51" style="fill:#fff;stroke:#fff"/>
  <g style="fill:#fff;stroke:#fff"><path class="st1" d="M1117.82 435.73c-13.26 8.9-31.22 5.36-40.12-7.9 13.26-8.9 31.22-5.36 40.12 7.9z" style="fill:#fff;stroke:#fff"/>
    <path class="st1" d="M1085.73 387.91c-13.26 8.9-16.79 26.86-7.9 40.12 13.26-8.9 16.8-26.86 7.9-40.12z"
          style="fill:#fff;stroke:#fff"/></g>
  <path style="color:#000;fill:#fff;stroke:#fff;stroke-miterlimit:10;-inkscape-stroke:none"
        d="M1078.56 425.307s-12.418 3.236-15.622 12.85c-1.279 3.84-.714 8.2.837 12.327 1.551 4.127 4.11 8.054 7.123 11.067l2.124-2.121c-2.688-2.687-5.054-6.312-6.44-10-1.386-3.689-1.77-7.406-.799-10.326 2.496-7.487 13.596-10.91 13.596-10.91z"/>
  <path class="st1" d="M1113.13 407.57c-4.4 15.35-20.41 24.23-35.76 19.83 4.4-15.35 20.41-24.23 35.76-19.83z"
        style="fill:#fff;stroke:#fff"/>
  <circle class="st1" cx="1087.41" cy="379.35" r="4.04" style="fill:#fff;stroke:#fff"/>
  <circle class="st1" cx="1119.49" cy="403.58" r="4.04" style="fill:#fff;stroke:#fff"/>
  <circle class="st1" cx="1127.45" cy="435.78" r="3.56" style="fill:#fff;stroke:#fff"/>
  <path class="st1"
        d="M966.32 243.25c-5.08-1.29-9.1-4.64-11.39-8.92-1.36 4.72-4.64 8.87-9.41 11.18a17.88 17.88 0 0 1-1.17-12.52 17.84 17.84 0 0 1-12.66 1.45c2.43-9.55 12.11-15.34 21.66-12.99.02.01.12.03.14.04l.29.09c.01-.01.05 0 .06.02 9.32 2.63 14.88 12.22 12.48 21.65z"
        style="fill:#fff;stroke:#fff"/>
  <path style="color:#000;fill:#fff;stroke:#fff;stroke-miterlimit:10;-inkscape-stroke:none"
        d="M1090.822 209.385c-3.708.057-6.581 1.326-8.761 3.119-2.907 2.39-4.682 5.555-6.327 7.826-3.673 5.059-5.226 11.193-5.226 11.193l2.904.754s1.527-5.745 4.752-10.185v-.002c1.795-2.479 3.457-5.34 5.803-7.27 2.345-1.929 5.275-3.083 10.277-2.117 3.407.661 5.962 2.173 7.32 4.04 1.358 1.865 1.697 4.065.498 6.843-1.762 4.08-8.46 4.826-11.296.8v-.001c-.571-.81-.442-1.691.197-2.717s1.86-1.888 2.648-2.049c1.246-.257 2.938 1.557 2.938 1.557l2.377-1.83s-2.328-3.407-5.922-2.664c-1.9.39-3.532 1.702-4.59 3.4-1.058 1.7-1.47 4.093-.102 6.033 4.184 5.934 13.746 5.04 16.502-1.34v-.002c1.542-3.572 1.112-7.132-.828-9.797-1.94-2.664-5.208-4.45-9.172-5.218a19.454 19.454 0 0 0-3.992-.373zm43.936 18.23c-5.045-.49-10.363.443-15.127 3.49-12.218 7.817-24.852 22.877-29.182 49.383l2.961.485c4.21-25.774 16.296-39.956 27.838-47.34 5.528-3.537 11.911-3.82 17.608-2.192 5.696 1.629 10.617 5.23 12.974 9.082 2.313 3.78 2.616 9.43.617 13.649-1.998 4.22-5.954 7.156-13.007 6.066-2.209-.34-3.428-1.145-4.167-2.1-.738-.954-1.033-2.163-.992-3.462a8.765 8.765 0 0 1 .977-3.656c.533-1.005 1.282-1.562 1.346-1.58v-.003c1.602-.474 2.304.035 2.959.711a4.85 4.85 0 0 1 .958 1.498l2.833-.992s-.464-1.379-1.635-2.59a5.905 5.905 0 0 0-5.967-1.502c-1.495.442-2.394 1.636-3.145 3.05a11.517 11.517 0 0 0-1.326 4.968c-.058 1.823.365 3.776 1.617 5.395 1.253 1.618 3.299 2.799 6.08 3.228 8.097 1.25 13.707-2.53 16.178-7.748 2.472-5.218 2.148-11.728-.77-16.498-2.873-4.697-8.345-8.582-14.706-10.4a27.7 27.7 0 0 0-4.924-.942zm-1.936 59.825c-13.437-.196-24.564 9.221-32.332 18.456-7.767 9.236-12.289 18.506-12.289 18.506l2.697 1.317s4.389-8.975 11.89-17.893c7.5-8.917 17.997-17.561 29.99-17.387 8.014.118 13.171 1.701 16.253 3.932 3.082 2.231 4.261 5.07 4.37 8.399.086 2.738-.855 5.575-2.89 7.671-2.034 2.097-5.172 3.537-9.818 3.37-3.436-.124-5.282-1.694-5.943-3.422-.661-1.728-.233-3.74 1.809-5.295.594-.453 1.725-.713 2.535-.455.81.257 1.516.797 1.713 2.742l2.986-.3c-.283-2.806-1.896-4.697-3.79-5.3-1.892-.602-3.845-.152-5.26.926-2.95 2.245-3.927 5.797-2.796 8.754 1.132 2.957 4.275 5.19 8.639 5.348 5.334.192 9.428-1.547 12.078-4.278 2.65-2.73 3.846-6.368 3.734-9.86-.131-4.04-1.8-7.973-5.609-10.73-3.808-2.756-9.581-4.379-17.967-4.502zm-19.292 53.564c-7.066.091-14.943 2.216-21.282 7.613v.002c-9.1 7.758-26.416 11.432-26.416 11.432l.6 2.94s17.622-3.447 27.761-12.089c9.097-7.744 22.358-7.962 29.647-5.312 1.856.673 4.321 2.703 5.926 5.369 1.604 2.666 2.398 5.874 1.466 9.082-.71 2.441-3.308 3.832-6.355 4.078-3.047.247-6.161-.873-7.24-2.476-.612-.91-.668-1.754-.387-2.65.28-.897.974-1.805 1.893-2.432.918-.628 2.026-.966 3.103-.873 1.077.092 2.164.57 3.219 1.82l2.293-1.936c-1.5-1.78-3.399-2.713-5.254-2.873-1.856-.16-3.627.407-5.055 1.383s-2.548 2.37-3.062 4.014a6.08 6.08 0 0 0 .761 5.222c2.031 3.017 6.121 4.103 9.97 3.791 3.847-.31 7.833-2.241 8.993-6.23 1.209-4.161.156-8.255-1.777-11.467-1.933-3.21-4.697-5.636-7.47-6.642-3.147-1.144-7.094-1.82-11.333-1.766z"/>
  <path class="st1"
        d="M1127.8 355.64s1.19 2.08.18 3.33-2.91 1.25-3.92.18c-1.01-1.07.06-3.68-2.97-3.45-3.03.24-.06-2.38-.06-2.38zm15.98-48.53s.42 2.76-1.84 2.91c-2.26.15-2.64-.92-2.73-1.51-.09-.59.83-1.49.59-2.47-.24-.98-.59-1.37-1.22-1.49-.62-.12.21-1.34.21-1.34l2.14.68zm-.43-56.53s1.11 2.27.27 3.21c-.85.94-2.81 1.16-3.52.94-.71-.22-1.65-.62-1.69-1.25-.04-.63-.67-.94.71-2.32.32-.32-.4-1.56-1.47-1.83-1.07-.27.18-1.11.18-1.11l3.12.85zm-44.51-31.54s.8 2.23.36 3.12c-.45.89-2.32 1.25-3.21 1.07-.89-.18-.45-2.23-1.6-2.94-1.16-.71-2.58-.36-2.58-.36l4.01-1.69z"
        style="fill:#fff;stroke:#fff"/>
  <circle class="st1" cx="957.9" cy="251.86" r="3.21" style="fill:#fff;stroke:#fff"/>
  <circle class="st1" cx="933.66" cy="246.16" r="3.21" style="fill:#fff;stroke:#fff"/>
  <path style="color:#000;fill:#fff;stroke:#fff;stroke-miterlimit:10;-inkscape-stroke:none"
        d="M1058.441 475.969c-4.415.134-9.989 1.186-14.623 4.855-4.73 3.746-8.317 10.85-10.066 18.719-1.193 5.369-1.407 11.08-.399 16.37-4.76-5.5-10.517-11.543-17.404-16.835-9.191-7.063-19.53-12.423-29.148-11.074-9.213 1.292-15.153 5.024-18.742 8.47-3.59 3.447-4.905 6.725-4.905 6.725l2.791 1.102s1.007-2.604 4.192-5.662c3.185-3.059 8.474-6.457 17.082-7.664 8.202-1.151 18.004 3.645 26.902 10.482s16.866 15.595 21.602 21.738l2.529-1.586c-2.986-5.967-3.21-14.045-1.572-21.416 1.638-7.37 5.182-13.993 9.002-17.017 7.832-6.202 19.763-3.633 19.763-3.633l.668-2.926s-3.256-.783-7.672-.648z"/>
  <path style="color:#000;fill:#fff;stroke:#fff;stroke-miterlimit:10;-inkscape-stroke:none"
        d="m1011.05 463.648-2.702 1.303 24.72 51.32 2.704-1.302z"/>
  <path style="color:#000;fill:#fff;stroke:#fff;stroke-miterlimit:10;-inkscape-stroke:none"
        d="m995.256 425.04-.729 1.314c-3.773 6.807-4.468 14.428-2.798 21.459-6.663-2.569-14.206-2.93-21.4-.196l-1.405.533.533 1.403c5.74 15.093 22.387 22.848 37.56 17.734a1.44 1.44 0 0 0 .366-.078c.027-.009.06-.03.088-.041l.404-.135-.111.031c.305-.076.244-.078.289-.095.045-.018.197-.051-.068.015l1.134-.283v-.27c14.648-6.313 21.93-23.072 16.204-38.124l-.534-1.403-1.402.533c-6.183 2.35-11.038 6.598-14.387 11.756-2.587-5.468-6.743-10.261-12.431-13.423zm1.25 4.302c5.162 3.307 8.912 8.044 10.873 13.459l1.162 3.205 1.578-3.022c2.713-5.192 7.156-9.436 12.832-12.005 4.194 13.456-2.584 27.972-15.875 33.144l-.11.043v-.002l-.513.182-.101.033c-13.214 4.616-27.595-1.724-33.334-14.383 6.904-2.144 14.065-1.496 20.132 1.555l3.291 1.654-1.199-3.482c-2.236-6.496-1.877-13.78 1.268-20.381zm-2.77-143.494c-2.982 0-5.84.383-8.552 1.097-10.846 2.857-19.216 10.883-23.926 20.258-4.71 9.376-5.84 20.19-1.871 28.805 3.967 8.612 13.154 14.72 27.986 14.543 9.438-.001 16.417-5.032 19.35-11.192 2.932-6.16 1.628-13.692-5.053-17.623-6.317-3.716-12.048-4.577-16.322-3.355-4.275 1.222-7.028 4.845-6.6 9.08.41 4.1 3.067 6.649 5.916 7.598 2.85.948 5.865.663 7.885-.848l-1.797-2.402c-.84.628-3.176 1.058-5.139.404s-3.579-2.023-3.88-5.05v-.003c-.293-2.895 1.229-4.977 4.439-5.894 3.21-.918 8.176-.358 13.978 3.056 5.44 3.2 6.276 8.679 3.864 13.746-2.413 5.068-8.265 9.483-16.645 9.483h-.018c-14.028.172-21.768-5.26-25.24-12.797-3.472-7.538-2.55-17.489 1.828-26.203 4.378-8.715 12.137-16.105 22.008-18.705 9.871-2.6 21.972-.538 35.422 10.119 27.13 21.496 33.647 44.2 33.56 61.908-.043 8.854-1.769 16.46-3.486 21.984a90.228 90.228 0 0 1-2.36 6.63c-.323.813-.593 1.472-.792 1.988-.1.257-.183.478-.25.687-.067.209-.15.326-.15.799h3c0 .339-.029.228.01.121.033-.107.1-.29.19-.523.181-.467.454-1.135.784-1.965a93.163 93.163 0 0 0 2.437-6.846c1.78-5.726 3.576-13.625 3.621-22.86.091-18.469-6.938-42.28-34.697-64.273-10.496-8.316-20.55-11.767-29.496-11.767z"/>
  <circle class="st1" cx="1022.54" cy="338.83" r="3.33" style="fill:#fff;stroke:#fff"/>
  <circle class="st1" cx="1014.54" cy="353.83" r="3.33" style="fill:#fff;stroke:#fff"/>
  <circle class="st1" cx="998.54" cy="361.83" r="3.33" style="fill:#fff;stroke:#fff"/>
  <circle class="st1" cx="979.54" cy="362.83" r="3.33" style="fill:#fff;stroke:#fff"/>
  <circle class="st1" cx="961.54" cy="356.83" r="3.33" style="fill:#fff;stroke:#fff"/>
  <circle class="st1" cx="949.54" cy="341.83" r="3.33" style="fill:#fff;stroke:#fff"/>
  <circle class="st1" cx="946.54" cy="321.83" r="3.33" style="fill:#fff;stroke:#fff"/></g></g></svg>
