<?xml version="1.0" encoding="UTF-8" standalone="no"?>
<!-- Created with Inkscape (http://www.inkscape.org/) -->

<svg
   viewBox="0 0 99.534409 94.978874"
   version="1.1"
   id="main"
   xmlns="http://www.w3.org/2000/svg"
   xmlns:svg="http://www.w3.org/2000/svg">
  <defs
     id="defs15782" />
  <g
     id="layer1"
     transform="translate(-23.717329,-21.912625)">
    <path
       d="M 120.76224,62.278646 H 91.504461 L 111.58524,42.588422 c 0.94882,-0.930987 0.93967,-2.416928 -0.0244,-3.335785 l -6.48004,-6.186363 c -0.96407,-0.918857 -2.52001,-0.927955 -3.49629,-0.02123 L 80.948474,52.204578 V 24.287096 c 0,-1.310053 -1.113565,-2.374471 -2.489505,-2.374471 h -9.951916 c -1.372888,0 -2.489504,1.064418 -2.489504,2.374471 V 52.204578 L 45.38151,33.045046 c -0.973226,-0.906727 -2.532217,-0.897629 -3.493239,0.02123 l -6.483084,6.186363 c -0.961022,0.918857 -0.973226,2.404798 -0.02441,3.335785 L 55.461562,62.278646 H 26.203783 c -1.372889,0 -2.486454,1.064418 -2.486454,2.374472 v 9.497887 c 0,1.310054 1.113565,2.374472 2.486454,2.374472 H 55.461562 L 34.834675,96.206604 c -0.994581,0.949182 -0.967124,2.498806 0.06407,3.41463 l 6.989528,6.228816 c 0.973225,0.86427 2.483403,0.84911 3.435272,-0.0333 L 66.017549,86.599545 v 27.917485 c 0,1.31005 1.116616,2.37447 2.489504,2.37447 h 9.951916 c 1.37594,0 2.489505,-1.06442 2.489505,-2.37447 V 86.599545 l 20.636036,19.159535 c 0.97628,0.90672 2.53222,0.89763 3.49629,-0.0212 l 6.48004,-6.186364 c 0.96407,-0.918857 0.97322,-2.404797 0.0244,-3.335784 L 91.504461,76.525477 h 29.257779 c 1.37289,0 2.4895,-1.064418 2.4895,-2.374472 v -9.497887 c 0,-1.310054 -1.11661,-2.374472 -2.4895,-2.374472 M 77.604728,78.899949 h -8.243433 l -5.8302,-5.564695 v -7.866385 l 5.8302,-5.564695 h 8.243433 l 5.83325,5.564695 v 7.866385 z"
       style="fill-opacity:1;fill-rule:nonzero;stroke:none;stroke-width:3.04168"
       id="main" />
  </g>
</svg>
