<?xml version="1.0" encoding="UTF-8" standalone="no"?>
<!-- Created with Inkscape (http://www.inkscape.org/) -->

<svg
   viewBox="0 0 167.10611 83.524864"
   version="1.1"
   id="main"
   xmlns="http://www.w3.org/2000/svg"
   xmlns:svg="http://www.w3.org/2000/svg">
  <defs
     id="defs13119" />
  <g
     id="layer1"
     transform="translate(-111.04488,-55.876739)">
    <g
       id="lb"
       style="font-variation-settings:normal;vector-effect:none;fill:#c9dff8;fill-opacity:1;stroke:none;stroke-width:1;stroke-linecap:butt;stroke-linejoin:miter;stroke-miterlimit:4;stroke-dasharray:none;stroke-dashoffset:0;stroke-opacity:1;-inkscape-stroke:none;stop-color:#000000"
       transform="matrix(0.35277777,0,0,-0.35277777,85.302837,151.73228)">
      <path
         d="m 212.4129,84.5218 c 0.099,0.069 0.196,0.139 0.295,0.208 -0.069,0.098 -0.128,0.261 -0.212,0.275 -0.084,0.014 -0.193,-0.12 -0.291,-0.189 0.069,-0.098 0.139,-0.196 0.208,-0.294 m 6.555,66.838 c 2.116,0.159 3.415,1.282 3.468,3.43 0.051,2.046 -1.313,3.183 -3.197,3.108 -1.963,-0.079 -3.556,-1.157 -3.519,-3.399 0.033,-1.958 1.216,-3.037 3.248,-3.139 m -107.562,-64.509 c 11.443,0.033 20.881,9.02 20.897,19.896 0.016,11.043 -9.425,20.308 -20.582,20.201 -12.02,-0.115 -20.634,-8.607 -20.612,-20.317 0.022,-11.055 9.009,-19.813 20.297,-19.78 m 81.879,-7.656 c -4.275,-0.83 -8.571,-1.566 -12.82,-2.513 -7.043,-1.568 -11.734,-5.976 -13.983,-12.712 -2.037,-6.098 -0.496,-11.37 4.739,-15.38 0.255,-0.196 0.312,-0.651 0.505,-1.083 -9.791,2.643 -9.786,15.285 0.078,27.431 -5.76,0 -11.555,1.052 -16.78,-0.226 -9.906,-2.423 -12.656,-14.95 -5.491,-22.29 0.264,-0.269 0.408,-0.656 0.663,-1.079 -3.093,0.519 -4.594,1.968 -5.807,5.487 -2.015,5.838 -0.605,9.787 6.441,17.968 -0.865,1.157 -2.217,0.946 -3.38,1.13 -8.835,1.405 -17.286,3.951 -25.064,8.454 -2.278,1.319 -4.369,1.695 -7.132,1.136 -10.895,-2.199 -21.594,4.572 -24.954,15.362 -3.101,9.954 2.194,21.48 11.799,25.684 10.724,4.694 22.953,0.917 28.732,-8.875 5.387,-9.127 2.862,-21.347 -5.791,-28.035 -3.86,-2.985 -3.882,-3.027 0.535,-5.267 6.915,-3.507 14.172,-5.869 22.163,-6.717 -3.685,8.416 -3.28,10.955 2.624,12.869 -3.057,-2.746 -4.651,-5.346 -2.756,-8.718 1.967,-3.5 4.885,-5.196 8.979,-5.113 3.613,0.072 7.238,-0.328 11.392,0.355 -4.591,2.961 -10.65,3.606 -11.492,9.936 -0.26,1.959 0.349,3.706 2.363,5.431 -1.293,-7.548 -0.195,-9.318 6.653,-12.322 5.631,-2.47 11.289,-2.712 17.327,-1.561 22.606,4.308 43.481,13.095 64.931,24.215 -7.171,0.572 -13.172,-0.336 -18.992,1.08 -1.912,0.466 -4.033,0.505 -5.715,1.39 -4.314,2.269 -7.483,1.64 -9.644,-2.868 -0.23,0.311 -0.461,0.624 -0.692,0.936 8.555,12.639 6.005,21.31 -5.519,33.012 l 0.85,0.788 c 8.033,-6.907 13.37,-14.875 10.262,-26.151 -0.334,-1.213 -0.188,-2.091 1.07,-2.801 7.787,-4.399 33.084,-5.515 39.121,0.808 0.075,0.08 0.044,0.261 0.114,0.767 -7.409,0.712 -14.595,2.26 -20.979,6.414 -10.381,6.755 -16.495,16.3 -18.756,28.375 -0.493,2.633 -0.797,4.993 -3.308,6.894 -2.331,1.765 -2.019,4.611 0.151,6.645 2.307,2.161 5.021,2.02 7.168,-0.174 1.946,-1.99 1.992,-5.047 -0.275,-6.296 -3.997,-2.204 -2.617,-5.036 -2.002,-7.992 3.97,-19.082 20.044,-32.198 39.088,-32.14 3.735,0.011 6.84,1.44 9.987,2.981 28.125,13.767 57.851,21.003 89.144,21.449 12.774,0.182 25.484,-1.119 38.053,-3.546 0.902,-0.175 1.807,-0.701 3.07,0.208 -9.748,4.96 -18.085,11.315 -23.6,20.944 10.581,-14.406 26.176,-21.08 42.053,-27.414 -2.676,-0.939 -4.731,0.474 -6.874,1.114 -12.032,3.593 -24.341,5.284 -36.825,6.43 -20.995,1.925 -41.53,-0.427 -61.942,-5.118 -3.676,-0.846 -6.815,-2.611 -9.926,-4.486 -3.49,-2.103 -6.811,-4.488 -10.205,-6.751 -0.303,0.263 -0.607,0.527 -0.91,0.789 1.813,1.498 3.625,2.995 5.666,4.682 -1.816,1.23 -3.136,0.198 -4.469,-0.244 -16.385,-5.438 -31.309,-13.957 -46.428,-22.06 -8.437,-4.521 -17.295,-8.145 -25.915,-12.262 -6.795,-3.246 -11.669,-8.775 -13.885,-16.155 -1.616,-5.384 1.322,-11.449 6.114,-13.389 5.126,-2.076 12.875,0.186 15.519,4.531 2.838,4.663 1.775,10.195 -2.421,12.602 -3.681,2.112 -6.522,0.679 -9.782,-4.933 -0.588,2.429 -0.357,3.485 1.536,5.025 2.247,1.831 4.691,3.131 7.755,1.949 3.686,-1.421 5.684,-4.25 5.958,-8.005 0.323,-4.445 -1.142,-8.353 -5.068,-10.914 -5.48,-3.574 -13.801,-3.25 -17.79,0.608 -4.266,4.127 -4.84,11.486 -1.541,17.67 1.302,2.441 3.779,4.103 4.786,7.39 -10.526,-2.21 -18.983,-6.619 -23.251,-16.567 -3.633,-8.466 -1.107,-15.574 6.426,-21.33 -3.521,0.362 -6.052,2.429 -7.722,6.396 -3.039,7.215 -2.099,14.019 2.58,20.283 1.26,1.686 2.64,3.283 3.964,4.921 0.377,0.235 1.078,0.246 0.883,0.882 -0.045,0.147 -0.883,0.05 -1.356,0.066"
         style="font-variation-settings:normal;vector-effect:none;fill:#c9dff8;fill-opacity:1;fill-rule:nonzero;stroke:none;stroke-width:1;stroke-linecap:butt;stroke-linejoin:miter;stroke-miterlimit:4;stroke-dasharray:none;stroke-dashoffset:0;stroke-opacity:1;-inkscape-stroke:none;stop-color:#000000;stop-opacity:1"
         id="path86" />
      <path
         d="m 208.9822,201.9974 c -0.316,1.853 -1.187,3.339 -3.15,3.288 -1.922,-0.049 -3.032,-1.413 -2.894,-3.344 0.138,-1.93 1.471,-3.044 3.34,-3 1.804,0.042 2.553,1.398 2.704,3.056 m -9.229,-34.674 c -0.14,2.008 -1.536,2.913 -3.354,2.924 -2.099,0.014 -3.519,-1.319 -3.539,-3.389 -0.021,-1.948 1.34,-2.963 3.344,-2.95 2.21,0.015 3.323,1.189 3.549,3.415 m 34.851,74.542 c 2.731,-1.031 4.02,-3.18 6.438,-3.468 4.069,-0.486 7.734,0.213 10.034,3.838 2.58,4.067 3.038,8.479 0.427,12.764 -4.838,7.939 -17.118,10.167 -25.963,4.808 -7.939,-4.812 -11.112,-12.164 -9.232,-21.225 0.662,-3.192 2.099,-5.334 5.293,-6.932 18.793,-9.398 22.699,-32.102 8.678,-49.117 -6.729,-8.167 -15.424,-13.014 -25.695,-15.086 -1.793,-0.361 -2.909,-0.92 -3.907,-2.578 -1.734,-2.882 -5.417,-3.574 -7.603,-1.653 -2.272,1.995 -2.418,4.564 -0.557,6.765 2.148,2.54 5.111,2.734 7.437,0.424 1.589,-1.578 3.031,-1.638 4.89,-1.329 16.288,2.71 30.166,16.543 32.134,32.744 1.363,11.231 -3.344,20.092 -12.574,26.39 -9.08,6.195 -18.655,6.989 -28.152,1 -8.73,-5.506 -13.551,-13.377 -12.874,-24.013 0.512,-8.02 6.132,-14.967 13.875,-17.368 7.726,-2.396 17.142,0.224 21.953,6.108 4.404,5.389 4.16,13.379 -0.57,18.616 -4.525,5.01 -12.673,6.244 -18.154,2.748 -3.752,-2.394 -5.224,-5.926 -4.403,-10.569 0.75,-4.239 2.318,-5.963 6.204,-6.773 0.654,0.905 -0.293,1.488 -0.51,2.18 -0.88,2.8 -0.349,5.158 2.403,6.404 2.377,1.076 4.518,0.182 5.727,-2.085 1.424,-2.669 1.1,-5.198 -1.504,-7.093 -3.806,-2.77 -9.68,-1.532 -12.238,2.544 -4.383,6.982 -1.26,15.645 6.559,18.195 7.323,2.388 15.457,-0.689 18.956,-7.171 4.151,-7.688 2.603,-15.571 -4.08,-20.77 -8.456,-6.581 -20.929,-6.442 -28.495,0.315 -8.27,7.389 -9.902,20.058 -3.547,30.111 6.213,9.825 15.083,14.993 26.968,13.832 3.147,-0.309 3.019,0.663 2.411,3.204 -2.04,8.527 -0.055,15.946 7.037,21.524 7.17,5.641 15.218,6.597 23.474,3.152 8.676,-3.621 11.746,-13.112 7.196,-20.667 -3.938,-6.541 -14.078,-6.732 -18.036,0.231"
         style="font-variation-settings:normal;vector-effect:none;fill:#c9dff8;fill-opacity:1;fill-rule:nonzero;stroke:none;stroke-width:1;stroke-linecap:butt;stroke-linejoin:miter;stroke-miterlimit:4;stroke-dasharray:none;stroke-dashoffset:0;stroke-opacity:1;-inkscape-stroke:none;stop-color:#000000;stop-opacity:1"
         id="path98" />
      <path
         d="m 109.4734,180.349 c 12.093,0.814 24.119,11.404 23.267,24.296 -0.774,11.715 -14.608,21.567 -22.472,20.815 7.158,-15.045 6.888,-29.973 -0.795,-45.111 m -14.755,22.668 c 0.122,-6.643 0.929,-12.626 3.609,-18.181 1.156,-2.393 2.534,-4.902 5.75,-4.932 3.029,-0.029 4.546,2.287 5.567,4.55 5.61,12.446 5.84,25.032 0.336,37.59 -0.97,2.214 -2.451,4.342 -5.191,4.422 -2.935,0.086 -4.415,-2.138 -5.684,-4.398 -3.416,-6.088 -3.952,-12.821 -4.387,-19.051 m -10.343,17.608 c -0.624,2.059 1.348,2.173 2.31,2.789 12.403,7.953 30.655,5.838 40.926,-4.65 11.594,-11.84 7.724,-29.769 -8.082,-37.271 -3.837,-1.822 -7.87,-3.054 -12.159,-3.216 -1.578,-0.06 -2.733,-0.327 -2.587,-2.361 0.871,-12.217 10.641,-24.831 21.232,-26.946 -1.282,4.406 -2.792,8.609 -2.478,13.165 0.528,7.62 5.738,14.152 12.932,15.928 4.335,1.07 8.758,-0.922 10.634,-4.818 1.336,-2.773 1.308,-5.552 -0.716,-7.916 -1.966,-2.293 -4.571,-2.952 -7.438,-2.135 -0.196,1.099 0.273,1.215 0.909,1.259 4.29,0.295 6.589,2.205 6.62,5.467 0.033,3.402 -3.104,6.47 -6.868,6.722 -6.876,0.458 -13.835,-6.189 -14.454,-13.806 -0.918,-11.277 4.485,-18.832 15.534,-21.758 0.77,-0.204 1.497,-0.576 2.662,-1.034 -4.055,-0.744 -8.38,0.576 -12.189,3.756 -1.762,1.472 -3.677,2.399 -5.796,3.234 -12.408,4.888 -19.892,13.857 -21.705,27.191 -0.371,2.728 -1.044,3.918 -4.195,4.308 -13.214,1.629 -23.206,10.47 -24.832,21.72 -1.181,8.172 1.763,14.914 8.05,20.209 0.474,0.399 1.049,1.051 1.724,0.196 -0.523,-1.724 -2.131,-2.541 -3.218,-3.787 -4.13,-4.732 -5.951,-10.176 -5.081,-16.384 1.437,-10.257 11.102,-18.737 22.549,-19.953 -7.296,15.637 -7.175,29.9 0.38,44.865 0.177,0.268 0.354,0.537 0.531,0.806 -0.381,-0.024 -0.761,-0.048 -1.142,-0.073 -5.186,-0.554 -9.423,-3.534 -14.053,-5.507"
         style="font-variation-settings:normal;vector-effect:none;fill:#c9dff8;fill-opacity:1;fill-rule:nonzero;stroke:none;stroke-width:1;stroke-linecap:butt;stroke-linejoin:miter;stroke-miterlimit:4;stroke-dasharray:none;stroke-dashoffset:0;stroke-opacity:1;-inkscape-stroke:none;stop-color:#000000;stop-opacity:1"
         id="path102" />
      <path
         d="m 262.9861,51.472 c 11.817,-0.043 21.086,8.807 21.116,20.16 0.03,11.145 -9.249,20.28 -20.595,20.278 -11.091,-0.002 -20.475,-9.449 -20.415,-20.551 0.059,-10.983 8.927,-19.848 19.894,-19.887 m 29.649,65.788 c -5.041,-11.579 -2.029,-22.227 4.651,-31.865 7.376,-10.644 18.026,-12.346 30.029,-8.765 -5.719,-3.955 -11.904,-3.413 -18.729,-2.171 1.764,-4.174 3.587,-7.771 4.041,-11.812 0.919,-8.173 -5.142,-13.719 -12.323,-11.104 -3.294,1.2 -4.898,3.747 -4.515,7.249 0.386,3.53 3.005,4.218 5.9,4.64 0.251,-1.092 -0.157,-1.422 -0.719,-1.573 -2.257,-0.609 -3.873,-1.741 -3.61,-4.394 0.257,-2.588 1.9,-4.017 4.225,-4.714 4.11,-1.231 8.984,1.847 9.341,6.114 0.603,7.183 -1.632,13.704 -7.29,18.04 -10.679,8.186 -15.086,18.867 -14.67,31.956 0.04,1.24 0.005,2.482 0.005,3.727 -1.543,0.4 -2.07,-0.775 -2.829,-1.507 -3.571,-3.443 -6.508,-7.392 -9.132,-11.581 -4.211,-6.722 -4.198,-6.729 1.596,-11.811 6.224,-5.459 8.702,-14.807 6.045,-22.797 -2.741,-8.24 -10.94,-14.485 -19.63,-15.107 -1.531,-0.11 -3.865,0.95 -4.451,-1.01 -0.723,-2.416 1.104,-4.246 3.084,-5.481 1.369,-0.854 2.948,-1.371 4.837,-2.219 -5.072,-0.687 -8.405,1.757 -9.734,6.682 -0.299,1.114 0.262,2.705 -1.69,2.867 -1.669,0.139 -2.023,-1.247 -2.705,-2.256 -1.18,-1.744 -2.334,-3.506 -3.538,-5.234 -0.113,-0.162 -0.503,-0.132 -1.182,-0.284 0.264,2.158 1.777,3.488 2.562,5.14 0.611,1.286 2.683,2.499 1.467,3.912 -1.554,1.805 -2.949,-0.085 -4.245,-1.076 -4.248,-3.244 -8.723,-3.631 -13.404,-0.989 -0.591,0.334 -1.227,0.715 -1.05,1.674 1.247,0.588 2.01,-0.536 2.977,-0.901 3.022,-1.143 5.986,-1.37 8.916,0.341 2.515,1.468 3.878,2.51 0.914,5.427 -6.826,6.717 -8.145,16.183 -4.124,24.55 4.101,8.531 12.597,13.288 23.068,11.984 4.018,-0.5 5.557,0.624 7.203,4.037 4.101,8.491 10.275,15.409 17.8,21.1 0.303,-0.263 0.607,-0.526 0.909,-0.789"
         style="font-variation-settings:normal;vector-effect:none;fill:#c9dff8;fill-opacity:1;fill-rule:nonzero;stroke:none;stroke-width:1;stroke-linecap:butt;stroke-linejoin:miter;stroke-miterlimit:4;stroke-dasharray:none;stroke-dashoffset:0;stroke-opacity:1;-inkscape-stroke:none;stop-color:#000000;stop-opacity:1"
         id="path110" />
      <path
         d="m 296.8611,211.7415 c -7.716,-10.353 -17.089,-17.335 -30.545,-16.483 -6.361,0.402 -11.017,4.349 -12.121,9.915 -0.938,4.73 1.283,7.685 6.059,8.098 2.87,0.248 5.58,-0.67 8.348,-1.123 9.373,-1.534 18.753,-1.155 28.259,-0.407"
         style="font-variation-settings:normal;vector-effect:none;fill:#f6f9fb;fill-opacity:1;fill-rule:nonzero;stroke:none;stroke-width:1;stroke-linecap:butt;stroke-linejoin:miter;stroke-miterlimit:4;stroke-dasharray:none;stroke-dashoffset:0;stroke-opacity:1;-inkscape-stroke:none;stop-color:#000000;stop-opacity:1"
         id="path114" />
      <path
         d="m 207.1971,136.3119 c -6.063,4.814 -13.007,8.446 -18.678,13.779 -6.982,6.567 -11.25,14.66 -13.008,24.121 -8.361,-4.963 -8.412,-11.112 -0.22,-33.833 -7.276,3.218 -14.611,3.29 -21.97,3.083 -5.365,-0.151 -5.556,-0.438 -3.343,-5.133 3.582,-7.603 8.289,-14.34 16.682,-20.131 -10.984,-0.95 -18.948,-4.554 -22.341,-15.271 12.268,2.743 23.041,-1.437 33.999,-4.339 7.226,-1.912 14.415,-3.696 22.052,-2.373 4.143,0.718 7.306,3.204 11.017,4.715 -3.146,-4.166 -7.555,-5.978 -12.608,-6.489 -8.758,-0.885 -17.01,1.538 -25.293,3.878 -4.871,1.375 -9.784,2.719 -14.766,3.551 -5.267,0.88 -10.621,0.899 -15.716,-1.449 -0.851,8.306 5.437,14.716 18.783,19.171 -6.188,5.697 -10.739,12.344 -14.093,19.822 -2.232,4.978 -2.248,4.955 2.957,5.324 7.015,0.498 13.998,0.212 21.314,-1.028 -1.764,5.147 -3.991,9.71 -4.488,14.801 -0.657,6.727 0.838,12.582 6.278,17.038 1.657,1.358 3.018,1.788 3.431,-0.964 2.251,-14.963 11.787,-24.457 23.94,-32.02 2.503,-1.558 5.027,-3.12 6.921,-5.465 z"
         style="font-variation-settings:normal;vector-effect:none;fill:#c9dff8;fill-opacity:1;fill-rule:nonzero;stroke:none;stroke-width:1;stroke-linecap:butt;stroke-linejoin:miter;stroke-miterlimit:4;stroke-dasharray:none;stroke-dashoffset:0;stroke-opacity:1;-inkscape-stroke:none;stop-color:#000000;stop-opacity:1"
         id="path130" />
      <path
         d="m 498.6404,116.0423 c -3.762,-3.552 -8.327,-5.239 -13.404,-5.291 -2.482,-0.025 -3.42,-0.782 -3.64,-3.299 -0.638,-7.308 1.864,-13.831 4.626,-20.326 3.17,-7.456 7.998,-13.844 12.891,-20.208 2.531,-3.292 4.909,-6.722 6.292,-10.776 -5.507,6.707 -10.246,13.987 -15.973,20.509 -5.958,6.787 -12.378,13.055 -19.261,18.885 -6.726,5.695 -14.185,10.379 -21.626,15.35 1.623,1.42 2.378,0.125 3.209,-0.362 11.844,-6.933 22.179,-15.809 32.183,-25.103 0.308,-0.234 0.813,-0.729 0.897,-0.665 0.733,0.555 0.281,1.138 -0.081,1.696 -3.048,7.183 -5.575,14.485 -4.604,22.477 0.337,2.773 -1.926,2.692 -3.467,3.341 -14.362,6.043 -17.802,23.7 -6.687,34.439 8.124,7.849 22.344,7.437 30.139,-0.895 8.244,-8.811 6.891,-22.28 -0.322,-28.507 -0.273,0.27 -0.544,0.54 -0.817,0.81 0.743,1.024 1.533,2.015 2.219,3.073 5.265,8.111 3.52,18.968 -4.007,25.054 -8.043,6.503 -19.286,6.053 -26.476,-1.059 -6.99,-6.915 -7.689,-17.614 -1.652,-25.311 6.873,-8.763 17.428,-9.869 28.678,-3.006 0.294,-0.275 0.589,-0.551 0.883,-0.826"
         style="font-variation-settings:normal;vector-effect:none;fill:#c9dff8;fill-opacity:1;fill-rule:nonzero;stroke:none;stroke-width:1;stroke-linecap:butt;stroke-linejoin:miter;stroke-miterlimit:4;stroke-dasharray:none;stroke-dashoffset:0;stroke-opacity:1;-inkscape-stroke:none;stop-color:#000000;stop-opacity:1"
         id="path134" />
      <path
         d="m 383.0359,58.221 c -6.287,-6.846 -14.488,-10.503 -23.021,-13.415 -10.129,-3.458 -20.654,-4.012 -31.28,-3.491 -2.456,0.12 -3.656,0.832 -3.28,3.514 3.878,27.648 16.556,49.117 43.115,60.456 11.877,5.073 24.545,7.085 37.417,7.759 1.662,0.087 2.864,-0.244 2.496,-2.271 -3.565,-19.647 -9.069,-38.381 -24.739,-52.302 -0.195,-0.173 -0.51,-0.212 -0.77,-0.312 -0.936,0.649 -0.291,1.232 0.166,1.654 13.707,12.674 19.416,29.275 23.083,46.887 0.974,4.68 0.657,5.114 -4.288,4.509 -5.441,-0.666 -10.894,-1.332 -16.279,-2.337 -35.803,-6.683 -54.105,-32.692 -58.435,-62.131 -0.396,-2.691 0.351,-3.76 3.2,-3.904 18.183,-0.914 34.934,2.97 49.608,14.251 0.797,0.613 1.451,2.279 3.007,1.133"
         style="font-variation-settings:normal;vector-effect:none;fill:#c9dff8;fill-opacity:1;fill-rule:nonzero;stroke:none;stroke-width:1;stroke-linecap:butt;stroke-linejoin:miter;stroke-miterlimit:4;stroke-dasharray:none;stroke-dashoffset:0;stroke-opacity:1;-inkscape-stroke:none;stop-color:#000000;stop-opacity:1"
         id="path138" />
      <path
         d="m 303.1854,201.223 c -0.801,-11.167 -2.644,-20.636 -11.717,-26.927 -3.08,-2.135 -6.383,-2.957 -9.973,-1.719 -2.944,1.016 -5.368,2.866 -5.666,6.155 -0.278,3.047 1.897,4.963 4.372,6.148 5.351,2.564 10.407,5.56 14.97,9.351 2.45,2.034 4.804,4.183 8.014,6.992"
         style="font-variation-settings:normal;vector-effect:none;fill:#f6f9fb;fill-opacity:1;fill-rule:nonzero;stroke:none;stroke-width:1;stroke-linecap:butt;stroke-linejoin:miter;stroke-miterlimit:4;stroke-dasharray:none;stroke-dashoffset:0;stroke-opacity:1;-inkscape-stroke:none;stop-color:#000000;stop-opacity:1"
         id="path154" />
      <path
         d="m 208.0692,126.099 c 4.476,-5.03 4.684,-10.766 2.082,-16.525 -2.463,-5.454 -7.48,-6.764 -13.041,-6.738 -4.241,0.021 -8.455,0.306 -12.594,1.208 -7.491,1.633 -14.931,3.518 -22.649,4.354 2.923,0.722 5.795,0.805 8.725,0.198 8.401,-1.739 16.715,-4.028 25.356,-4.335 4.291,-0.152 8.415,0.317 11.818,4.636 -12.424,-1.944 -23.29,0.843 -33.478,6.769 10.427,-3.902 20.865,-7.522 32.316,-4.651 -17.569,7.15 -34.131,15.991 -49.926,26.313 16.646,-8.573 32.818,-18.106 51.629,-24.49 -2.435,6.419 -6.705,10.076 -11.153,13.589 -4.5,3.553 -9.661,6.081 -14.335,9.322 11.079,-4.005 20.349,-10.441 27.1,-21.079 0.821,4.512 -0.904,7.633 -2.836,10.698 0.329,0.244 0.657,0.487 0.986,0.731"
         style="font-variation-settings:normal;vector-effect:none;fill:#c9dff8;fill-opacity:1;fill-rule:nonzero;stroke:none;stroke-width:1;stroke-linecap:butt;stroke-linejoin:miter;stroke-miterlimit:4;stroke-dasharray:none;stroke-dashoffset:0;stroke-opacity:1;-inkscape-stroke:none;stop-color:#000000;stop-opacity:1"
         id="path182" />
      <path
         d="m 297.0955,223.43 c -9.723,-2.336 -18.205,-3.588 -26.292,1.675 -3.357,2.184 -4.556,5.163 -3.795,9.043 1.059,5.398 6.145,7.488 9.978,3.668 5.634,-5.615 11.924,-10.199 20.109,-14.386"
         style="font-variation-settings:normal;vector-effect:none;fill:#f6f9fb;fill-opacity:1;fill-rule:nonzero;stroke:none;stroke-width:1;stroke-linecap:butt;stroke-linejoin:miter;stroke-miterlimit:4;stroke-dasharray:none;stroke-dashoffset:0;stroke-opacity:1;-inkscape-stroke:none;stop-color:#000000;stop-opacity:1"
         id="path186" />
      <path
         d="m 438.4188,114.1576 c 8.463,0.024 14.967,6.532 14.913,14.921 -0.052,8.091 -6.634,14.583 -14.849,14.645 -8.55,0.066 -15.293,-6.689 -15.185,-15.212 0.101,-7.964 6.856,-14.377 15.121,-14.354 m 16.531,14.716 c 0.012,-9.033 -7.705,-16.557 -16.85,-16.429 -9.001,0.126 -16.282,7.495 -16.318,16.518 -0.035,8.995 7.199,16.2 16.398,16.33 9.229,0.131 16.759,-7.24 16.77,-16.419"
         style="font-variation-settings:normal;vector-effect:none;fill:#c9dff8;fill-opacity:1;fill-rule:nonzero;stroke:none;stroke-width:1;stroke-linecap:butt;stroke-linejoin:miter;stroke-miterlimit:4;stroke-dasharray:none;stroke-dashoffset:0;stroke-opacity:1;-inkscape-stroke:none;stop-color:#000000;stop-opacity:1"
         id="path230" />
      <path
         d="m 165.9041,190.8128 c -2.558,7.985 -3.063,15.992 -2.691,24.2 0.236,5.22 -4.292,8.25 -9.115,6.781 -4.023,-1.225 -6.053,-4.824 -5.24,-9.785 1.667,-10.163 8.329,-16.445 17.046,-21.196 m -1.059,19.103 c -0.512,-7.189 0.875,-13.869 3.854,-20.229 0.299,-0.64 0.843,-1.232 0.277,-1.89 -0.598,-0.697 -1.332,-0.216 -1.91,0.096 -10.183,5.504 -18.364,12.662 -19.808,25.023 -0.858,7.33 5.285,12.596 11.921,10.304 3.469,-1.198 5.636,-3.64 5.664,-7.546 0.014,-1.971 0.002,-3.942 0.002,-5.758"
         style="font-variation-settings:normal;vector-effect:none;fill:#c9dff8;fill-opacity:1;fill-rule:nonzero;stroke:none;stroke-width:1;stroke-linecap:butt;stroke-linejoin:miter;stroke-miterlimit:4;stroke-dasharray:none;stroke-dashoffset:0;stroke-opacity:1;-inkscape-stroke:none;stop-color:#000000;stop-opacity:1"
         id="path246" />
      <path
         d="m 322.0848,106.4281 c -2.961,1.264 -3.814,2.776 -3.789,6.716 0.024,3.872 1.561,6.885 5.238,8.391 4.743,1.945 9.572,1.327 13.939,-0.878 6.021,-3.039 11.768,-6.626 17.616,-10.006 1.471,-0.851 2.45,-1.979 0.079,-2.811 -9.013,-3.162 -17.975,-6.895 -27.86,-4.802 -2.055,0.436 -4.802,0.348 -5.276,3.441 11.045,-5.347 21.207,-1.006 32.606,2.691 -7.386,4.216 -13.367,8.627 -20.497,11.01 -2.327,0.777 -4.7,0.908 -7.083,0.615 -6.173,-0.761 -9.052,-6.198 -6.307,-11.808 0.423,-0.864 0.888,-1.706 1.334,-2.559"
         style="font-variation-settings:normal;vector-effect:none;fill:#c9dff8;fill-opacity:1;fill-rule:nonzero;stroke:none;stroke-width:1;stroke-linecap:butt;stroke-linejoin:miter;stroke-miterlimit:4;stroke-dasharray:none;stroke-dashoffset:0;stroke-opacity:1;-inkscape-stroke:none;stop-color:#000000;stop-opacity:1"
         id="path250" />
      <path
         d="m 249.0809,144.4124 c -7.452,-9.729 -2.668,-18.812 10.799,-20.79 3.167,-0.466 6.417,-0.514 10.857,0.325 -3.445,1.141 -5.892,1.788 -8.208,2.753 -4.125,1.718 -7.883,3.889 -8.542,8.971 -0.526,4.061 1.406,6.993 5.32,7.962 0.291,-1.127 -0.802,-1.328 -1.308,-1.849 -3.74,-3.852 -3.644,-7.84 0.672,-11.078 4.267,-3.201 9.249,-4.65 14.577,-4.827 1.809,-0.06 3.621,-0.01 5.867,-0.01 -1.422,-2.681 -3.875,-2.486 -5.815,-3.02 -8.897,-2.448 -17.333,-1.408 -24.853,4.148 -5.209,3.848 -6.46,9.448 -3.592,14.474 0.879,1.54 1.829,3.139 4.226,2.941"
         style="font-variation-settings:normal;vector-effect:none;fill:#c9dff8;fill-opacity:1;fill-rule:nonzero;stroke:none;stroke-width:1;stroke-linecap:butt;stroke-linejoin:miter;stroke-miterlimit:4;stroke-dasharray:none;stroke-dashoffset:0;stroke-opacity:1;-inkscape-stroke:none;stop-color:#000000;stop-opacity:1"
         id="path258" />
      <path
         d="m 493.1512,61.8089 c -5.616,6.184 -12.08,10.979 -20.538,12.48 -12.744,2.262 -23.014,-2.538 -31.268,-11.767 -5.131,-5.737 -7.361,-13.799 0.988,-22.682 -0.245,-0.309 -0.489,-0.618 -0.733,-0.927 -7.592,7.141 -8.406,15.924 -1.992,24.023 11.612,14.663 37.044,21.214 54.355,-0.239 -0.27,-0.296 -0.541,-0.592 -0.812,-0.888"
         style="font-variation-settings:normal;vector-effect:none;fill:#c9dff8;fill-opacity:1;fill-rule:nonzero;stroke:none;stroke-width:1;stroke-linecap:butt;stroke-linejoin:miter;stroke-miterlimit:4;stroke-dasharray:none;stroke-dashoffset:0;stroke-opacity:1;-inkscape-stroke:none;stop-color:#000000;stop-opacity:1"
         id="path262" />
      <path
         d="m 408.7381,72.3294 c -2.8,-7.434 -4.064,-14.209 -3.911,-21.277 0.058,-2.718 0.485,-5.305 1.8,-7.728 1.922,-3.544 5.687,-5.32 9.573,-4.443 3.838,0.866 6.33,4.164 6.287,8.404 -0.02,1.992 -0.503,3.901 -1.257,5.745 -2.853,6.98 -7.97,12.428 -12.492,19.299 m -5.638,-20.314 c 0.186,7.884 2,14.095 3.736,20.313 0.558,2 1.479,3.239 3.215,0.732 3.6,-5.196 7.363,-10.284 10.811,-15.578 2.093,-3.212 3.182,-6.879 2.983,-10.8 -0.272,-5.4 -2.766,-8.369 -7.878,-9.447 -4.478,-0.944 -8.88,1.403 -11.003,5.862 -1.552,3.256 -2.02,6.703 -1.864,8.918"
         style="font-variation-settings:normal;vector-effect:none;fill:#c9dff8;fill-opacity:1;fill-rule:nonzero;stroke:none;stroke-width:1;stroke-linecap:butt;stroke-linejoin:miter;stroke-miterlimit:4;stroke-dasharray:none;stroke-dashoffset:0;stroke-opacity:1;-inkscape-stroke:none;stop-color:#000000;stop-opacity:1"
         id="path270" />
      <path
         d="m 157.9705,240.8665 c -0.073,3.498 -3.367,6.665 -6.896,6.631 -3.854,-0.036 -7.39,-3.524 -7.373,-7.27 0.017,-3.572 3.194,-6.597 6.896,-6.566 3.886,0.032 7.449,3.515 7.373,7.205 m -0.236,30.85 c -6.383,-4.386 -11.594,-9.714 -13.992,-17.304 -0.935,-2.962 -1.496,-5.945 -0.811,-9.598 2.19,1.992 4.189,3.738 6.983,3.987 4.697,0.419 8.159,-1.779 9.334,-6.043 1.013,-3.676 -0.868,-7.679 -4.465,-9.501 -3.917,-1.987 -8.474,-1.077 -11.026,2.258 -2.846,3.72 -2.944,8.073 -2.787,12.479 0.358,10.025 7.958,21.195 16.764,23.722"
         style="font-variation-settings:normal;vector-effect:none;fill:#c9dff8;fill-opacity:1;fill-rule:nonzero;stroke:none;stroke-width:1;stroke-linecap:butt;stroke-linejoin:miter;stroke-miterlimit:4;stroke-dasharray:none;stroke-dashoffset:0;stroke-opacity:1;-inkscape-stroke:none;stop-color:#000000;stop-opacity:1"
         id="path274" />
      <path
         d="m 296.5848,237.9984 c -5.921,2.996 -10.459,5.907 -12.391,11.508 -0.863,2.504 -0.932,4.99 1.364,6.931 3.074,2.599 6.67,1.528 7.111,-2.444 0.574,-5.159 1.799,-10.117 3.916,-15.995"
         style="font-variation-settings:normal;vector-effect:none;fill:#f6f9fb;fill-opacity:1;fill-rule:nonzero;stroke:none;stroke-width:1;stroke-linecap:butt;stroke-linejoin:miter;stroke-miterlimit:4;stroke-dasharray:none;stroke-dashoffset:0;stroke-opacity:1;-inkscape-stroke:none;stop-color:#000000;stop-opacity:1"
         id="path278" />
      <path
         d="m 87.8563,121.8451 c -13.504,6.854 -19.545,50.772 -10.78,58.029 -4.089,-28.044 -3.315,-32.213 10.78,-58.029"
         style="font-variation-settings:normal;vector-effect:none;fill:#c9dff8;fill-opacity:1;fill-rule:nonzero;stroke:none;stroke-width:1;stroke-linecap:butt;stroke-linejoin:miter;stroke-miterlimit:4;stroke-dasharray:none;stroke-dashoffset:0;stroke-opacity:1;-inkscape-stroke:none;stop-color:#000000;stop-opacity:1"
         id="path330" />
      <path
         d="m 379.5652,116.6576 c -5.3,4.111 -9.113,8.655 -15.003,10.315 -4.091,1.154 -7.255,-0.242 -8.268,-3.499 -0.986,-3.165 1.009,-6.326 4.936,-7.547 5.828,-1.813 11.546,-0.644 18.335,0.731 m -11.136,-3.321 c -3.785,0.39 -6.918,0.366 -9.718,1.961 -3.449,1.965 -4.884,5.376 -3.749,8.895 1.168,3.618 4.04,5.195 8.351,4.526 7.606,-1.181 12.302,-6.997 17.823,-11.42 1.902,-1.524 -0.195,-2.035 -1.324,-2.227 -4.01,-0.684 -8.042,-1.235 -11.383,-1.735"
         style="font-variation-settings:normal;vector-effect:none;fill:#c9dff8;fill-opacity:1;fill-rule:nonzero;stroke:none;stroke-width:1;stroke-linecap:butt;stroke-linejoin:miter;stroke-miterlimit:4;stroke-dasharray:none;stroke-dashoffset:0;stroke-opacity:1;-inkscape-stroke:none;stop-color:#000000;stop-opacity:1"
         id="path350" />
      <path
         d="m 199.9295,245.5648 c -7.123,4.008 -13.267,5.37 -19.784,2.15 -3.059,-1.51 -3.804,-4.196 -2.126,-7.054 1.652,-2.815 4.286,-3.004 6.882,-1.209 4.205,2.908 8.732,5.003 15.028,6.113 m 3.527,-1.122 c -6.895,-0.48 -12.457,-2.92 -17.752,-6.262 -3.878,-2.447 -7.495,-1.514 -9.312,1.975 -1.906,3.66 -0.492,7.394 3.556,9.394 6.615,3.268 17.38,1.151 23.508,-5.107"
         style="font-variation-settings:normal;vector-effect:none;fill:#c9dff8;fill-opacity:1;fill-rule:nonzero;stroke:none;stroke-width:1;stroke-linecap:butt;stroke-linejoin:miter;stroke-miterlimit:4;stroke-dasharray:none;stroke-dashoffset:0;stroke-opacity:1;-inkscape-stroke:none;stop-color:#000000;stop-opacity:1"
         id="path362" />
      <path
         d="m 238.2332,170.7777 c 2.519,2.774 5.263,1.779 7.444,-0.112 4.418,-3.828 8.967,-7.265 14.773,-8.673 0.622,-0.152 1.523,-0.343 1.356,-1.253 -0.082,-0.447 -0.624,-0.893 -1.061,-1.181 -5.31,-3.486 -17.132,-3.165 -22.218,0.575 -4.226,3.109 -4.316,7.375 -0.228,10.713 1.176,-1.166 -0.267,-1.696 -0.667,-2.372 -1.47,-2.485 -0.859,-4.541 1.073,-6.4 4.086,-3.936 13.745,-4.671 18.889,-1.288 -3.21,1.837 -6.728,3.094 -9.265,5.646 -2.857,2.875 -5.923,4.765 -10.096,4.345"
         style="font-variation-settings:normal;vector-effect:none;fill:#c9dff8;fill-opacity:1;fill-rule:nonzero;stroke:none;stroke-width:1;stroke-linecap:butt;stroke-linejoin:miter;stroke-miterlimit:4;stroke-dasharray:none;stroke-dashoffset:0;stroke-opacity:1;-inkscape-stroke:none;stop-color:#000000;stop-opacity:1"
         id="path382" />
      <path
         d="m 415.0067,97.223 c -0.961,-5.996 -1.375,-11.134 0.085,-16.199 1.337,-4.64 4.882,-6.737 8.424,-5.324 3.611,1.44 4.538,5.276 2.107,9.639 -2.483,4.457 -6.222,7.84 -10.616,11.884 m -2.427,-6.847 c 0.153,1.468 0.433,4.403 0.766,7.33 0.173,1.513 0.835,2.757 2.339,1.206 4.186,-4.314 9.158,-7.994 11.744,-13.666 1.641,-3.6 1.853,-7.163 -1.492,-9.974 -3.298,-2.772 -8.186,-1.818 -10.682,1.892 -1.928,2.867 -2.738,6.404 -2.675,13.212"
         style="font-variation-settings:normal;vector-effect:none;fill:#c9dff8;fill-opacity:1;fill-rule:nonzero;stroke:none;stroke-width:1;stroke-linecap:butt;stroke-linejoin:miter;stroke-miterlimit:4;stroke-dasharray:none;stroke-dashoffset:0;stroke-opacity:1;-inkscape-stroke:none;stop-color:#000000;stop-opacity:1"
         id="path398" />
      <path
         d="m 317.1092,136.9915 c -3.816,2.568 -8.321,3.754 -7.952,9.019 0.172,2.436 1.61,3.649 4.006,4.203 -0.846,-2.15 -3.764,-3.566 -2.152,-6.429 1.658,-2.942 4.491,-4.159 7.468,-5.082 1.858,-0.575 3.81,-0.846 5.745,-1.259 -7.187,-4.879 -19.222,0.033 -21.259,5.808 -1.26,3.572 -0.211,6.155 4.448,8.721 -2.367,-3.328 -4.723,-6.044 -2.263,-9.33 2.794,-3.732 6.712,-5.308 11.959,-5.651"
         style="font-variation-settings:normal;vector-effect:none;fill:#c9dff8;fill-opacity:1;fill-rule:nonzero;stroke:none;stroke-width:1;stroke-linecap:butt;stroke-linejoin:miter;stroke-miterlimit:4;stroke-dasharray:none;stroke-dashoffset:0;stroke-opacity:1;-inkscape-stroke:none;stop-color:#000000;stop-opacity:1"
         id="path426" />
      <path
         d="m 502.7899,65.806 c -1.723,9.589 -3.052,17.999 0.236,26.31 2.158,5.45 7.127,8.055 12.085,6.796 3.532,-0.896 5.292,-3.311 4.801,-7.292 -1.741,3.873 -3.896,6.728 -8.219,6.107 -3.884,-0.559 -7.578,-4.754 -8.485,-9.514 -1.149,-6.032 -0.535,-12.05 0.301,-18.056 0.146,-1.055 0.766,-2.111 -0.719,-4.351"
         style="font-variation-settings:normal;vector-effect:none;fill:#c9dff8;fill-opacity:1;fill-rule:nonzero;stroke:none;stroke-width:1;stroke-linecap:butt;stroke-linejoin:miter;stroke-miterlimit:4;stroke-dasharray:none;stroke-dashoffset:0;stroke-opacity:1;-inkscape-stroke:none;stop-color:#000000;stop-opacity:1"
         id="path430" />
      <path
         d="m 278.6443,136.7894 c 5.946,-4.44 8.683,-5.27 16.128,-4.673 -5.04,2.253 -11.021,3.031 -11.44,9.659 -0.165,2.608 1.316,4.71 4.007,5.696 0.212,-0.471 0.472,-0.834 0.401,-0.918 -4.27,-5.07 -3.452,-8.535 2.787,-11.072 1.927,-0.784 4.001,-1.296 6.056,-1.649 1.851,-0.318 3.768,-0.248 6.077,-0.371 -6.906,-5.296 -18.485,-3.947 -24.733,2.472 0.238,0.285 0.478,0.57 0.717,0.856"
         style="font-variation-settings:normal;vector-effect:none;fill:#c9dff8;fill-opacity:1;fill-rule:nonzero;stroke:none;stroke-width:1;stroke-linecap:butt;stroke-linejoin:miter;stroke-miterlimit:4;stroke-dasharray:none;stroke-dashoffset:0;stroke-opacity:1;-inkscape-stroke:none;stop-color:#000000;stop-opacity:1"
         id="path434" />
      <path
         d="m 442.3328,39.8402 c 8.577,-4.718 14.354,-4.564 19.577,0.854 2.449,2.542 4.624,5.506 3.313,9.402 -1.457,4.326 -5.664,5.821 -9.838,3.643 -0.613,-0.319 -1.099,-0.915 -1.847,-0.346 2.378,3.147 5.553,3.917 9.035,2.194 3.524,-1.743 5.22,-5.904 4.111,-10.085 -2.312,-8.716 -13.808,-13.315 -21.997,-8.766 -1.094,0.608 -2.06,1.446 -3.086,2.176 0.244,0.31 0.488,0.618 0.732,0.928"
         style="font-variation-settings:normal;vector-effect:none;fill:#c9dff8;fill-opacity:1;fill-rule:nonzero;stroke:none;stroke-width:1;stroke-linecap:butt;stroke-linejoin:miter;stroke-miterlimit:4;stroke-dasharray:none;stroke-dashoffset:0;stroke-opacity:1;-inkscape-stroke:none;stop-color:#000000;stop-opacity:1"
         id="path438" />
      <path
         d="m 327.4832,93.807 c -4.688,1.23 -8.491,2.654 -12.632,2.545 -2.816,-0.075 -5.585,-0.469 -5.891,-3.941 -0.234,-2.633 3.11,-4.742 6.627,-4.252 4.252,0.59 7.967,2.48 11.896,5.648 m 3.719,0.525 c -5.865,-4.143 -10.804,-7.962 -17.659,-7.562 -3.611,0.211 -5.871,1.977 -6.097,5.639 -0.239,3.877 2.689,5.132 5.713,5.445 5.995,0.621 11.513,-1.588 18.043,-3.522"
         style="font-variation-settings:normal;vector-effect:none;fill:#c9dff8;fill-opacity:1;fill-rule:nonzero;stroke:none;stroke-width:1;stroke-linecap:butt;stroke-linejoin:miter;stroke-miterlimit:4;stroke-dasharray:none;stroke-dashoffset:0;stroke-opacity:1;-inkscape-stroke:none;stop-color:#000000;stop-opacity:1"
         id="path450" />
      <path
         d="m 94.8367,130.4369 c -7.84,6.664 -11.67,35.18 -5.62,44.092 -2.963,-15.795 -1.453,-30.318 5.62,-44.092"
         style="font-variation-settings:normal;vector-effect:none;fill:#c9dff8;fill-opacity:1;fill-rule:nonzero;stroke:none;stroke-width:1;stroke-linecap:butt;stroke-linejoin:miter;stroke-miterlimit:4;stroke-dasharray:none;stroke-dashoffset:0;stroke-opacity:1;-inkscape-stroke:none;stop-color:#000000;stop-opacity:1"
         id="path470" />
      <path
         d="m 495.5379,83.1566 c -2.463,10.014 1.468,20.755 8.592,24.863 4.384,2.529 9.275,2.354 13.705,-1.271 -7.996,2.671 -13.859,1.27 -18.039,-5.068 -3.708,-5.62 -3.572,-12.129 -4.258,-18.524"
         style="font-variation-settings:normal;vector-effect:none;fill:#c9dff8;fill-opacity:1;fill-rule:nonzero;stroke:none;stroke-width:1;stroke-linecap:butt;stroke-linejoin:miter;stroke-miterlimit:4;stroke-dasharray:none;stroke-dashoffset:0;stroke-opacity:1;-inkscape-stroke:none;stop-color:#000000;stop-opacity:1"
         id="path482" />
      <path
         d="m 435.7068,74.471 c 4.314,12.74 30.364,17.417 39.659,7.222 -15.04,6.875 -28.176,5.705 -39.659,-7.222"
         style="font-variation-settings:normal;vector-effect:none;fill:#c9dff8;fill-opacity:1;fill-rule:nonzero;stroke:none;stroke-width:1;stroke-linecap:butt;stroke-linejoin:miter;stroke-miterlimit:4;stroke-dasharray:none;stroke-dashoffset:0;stroke-opacity:1;-inkscape-stroke:none;stop-color:#000000;stop-opacity:1"
         id="path486" />
      <path
         d="m 509.6922,50.2884 c 15.253,-10.217 22.981,-9.222 36.964,-3.455 -2.484,-3.954 -9.831,-6.068 -19.291,-5.552 -7.735,0.423 -15.318,4.287 -17.673,9.007"
         style="font-variation-settings:normal;vector-effect:none;fill:#c9dff8;fill-opacity:1;fill-rule:nonzero;stroke:none;stroke-width:1;stroke-linecap:butt;stroke-linejoin:miter;stroke-miterlimit:4;stroke-dasharray:none;stroke-dashoffset:0;stroke-opacity:1;-inkscape-stroke:none;stop-color:#000000;stop-opacity:1"
         id="path498" />
      <path
         d="m 106.9793,241.3353 c 3.047,-0.097 6.108,2.476 5.92,5.053 -0.212,2.882 -1.914,4.571 -4.912,4.683 -3.048,0.114 -5.776,-2.211 -5.629,-4.964 0.159,-2.983 2.043,-4.424 4.621,-4.772 m 0.341,-1.534 c -3.599,0.022 -6.557,2.841 -6.523,6.213 0.039,3.773 3.194,6.794 7.069,6.766 3.764,-0.025 6.296,-2.534 6.328,-6.271 0.036,-4.042 -2.723,-6.734 -6.874,-6.708"
         style="font-variation-settings:normal;vector-effect:none;fill:#c9dff8;fill-opacity:1;fill-rule:nonzero;stroke:none;stroke-width:1;stroke-linecap:butt;stroke-linejoin:miter;stroke-miterlimit:4;stroke-dasharray:none;stroke-dashoffset:0;stroke-opacity:1;-inkscape-stroke:none;stop-color:#000000;stop-opacity:1"
         id="path510" />
      <path
         d="m 207.0828,125.3675 c -5.316,6.277 -12.069,10.856 -18.565,15.744 -2.514,1.892 -5.141,3.708 -6.312,6.948 8.218,-7.818 19.012,-12.538 25.863,-21.961 -0.329,-0.244 -0.657,-0.487 -0.986,-0.731"
         style="font-variation-settings:normal;vector-effect:none;fill:#c9dff8;fill-opacity:1;fill-rule:nonzero;stroke:none;stroke-width:1;stroke-linecap:butt;stroke-linejoin:miter;stroke-miterlimit:4;stroke-dasharray:none;stroke-dashoffset:0;stroke-opacity:1;-inkscape-stroke:none;stop-color:#000000;stop-opacity:1"
         id="path530" />
      <path
         d="m 461.5174,94.8548 c -10.071,2.497 -19.197,1.137 -27.305,-6.703 3.072,8.219 19.4,12.056 27.305,6.703"
         style="font-variation-settings:normal;vector-effect:none;fill:#c9dff8;fill-opacity:1;fill-rule:nonzero;stroke:none;stroke-width:1;stroke-linecap:butt;stroke-linejoin:miter;stroke-miterlimit:4;stroke-dasharray:none;stroke-dashoffset:0;stroke-opacity:1;-inkscape-stroke:none;stop-color:#000000;stop-opacity:1"
         id="path542" />
      <path
         d="m 356.3455,140.9789 c -6.136,-2.082 -12.436,-0.079 -15.557,4.613 -2.387,3.59 -1.29,6.975 3.459,8.642 -2.081,-2.358 -4.061,-4.323 -2.533,-7.123 1.663,-3.046 4.516,-4.343 7.71,-5.285 2.287,-0.676 4.637,-0.132 6.921,-0.847"
         style="font-variation-settings:normal;vector-effect:none;fill:#c9dff8;fill-opacity:1;fill-rule:nonzero;stroke:none;stroke-width:1;stroke-linecap:butt;stroke-linejoin:miter;stroke-miterlimit:4;stroke-dasharray:none;stroke-dashoffset:0;stroke-opacity:1;-inkscape-stroke:none;stop-color:#000000;stop-opacity:1"
         id="path574" />
      <path
         d="m 483.1883,53.9886 c -1.945,-0.111 -3.138,-1.349 -3.191,-3.423 -0.053,-2.028 1.329,-3.122 3.216,-3.085 2.058,0.041 3.51,1.333 3.508,3.42 -0.002,1.909 -1.329,2.969 -3.533,3.088 m -0.102,-8.119 c -2.578,0.294 -4.645,1.417 -4.687,4.592 -0.044,3.281 1.968,4.937 4.934,5.087 2.882,0.145 4.94,-1.543 4.937,-4.513 -0.003,-3.014 -1.798,-4.894 -5.184,-5.166"
         style="font-variation-settings:normal;vector-effect:none;fill:#c9dff8;fill-opacity:1;fill-rule:nonzero;stroke:none;stroke-width:1;stroke-linecap:butt;stroke-linejoin:miter;stroke-miterlimit:4;stroke-dasharray:none;stroke-dashoffset:0;stroke-opacity:1;-inkscape-stroke:none;stop-color:#000000;stop-opacity:1"
         id="path586" />
      <path
         d="m 100.2098,155.3285 c -0.283,-7.045 0.148,-13.952 2.922,-20.533 -4.524,6.289 -5.076,13.217 -2.922,20.533"
         style="font-variation-settings:normal;vector-effect:none;fill:#c9dff8;fill-opacity:1;fill-rule:nonzero;stroke:none;stroke-width:1;stroke-linecap:butt;stroke-linejoin:miter;stroke-miterlimit:4;stroke-dasharray:none;stroke-dashoffset:0;stroke-opacity:1;-inkscape-stroke:none;stop-color:#000000;stop-opacity:1"
         id="path594" />
      <path
         d="m 162.5145,150.0863 c -4.881,5.133 -4.971,13.18 0.254,18.501 -3.026,-6.824 -3.136,-12.68 -0.254,-18.501"
         style="font-variation-settings:normal;vector-effect:none;fill:#c9dff8;fill-opacity:1;fill-rule:nonzero;stroke:none;stroke-width:1;stroke-linecap:butt;stroke-linejoin:miter;stroke-miterlimit:4;stroke-dasharray:none;stroke-dashoffset:0;stroke-opacity:1;-inkscape-stroke:none;stop-color:#000000;stop-opacity:1"
         id="path626" />
      <path
         d="m 151.6453,121.9349 c -6.291,-0.879 -10.118,-3.748 -12.902,-8.653 -0.089,5.682 5.881,9.913 12.902,8.653"
         style="font-variation-settings:normal;vector-effect:none;fill:#c9dff8;fill-opacity:1;fill-rule:nonzero;stroke:none;stroke-width:1;stroke-linecap:butt;stroke-linejoin:miter;stroke-miterlimit:4;stroke-dasharray:none;stroke-dashoffset:0;stroke-opacity:1;-inkscape-stroke:none;stop-color:#000000;stop-opacity:1"
         id="path642" />
      <path
         d="m 153.0115,163.7142 c -1.013,-4.553 -0.646,-8.819 2.682,-13.048 -4.71,2.242 -5.791,7.71 -2.682,13.048"
         style="font-variation-settings:normal;vector-effect:none;fill:#c9dff8;fill-opacity:1;fill-rule:nonzero;stroke:none;stroke-width:1;stroke-linecap:butt;stroke-linejoin:miter;stroke-miterlimit:4;stroke-dasharray:none;stroke-dashoffset:0;stroke-opacity:1;-inkscape-stroke:none;stop-color:#000000;stop-opacity:1"
         id="path646" />
      <path
         d="m 135.8953,122.8763 c 2.26,4.927 6.735,6.576 11.53,4.325 -4.436,0.096 -8.325,-1.163 -11.53,-4.325"
         style="font-variation-settings:normal;vector-effect:none;fill:#c9dff8;fill-opacity:1;fill-rule:nonzero;stroke:none;stroke-width:1;stroke-linecap:butt;stroke-linejoin:miter;stroke-miterlimit:4;stroke-dasharray:none;stroke-dashoffset:0;stroke-opacity:1;-inkscape-stroke:none;stop-color:#000000;stop-opacity:1"
         id="path662" />
      <path
         d="m 159.5711,92.3734 c 2.535,2.789 5.369,2.39 7.747,0.369 2.311,-1.963 3.38,-4.639 1.186,-8.678 -0.722,3.093 0.145,5.765 -2.155,7.482 -2.182,1.629 -4.372,1.298 -6.778,0.827"
         style="font-variation-settings:normal;vector-effect:none;fill:#c9dff8;fill-opacity:1;fill-rule:nonzero;stroke:none;stroke-width:1;stroke-linecap:butt;stroke-linejoin:miter;stroke-miterlimit:4;stroke-dasharray:none;stroke-dashoffset:0;stroke-opacity:1;-inkscape-stroke:none;stop-color:#000000;stop-opacity:1"
         id="path670" />
      <path
         d="m 277.9276,135.933 c -3.908,4.655 -3.226,9.453 2.585,12.123 -3.524,-3.839 -4.606,-7.387 -1.868,-11.268 -0.239,-0.285 -0.479,-0.57 -0.717,-0.855"
         style="font-variation-settings:normal;vector-effect:none;fill:#c9dff8;fill-opacity:1;fill-rule:nonzero;stroke:none;stroke-width:1;stroke-linecap:butt;stroke-linejoin:miter;stroke-miterlimit:4;stroke-dasharray:none;stroke-dashoffset:0;stroke-opacity:1;-inkscape-stroke:none;stop-color:#000000;stop-opacity:1"
         id="path682" />
      <path
         d="m 493.9637,62.6966 c 1.431,-1.292 2.715,-2.677 3.451,-5.549 -2.364,1.498 -3.159,3.234 -4.263,4.661 0.27,0.296 0.541,0.592 0.812,0.888"
         style="font-variation-settings:normal;vector-effect:none;fill:#c9dff8;fill-opacity:1;fill-rule:nonzero;stroke:none;stroke-width:1;stroke-linecap:butt;stroke-linejoin:miter;stroke-miterlimit:4;stroke-dasharray:none;stroke-dashoffset:0;stroke-opacity:1;-inkscape-stroke:none;stop-color:#000000;stop-opacity:1"
         id="path698" />
      <path
         d="m 499.8123,117.307 c -0.392,-0.422 -0.782,-0.843 -1.172,-1.265 -0.294,0.276 -0.589,0.551 -0.883,0.827 0.413,0.417 0.826,0.833 1.239,1.249 0.272,-0.271 0.544,-0.54 0.816,-0.811"
         style="font-variation-settings:normal;vector-effect:none;fill:#c9dff8;fill-opacity:1;fill-rule:nonzero;stroke:none;stroke-width:1;stroke-linecap:butt;stroke-linejoin:miter;stroke-miterlimit:4;stroke-dasharray:none;stroke-dashoffset:0;stroke-opacity:1;-inkscape-stroke:none;stop-color:#000000;stop-opacity:1"
         id="path714" />
      <path
         d="m 213.408,102.3636 c -0.37,-0.222 -0.674,-0.975 -1.182,-0.327 -0.426,0.542 0.139,0.909 0.49,1.264 0.231,-0.313 0.462,-0.625 0.692,-0.937"
         style="font-variation-settings:normal;vector-effect:none;fill:#c9dff8;fill-opacity:1;fill-rule:nonzero;stroke:none;stroke-width:1;stroke-linecap:butt;stroke-linejoin:miter;stroke-miterlimit:4;stroke-dasharray:none;stroke-dashoffset:0;stroke-opacity:1;-inkscape-stroke:none;stop-color:#000000;stop-opacity:1"
         id="path718" />
      <path
         d="m 103.2459,106.6312 c -2.709,4.473 -2.173,8.743 1.44,11.479 3.307,2.504 8.182,2.114 11.081,-0.887 3.307,-3.424 3.178,-7.259 -0.39,-11.556 -0.25,0.336 -0.499,0.672 -0.749,1.008 2.946,4.734 2.333,8.515 -1.742,10.732 -3.581,1.949 -7.728,0.409 -9.443,-3.422 -1.038,-2.32 -0.129,-4.379 0.621,-6.49 -0.273,-0.288 -0.546,-0.576 -0.818,-0.864"
         style="font-variation-settings:normal;vector-effect:none;fill:#c9dff8;fill-opacity:1;fill-rule:nonzero;stroke:none;stroke-width:1;stroke-linecap:butt;stroke-linejoin:miter;stroke-miterlimit:4;stroke-dasharray:none;stroke-dashoffset:0;stroke-opacity:1;-inkscape-stroke:none;stop-color:#000000;stop-opacity:1"
         id="path850" />
      <path
         d="m 115.3768,105.6673 c -4.663,-3.458 -8.113,-3.185 -12.131,0.964 0.273,0.288 0.545,0.576 0.818,0.864 3.305,-3.058 6.812,-3.517 10.564,-0.82 0.25,-0.336 0.499,-0.672 0.749,-1.008"
         style="font-variation-settings:normal;vector-effect:none;fill:#c9dff8;fill-opacity:1;fill-rule:nonzero;stroke:none;stroke-width:1;stroke-linecap:butt;stroke-linejoin:miter;stroke-miterlimit:4;stroke-dasharray:none;stroke-dashoffset:0;stroke-opacity:1;-inkscape-stroke:none;stop-color:#000000;stop-opacity:1"
         id="path854" />
      <path
         d="m 277.45,66.2972 c 0.344,15.417 -11.415,21.529 -23.693,15.099 2.292,4.025 9.327,5.423 15.136,3.008 7.302,-3.036 10.816,-10.288 8.557,-18.107"
         style="font-variation-settings:normal;vector-effect:none;fill:#c9dff8;fill-opacity:1;fill-rule:nonzero;stroke:none;stroke-width:1;stroke-linecap:butt;stroke-linejoin:miter;stroke-miterlimit:4;stroke-dasharray:none;stroke-dashoffset:0;stroke-opacity:1;-inkscape-stroke:none;stop-color:#000000;stop-opacity:1"
         id="path866" />
      <path
         d="m 266.2508,66.7943 c 2.492,-3.548 2.095,-7.098 -1.055,-9.395 -2.979,-2.174 -7.165,-1.728 -9.459,1.007 -2.283,2.722 -1.923,7.169 0.765,9.436 3.045,2.568 6.899,2.135 9.809,-1.106 -1.473,-1.226 -2.182,0.541 -3.156,0.934 -2.728,1.103 -4.773,0.05 -6.363,-1.862 -1.464,-1.761 -1.422,-3.986 -0.134,-5.892 1.39,-2.058 3.544,-2.942 5.908,-2.174 2.292,0.745 3.609,2.497 3.771,5.072 0.084,1.343 -1.149,2.641 -0.086,3.98"
         style="font-variation-settings:normal;vector-effect:none;fill:#c9dff8;fill-opacity:1;fill-rule:nonzero;stroke:none;stroke-width:1;stroke-linecap:butt;stroke-linejoin:miter;stroke-miterlimit:4;stroke-dasharray:none;stroke-dashoffset:0;stroke-opacity:1;-inkscape-stroke:none;stop-color:#000000;stop-opacity:1"
         id="path870" />
      <path
         d="m 492.0906,134.3675 c -2.584,-3.266 -6.957,-3.828 -10.161,-1.307 -3.117,2.453 -3.646,7.468 -1.11,10.539 2.651,3.213 7.877,3.633 10.905,0.877 3.178,-2.893 3.305,-6.916 0.322,-10.155 -1.005,1.207 0.333,2.01 0.541,3.001 0.637,3.05 -0.585,5.395 -3.162,6.662 -2.528,1.245 -5.248,1.063 -7.221,-1.391 -1.756,-2.185 -2.112,-4.589 -0.348,-6.947 1.77,-2.366 4.068,-3.17 7.024,-2.283 1.071,0.321 1.743,2.023 3.21,1.004"
         style="font-variation-settings:normal;vector-effect:none;fill:#c9dff8;fill-opacity:1;fill-rule:nonzero;stroke:none;stroke-width:1;stroke-linecap:butt;stroke-linejoin:miter;stroke-miterlimit:4;stroke-dasharray:none;stroke-dashoffset:0;stroke-opacity:1;-inkscape-stroke:none;stop-color:#000000;stop-opacity:1"
         id="path874" />
      <path
         d="m 472.4354,126.4007 c 6.298,-8.549 13.482,-9.864 22.144,-3.838 -2.393,-4.289 -6.718,-5.95 -12.13,-5.164 -4.767,0.691 -9.093,4.26 -10.014,9.002"
         style="font-variation-settings:normal;vector-effect:none;fill:#c9dff8;fill-opacity:1;fill-rule:nonzero;stroke:none;stroke-width:1;stroke-linecap:butt;stroke-linejoin:miter;stroke-miterlimit:4;stroke-dasharray:none;stroke-dashoffset:0;stroke-opacity:1;-inkscape-stroke:none;stop-color:#000000;stop-opacity:1"
         id="path878" />
      <path
         d="m 494.6453,121.971 c 0.229,2.422 1.795,3.81 2.714,5.963 0.524,-3.279 0.524,-3.279 -2.714,-5.963"
         style="font-variation-settings:normal;vector-effect:none;fill:#c9dff8;fill-opacity:1;fill-rule:nonzero;stroke:none;stroke-width:1;stroke-linecap:butt;stroke-linejoin:miter;stroke-miterlimit:4;stroke-dasharray:none;stroke-dashoffset:0;stroke-opacity:1;-inkscape-stroke:none;stop-color:#000000;stop-opacity:1"
         id="path882" />
      <path
         d="m 390.2869,101.3763 c -16.935,-2.836 -31.64,-9.639 -42.292,-24.282 0.78,8.886 23.25,24.078 42.669,25.81 0.707,-0.715 1.331,-1.409 -0.377,-1.528"
         style="font-variation-settings:normal;vector-effect:none;fill:#c9dff8;fill-opacity:1;fill-rule:nonzero;stroke:none;stroke-width:1;stroke-linecap:butt;stroke-linejoin:miter;stroke-miterlimit:4;stroke-dasharray:none;stroke-dashoffset:0;stroke-opacity:1;-inkscape-stroke:none;stop-color:#000000;stop-opacity:1"
         id="path886" />
      <path
         d="m 397.9813,98.0335 c -3.317,-12.881 -9.209,-24.236 -19.542,-32.958 l -0.7,0.932 c 8.153,8.047 14.419,17.258 17.661,28.649 -1.741,-0.364 -1.748,-2.2 -2.911,-2.797 -0.301,0.223 -0.602,0.445 -0.903,0.666 0.697,1.894 2.668,3.234 2.406,5.543 l -0.083,-0.08 c 0.442,-0.525 0.813,-0.039 1.21,0.086 z"
         style="font-variation-settings:normal;vector-effect:none;fill:#c9dff8;fill-opacity:1;fill-rule:nonzero;stroke:none;stroke-width:1;stroke-linecap:butt;stroke-linejoin:miter;stroke-miterlimit:4;stroke-dasharray:none;stroke-dashoffset:0;stroke-opacity:1;-inkscape-stroke:none;stop-color:#000000;stop-opacity:1"
         id="path890" />
      <path
         d="m 389.7889,99.5501 c -7.789,-3.794 -15.969,-6.907 -22.646,-12.657 -2.705,-2.329 -5.211,-4.887 -8.137,-7.652 2.148,6.848 15.234,15.952 29.852,21.162 0.311,-0.285 0.62,-0.569 0.931,-0.853"
         style="font-variation-settings:normal;vector-effect:none;fill:#c9dff8;fill-opacity:1;fill-rule:nonzero;stroke:none;stroke-width:1;stroke-linecap:butt;stroke-linejoin:miter;stroke-miterlimit:4;stroke-dasharray:none;stroke-dashoffset:0;stroke-opacity:1;-inkscape-stroke:none;stop-color:#000000;stop-opacity:1"
         id="path894" />
      <path
         d="m 389.7889,99.5501 c -0.311,0.284 -0.62,0.568 -0.931,0.853 0.517,0.264 1.28,0.168 1.43,0.973 1.707,0.119 1.083,0.814 0.376,1.528 0.956,0.103 1.915,0.179 2.867,0.31 5.887,0.814 5.887,0.817 4.45,-5.181 -0.954,0.014 -1.908,0.028 -2.861,0.042 0.005,0.354 0.008,0.707 0.012,1.061 -0.441,-0.124 -0.881,-0.247 -1.322,-0.371 -0.462,0.283 -0.925,0.566 -1.387,0.85 -0.878,-0.022 -1.756,-0.044 -2.634,-0.065"
         style="font-variation-settings:normal;vector-effect:none;fill:#c9dff8;fill-opacity:1;fill-rule:nonzero;stroke:none;stroke-width:1;stroke-linecap:butt;stroke-linejoin:miter;stroke-miterlimit:4;stroke-dasharray:none;stroke-dashoffset:0;stroke-opacity:1;-inkscape-stroke:none;stop-color:#000000;stop-opacity:1"
         id="path898" />
      <path
         d="m 383.993,91.0081 c -4.106,-4.348 -9.156,-7.479 -13.589,-11.408 l -1.046,1.271 c 4.65,3.645 9.299,7.289 13.948,10.933 0.23,-0.265 0.458,-0.53 0.687,-0.796"
         style="font-variation-settings:normal;vector-effect:none;fill:#c9dff8;fill-opacity:1;fill-rule:nonzero;stroke:none;stroke-width:1;stroke-linecap:butt;stroke-linejoin:miter;stroke-miterlimit:4;stroke-dasharray:none;stroke-dashoffset:0;stroke-opacity:1;-inkscape-stroke:none;stop-color:#000000;stop-opacity:1"
         id="path902" />
      <path
         d="m 384.8387,81.7552 c -3.689,-4.701 -7.83,-8.873 -13.527,-11.255 4.646,3.674 8.656,7.979 12.768,12.178 z"
         style="font-variation-settings:normal;vector-effect:none;fill:#c9dff8;fill-opacity:1;fill-rule:nonzero;stroke:none;stroke-width:1;stroke-linecap:butt;stroke-linejoin:miter;stroke-miterlimit:4;stroke-dasharray:none;stroke-dashoffset:0;stroke-opacity:1;-inkscape-stroke:none;stop-color:#000000;stop-opacity:1"
         id="path906" />
      <path
         d="m 391.9871,90.8099 c -2.112,-3.232 -4.347,-6.367 -7.148,-9.055 l -0.759,0.923 6.97,8.927 c 0.312,-0.266 0.625,-0.53 0.937,-0.795"
         style="font-variation-settings:normal;vector-effect:none;fill:#c9dff8;fill-opacity:1;fill-rule:nonzero;stroke:none;stroke-width:1;stroke-linecap:butt;stroke-linejoin:miter;stroke-miterlimit:4;stroke-dasharray:none;stroke-dashoffset:0;stroke-opacity:1;-inkscape-stroke:none;stop-color:#000000;stop-opacity:1"
         id="path910" />
      <path
         d="m 378.4393,65.0755 c -2.533,-2.302 -5.074,-4.593 -9.02,-4.729 2.774,1.887 5.546,3.774 8.32,5.661 z"
         style="font-variation-settings:normal;vector-effect:none;fill:#c9dff8;fill-opacity:1;fill-rule:nonzero;stroke:none;stroke-width:1;stroke-linecap:butt;stroke-linejoin:miter;stroke-miterlimit:4;stroke-dasharray:none;stroke-dashoffset:0;stroke-opacity:1;-inkscape-stroke:none;stop-color:#000000;stop-opacity:1"
         id="path914" />
      <path
         d="m 383.3065,91.804 c 2.647,2.126 5.294,4.251 7.941,6.376 0.313,-0.28 0.624,-0.562 0.937,-0.842 -2.596,-2.284 -5.17,-4.596 -8.191,-6.329 -0.229,0.265 -0.458,0.53 -0.687,0.795"
         style="font-variation-settings:normal;vector-effect:none;fill:#c9dff8;fill-opacity:1;fill-rule:nonzero;stroke:none;stroke-width:1;stroke-linecap:butt;stroke-linejoin:miter;stroke-miterlimit:4;stroke-dasharray:none;stroke-dashoffset:0;stroke-opacity:1;-inkscape-stroke:none;stop-color:#000000;stop-opacity:1"
         id="path918" />
      <path
         d="m 392.4227,99.6156 c 0.462,-0.284 0.925,-0.567 1.388,-0.849 0.01,-0.261 0.043,-0.521 0.098,-0.778 l 0.083,0.08 c -0.602,-0.244 -1.205,-0.487 -1.807,-0.73 -0.313,0.28 -0.624,0.561 -0.937,0.841 z"
         style="font-variation-settings:normal;vector-effect:none;fill:#c9dff8;fill-opacity:1;fill-rule:nonzero;stroke:none;stroke-width:1;stroke-linecap:butt;stroke-linejoin:miter;stroke-miterlimit:4;stroke-dasharray:none;stroke-dashoffset:0;stroke-opacity:1;-inkscape-stroke:none;stop-color:#000000;stop-opacity:1"
         id="path922" />
      <path
         d="m 392.4891,91.8597 c -0.168,-0.351 -0.336,-0.7 -0.503,-1.051 -0.311,0.266 -0.624,0.53 -0.936,0.796 0.179,0.308 0.359,0.615 0.538,0.922 0.299,-0.223 0.6,-0.444 0.901,-0.667"
         style="font-variation-settings:normal;vector-effect:none;fill:#c9dff8;fill-opacity:1;fill-rule:nonzero;stroke:none;stroke-width:1;stroke-linecap:butt;stroke-linejoin:miter;stroke-miterlimit:4;stroke-dasharray:none;stroke-dashoffset:0;stroke-opacity:1;-inkscape-stroke:none;stop-color:#000000;stop-opacity:1"
         id="path926" />
      <path
         d="m 444.7205,133.5853 c -0.493,2.259 -1.665,4.035 -4.37,4.082 -2.478,0.042 -4.003,-1.351 -4.2,-3.793 -0.219,-2.712 1.329,-4.258 3.945,-4.468 2.735,-0.218 4.026,1.499 4.625,4.179 m -4.546,-5.864 c -3.203,0.101 -5.887,2.934 -5.737,6.055 0.147,3.074 3.193,5.783 6.264,5.573 2.829,-0.194 5.615,-3.128 5.589,-5.885 -0.029,-3.069 -2.982,-5.844 -6.116,-5.743"
         style="font-variation-settings:normal;vector-effect:none;fill:#c9dff8;fill-opacity:1;fill-rule:nonzero;stroke:none;stroke-width:1;stroke-linecap:butt;stroke-linejoin:miter;stroke-miterlimit:4;stroke-dasharray:none;stroke-dashoffset:0;stroke-opacity:1;-inkscape-stroke:none;stop-color:#000000;stop-opacity:1"
         id="path1030" />
      <path
         d="m 446.1219,121.8919 c -3.33,-3.179 -7.552,-3.83 -11.733,-1.811 -3.577,1.729 -5.482,4.857 -5.063,8.311 3.965,-6.225 4.399,-9.684 16.796,-6.5"
         style="font-variation-settings:normal;vector-effect:none;fill:#c9dff8;fill-opacity:1;fill-rule:nonzero;stroke:none;stroke-width:1;stroke-linecap:butt;stroke-linejoin:miter;stroke-miterlimit:4;stroke-dasharray:none;stroke-dashoffset:0;stroke-opacity:1;-inkscape-stroke:none;stop-color:#000000;stop-opacity:1"
         id="path1034" />
    </g>
  </g>
</svg>
