<?xml version="1.0" encoding="UTF-8" standalone="no"?>
<!-- Created with Inkscape (http://www.inkscape.org/) -->

<svg
   width="217.40671mm"
   height="39.585915mm"
   viewBox="0 0 217.40671 39.585915"
   version="1.1"
   id="svg5"
   xmlns="http://www.w3.org/2000/svg"
   xmlns:svg="http://www.w3.org/2000/svg">
  <defs
     id="defs2">
    <clipPath
       clipPathUnits="userSpaceOnUse"
       id="clipPath860">
      <rect
         style="fill:#f6f9fb;stroke-width:0.352777;-inkscape-stroke:none;stop-color:#000000"
         id="rect862"
         width="56.113838"
         height="242.15732"
         x="114.62918"
         y="18.17354" />
    </clipPath>
  </defs>
  <g
     id="layer1"
     transform="translate(-24.408521,-95.996558)">
    <g
       id="g1150"
       transform="rotate(90,149.34646,122.36808)">
      <path
         style="fill:#57b6d3;stroke-width:0.264583"
         d="m 130.91883,182.22146 c 0.27356,-0.32349 0.42291,-0.77361 0.33376,-1.00593 -0.0933,-0.24324 -0.0511,-0.35234 0.1002,-0.25883 0.43236,0.26722 0.29733,0.81186 -0.33376,1.34618 l -0.59531,0.50403 z m 14.21995,-4.64007 c 0.0319,-1.44328 0.13589,-1.30469 0.29781,0.39688 0.0519,0.5457 -8e-4,0.99218 -0.11704,0.99218 -0.1163,0 -0.19765,-0.62507 -0.18077,-1.38906 z m -4.46188,-1.12448 c 0.003,-0.58208 0.0571,-0.78905 0.1204,-0.45993 0.0633,0.32911 0.0609,0.80536 -0.005,1.05833 -0.0662,0.25297 -0.11801,-0.0163 -0.11507,-0.5984 z m -6.15214,-3.70416 c 0,-0.50933 0.0952,-0.92605 0.21145,-0.92605 0.1163,0 0.16281,0.41672 0.10335,0.92605 -0.0595,0.50932 -0.15462,0.92604 -0.21146,0.92604 -0.0568,0 -0.10334,-0.41672 -0.10334,-0.92604 z M 126.77979,71.094081 c 0.4697,-0.05845 1.30314,-0.05941 1.85209,-0.0021 0.54895,0.05728 0.16465,0.105097 -0.854,0.106272 -1.01864,0.0011 -1.46778,-0.04569 -0.99809,-0.104137 z"
         id="path1174" />
      <path
         style="fill:#b2b258;stroke-width:0.264583"
         d="m 150.07602,229.3118 c 0.62231,-0.0559 1.57481,-0.0551 2.11667,0.002 0.54185,0.0568 0.0327,0.10258 -1.13147,0.10162 -1.16417,-0.001 -1.60751,-0.0475 -0.9852,-0.10337 z m -5.66776,-10.25697 c -8e-4,-1.30969 0.0439,-1.87883 0.0994,-1.26475 0.0555,0.61407 0.0562,1.68563 0.002,2.38125 -0.0548,0.69561 -0.10021,0.19319 -0.10101,-1.1165 z m -4.24797,-90.61979 c 0,-0.80037 0.0496,-1.12779 0.11023,-0.72761 0.0606,0.40019 0.0606,1.05503 0,1.45521 -0.0606,0.40018 -0.11023,0.0728 -0.11023,-0.7276 z m 3.46912,-14.81667 c 0,-2.54661 0.0397,-3.58841 0.0882,-2.3151 0.0485,1.2733 0.0485,3.3569 0,4.63021 -0.0485,1.2733 -0.0882,0.23151 -0.0882,-2.31511 z m 1.76004,-43.954581 c -0.0227,-0.582885 0.64404,-1.09618 1.22728,-0.944833 0.36863,0.09565 0.33978,0.130358 -0.1281,0.154141 -0.36074,0.01834 -0.70017,0.270357 -0.84313,0.626005 -0.16193,0.402859 -0.24471,0.456099 -0.25605,0.164687 z"
         id="path1172" />
      <path
         style="fill:#22a2c8;stroke-width:0.264583"
         d="m 139.56115,218.93993 c -0.15064,-0.28147 -0.27389,-0.69117 -0.27389,-0.91043 0,-0.21926 -0.13042,-0.47925 -0.28981,-0.57776 -0.34244,-0.21164 -1.60037,0.40135 -1.42059,0.69225 0.068,0.11002 -0.11466,0.13772 -0.4059,0.0616 -0.63677,-0.16652 -0.67014,-0.55203 -0.11625,-1.34282 0.37678,-0.53792 0.37482,-0.6048 -0.0222,-0.75715 -0.35125,-0.13478 -0.36722,-0.21445 -0.0826,-0.41193 0.23649,-0.16407 0.0317,-0.21381 -0.62071,-0.15077 -0.5355,0.0517 -0.92171,0.0101 -0.85825,-0.0926 0.0635,-0.10268 -0.0342,-0.24273 -0.217,-0.31122 -0.44005,-0.16487 0.54555,-0.959 1.2046,-0.97059 0.26325,-0.005 0.40505,-0.12748 0.31511,-0.273 -0.0899,-0.14552 0.0887,-0.26458 0.39687,-0.26458 0.35354,0 0.49129,0.11183 0.37317,0.30295 -0.1295,0.20953 0.0317,0.2611 0.52271,0.16723 0.39047,-0.0746 0.64704,-0.0728 0.57017,0.004 -0.1577,0.15771 0.91796,0.97607 1.28686,0.97905 0.41633,0.003 0.83401,2.6862 0.57738,3.70868 -0.19808,0.78921 -0.56532,0.8467 -0.93973,0.14711 z m 7.10838,-1.00958 c -0.15265,-0.40018 -0.20438,-1.08479 -0.11496,-1.52135 0.0894,-0.43657 0.18325,-0.99337 0.2085,-1.23735 0.0252,-0.24398 0.13349,-0.38947 0.24053,-0.32332 0.10703,0.0661 0.32383,-0.12118 0.48178,-0.4163 0.15794,-0.29512 0.46859,-0.53658 0.69034,-0.53658 0.23739,0 0.32555,-0.12561 0.2144,-0.30546 -0.10384,-0.16801 -0.0811,-0.24062 0.0505,-0.16137 0.13162,0.0793 0.79974,0.0578 1.48471,-0.0477 0.81356,-0.12532 1.18842,-0.0996 1.08108,0.074 -0.0924,0.14947 9e-5,0.20279 0.2112,0.12177 0.38563,-0.14797 0.8532,0.23126 0.96488,0.7826 0.0381,0.18816 -0.10956,0.24466 -0.37413,0.14314 -0.25645,-0.0984 -0.37027,-0.0596 -0.27538,0.0939 0.0972,0.15726 -0.13453,0.21819 -0.58078,0.15269 -0.55521,-0.0815 -0.7744,0.014 -0.869,0.37861 -0.14745,0.56825 0.0181,1.20118 0.27298,1.04366 0.0967,-0.0598 0.17584,0.25698 0.17584,0.7039 0,0.45831 -0.16025,0.866 -0.36756,0.9351 -0.20215,0.0674 -0.29793,0.01 -0.21282,-0.12784 0.20116,-0.32549 -1.21316,-1.16301 -1.56327,-0.92572 -0.14721,0.0998 -0.42416,0.56834 -0.61545,1.04129 -0.42512,1.05103 -0.73863,1.08862 -1.10342,0.13229 z m -13.30795,-30.12023 c -0.0873,-0.22747 -0.0407,-0.33065 0.10787,-0.23883 0.14386,0.0889 0.26156,-0.0765 0.26156,-0.36752 0,-0.64797 -0.21533,-0.79266 -1.30296,-0.87554 -0.70641,-0.0538 -0.77833,-0.1147 -0.43345,-0.36689 0.59824,-0.43744 0.5075,-1.14932 -0.18182,-1.42639 -0.32742,-0.13161 -0.43946,-0.24683 -0.24897,-0.25606 0.19049,-0.009 0.28339,-0.11863 0.20644,-0.24313 -0.0769,-0.1245 0.17185,-0.16677 0.55288,-0.0939 0.52132,0.0996 0.64018,0.0473 0.48028,-0.21139 -0.13898,-0.22488 -0.10838,-0.27948 0.0885,-0.15782 0.37578,0.23225 2.20185,-0.0904 2.03544,-0.35962 -0.0671,-0.10855 0.17209,-0.14114 0.53149,-0.0724 0.36048,0.0689 0.65345,-8e-5 0.65345,-0.15388 0,-0.17023 0.38636,-0.22522 0.99219,-0.14122 0.7938,0.11006 0.91283,0.0753 0.59531,-0.17388 -0.33784,-0.26513 -0.32478,-0.28807 0.0878,-0.15421 0.26657,0.0865 0.60857,0.15725 0.76,0.15725 0.19028,0 0.19054,0.10218 8e-4,0.33073 -0.15097,0.1819 -0.31437,0.44979 -0.36313,0.59531 -0.0488,0.14552 -0.16029,0.2407 -0.24785,0.21152 -0.0876,-0.0292 -0.56382,0.38234 -1.05833,0.91452 -0.49452,0.53217 -0.71492,0.85371 -0.48979,0.71453 0.48364,-0.29899 -0.28386,0.42381 -1.28974,1.21463 -0.38891,0.30576 -0.55827,0.48054 -0.37637,0.3884 0.57901,-0.2933 0.35672,0.01 -0.4386,0.59755 -0.65135,0.48156 -0.7929,0.50738 -0.92301,0.16831 z m 18.60565,-0.56955 -0.64143,-0.7257 0.66146,0.52538 0.66146,0.52538 -0.63378,-0.71756 c -0.34857,-0.39466 -0.75392,-0.6433 -0.90077,-0.55254 -0.15271,0.0944 -0.18533,0.0329 -0.0762,-0.1437 0.11365,-0.18388 -0.32456,-0.81565 -1.08359,-1.56224 -0.70092,-0.68943 -1.09581,-1.01539 -0.87753,-0.72434 0.36935,0.49245 0.36431,0.5036 -0.0725,0.16073 -0.25818,-0.20264 -0.40534,-0.43251 -0.32702,-0.51082 0.0783,-0.0783 -0.15935,-0.45734 -0.52814,-0.84227 l -0.67052,-0.69988 0.90512,0.0201 c 0.49782,0.011 0.83972,0.12663 0.75979,0.25687 -0.0799,0.13024 0.16641,0.1772 0.54744,0.10437 0.42391,-0.081 0.62928,-0.0297 0.52917,0.13229 -0.10012,0.16198 0.10525,0.21333 0.52916,0.13229 0.41937,-0.0802 0.6289,-0.0291 0.53091,0.12947 -0.0991,0.16036 0.16048,0.2146 0.66946,0.1399 0.45724,-0.0671 0.83134,-0.01 0.83134,0.12759 0,0.13728 0.29405,0.19339 0.65345,0.12469 0.3594,-0.0687 0.5905,-0.023 0.51355,0.10145 -0.0769,0.1245 0.13502,0.22695 0.47103,0.22767 0.58795,0.001 0.58113,0.0252 -0.18141,0.63525 -0.76804,0.6145 -0.7778,0.64999 -0.31846,1.15755 0.46024,0.50856 0.45259,0.52958 -0.266,0.73107 -0.40693,0.1141 -0.80102,0.1973 -0.87577,0.1849 -0.0747,-0.0124 -0.11674,0.38478 -0.0933,0.88264 0.0234,0.49786 0.016,0.9052 -0.0164,0.9052 -0.0325,0 -0.34764,-0.32657 -0.70043,-0.72572 z m -20.5675,-4.48199 c -0.26796,-0.10724 -0.24038,-0.25655 0.12117,-0.65605 0.36462,-0.4029 0.40287,-0.61613 0.17309,-0.96475 -0.16225,-0.24614 -0.42085,-0.4192 -0.57467,-0.38456 -0.15383,0.0346 -0.2117,-0.1142 -0.12861,-0.33073 0.0831,-0.21654 0.30236,-0.3937 0.48725,-0.3937 0.18489,0 0.48858,-0.18364 0.67485,-0.40809 0.266,-0.32051 0.26959,-0.47666 0.0167,-0.7276 -0.25213,-0.25021 -0.28596,-0.22489 -0.15596,0.11674 0.0913,0.23994 0.0204,0.52623 -0.1575,0.63619 -0.20687,0.12785 -0.25544,0.0898 -0.13471,-0.10553 0.10383,-0.168 0.0958,-0.45429 -0.0178,-0.63619 -0.48497,-0.77631 -0.30281,-0.94389 0.61096,-0.56209 0.50085,0.20926 1.04285,0.29877 1.20445,0.19889 0.17789,-0.10993 0.21933,-0.0611 0.10503,0.12388 -0.17529,0.28362 0.19111,0.40962 1.09637,0.37702 0.18033,-0.006 0.25187,0.11117 0.15897,0.26149 -0.10994,0.17788 0.0835,0.20993 0.55419,0.0918 0.41574,-0.10434 0.6597,-0.0789 0.57397,0.0598 -0.082,0.1327 0.41402,0.45079 1.1023,0.70685 1.52425,0.56707 1.97186,0.92516 1.15645,0.92516 -0.32874,0 -0.53743,0.0975 -0.46377,0.21671 0.0737,0.11919 -0.23388,0.16272 -0.68343,0.0967 -0.54013,-0.0793 -0.75773,-0.0235 -0.64155,0.16449 0.11937,0.19315 -0.13656,0.23377 -0.7973,0.12654 -0.62549,-0.1015 -0.91402,-0.0623 -0.80769,0.10975 0.10233,0.16557 -0.0988,0.21714 -0.52735,0.13522 -0.42392,-0.081 -0.62928,-0.0297 -0.52917,0.13229 0.10011,0.16199 -0.10525,0.21333 -0.52917,0.13229 -0.42391,-0.081 -0.62928,-0.0297 -0.52916,0.13229 0.10011,0.16199 -0.10526,0.21333 -0.52917,0.1323 -0.47733,-0.0913 -0.63455,-0.0382 -0.50555,0.17051 0.2022,0.32717 0.19522,0.32981 -0.32319,0.12232 z m 23.11903,-0.58253 c 0.14704,-0.28421 0.006,-0.3394 -0.62786,-0.24631 -0.44955,0.066 -0.76181,0.0301 -0.69392,-0.0798 0.0679,-0.10985 -0.44441,-0.2772 -1.13846,-0.37189 -0.69404,-0.0947 -1.96936,-0.36256 -2.83406,-0.59527 l -1.57216,-0.42311 0.99541,-0.41739 c 0.55731,-0.2337 0.8999,-0.52186 0.77841,-0.65476 -0.12487,-0.13659 -0.0702,-0.15262 0.12878,-0.0377 0.4545,0.26239 1.70543,-0.0572 1.5034,-0.38409 -0.0863,-0.13959 -0.002,-0.19556 0.18761,-0.12438 0.41539,0.15607 3.43684,-1.03733 3.25232,-1.28458 -0.0713,-0.0956 -0.0469,-0.11084 0.0543,-0.0339 0.27957,0.2126 0.33379,0.94262 0.0573,0.77174 -0.13275,-0.082 -0.24136,0.0901 -0.24136,0.38247 0,0.2924 0.20588,0.64685 0.45751,0.78767 0.43057,0.24096 0.42868,0.2879 -0.0321,0.79704 -0.47995,0.53035 -0.41155,1.54065 0.0836,1.23463 0.1365,-0.0844 0.33502,-0.003 0.44117,0.18167 0.10614,0.18427 0.0964,0.24759 -0.0217,0.14072 -0.11808,-0.10688 -0.38412,0.0122 -0.5912,0.26458 -0.20709,0.2524 -0.29124,0.29408 -0.18702,0.0926 z m -16.15357,-2.94744 c 0.16712,-0.27041 -1.18962,-0.82163 -1.51989,-0.61751 -0.18213,0.11256 -0.20789,0.0507 -0.0711,-0.17061 0.15981,-0.25859 0.069,-0.30908 -0.356,-0.19794 -0.31379,0.0821 -0.57054,0.0633 -0.57054,-0.0416 0,-0.31907 -1.86833,-1.10375 -2.17571,-0.91378 -0.18467,0.11413 -0.20993,0.0524 -0.0707,-0.17287 0.15857,-0.25657 0.095,-0.30376 -0.23745,-0.1762 -0.30596,0.11741 -0.39224,0.0743 -0.26458,-0.1323 0.12374,-0.20021 0.0471,-0.25191 -0.22089,-0.14905 -0.30136,0.11564 -0.37623,0.027 -0.28192,-0.33361 0.0749,-0.28653 0.28193,-0.43215 0.49699,-0.34962 0.49678,0.19063 0.79242,-0.66317 0.43036,-1.24291 -0.30167,-0.48306 -0.17717,-0.79017 0.3175,-0.78318 0.15765,0.002 0.10804,0.11947 -0.11024,0.26053 -0.32717,0.21144 -0.30161,0.25719 0.14552,0.26054 0.6839,0.005 1.17128,-0.47213 1.19828,-1.17335 0.0115,-0.29832 0.0812,-0.39283 0.15489,-0.21002 0.0737,0.18281 0.27266,0.25302 0.44213,0.15602 0.16948,-0.097 0.2211,-0.0802 0.11473,0.0374 -0.25038,0.27675 0.86759,2.27568 1.16868,2.08959 0.12565,-0.0777 0.20473,-0.0431 0.17573,0.0769 -0.1026,0.4244 0.65005,1.65432 0.91294,1.49184 0.15133,-0.0935 0.1852,-0.0329 0.0783,0.14013 -0.22642,0.36635 0.46668,1.44529 0.74783,1.16414 0.10821,-0.10822 0.17273,-0.0777 0.14337,0.0678 -0.1229,0.60914 0.0269,0.94711 0.34001,0.76694 0.1819,-0.10468 0.23901,-0.0894 0.12691,0.0339 -0.24395,0.26833 -1.27545,0.37821 -1.11512,0.1188 z m 8.72103,-0.43195 c 0.11086,-0.26822 0.20723,-0.63126 0.21415,-0.80675 0.007,-0.17551 0.10323,-0.26307 0.21402,-0.1946 0.20986,0.1297 0.65295,-0.91112 0.54998,-1.29192 -0.0324,-0.11996 0.063,-0.14269 0.21216,-0.0505 0.14913,0.0922 0.28603,0.0415 0.30422,-0.11262 0.0182,-0.15411 0.048,-0.38934 0.0661,-0.52274 0.0182,-0.13339 0.14146,-0.34175 0.27393,-0.46302 0.14159,-0.12961 0.16076,-0.0569 0.0465,0.17639 -0.10688,0.21828 -0.004,0.16217 0.228,-0.1247 0.23228,-0.28686 0.35388,-0.69996 0.27022,-0.91798 -0.0837,-0.21802 -0.0655,-0.30977 0.0404,-0.20389 0.26077,0.26077 1.16972,-1.16095 0.96861,-1.51505 -0.0878,-0.1546 -0.0633,-0.1939 0.0545,-0.0873 0.11777,0.10657 0.35069,0.46376 0.51761,0.79375 0.20182,0.39902 0.53617,0.59705 0.99816,0.59118 0.49596,-0.006 0.6849,0.12091 0.66051,0.44469 -0.0188,0.24943 -0.13995,0.38813 -0.26925,0.30822 -0.12931,-0.0799 -0.18944,0.0772 -0.13362,0.34906 0.0824,0.40138 0.30782,0.48138 1.19868,0.42536 0.60347,-0.0379 1.17075,0.05 1.26062,0.19541 0.0899,0.1455 7.9e-4,0.20195 -0.19846,0.12553 -0.44285,-0.16993 -1.84776,0.52042 -1.58791,0.78028 0.10251,0.1025 -0.0379,0.10031 -0.31199,-0.005 -0.3735,-0.14333 -0.4441,-0.10345 -0.28178,0.15919 0.13947,0.22567 0.11397,0.28701 -0.0716,0.1723 -0.32651,-0.2018 -2.70397,0.87355 -2.70397,1.22303 0,0.12511 -0.11498,0.15642 -0.25551,0.0696 -0.14053,-0.0869 -0.75284,0.0958 -1.36068,0.40591 -1.02449,0.52265 -1.09046,0.52821 -0.9036,0.0762 z m -7.24353,-0.96263 c -0.20383,-0.38368 -0.49012,-0.62374 -0.63619,-0.53346 -0.14607,0.0903 -0.18506,0.0338 -0.0866,-0.12541 0.22825,-0.36933 -0.73126,-1.9735 -1.02251,-1.70949 -0.11982,0.10862 -0.13489,0.053 -0.0335,-0.12359 0.1014,-0.17659 -0.0482,-0.55362 -0.3324,-0.83784 -0.28423,-0.28423 -0.45417,-0.57937 -0.37767,-0.65588 0.0765,-0.0765 -0.11125,-0.4907 -0.41724,-0.92043 -0.47991,-0.67397 -0.50016,-0.80288 -0.14741,-0.93824 0.23413,-0.0898 0.33984,-0.0451 0.24729,0.10463 -0.0889,0.14385 0.0297,0.26155 0.26361,0.26155 0.2339,0 0.59345,-0.38695 0.79901,-0.8599 0.20556,-0.47294 0.37841,-0.70404 0.3841,-0.51355 0.006,0.19341 0.14525,0.26298 0.31582,0.15756 0.18992,-0.11738 0.23362,-0.0725 0.11552,0.11854 -0.38566,0.62403 0.70659,0.6727 1.20773,0.0538 0.48408,-0.59782 0.48768,-0.58714 0.45337,1.34494 -0.019,1.07115 -0.10831,2.83107 -0.19843,3.91095 -0.15668,1.87736 -0.1801,1.93283 -0.53447,1.26579 z m 5.75009,-2.23701 c -0.0419,-2.18183 -0.0551,-2.23133 -0.2287,-0.8599 -0.10768,0.85063 -0.13313,0.24606 -0.0613,-1.45521 0.0676,-1.60073 0.24754,-3.02948 0.3998,-3.175 0.1862,-0.17794 0.2236,-0.16905 0.11422,0.0272 -0.292,0.52383 0.46596,1.24616 1.09735,1.04576 0.31633,-0.1004 0.57515,-0.29358 0.57515,-0.4293 0,-0.47961 0.46948,-0.239 0.61431,0.31484 0.11961,0.45738 0.29932,0.53921 0.96855,0.44099 0.45193,-0.0663 0.89507,0.008 0.98475,0.16601 0.0897,0.15764 0.0636,0.19636 -0.0579,0.0861 -0.26089,-0.23685 -1.21968,1.12396 -1.01979,1.44739 0.0753,0.12182 -0.0208,0.18878 -0.2135,0.14879 -0.1938,-0.0402 -0.33419,0.13297 -0.31412,0.38748 0.0206,0.26169 -0.0844,0.38562 -0.2434,0.28732 -0.176,-0.10877 -0.21509,-0.005 -0.10545,0.28117 0.10348,0.26969 0.068,0.38839 -0.0873,0.29238 -0.25051,-0.15483 -0.38367,0.23637 -0.27084,0.79562 0.0294,0.14552 -0.0369,0.17433 -0.14719,0.064 -0.20127,-0.20127 -1.20223,1.09556 -1.06106,1.37469 0.0414,0.0818 -0.14398,0.35716 -0.41194,0.61182 -0.47123,0.44785 -0.48865,0.38716 -0.53167,-1.85208 z m -13.8831,0.7874 c 0.10216,-0.1653 -0.0765,-0.33528 -0.42214,-0.40173 -0.5186,-0.0997 -0.50133,-0.12002 0.12836,-0.1512 0.74387,-0.0368 0.97018,0.31198 0.42214,0.65069 -0.18206,0.11252 -0.23392,0.073 -0.12836,-0.0978 z m 0.89475,-18.06214 c -0.25581,-0.1554 -0.58618,-0.20772 -0.73416,-0.11627 -0.14797,0.0915 -0.23632,0.009 -0.19634,-0.18412 0.0408,-0.19685 -0.13426,-0.33361 -0.3996,-0.3121 -0.34674,0.0281 -0.40011,-0.0487 -0.20073,-0.28893 0.14936,-0.17997 0.1833,-0.42465 0.0754,-0.54373 -0.10787,-0.11908 -0.0528,-0.13425 0.12242,-0.0337 0.3909,0.22432 1.70961,-0.0776 1.5397,-0.35255 -0.0674,-0.10898 0.15764,-0.1446 0.49999,-0.0791 0.62881,0.1202 1.30157,-0.4748 0.74617,-0.65993 -0.16311,-0.0544 -0.22349,-0.28929 -0.13417,-0.52204 0.0893,-0.23275 0.0529,-0.35565 -0.081,-0.2731 -0.13387,0.0825 -0.27709,-0.32889 -0.31827,-0.9143 -0.0655,-0.931 -0.0158,-1.04014 0.39687,-0.87103 0.25946,0.10633 0.64692,0.20987 0.86101,0.23009 0.2141,0.0202 0.67019,0.33441 1.01354,0.69821 0.34334,0.3638 0.5481,0.51263 0.45501,0.33073 -0.10007,-0.19553 -5.3e-4,-0.33073 0.24324,-0.33073 0.37071,0 0.52167,-0.47359 0.48404,-1.51851 -0.006,-0.18033 0.11404,-0.2501 0.26787,-0.15503 0.18083,0.11176 0.21209,-0.003 0.0884,-0.32551 -0.10518,-0.2741 -0.1066,-0.41373 -0.003,-0.31029 0.2693,0.2693 0.92613,-0.34188 0.72214,-0.67194 -0.0997,-0.16135 -0.0419,-0.19616 0.13952,-0.084 0.17038,0.1053 0.24792,0.29155 0.17232,0.41388 -0.20173,0.32641 0.14458,1.08543 0.41811,0.91638 0.1286,-0.0795 0.16707,0.0294 0.0855,0.24205 -0.0816,0.21261 -0.0299,0.81543 0.1148,1.33959 0.15326,0.55505 0.16122,0.89004 0.0191,0.80219 -0.13424,-0.083 -0.24407,0.0873 -0.24407,0.37833 0,0.29104 -0.12718,0.60776 -0.28262,0.70383 -0.15544,0.0961 -0.21633,0.34741 -0.13532,0.55852 0.094,0.24504 0.0365,0.31535 -0.15922,0.19442 -0.20656,-0.12766 -0.2497,-0.0414 -0.13229,0.26458 0.10349,0.26969 0.068,0.38839 -0.0873,0.29238 -0.14385,-0.0889 -0.26155,0.024 -0.26155,0.25084 0,0.22687 -0.0893,0.39839 -0.19844,0.38116 -0.48244,-0.0762 -0.88042,0.0487 -0.76264,0.23921 0.14089,0.22797 -0.0641,0.27085 -2.21392,0.46306 -0.81231,0.0726 -1.6607,0.005 -1.92033,-0.15245 z m 17.4625,-0.004 c -0.25581,-0.15339 -0.575,-0.21098 -0.70932,-0.12797 -0.13431,0.083 -0.33036,0.0115 -0.43566,-0.15885 -0.12763,-0.20652 -0.076,-0.23843 0.15489,-0.0957 0.23607,0.1459 0.28268,0.11105 0.14641,-0.10945 -0.10996,-0.17792 -0.36506,-0.26013 -0.56687,-0.18269 -0.20182,0.0775 -0.3386,-0.004 -0.30397,-0.1804 0.0346,-0.17666 -0.0947,-0.28849 -0.28742,-0.2485 -0.19272,0.04 -0.27499,-0.0493 -0.18282,-0.19844 0.0922,-0.14913 0.0452,-0.27115 -0.10433,-0.27115 -0.14954,0 -0.19586,-0.19812 -0.10294,-0.44027 0.0944,-0.2461 0.0594,-0.37259 -0.0794,-0.2868 -0.14149,0.0874 -0.28292,-0.54423 -0.32871,-1.46808 -0.0442,-0.89186 -0.14966,-1.7337 -0.23437,-1.87075 -0.0896,-0.14498 -0.009,-0.15947 0.19314,-0.0346 0.25861,0.15984 0.30906,0.069 0.19784,-0.35635 -0.0966,-0.36947 -0.0488,-0.50879 0.13558,-0.39485 0.17837,0.11024 0.22365,0.0165 0.12111,-0.2507 -0.13291,-0.34634 -0.0544,-0.3863 0.41664,-0.21205 0.31923,0.11809 0.59268,0.37989 0.60767,0.58179 0.0677,0.91216 0.12428,1.04963 0.36941,0.89813 0.147,-0.0908 0.19602,0.009 0.11192,0.22829 -0.0823,0.21447 -0.005,0.66011 0.17167,0.99031 l 0.3213,0.60036 0.61782,-0.71825 c 0.3398,-0.39504 0.68063,-0.71544 0.7574,-0.71198 0.72435,0.0326 0.94227,-0.0298 0.8163,-0.23364 -0.0815,-0.13195 0.09,-0.17759 0.38126,-0.10143 0.63333,0.16562 0.62873,0.12093 0.13441,1.30399 -0.21732,0.52011 -0.31798,1.07046 -0.2237,1.22301 0.0943,0.15254 0.0464,0.20011 -0.10633,0.1057 -0.15275,-0.0944 -0.34774,0.0108 -0.43329,0.23372 -0.18324,0.4775 0.40944,0.76912 1.16276,0.57213 0.3304,-0.0864 0.46095,-0.0329 0.35155,0.14414 -0.11152,0.18044 0.031,0.22796 0.39687,0.13229 0.36583,-0.0957 0.50839,-0.0481 0.39688,0.1323 -0.11111,0.17977 0.029,0.22849 0.38746,0.13475 0.34466,-0.0901 0.53944,-0.0296 0.50439,0.15676 -0.0314,0.16698 0.1215,0.26391 0.33978,0.2154 0.21828,-0.0485 0.29765,0.011 0.17639,0.13229 -0.12127,0.12127 -0.32963,0.23537 -0.46302,0.25356 -0.1334,0.0182 -0.36863,0.048 -0.52274,0.0661 -0.15411,0.0182 -0.20745,0.15078 -0.11855,0.29463 0.096,0.15536 -0.0227,0.19082 -0.29237,0.0873 -0.25867,-0.0993 -0.38743,-0.0665 -0.29926,0.0762 0.21779,0.35239 -3.00296,0.43325 -3.57578,0.0898 z m -9.53255,-9.82688 c -0.25997,-0.27327 -0.60579,-0.41458 -0.76849,-0.31403 -0.16269,0.10056 -0.23038,0.0751 -0.15041,-0.0565 0.18434,-0.3034 -0.47371,-0.93168 -0.71895,-0.68643 -0.1004,0.10039 -0.15852,0.0635 -0.12915,-0.0821 0.11283,-0.55926 -0.0203,-0.95045 -0.27084,-0.79563 -0.15536,0.096 -0.19082,-0.0227 -0.0873,-0.29237 0.11126,-0.28993 0.0713,-0.39039 -0.11065,-0.27796 -0.17894,0.11059 -0.23596,-0.011 -0.15333,-0.32695 0.0807,-0.30874 0.42809,-0.54654 0.89934,-0.61571 0.42229,-0.062 0.70961,-0.0545 0.63849,0.0166 -0.21908,0.21907 1.47058,1.12375 1.7622,0.94351 0.15076,-0.0932 0.22468,-0.5062 0.16426,-0.91785 -0.0604,-0.41164 -0.0123,-0.68817 0.10686,-0.61451 0.19738,0.12198 0.24094,-0.039 0.32428,-1.19854 0.0522,-0.72663 0.69634,-0.58743 1.03762,0.22424 0.18992,0.45168 0.43296,0.73358 0.54008,0.62645 0.10713,-0.10712 0.1241,-0.0106 0.0377,0.21455 -0.0864,0.22514 -0.0338,0.73357 0.11687,1.12986 0.27053,0.71156 0.28184,0.71459 0.90958,0.24406 0.3496,-0.26205 0.58219,-0.56439 0.51686,-0.67187 -0.0653,-0.10747 0.0855,-0.117 0.33525,-0.0212 0.28993,0.11126 0.39039,0.0713 0.27796,-0.11064 -0.11394,-0.18436 0.0254,-0.2322 0.39484,-0.13558 0.38832,0.10154 0.51097,0.0523 0.3835,-0.15394 -0.12127,-0.19621 -0.0433,-0.24794 0.2209,-0.14655 0.27431,0.10527 0.38735,0.44311 0.34447,1.02952 -0.0351,0.48006 -0.17336,0.80538 -0.30723,0.72293 -0.13463,-0.0829 -0.16555,0.053 -0.0692,0.30411 0.10349,0.26968 0.068,0.38839 -0.0873,0.29237 -0.2399,-0.14827 -0.379,0.21566 -0.28633,0.74914 0.0208,0.11996 -0.0577,0.15904 -0.1745,0.0868 -0.11682,-0.0722 -0.50672,0.10788 -0.86645,0.40017 -0.35974,0.29229 -0.48684,0.44318 -0.28245,0.3353 0.20924,-0.11044 0.305,-0.0884 0.21917,0.0505 -0.0838,0.13566 -1.02113,0.28211 -2.08286,0.32545 -1.06174,0.0434 -1.99381,0.11047 -2.07126,0.14915 -0.0775,0.0387 -0.35353,-0.15325 -0.6135,-0.42652 z m 12.36002,-45.93637 c 0,-0.55299 0.73994,-0.62827 0.84461,-0.0859 0.0373,0.1935 0.007,0.20464 -0.0785,0.029 -0.0874,-0.17911 -0.25578,-0.12575 -0.45262,0.14346 -0.281,0.38429 -0.31346,0.37533 -0.31346,-0.0865 z M 129.36538,75.797468 c -0.29104,-0.117083 -0.5887,-0.179618 -0.66146,-0.138962 -0.0728,0.04066 -0.13229,-0.242133 -0.13229,-0.62842 0,-0.417639 0.32422,-1.047046 0.79984,-1.552715 l 0.79983,-0.850379 -0.10334,1.08366 c -0.0576,0.604472 0.002,1.018341 0.13565,0.935947 0.13145,-0.08124 0.239,0.07317 0.239,0.343133 0,0.269962 -0.12331,0.469583 -0.27403,0.443595 -0.15072,-0.02598 -0.24427,0.101582 -0.20789,0.283483 0.0364,0.181901 0.0364,0.32236 0,0.312131 -0.0364,-0.01021 -0.30427,-0.11439 -0.59531,-0.231473 z m 27.577,-0.781804 c 0.0572,-0.378354 0.16642,-0.985573 0.24263,-1.349375 l 0.13856,-0.661458 0.474,0.584062 c 0.2607,0.321233 0.5546,0.503454 0.65312,0.40494 0.0985,-0.09852 0.0931,0.04514 -0.0121,0.319238 -0.13203,0.344069 -0.0965,0.439811 0.11474,0.30925 0.22,-0.135961 0.2427,-0.01804 0.0808,0.419619 -0.16178,0.437332 -0.44629,0.616175 -1.01049,0.635182 -0.70103,0.02363 -0.77414,-0.04736 -0.68124,-0.661458 z m -30.68585,-1.565386 c -0.40018,-0.04605 -0.72761,-0.201901 -0.72761,-0.346345 0,-0.144444 -0.11185,-0.193492 -0.24857,-0.108998 -0.13671,0.08449 -0.23106,-0.07882 -0.20966,-0.362931 0.0214,-0.284105 0.13326,-0.458245 0.24857,-0.386977 0.11532,0.07127 0.20966,-0.06173 0.20966,-0.29554 0,-0.353489 0.27863,-0.411842 1.65365,-0.346345 0.93277,0.04443 1.62481,0.194112 1.5875,0.343355 -0.0364,0.145521 -0.15544,0.266407 -0.26458,0.268634 -0.43641,0.0089 -0.85813,0.446218 -0.69104,0.716571 0.10237,0.16564 0.0551,0.211537 -0.11172,0.108445 -0.15906,-0.09831 -0.38581,-0.02741 -0.5039,0.157557 -0.11808,0.184962 -0.54212,0.298619 -0.9423,0.252574 z m 34.46198,-0.15063 c -0.50932,-0.175601 -1.01534,-0.343535 -1.12448,-0.373192 -0.10914,-0.02966 -0.20692,-0.143214 -0.21729,-0.252355 -0.0104,-0.10914 -0.21384,-0.413893 -0.45215,-0.677224 -0.41423,-0.457716 -0.35809,-0.476362 1.27562,-0.423641 l 1.70892,0.05515 -0.0266,0.891231 c -0.0146,0.490177 -0.0742,0.938048 -0.13229,0.995267 -0.0581,0.05722 -0.52239,-0.03964 -1.03171,-0.215236 z m -3.04387,-1.751894 c -0.25217,-0.408032 0.44816,-0.567391 2.01707,-0.458978 l 1.42367,0.09838 -1.66926,0.04894 c -1.03442,0.03033 -1.60707,0.149567 -1.50574,0.313526 0.0899,0.145521 0.10399,0.264584 0.0312,0.264584 -0.0728,0 -0.20639,-0.119904 -0.29697,-0.266452 z m -31.7088,-2.180944 c 0.0679,-0.109141 -0.003,-0.198438 -0.15672,-0.198438 -0.15411,0 -0.2802,-0.47625 -0.2802,-1.058333 0,-0.582083 0.0306,-1.058333 0.0679,-1.058333 0.0373,0 0.47023,-0.11539 0.96197,-0.256419 0.49175,-0.14103 0.82725,-0.189584 0.74556,-0.107894 -0.2392,0.239199 1.18264,1.689007 1.47763,1.506696 0.14756,-0.0912 0.18842,-0.03658 0.0908,0.12137 -0.0976,0.157951 -0.0565,0.361968 0.0914,0.453371 0.63183,0.390494 0.15979,0.624684 -1.42646,0.707695 -0.93245,0.0488 -1.6398,-5.3e-4 -1.57189,-0.109715 z m 31.69362,-0.247642 c -0.11043,-0.19122 -0.11683,-0.272876 -0.0142,-0.181457 0.22102,0.196893 1.76781,-1.286446 1.6791,-1.610227 -0.0336,-0.122574 0.026,-0.242449 0.13249,-0.266386 0.10645,-0.02394 0.55523,-0.147253 0.99729,-0.274036 0.44206,-0.126781 0.7426,-0.131578 0.66787,-0.01066 -0.0747,0.12092 0.047,0.290015 0.27044,0.375772 0.28327,0.108698 0.3883,0.461258 0.34682,1.164166 l -0.0595,1.008251 -1.90976,0.07112 c -1.36076,0.05068 -1.96748,-0.02882 -2.11055,-0.276548 z M 130.35757,40.999835 c -0.76398,-0.355686 -1.39089,-0.801007 -1.39311,-0.989603 -0.003,-0.247844 -0.0819,-0.232882 -0.28473,0.05397 -0.2481,0.350812 -0.26814,0.350942 -0.17271,0.0011 0.0594,-0.217664 0.2768,-0.398696 0.48316,-0.402294 0.61745,-0.01076 1.58191,-0.417085 1.45963,-0.614934 -0.0626,-0.101342 0.35134,-0.139893 0.91993,-0.08567 1.31684,0.125581 1.49101,-0.277399 0.78885,-1.825183 -0.70701,-1.558471 -0.68413,-2.011696 0.1092,-2.163351 0.3594,-0.0687 0.5905,-0.02305 0.51355,0.101447 -0.0769,0.12451 0.0316,0.226373 0.2412,0.226373 0.2096,0 0.74292,0.370081 1.18514,0.822402 0.94133,0.962811 1.29074,0.848194 1.52715,-0.500954 0.20467,-1.16796 0.71911,-2.054575 1.40519,-2.421752 0.36261,-0.194062 0.49556,-0.178561 0.48748,0.05684 -0.006,0.178022 0.009,0.561801 0.0346,0.852842 0.0381,0.440937 0.0879,0.462994 0.29876,0.132292 0.17963,-0.281741 0.21991,-0.12823 0.13885,0.529167 -0.0628,0.509322 -0.17224,1.545782 -0.24321,2.303243 -0.071,0.757462 -0.32756,1.680196 -0.57021,2.050521 -0.24264,0.370325 -0.34949,0.673319 -0.23744,0.673319 0.11205,0 -0.009,0.235317 -0.26952,0.522927 -0.26028,0.28761 -0.56434,0.466628 -0.67567,0.397817 -0.11134,-0.06881 -0.72051,0.109976 -1.35371,0.397304 -1.53111,0.694775 -2.71522,0.663009 -4.39241,-0.117836 z m 23.94845,0.276179 c 0.0825,-0.134556 -0.0537,-0.16549 -0.30472,-0.06918 -0.24972,0.09582 -0.38899,0.069 -0.30951,-0.0596 0.16561,-0.267964 -0.58688,-0.621752 -0.90468,-0.42534 -0.20706,0.127967 -0.72122,-0.339669 -0.7898,-0.718329 -0.0192,-0.106113 -0.2756,-0.736978 -0.56973,-1.401923 -0.41531,-0.938873 -0.51598,-1.643539 -0.45058,-3.153954 0.0474,-1.094237 0.19068,-1.879729 0.32762,-1.79582 0.13387,0.08203 0.16631,-0.05173 0.0721,-0.297254 -0.14283,-0.372203 -0.0866,-0.401066 0.33834,-0.173649 0.2803,0.150014 0.67526,0.5092 0.87767,0.79819 0.20242,0.288989 0.41689,0.477853 0.47659,0.419697 0.0597,-0.05816 0.12721,0.37201 0.14999,0.955926 0.0561,1.436987 0.5049,1.853521 1.14863,1.065992 0.44899,-0.549295 2.02157,-1.383646 2.60787,-1.383646 0.13368,0 0.29456,0.350899 0.3575,0.779776 0.063,0.428878 0.0335,0.729779 -0.0653,0.668669 -0.27176,-0.167962 -1.13348,1.902377 -0.9293,2.232738 0.0977,0.158162 0.5338,0.287567 0.969,0.287567 0.4352,0 1.14605,0.183459 1.57966,0.407688 0.4336,0.224228 0.91582,0.328922 1.07159,0.232654 0.20068,-0.124033 0.2015,-0.02236 0.003,0.348938 -0.45767,0.855165 -2.7489,1.69205 -4.38637,1.602148 -0.78024,-0.04284 -1.35143,-0.187417 -1.26932,-0.321287 z"
         id="path1170" />
      <path
         style="fill:#e22185;stroke-width:0.264583"
         d="m 125.03022,170.47936 c 0.3431,-0.21729 2.56824,-0.35399 2.32874,-0.14307 -0.0606,0.0534 -0.69185,0.15965 -1.4027,0.23611 -0.79016,0.085 -1.15005,0.0488 -0.92604,-0.093 z m 4.41724,-3.28286 c 0.0595,-0.50933 0.15461,-0.92605 0.21145,-0.92605 0.0568,0 0.10335,0.41672 0.10335,0.92605 0,0.50932 -0.0952,0.92604 -0.21146,0.92604 -0.1163,0 -0.1628,-0.41672 -0.10334,-0.92604 z m -2.06645,-61.78021 c -0.50933,-0.27884 -0.83083,-0.51198 -0.71447,-0.51808 0.28038,-0.0147 1.7728,0.76127 1.7728,0.92175 0,0.17317 -0.0155,0.16726 -1.05833,-0.40367 z m 11.90228,-0.39877 c 1.05368,-1.269 1.14235,-1.35085 0.85461,-0.7889 -0.14985,0.29267 -0.55138,0.76807 -0.89228,1.05644 -0.59799,0.50585 -0.59666,0.49642 0.0377,-0.26754 z m 9.92584,-6.744981 c 0.86402,-0.873125 1.63047,-1.5875 1.70323,-1.5875 0.0728,0 -0.57463,0.714375 -1.43864,1.5875 -0.86402,0.873125 -1.63047,1.5875 -1.70323,1.5875 -0.0728,0 0.57463,-0.714375 1.43864,-1.5875 z m -8.84434,0.361193 c -0.3016,-0.383426 -0.54475,-0.829911 -0.54032,-0.992188 0.004,-0.162277 0.14016,-0.05692 0.30162,0.23412 0.16147,0.291041 0.47396,0.737526 0.69442,0.992187 0.22046,0.254662 0.3315,0.463021 0.24675,0.463021 -0.0848,0 -0.40086,-0.313714 -0.70247,-0.69714 z m -4.7817,-1.816402 c -0.64268,-0.654843 -1.10898,-1.190625 -1.03622,-1.190625 0.0728,0 0.65812,0.535782 1.3008,1.190625 0.64269,0.654844 1.10898,1.190625 1.03622,1.190625 -0.0728,0 -0.65812,-0.535781 -1.3008,-1.190625 z m 2.44797,-1.058333 c 0.003,-0.582083 0.0571,-0.789054 0.12041,-0.459936 0.0633,0.329118 0.0609,0.805368 -0.005,1.058333 -0.0662,0.252966 -0.11801,-0.01632 -0.11507,-0.598397 z m 10.25203,0.679474 c 0,-0.15543 0.12172,-0.282599 0.2705,-0.282599 0.14877,0 0.83338,-0.502518 1.52135,-1.116706 0.93406,-0.833887 1.04983,-0.894773 0.45711,-0.240408 -0.99592,1.0995 -2.24896,2.013087 -2.24896,1.639713 z m -9.96948,-3.457599 c 0,-0.945885 0.048,-1.332839 0.10671,-0.859896 0.0587,0.472943 0.0587,1.246849 0,1.719792 -0.0587,0.472943 -0.10671,0.08599 -0.10671,-0.859896 z m 3.63211,-26.70951 c -0.21133,-0.133691 -0.47099,-0.189457 -0.57703,-0.123925 -0.10603,0.06553 -0.26877,-0.0038 -0.36164,-0.154065 -0.0929,-0.150267 -0.27969,-0.204716 -0.41516,-0.120991 -0.13546,0.08372 -0.2463,0.02987 -0.2463,-0.119674 0,-0.149542 -0.20836,-0.204866 -0.46302,-0.122946 -0.36031,0.115906 -0.38173,0.09103 -0.0965,-0.11216 0.25051,-0.178482 0.66912,-0.132828 1.32291,0.144278 0.52605,0.222959 1.61129,0.492207 2.41165,0.598328 l 1.45521,0.19295 -1.32292,0.03064 c -0.7276,0.01685 -1.49582,-0.07874 -1.70716,-0.212434 z m 5.94237,-0.804127 c -0.096,-0.155358 0.0227,-0.190815 0.29237,-0.08733 0.30597,0.117411 0.39225,0.07427 0.26459,-0.132292 -0.12407,-0.200739 -0.0467,-0.25174 0.22417,-0.147796 0.3112,0.11942 0.37394,0.03677 0.25337,-0.333759 -0.13246,-0.407074 -0.11089,-0.423653 0.12436,-0.0956 0.21467,0.299363 0.17588,0.478136 -0.15791,0.727604 -0.53379,0.398955 -0.78635,0.416409 -1.00095,0.06918 z m -4.43364,-0.454337 c 0.32742,-0.06307 0.8632,-0.06307 1.19062,0 0.32742,0.06306 0.0595,0.114662 -0.59531,0.114662 -0.65485,0 -0.92274,-0.0516 -0.59531,-0.114662 z m 8.87938,-7.089317 c 0.002,-0.873125 0.0509,-1.198414 0.10976,-0.722866 0.0589,0.475549 0.0577,1.189924 -0.003,1.5875 -0.0604,0.397576 -0.10855,0.0085 -0.10706,-0.864634 z m -18.51037,-1.455208 c 0,-1.236928 0.0456,-1.742943 0.10128,-1.12448 0.0557,0.618464 0.0557,1.630495 0,2.248959 -0.0557,0.618463 -0.10128,0.112448 -0.10128,-1.124479 z m 2.29939,-1.931369 c -0.0244,-0.486971 0.80566,-1.70222 1.75277,-2.566199 l 1.01476,-0.925693 -0.9618,1.057985 c -0.52899,0.58189 -1.1493,1.415171 -1.37847,1.851734 -0.22916,0.436562 -0.42143,0.69854 -0.42726,0.582173 z m 6.92405,-5.611039 c 0.10327,-0.160219 0.30409,-0.582549 0.44625,-0.938512 0.16342,-0.409172 0.26465,-0.487693 0.27525,-0.213496 0.009,0.23854 -0.19158,0.66087 -0.44625,0.938511 -0.25466,0.277642 -0.37852,0.373715 -0.27525,0.213497 z"
         id="path1168" />
      <path
         style="fill:#eb7b1e;stroke-width:0.264583"
         d="m 143.03679,243.98033 c -0.52136,-0.6282 -1.1037,-2.25798 -1.1037,-3.08888 0,-0.44124 -0.0485,-0.80225 -0.10787,-0.80225 -0.0593,0 -0.68776,0.30086 -1.39651,0.66857 -0.70875,0.36771 -1.75037,0.7435 -2.31472,0.83508 l -1.02608,0.16651 0.17124,-0.8562 c 0.28676,-1.4338 0.96431,-2.59361 2.15786,-3.69379 3.60934,-3.32697 9.39916,-1.20253 10.33627,3.79267 l 0.19145,1.02052 -1.01299,-0.16439 c -0.55715,-0.0904 -1.57039,-0.51088 -2.25164,-0.93437 l -1.23863,-0.76998 -0.41542,1.49418 c -0.47776,1.7184 -1.50206,2.91936 -1.98926,2.33233 z M 128.0051,188.62579 c -0.0934,-0.24331 0.015,-0.61825 0.24525,-0.84849 0.56201,-0.56201 1.30742,-0.23984 1.19974,0.51853 -0.10435,0.73484 -1.19413,0.98368 -1.44499,0.32996 z m 29.40196,-0.83375 c -0.48464,-0.48464 -0.41415,-0.86511 0.23384,-1.26206 0.36127,-0.22131 0.54242,-0.1763 0.82598,0.20525 0.67285,0.90541 -0.27053,1.84611 -1.05982,1.05681 z m -31.29275,-2.78578 c -0.81569,-0.81569 -0.0105,-1.82262 0.91025,-1.13834 0.38155,0.28355 0.42657,0.4647 0.20525,0.82598 -0.3726,0.60824 -0.72182,0.70603 -1.1155,0.31236 z m 32.05405,-1.4056 c -0.20961,-0.54621 0.0746,-1.19062 0.52507,-1.19062 0.54158,0 1.00236,0.65765 0.81071,1.15709 -0.20742,0.54053 -1.13232,0.56375 -1.33578,0.0335 z m -32.51273,-3.85406 c -0.11698,-0.36857 -0.0534,-0.66131 0.17571,-0.80885 0.61318,-0.39488 1.15279,-0.13018 1.15279,0.5655 0,0.89002 -1.06154,1.08447 -1.3285,0.24335 z m 33.3136,0.16845 c -0.26344,-0.6865 0.1058,-1.25391 0.75591,-1.16159 0.43728,0.0621 0.59649,0.26125 0.59649,0.74616 0,0.48491 -0.15921,0.68407 -0.59649,0.74616 -0.35779,0.0508 -0.66029,-0.0815 -0.75591,-0.33073 z m -31.58822,-4.25189 c -0.26278,-0.31663 -0.26278,-0.47712 0,-0.79375 0.18115,-0.21828 0.47881,-0.39687 0.66146,-0.39687 0.18264,0 0.4803,0.17859 0.66145,0.39687 0.26278,0.31663 0.26278,0.47712 0,0.79375 -0.18115,0.21828 -0.47881,0.39688 -0.66145,0.39688 -0.18265,0 -0.48031,-0.1786 -0.66146,-0.39688 z m 30.52276,-0.52916 c -0.2096,-0.54622 0.0746,-1.19063 0.52508,-1.19063 0.54158,0 1.00236,0.65765 0.81071,1.15709 -0.20742,0.54053 -1.13233,0.56375 -1.33579,0.0335 z m -27.87693,-3.44789 c 0,-0.80316 0.68354,-1.14134 1.22086,-0.60402 0.52888,0.52888 0.18519,1.27378 -0.58771,1.27378 -0.50106,0 -0.63315,-0.13972 -0.63315,-0.66976 z m 26.20596,-0.24156 c -0.4803,-0.57874 -0.13789,-1.25997 0.58192,-1.15776 0.43629,0.062 0.5965,0.26139 0.5965,0.74254 0,0.77198 -0.68269,1.01253 -1.17842,0.41522 z m -23.12127,-1.85282 c -0.25416,-0.66233 0.10633,-1.23991 0.7193,-1.15245 0.40132,0.0573 0.56164,0.26894 0.56164,0.74159 0,0.77091 -1.01754,1.09729 -1.28094,0.41086 z m 19.30116,-0.81698 c -0.52525,-0.52525 -0.0966,-1.57944 0.54254,-1.33419 0.21902,0.084 0.44802,0.15281 0.50888,0.15281 0.27595,0 0.0722,1.02542 -0.25819,1.29965 -0.28476,0.23633 -0.46559,0.20937 -0.79323,-0.11827 z m -15.411,-0.7845 c -0.2096,-0.54622 0.0746,-1.19063 0.52508,-1.19063 0.20503,0 0.521,0.17859 0.70215,0.39688 0.26279,0.31663 0.26279,0.47711 0,0.79375 -0.18115,0.21828 -0.49712,0.39687 -0.70215,0.39687 -0.20504,0 -0.44132,-0.17859 -0.52508,-0.39687 z m 11.2842,-0.79039 c -0.43963,-0.52972 -0.14679,-1.19399 0.52637,-1.19399 0.30017,0 0.61489,0.18011 0.69936,0.40024 0.15204,0.3962 -0.31394,1.18726 -0.69936,1.18726 -0.10989,0 -0.34675,-0.17708 -0.52637,-0.39351 z m -5.62519,-30.05477 c -0.57775,-0.3365 -0.62524,-1.78525 -0.0656,-2.00001 0.21861,-0.0839 0.69486,-0.0779 1.05834,0.0133 0.51766,0.12992 0.66086,0.33475 0.66086,0.94527 0,0.49978 -0.1836,0.87766 -0.51177,1.05329 -0.60908,0.32597 -0.56096,0.32647 -1.14187,-0.0119 z m -6.76011,-4.79422 c -0.79941,-0.79941 -0.0568,-1.89485 1.18786,-1.75214 0.5987,0.0687 0.76062,0.23435 0.83093,0.85031 0.0496,0.43453 -0.0647,0.86142 -0.26458,0.98813 -0.51063,0.32371 -1.38733,0.28058 -1.75421,-0.0863 z m 12.44679,0.0114 c -0.75771,-0.75771 -0.0822,-1.92799 1.01861,-1.7647 0.80332,0.11915 1.25012,0.87393 0.87344,1.47551 -0.35594,0.56846 -1.44615,0.73509 -1.89205,0.28919 z M 144.5804,89.078268 c 7.9e-4,-0.109141 0.12547,-0.644922 0.27702,-1.190625 0.21423,-0.771403 0.40819,-0.992188 0.87165,-0.992188 1.38303,0 1.60384,1.103432 0.37121,1.854984 -0.88488,0.539522 -1.52248,0.677047 -1.51988,0.327829 z m -14.41406,-0.636913 -0.72561,-0.570765 0.62379,-0.3459 c 0.34308,-0.190246 0.90441,-0.35012 1.2474,-0.355274 0.48577,-0.0073 0.58314,-0.111723 0.44051,-0.472398 -0.10071,-0.254662 -0.24809,-0.849974 -0.32751,-1.322917 -0.17258,-1.027718 0.17594,-1.10812 1.44619,-0.333629 0.57642,0.351449 0.86022,0.416542 0.86089,0.197448 5.5e-4,-0.17976 0.25206,-0.738693 0.55892,-1.242068 l 0.55794,-0.915228 0.39687,0.757455 c 0.26526,0.506256 0.35443,1.199181 0.26888,2.089441 -0.10665,1.109988 -0.28735,1.478041 -1.0842,2.208294 -0.8093,0.741667 -1.15459,0.876308 -2.24734,0.876308 -0.92185,0 -1.49864,-0.16324 -2.01673,-0.570767 z m 12.07673,-0.345742 c -1.25374,-1.132678 -1.44687,-2.13052 -0.56655,-2.927199 0.42499,-0.384611 0.68747,-0.433549 1.25677,-0.234317 0.63712,0.222959 0.72854,0.404103 0.79765,1.580509 0.0429,0.730779 -0.0259,1.60982 -0.15305,1.953422 l -0.2311,0.624734 z m 10.75804,0.480145 c -0.81848,-0.525984 -1.8076,-2.15751 -1.8076,-2.981595 0,-0.312282 0.18636,-1.010446 0.41413,-1.551477 0.4016,-0.953926 0.4264,-0.967679 0.81983,-0.454522 0.22314,0.291041 0.52463,0.85644 0.66997,1.25644 l 0.26427,0.727271 0.74268,-0.528834 c 0.40847,-0.290859 0.94617,-0.528836 1.19489,-0.528836 0.46224,0 0.45927,0.560944 -0.0109,2.050521 -0.15823,0.501333 -0.089,0.596792 0.43829,0.60469 0.34439,0.0052 0.899,0.160819 1.23247,0.345918 l 0.60631,0.336545 -0.54426,0.492548 c -0.76863,0.695598 -3.08983,0.829165 -4.02012,0.231331 z"
         id="path1166" />
      <path
         style="fill:#1ba1c7;stroke-width:0.264583"
         d="m 139.43455,219.12825 c -0.22653,-0.32342 -0.41188,-0.81241 -0.41188,-1.08664 0,-0.29533 -0.13483,-0.44293 -0.33072,-0.36203 -0.18191,0.0751 -0.77722,0.32757 -1.32292,0.56102 -0.989,0.42309 -0.99219,0.42241 -0.99219,-0.21124 0,-0.34964 0.23985,-0.91678 0.53299,-1.26033 l 0.53299,-0.62462 -0.46188,0.84282 c -0.59621,1.08795 -0.28392,1.37444 0.83903,0.76969 0.96154,-0.51782 1.46729,-0.40169 1.46729,0.33691 0,0.25464 0.17633,0.6941 0.39185,0.97657 0.33916,0.44454 0.42755,0.46024 0.6574,0.11672 0.14606,-0.21828 0.26739,-0.95828 0.26961,-1.64444 0.003,-1.02123 -0.14483,-1.41713 -0.81658,-2.18221 -0.45135,-0.51406 -1.19549,-1.04325 -1.65364,-1.17597 -0.45816,-0.13273 -0.63026,-0.25206 -0.38245,-0.26518 2.07711,-0.11001 3.9353,3.25246 2.88349,5.21778 -0.39236,0.73313 -0.68419,0.73099 -1.20239,-0.009 z m 7.10648,-0.77794 c -0.54271,-1.04948 -0.37267,-2.5491 0.41435,-3.65438 0.90761,-1.27462 3.18738,-1.99979 4.22438,-1.34374 0.25299,0.16006 0.0283,0.19666 -0.66146,0.10776 -1.58005,-0.20362 -2.81648,0.43817 -3.56597,1.85098 -0.52913,0.99742 -0.58757,1.33633 -0.37555,2.17789 0.33699,1.33757 0.76035,1.40061 1.26306,0.18808 0.22879,-0.55183 0.42167,-0.82473 0.42863,-0.60645 0.0129,0.40431 -0.92985,2.11667 -1.16532,2.11667 -0.0712,0 -0.32411,-0.37657 -0.56212,-0.83681 z m 3.98382,-0.73904 c 0.086,-0.13912 -0.02,-0.6749 -0.23547,-1.19063 -0.47495,-1.13672 -0.32303,-1.23789 0.23588,-0.15708 0.46972,0.90835 0.52312,1.60064 0.12347,1.60064 -0.15411,0 -0.20986,-0.11382 -0.12388,-0.25293 z m -1.60544,-0.57932 c -0.4975,-0.56031 -0.49718,-0.56385 0.0251,-0.27344 0.29104,0.16182 0.70776,0.41545 0.92604,0.56362 0.34787,0.23613 0.34477,0.26989 -0.0251,0.27344 -0.23211,0.002 -0.64882,-0.2514 -0.92604,-0.56362 z m -13.74877,-1.68147 c -0.50401,-0.38964 -0.50194,-0.40692 0.11103,-0.92604 0.34355,-0.29094 0.87933,-0.51712 1.19063,-0.50261 0.54371,0.0253 0.54516,0.0332 0.0368,0.19843 -0.90008,0.29268 -1.59246,0.78447 -1.38978,0.98715 0.10632,0.10632 0.64111,0.28015 1.18842,0.38629 0.94162,0.18261 0.95161,0.19462 0.18579,0.22341 -0.44513,0.0168 -1.04045,-0.14825 -1.32292,-0.36663 z m 15.64909,-0.64614 c 1.22718,-0.29337 1.5689,-0.55416 1.12963,-0.8621 -0.29537,-0.20707 -0.29158,-0.23344 0.0213,-0.14883 1.05577,0.28543 -0.0769,1.29407 -1.38497,1.23329 -0.43203,-0.0201 -0.37148,-0.0776 0.23398,-0.22236 z M 133.05977,188.5616 c 0.0985,-0.25466 0.24804,-0.80464 0.33227,-1.22217 0.15101,-0.74855 0.13807,-0.75772 -0.92644,-0.6562 -0.78692,0.0751 -1.01169,0.0211 -0.82914,-0.1988 0.15536,-0.1872 0.57538,-0.23307 1.10635,-0.12081 0.76468,0.16167 0.85154,0.27276 0.81491,1.04235 -0.0407,0.85422 -0.0362,0.85742 0.52917,0.38426 0.31358,-0.26242 0.22046,-0.092 -0.20695,0.37863 -0.87808,0.96696 -1.07966,1.06348 -0.82017,0.39274 z m 18.86696,-1.47051 c -0.68814,-0.75557 -2.09319,-2.26471 -3.12233,-3.35364 -1.02915,-1.08894 -1.76758,-2.01442 -1.64095,-2.05663 0.12662,-0.0422 1.4126,0.21591 2.85774,0.5736 1.44514,0.35768 2.3894,0.65604 2.09836,0.66302 -0.29104,0.007 -1.4176,-0.21801 -2.50346,-0.49997 -1.08586,-0.28197 -1.99993,-0.48703 -2.03128,-0.45568 -0.0313,0.0314 1.13698,1.30588 2.59628,2.83231 2.23292,2.33563 2.63329,2.65686 2.52716,2.02765 -0.0694,-0.41122 -0.0363,-0.64934 0.0735,-0.52917 0.19476,0.21315 0.62938,2.21795 0.47425,2.18757 -0.043,-0.008 -0.64116,-0.63349 -1.32929,-1.38906 z m 1.78032,-1.11024 -0.79375,-0.37407 0.79375,0.16104 0.79375,0.16104 -0.52917,-0.60233 -0.52916,-0.60234 0.74572,-0.5608 0.74572,-0.56081 -1.1426,-0.32642 -1.14259,-0.32642 1.05295,0.15042 c 0.57913,0.0827 1.35303,0.31371 1.71979,0.5133 l 0.66684,0.36289 -0.67703,0.0106 c -0.37237,0.006 -0.90658,0.17844 -1.18712,0.38357 -0.46876,0.34277 -0.47612,0.41242 -0.0908,0.8599 1.01909,1.18353 0.90793,1.37922 -0.42629,0.75044 z m -21.56354,-0.54088 c 0,-0.2253 -0.38696,-0.57359 -0.8599,-0.77397 -0.59599,-0.25251 -0.73809,-0.4081 -0.46302,-0.50695 0.93094,-0.33454 4.63217,-1.21783 5.01077,-1.19581 0.22725,0.0132 -0.24165,0.19837 -1.04202,0.41143 -3.90674,1.04 -3.62799,0.92993 -2.97656,1.17532 0.3485,0.13128 0.59531,0.44716 0.59531,0.76194 0,0.29573 -0.0595,0.53769 -0.13229,0.53769 -0.0728,0 -0.13229,-0.18434 -0.13229,-0.40965 z m 5.29166,-1.27055 1.45521,-1.51915 -1.19062,0.14414 c -1.14649,0.1388 -1.13668,0.13028 0.26458,-0.22974 0.80037,-0.20564 1.5034,-0.32597 1.5623,-0.26741 0.11926,0.11857 -2.18998,2.42563 -3.01751,3.01465 -0.29104,0.20716 0.12568,-0.30696 0.92604,-1.14249 z m -6.54843,-1.67629 c 0.88291,-0.93861 0.90588,-1.25042 0.13229,-1.79534 -0.50536,-0.35597 -0.53534,-0.45758 -0.19844,-0.67241 0.21828,-0.13919 0.53868,-0.2549 0.71199,-0.25713 0.66905,-0.009 0.63739,-0.60893 -0.0711,-1.34846 -0.9657,-1.00798 -0.51477,-0.97474 2.13727,0.15754 2.43205,1.03836 2.36452,1.25471 -0.0814,0.26083 -1.96442,-0.79821 -2.12167,-0.8125 -1.51058,-0.13725 0.38823,0.42898 0.41383,0.59719 0.14091,0.92604 -0.18343,0.22101 -0.49751,0.40184 -0.69798,0.40184 -0.47948,0 -0.46389,0.38186 0.0324,0.79375 0.5073,0.42102 0.50498,0.90382 -0.006,1.32822 -0.22179,0.18408 -0.36608,0.37187 -0.32064,0.41731 0.0454,0.0454 0.97106,-0.14808 2.05692,-0.43005 1.08585,-0.28196 2.21241,-0.50685 2.50345,-0.49975 0.29104,0.007 -0.54239,0.28177 -1.85208,0.61037 -1.30969,0.32859 -2.67891,0.69207 -3.04271,0.80772 l -0.66146,0.21027 0.72761,-0.7735 z m 22.29114,-0.41765 c -3.19345,-0.63311 -6.32645,-1.49698 -6.13251,-1.69092 0.12942,-0.12942 2.39678,-1.00647 6.77945,-2.6224 0.93789,-0.34581 1.74229,-0.59171 1.78756,-0.54645 0.0453,0.0453 -0.15657,0.29845 -0.4485,0.56265 -0.70311,0.63631 -0.66958,1.08896 0.11896,1.60563 l 0.64976,0.42573 -0.6788,0.58388 -0.6788,0.58388 0.71402,0.84857 c 0.39272,0.46671 0.67368,0.83179 0.62436,0.81127 -0.0493,-0.0205 -1.28029,-0.27334 -2.7355,-0.56184 z m 1.41914,-0.68321 c -0.28673,-0.45913 -0.26055,-0.62496 0.1746,-1.10579 0.47964,-0.53 0.48307,-0.5818 0.0544,-0.8217 -0.53577,-0.29983 -0.59746,-1.03938 -0.12678,-1.51986 0.1819,-0.18569 -0.32412,-0.0818 -1.12448,0.23094 -0.80037,0.31271 -2.39865,0.91793 -3.55174,1.34494 -1.15309,0.42701 -2.14056,0.82043 -2.19439,0.87426 -0.17569,0.17568 6.80291,1.76752 7.02123,1.60156 0.0465,-0.0353 -0.0673,-0.30728 -0.25284,-0.60435 z m -17.02955,-0.15578 c 1.25775,-0.31279 1.29033,-0.34266 0.66145,-0.60632 -1.90651,-0.79931 -2.48444,-1.08944 -2.20899,-1.10897 0.1675,-0.0119 1.09261,0.31461 2.0558,0.72551 l 1.75126,0.74709 -1.34838,0.31124 c -0.74161,0.17119 -1.54767,0.29982 -1.79122,0.28585 -0.24356,-0.014 0.15247,-0.17345 0.88008,-0.3544 z m 0.25556,-2.13872 c -1.01369,-0.49773 -1.68949,-0.90858 -1.50179,-0.91301 0.18769,-0.004 0.82431,0.23837 1.4147,0.53957 0.59039,0.30119 1.12346,0.49759 1.18461,0.43644 0.1128,-0.11279 -0.74618,-1.57568 -2.75285,-4.68823 -0.73936,-1.14684 -1.10958,-1.53909 -1.11126,-1.1774 -0.003,0.6488 -0.47802,1.1774 -1.05805,1.1774 -0.28125,0 -0.41708,0.23244 -0.4101,0.70177 0.006,0.40445 -0.15772,0.74928 -0.38645,0.8139 -0.34072,0.0962 -0.34285,0.0745 -0.015,-0.15367 0.31103,-0.2165 0.3233,-0.39424 0.0661,-0.95863 -0.41767,-0.91668 -0.43894,-0.88386 0.54421,-0.83926 0.81632,0.037 0.86417,-0.0132 0.94426,-0.99086 l 0.0844,-1.02987 1.60106,2.48508 c 0.88059,1.36679 2.01213,3.12135 2.51455,3.89902 0.50241,0.77767 0.871,1.45641 0.81909,1.50833 -0.0519,0.0519 -0.92377,-0.31285 -1.93745,-0.81058 z m 8.34339,0.5708 c 0,-0.0526 0.6232,-1.03486 1.38489,-2.18281 1.34944,-2.03375 2.79262,-4.32234 3.5686,-5.65906 0.37312,-0.64275 0.37983,-0.63152 0.23718,0.39688 -0.20064,1.44643 0.0806,1.82444 1.17792,1.58342 l 0.87843,-0.19294 -0.4485,0.68451 c -0.59544,0.90876 -0.56585,1.1729 0.1468,1.31016 l 0.59531,0.11466 -0.60362,0.036 c -0.68499,0.0409 -1.07349,-0.64165 -0.62214,-1.093 0.46414,-0.46414 0.36154,-0.61252 -0.41572,-0.60119 -0.49233,0.007 -0.81375,-0.18402 -1.03065,-0.61309 -0.31153,-0.61624 -0.32349,-0.6094 -1.02432,0.58648 -0.39001,0.6655 -1.2359,2.01207 -1.87977,2.99237 -0.64386,0.9803 -1.17066,1.87966 -1.17066,1.99858 0,0.11892 0.47151,-0.0243 1.0478,-0.31832 0.57628,-0.294 1.14183,-0.52893 1.25677,-0.52206 0.23969,0.0143 -2.59842,1.54357 -2.89988,1.56253 -0.10914,0.007 -0.19844,-0.0306 -0.19844,-0.0832 z m -6.35,-1.4729 c -0.3638,-0.59822 -1.05216,-1.69675 -1.52969,-2.44117 -0.47753,-0.74441 -0.81647,-1.40524 -0.7532,-1.46851 0.0633,-0.0633 0.6921,0.85003 1.3974,2.02955 l 1.28237,2.14458 0.16386,-1.92765 c 0.0901,-1.0602 0.17941,-2.81734 0.19843,-3.90474 0.0325,-1.86031 0.0102,-1.94236 -0.37729,-1.38906 -0.50813,0.72544 -1.06855,0.7523 -1.49367,0.0716 -0.30554,-0.48924 -0.34046,-0.47379 -0.66306,0.29343 -0.29168,0.6937 -0.43927,0.78509 -1.02894,0.6371 l -0.6884,-0.17278 0.58433,0.82063 c 0.32139,0.45134 0.53651,0.86846 0.47805,0.92692 -0.0585,0.0585 -0.49885,-0.49334 -0.97864,-1.22622 -0.94805,-1.44816 -0.92132,-1.98778 0.0531,-1.07235 0.83251,0.7821 1.22248,0.72144 1.41066,-0.21944 0.18439,-0.92197 0.4863,-1.01209 0.88635,-0.26459 0.48374,0.90387 1.18837,0.5113 1.89963,-1.05833 0.22438,-0.49515 0.21852,3.84079 -0.009,6.96947 l -0.17042,2.33927 z m 5.56031,-0.96961 c -0.002,-0.88666 -0.0746,-3.08932 -0.16088,-4.8948 l -0.15683,-3.28268 0.53226,0.83103 c 0.79137,1.23559 1.11014,1.33213 1.78978,0.542 l 0.59879,-0.69614 0.1783,0.81178 c 0.18431,0.83915 0.50521,0.90252 1.80937,0.35732 0.44893,-0.18768 0.46345,-0.1487 0.15975,0.42899 -0.54235,1.03168 -3.49742,5.53023 -3.63277,5.53023 -0.0684,0 0.0834,-0.31715 0.33743,-0.70476 0.25397,-0.38762 0.70787,-1.13176 1.00866,-1.65365 0.3008,-0.52189 0.82106,-1.31731 1.15616,-1.76761 0.77245,-1.03802 0.76402,-1.16565 -0.077,-1.16565 -0.46371,0 -0.7311,-0.17159 -0.82461,-0.52917 -0.13848,-0.52955 -0.60583,-0.7474 -0.60583,-0.28241 0,0.13572 -0.25684,0.32827 -0.57077,0.42791 -0.41965,0.13319 -0.70544,0.0153 -1.07944,-0.44519 -0.50815,-0.6257 -0.50852,-0.62378 -0.35527,1.86169 0.0844,1.36843 0.1534,3.14736 0.1534,3.95318 0,1.36921 0.0269,1.43151 0.41147,0.95154 0.40446,-0.50484 0.40687,-0.50458 0.14115,0.0156 -0.70284,1.37585 -0.80906,1.33807 -0.81315,-0.28919 z m -10.71968,0.49311 c -0.43656,-0.23998 -1.44859,-0.70924 -2.24896,-1.04278 -1.17526,-0.48977 -1.30251,-0.59683 -0.66146,-0.55647 0.43656,0.0275 0.85328,0.1288 0.92604,0.22514 0.0728,0.0963 0.84667,0.54215 1.7198,0.99068 0.87312,0.44853 1.46843,0.81647 1.32291,0.81764 -0.14552,0.001 -0.62177,-0.19422 -1.05833,-0.43421 z m 17.17028,-0.74986 c 1.29449,-0.64562 2.48512,-1.16806 2.64584,-1.16097 0.16072,0.007 -0.82636,0.54287 -2.19351,1.19063 -3.20215,1.51718 -3.51292,1.4968 -0.45233,-0.0297 z m -19.4816,-18.48804 c -0.3981,-0.20767 -0.97637,-0.55449 -1.28506,-0.7707 -0.5607,-0.39273 -0.56051,-0.39348 0.19465,-0.77954 0.41574,-0.21253 1.17261,-0.47526 1.68194,-0.58382 0.50932,-0.10857 1.0244,-0.33127 1.14462,-0.49489 0.14711,-0.20021 0.1859,-0.17594 0.11863,0.0742 -0.055,0.20444 -0.60182,0.51989 -1.21521,0.70101 -2.13991,0.63184 -2.13302,0.62246 -0.97408,1.32538 1.32697,0.80484 2.94518,0.84011 4.40382,0.096 0.5915,-0.30176 1.0054,-0.4353 0.91977,-0.29675 -0.60664,0.98156 -3.65202,1.42664 -4.98908,0.72914 z m 17.52486,-0.009 c -0.3638,-0.21037 -0.9228,-0.5224 -1.24221,-0.6934 -0.31942,-0.17099 -0.63764,-0.45911 -0.70716,-0.64027 -0.0695,-0.18116 0.47168,0.0731 1.20266,0.565 1.01379,0.68223 1.60768,0.89439 2.50363,0.89439 1.2053,0 3.39825,-0.90162 3.15403,-1.29677 -0.0742,-0.11998 -0.70343,-0.36517 -1.3984,-0.54488 -0.69498,-0.1797 -1.40827,-0.3693 -1.5851,-0.42132 -0.22584,-0.0665 -0.11934,-0.53621 0.35788,-1.57859 0.37367,-0.8162 0.61372,-1.54967 0.53346,-1.62994 -0.0803,-0.0803 -0.53626,-0.01 -1.01331,0.15643 -0.47705,0.1663 -0.75101,0.19632 -0.60881,0.0667 0.14219,-0.12961 0.64549,-0.36478 1.11844,-0.52259 0.80399,-0.26828 0.85989,-0.24739 0.85989,0.32136 0,0.33455 -0.29431,1.1618 -0.65401,1.83832 -0.59349,1.11619 -0.6101,1.23003 -0.17943,1.23003 0.86545,0 2.97649,0.84681 2.87575,1.15356 -0.0545,0.1659 -0.56607,0.56758 -1.13684,0.89261 -1.20815,0.68798 -3.08615,0.78434 -4.08047,0.20936 z m -12.16734,-1.06491 c -7.9e-4,-0.14552 0.2563,-0.6813 0.57141,-1.19062 0.68001,-1.09914 0.7637,-2.95746 0.18257,-4.05436 -0.3496,-0.65991 -0.43586,-0.69879 -0.73923,-0.33324 -0.1889,0.22761 -0.50318,0.86145 -0.6984,1.40853 -0.19522,0.54708 -0.36018,0.78159 -0.36656,0.52113 -0.0178,-0.72606 1.03448,-2.617 1.39165,-2.50077 0.55529,0.18068 1.10083,1.61223 1.08718,2.85285 -0.009,0.81363 -0.24141,1.58228 -0.72016,2.38125 -0.38882,0.6489 -0.70763,1.06075 -0.70846,0.91523 z m 9.56449,-1.59883 c -0.16916,-0.37126 -0.30444,-1.17544 -0.30063,-1.78705 0.008,-1.29011 0.84116,-3.38605 1.14835,-2.88901 0.10937,0.17697 0.0844,0.32177 -0.0555,0.32177 -0.68976,0 -1.10542,3.23414 -0.54923,4.27339 0.15731,0.29394 0.23618,0.58427 0.17527,0.64518 -0.0609,0.0609 -0.24915,-0.19301 -0.41831,-0.56428 z M 133.5094,154.7502 c -0.16916,-0.37127 -0.30756,-0.96708 -0.30756,-1.32404 0,-0.76679 0.68154,-0.87361 1.47079,-0.23053 0.52878,0.43085 0.35176,0.41994 -0.80933,-0.0499 -0.47989,-0.19419 -0.54575,0.71097 -0.11086,1.52357 0.15732,0.29394 0.23619,0.58427 0.17527,0.64518 -0.0609,0.0609 -0.24915,-0.19301 -0.41831,-0.56427 z m 15.65748,-1.11315 c -0.22667,-0.5457 -0.53775,-1.23031 -0.69128,-1.52135 -0.23947,-0.45397 -0.22278,-0.48271 0.11745,-0.20223 0.21813,0.17982 0.55464,0.80583 0.74781,1.39113 0.34434,1.04338 0.36201,1.05509 0.90349,0.5991 0.55212,-0.46495 0.55214,-0.46492 0.0482,0.13023 -0.27721,0.32742 -0.55118,0.59531 -0.60881,0.59531 -0.0576,0 -0.29024,-0.44649 -0.51691,-0.99219 z m -6.44002,-4.80413 c 2.03573,-0.18561 3.19617,-0.89141 3.97472,-2.41751 0.5016,-0.98321 0.67969,-1.84034 0.38239,-1.84034 -0.35426,0 -2.1344,0.85519 -2.53524,1.21795 -0.5034,0.45557 -0.56403,0.39122 -1.02288,-1.08566 -0.18085,-0.58208 -0.50889,-1.35599 -0.72898,-1.71979 -0.36819,-0.60863 -0.36587,-0.62903 0.0291,-0.25552 0.23609,0.22327 0.65252,1.03991 0.92539,1.81475 0.30594,0.86876 0.57217,1.28578 0.69448,1.08787 0.21791,-0.35259 2.18614,-1.30912 2.71276,-1.31837 1.04038,-0.0183 -0.28168,2.84285 -1.83282,3.96648 -0.95136,0.68917 -1.29721,0.78488 -2.70479,0.74858 l -1.61395,-0.0416 z m -2.79132,-0.55059 c -0.77594,-0.49729 -1.72428,-1.90082 -2.08056,-3.07918 -0.16298,-0.53905 -0.11814,-0.55283 1.07395,-0.33013 0.68421,0.12783 1.44107,0.41074 1.6819,0.62869 0.62658,0.56704 0.7069,0.51235 0.88522,-0.6028 0.0879,-0.5495 0.34066,-1.23411 0.56175,-1.52136 0.3603,-0.46812 0.36096,-0.42027 0.006,0.46142 -0.2176,0.54103 -0.39564,1.21861 -0.39564,1.50574 0,0.79538 -0.40889,0.88336 -1.37316,0.29547 -0.9533,-0.58121 -2.06643,-0.71116 -2.06643,-0.24124 0,0.36392 1.09945,2.34892 1.3055,2.35702 0.19021,0.007 1.51847,1.04018 1.34034,1.0421 -0.0728,8e-4 -0.49541,-0.23129 -0.93922,-0.51573 z m -3.96982,-40.77198 c -0.2309,-0.3736 0.27905,-0.88355 0.65265,-0.65265 0.1582,0.0978 0.28764,0.34934 0.28764,0.55903 0,0.44546 -0.68094,0.51326 -0.94029,0.0936 z m 13.95061,-0.15136 c 0.0516,-0.26787 0.27076,-0.48704 0.48705,-0.48704 0.56714,0 0.48522,0.76879 -0.0938,0.8803 -0.35359,0.0681 -0.46135,-0.0397 -0.39326,-0.39326 z m -16.44991,-1.54538 c 0,-0.21828 0.1786,-0.39687 0.39688,-0.39687 0.21828,0 0.39687,0.17859 0.39687,0.39687 0,0.21828 -0.17859,0.39688 -0.39687,0.39688 -0.21828,0 -0.39688,-0.1786 -0.39688,-0.39688 z m 19.18114,0.13043 c -0.0906,-0.14655 0.0266,-0.33985 0.26038,-0.42956 0.50658,-0.1944 0.78891,0.0198 0.54541,0.41382 -0.21971,0.35549 -0.59132,0.36275 -0.80579,0.0157 z m -19.44572,-3.28981 c 0,-0.20969 0.10557,-0.44651 0.23461,-0.52625 0.29134,-0.18007 0.88431,0.49414 0.64504,0.73342 -0.31479,0.31479 -0.87965,0.18176 -0.87965,-0.20717 z m 19.71146,0.11668 c -0.21577,-0.34913 0.1006,-0.84457 0.41516,-0.65016 0.32136,0.19861 0.31928,0.91474 -0.003,0.91474 -0.13694,0 -0.32256,-0.11906 -0.4125,-0.26458 z M 129.15041,102.335 c -0.3635,-0.3635 -0.17495,-0.92492 0.28112,-0.83709 0.25466,0.049 0.46302,0.25621 0.46302,0.46037 0,0.41774 -0.4668,0.65405 -0.74414,0.37672 z m 27.71739,-0.11676 c -0.27266,-0.44118 0.34058,-0.94708 0.70557,-0.58209 0.30531,0.30531 0.11423,0.86972 -0.29445,0.86972 -0.12834,0 -0.31334,-0.12943 -0.41112,-0.28763 z m -30.69167,-2.381255 c -0.27265,-0.441171 0.34058,-0.947078 0.70557,-0.582083 0.30531,0.305308 0.11423,0.869718 -0.29444,0.869718 -0.12835,0 -0.31335,-0.129435 -0.41113,-0.287635 z m 33.60209,0 c -0.27266,-0.441171 0.34057,-0.947078 0.70557,-0.582083 0.30531,0.305308 0.11422,0.869718 -0.29445,0.869718 -0.12834,0 -0.31335,-0.129435 -0.41112,-0.287635 z m -34.2493,-3.659065 c 0,-0.324996 0.17084,-0.551215 0.41628,-0.551215 0.24639,0 0.38136,0.180015 0.33073,0.441095 -0.12873,0.663779 -0.74701,0.754922 -0.74701,0.11012 z m 35.01631,0.09883 c -0.19964,-0.520245 0.0366,-0.759113 0.55428,-0.560456 0.23254,0.08923 0.3376,0.327549 0.24769,0.561853 -0.20058,0.52269 -0.60113,0.521994 -0.80197,-0.0013 z m -33.28788,-2.752746 c -0.23263,-0.376407 0.064,-0.807717 0.55555,-0.807717 0.23181,0 0.36461,0.185885 0.31511,0.441094 -0.10306,0.531408 -0.63134,0.753857 -0.87066,0.366623 z m 31.46254,-0.03702 c -0.27266,-0.441171 0.34057,-0.947078 0.70557,-0.582083 0.3053,0.305308 0.11422,0.86972 -0.29445,0.86972 -0.12835,0 -0.31335,-0.129437 -0.41112,-0.287637 z M 128.5449,75.373759 c -0.093,-0.370578 -0.0953,-0.747609 -0.005,-0.837848 0.0902,-0.09024 0.16406,0.09764 0.16406,0.417502 0,0.319862 0.18783,0.653642 0.4174,0.741735 0.69686,0.267415 1.10553,-0.462401 0.96869,-1.729959 l -0.12482,-1.156311 -0.64462,0.759436 c -0.42617,0.50207 -0.55511,0.572733 -0.38049,0.208507 0.40632,-0.847542 1.0526,-1.317577 1.19336,-0.867934 0.36464,1.164741 0.36017,2.369506 -0.0102,2.73983 -0.62556,0.625565 -1.3856,0.493164 -1.57838,-0.274958 z m 28.52236,0.35628 c -0.34645,-0.346448 -0.39584,-1.901979 -0.0855,-2.691911 0.17686,-0.450151 0.25884,-0.419787 0.88916,0.329301 0.38188,0.453845 0.77193,1.069652 0.86677,1.368462 0.32067,1.010332 -0.91743,1.747168 -1.67045,0.994148 z m 1.46852,-0.47625 c 0.0394,-0.218281 -0.17815,-0.803799 -0.48342,-1.301152 -0.43411,-0.707231 -0.60679,-0.822539 -0.79249,-0.529167 -0.28373,0.448268 -0.32287,1.929368 -0.058,2.194259 0.31501,0.315002 1.25777,0.05778 1.33389,-0.36394 z m -33.09505,-1.76389 c -0.097,-0.09701 -0.17457,-0.305371 -0.17234,-0.463021 0.003,-0.190537 0.0692,-0.184695 0.19844,0.01744 0.10691,0.16722 0.49204,0.359363 0.85584,0.426977 l 0.66146,0.122936 -0.6835,0.03603 c -0.37593,0.01982 -0.76289,-0.04334 -0.8599,-0.140359 z m 33.54584,-0.99604 -1.31077,-1.197157 2.04548,-0.0058 c 1.99497,-0.0057 2.04983,0.01151 2.22177,0.696579 0.22312,0.888947 -0.16729,1.524148 -0.99879,1.625058 -0.46245,0.05612 -1.02067,-0.262856 -1.95769,-1.118648 z m 2.65798,-0.0182 c 0,-0.786104 -0.0153,-0.794414 -1.5875,-0.862563 l -1.5875,-0.06881 1.00636,0.945253 c 1.26093,1.184373 2.16864,1.178563 2.16864,-0.01386 z m -33.74862,0.06615 0.9118,-0.992188 h -1.6394 c -1.25102,0 -1.63941,0.09032 -1.63941,0.38126 0,0.209692 -0.11745,0.453853 -0.26101,0.542578 -0.16638,0.10283 -0.17968,-0.05939 -0.0367,-0.447405 0.20441,-0.554614 0.40979,-0.615699 2.31062,-0.687173 1.14744,-0.04315 1.96762,0.01672 1.82261,0.133024 -0.14501,0.116314 -0.73991,0.627864 -1.32199,1.136783 l -1.05834,0.925308 z m -2.16857,-3.130047 c -0.67266,-0.391788 -0.63806,-2.24776 0.0487,-2.615333 0.28148,-0.15064 0.70389,-0.273891 0.93871,-0.273891 0.50179,0 3.0793,2.644801 2.88457,2.959881 -0.19029,0.307906 -3.32013,0.250793 -3.87203,-0.07066 z m 3.50288,-0.177245 c -0.005,-0.359278 -2.1458,-2.447396 -2.50895,-2.447396 -0.88718,0 -1.19237,0.340202 -1.19237,1.329177 0,0.558819 0.14738,1.067443 0.33073,1.141428 0.53084,0.214199 3.37372,0.194623 3.37059,-0.0232 z m 28.33234,0 c 0.90058,-1.196678 2.51398,-2.711979 2.88756,-2.711979 0.78086,0 1.59129,0.795253 1.59129,1.561497 0,1.219594 -0.70738,1.613503 -2.89751,1.613503 -1.79425,0 -1.90531,-0.03252 -1.58134,-0.463021 z m 3.78952,-0.145338 c 0.72937,-0.533334 0.47228,-1.832578 -0.42469,-2.146144 -0.62551,-0.218673 -0.83841,-0.134784 -1.66635,0.656587 -0.52207,0.49901 -1.06675,1.11565 -1.2104,1.370312 -0.23576,0.417946 -0.11067,0.463021 1.28505,0.463021 0.85068,0 1.75773,-0.154647 2.01639,-0.343776 z m -31.25911,-27.82476 c -0.78455,-0.365259 -1.38907,-0.822064 -1.38907,-1.04965 0,-0.600127 1.17423,-1.257138 2.51736,-1.408529 0.65275,-0.07357 1.18681,-0.164815 1.18681,-0.202758 0,-0.03794 -0.23551,-0.588007 -0.52336,-1.222361 -0.44997,-0.991646 -0.73545,-2.873165 -0.43595,-2.873165 0.55783,0 2.56028,0.961143 3.12034,1.49771 l 0.71332,0.683404 0.18569,-1.024411 c 0.21995,-1.21347 0.71156,-2.251209 1.29641,-2.736588 0.57489,-0.477119 1.06309,0.204578 1.4203,1.983242 0.39569,1.97029 -0.037,3.710447 -1.23963,4.985996 -1.93771,2.055117 -4.34348,2.535099 -6.85222,1.36711 z m 4.85961,-0.248284 c 1.92687,-0.897201 2.77374,-2.111426 2.94296,-4.219572 0.13249,-1.650588 -0.26186,-3.611523 -0.72628,-3.611523 -0.45293,0 -1.25556,1.332853 -1.41931,2.356893 -0.22636,1.415532 -0.58825,1.557984 -1.5247,0.600166 -0.76169,-0.779081 -2.20524,-1.334275 -2.55634,-0.983179 -0.0947,0.09468 0.0434,0.731092 0.30681,1.41424 0.73749,1.91253 0.70131,2.287603 -0.22911,2.374872 -0.98074,0.09199 -2.77812,0.848002 -2.77812,1.16853 0,0.4033 2.72775,1.529975 3.70416,1.529975 0.50933,0 1.53529,-0.283681 2.27993,-0.630402 z m 19.07099,0.387722 c -2.25564,-1.052537 -3.4231,-2.853743 -3.41743,-5.272585 0.003,-1.399371 0.77081,-3.545719 1.21579,-3.399861 0.53222,0.174453 1.49244,1.842003 1.65844,2.880096 0.18811,1.176382 0.40191,1.25847 0.97997,0.376247 0.40846,-0.623388 2.95405,-1.69709 3.27133,-1.379811 0.13587,0.135873 -0.54346,2.402843 -1.09987,3.670326 -0.17315,0.39443 -0.0574,0.46302 0.78121,0.46302 1.06737,0 3.10214,0.987607 2.96793,1.440533 -0.0455,0.153593 -0.72391,0.606681 -1.50754,1.006863 -1.67235,0.854024 -3.32372,0.92729 -4.84983,0.215172 z m 4.51211,-0.404022 c 0.76398,-0.355686 1.38906,-0.749189 1.38906,-0.874453 0,-0.36438 -1.79632,-1.119509 -2.66311,-1.119509 -1.04763,0 -1.19658,-0.509994 -0.53035,-1.815891 0.58897,-1.154493 0.71629,-2.152859 0.27454,-2.152859 -0.60334,0 -2.17478,0.817391 -2.61383,1.359598 -0.60438,0.746374 -0.99224,0.482895 -1.21304,-0.824029 -0.17421,-1.031098 -1.00545,-2.387652 -1.46306,-2.387652 -0.33342,0 -0.78378,1.787289 -0.78551,3.117352 -0.002,1.228267 0.54511,2.779833 1.26539,3.591194 0.66918,0.753802 2.96324,1.752951 4.0248,1.752951 0.50932,0 1.55112,-0.291016 2.31511,-0.646702 z"
         id="path1164" />
      <path
         style="fill:#79b747;stroke-width:0.264583"
         d="m 138.24754,233.22714 c -0.4181,-0.26459 -0.59737,-1.34002 -0.22337,-1.34002 0.12979,0 0.1624,-0.11906 0.0725,-0.26458 -0.0899,-0.14552 -0.0374,-0.26459 0.11668,-0.26459 0.15411,0 0.25043,-0.0893 0.21405,-0.19843 -0.0703,-0.21078 0.15132,-0.33073 0.61093,-0.33073 0.15411,0 0.20661,0.11906 0.11668,0.26458 -0.0899,0.14552 -0.0304,0.26458 0.13229,0.26458 0.1627,0 0.22731,0.11084 0.14359,0.2463 -0.0837,0.13547 -0.0312,0.32109 0.11668,0.41249 0.38022,0.23499 0.33428,0.56095 -0.14688,1.04211 -0.4772,0.4772 -0.62978,0.49947 -1.15311,0.16829 z m 12.77059,-0.0832 c -0.11364,-0.1819 -0.23742,-0.50932 -0.27507,-0.7276 -0.0885,-0.51279 0.44691,-1.85209 0.74034,-1.85209 0.365,0 0.9497,1.40911 0.8234,1.98438 -0.18623,0.84825 -0.91914,1.18683 -1.28867,0.59531 z m -15.89806,-0.32314 c -0.40419,-0.46701 -0.42945,-0.93363 -0.0505,-0.93363 0.15411,0 0.20661,-0.11906 0.11668,-0.26458 -0.0899,-0.14552 -0.0304,-0.26459 0.13229,-0.26459 0.1627,0 0.22223,-0.11906 0.13229,-0.26458 -0.0899,-0.14552 0.0794,-0.26458 0.37622,-0.26458 0.56728,0 0.94168,0.85934 0.76899,1.76501 -0.11447,0.60032 -1.03084,0.74123 -1.47594,0.22695 z m 13.23649,0.0586 c -0.42658,-0.55131 -0.60291,-1.25677 -0.31413,-1.25677 0.14954,0 0.19831,-0.11907 0.10837,-0.26459 -0.0899,-0.14552 -0.0374,-0.26458 0.11668,-0.26458 0.1541,0 0.28019,-0.17859 0.28019,-0.39688 0,-0.67082 0.46113,-0.43941 0.65376,0.32808 0.10007,0.39873 0.30255,0.79949 0.44994,0.89059 0.17365,0.10732 0.14386,0.3644 -0.0846,0.73025 -0.39823,0.63767 -0.83278,0.72165 -1.21019,0.2339 z m -16.24682,-0.0451 c -0.0186,-0.0116 -0.063,-0.31185 -0.0986,-0.66733 -0.094,-0.93684 1.39825,-2.07251 1.8221,-1.38671 0.0734,0.11877 -0.009,0.62478 -0.18397,1.12448 -0.22989,0.65798 -0.4813,0.91435 -0.91159,0.92956 -0.32679,0.0116 -0.60936,0.0116 -0.62793,0 z m 21.71399,0.009 c -0.15171,-0.29161 -0.1079,-2.07035 0.0534,-2.17006 0.39279,-0.24276 1.48353,0.79469 1.48353,1.41106 0,0.32818 -0.0744,0.61189 -0.16537,0.63046 -0.29387,0.06 -1.3555,0.1595 -1.3716,0.12854 z m -10.43543,-1.03228 c -0.14552,-0.17637 -0.26458,-0.67785 -0.26458,-1.11442 0,-0.44942 -0.22448,-0.99986 -0.51748,-1.26889 -0.46052,-0.42284 -0.97752,-0.46653 -4.69673,-0.39687 l -4.17924,0.0783 9e-4,-0.66145 9e-4,-0.66146 h 4.22702 c 2.82154,0 4.3688,-0.10346 4.65346,-0.31114 0.30081,-0.21948 0.40621,-0.64821 0.35776,-1.45521 -0.0378,-0.62924 -0.0485,-3.74196 -0.0238,-6.91716 0.044,-5.6645 0.0551,-5.7715 0.5889,-5.68854 0.49753,0.0773 0.55692,0.32192 0.69512,2.86267 0.0831,1.52797 0.16574,4.56394 0.1836,6.7466 0.0266,3.24834 0.10902,4.04506 0.45423,4.3905 0.40895,0.40921 3.22124,0.87443 3.51432,0.58135 0.0797,-0.0797 0.76322,-0.15933 1.51896,-0.17698 1.13962,-0.0266 1.38677,-0.11883 1.4485,-0.54045 0.0409,-0.27961 -0.0966,-0.75258 -0.3057,-1.05106 -0.73203,-1.04513 -0.49175,-1.60054 0.77936,-1.80145 0.7,-0.11064 0.78939,0.81018 0.19235,1.98124 -0.53701,1.05333 -0.33781,1.51192 0.65674,1.51192 0.43104,0 0.69025,-0.27601 1.01025,-1.07577 0.23674,-0.59168 0.3617,-1.18699 0.2777,-1.32292 -0.16635,-0.26915 -0.0752,-0.30456 0.98067,-0.3811 0.5964,-0.0432 0.69498,0.0458 0.63838,0.57674 -0.0368,0.34532 -0.41701,0.89298 -0.84488,1.21702 -0.80295,0.6081 -0.90577,0.88134 -0.54529,1.44905 0.4567,0.71926 -0.20403,0.83282 -4.54331,0.78083 -3.94936,-0.0473 -4.49457,-0.001 -4.91388,0.41762 -0.31308,0.31254 -0.41827,0.68353 -0.31287,1.10345 0.29377,1.17047 -0.38432,1.91183 -1.03138,1.12762 z m -13.27928,-2.27178 c -0.45402,-0.72699 -0.26082,-1.4412 0.40309,-1.49011 0.31518,-0.0232 0.57306,0.064 0.57306,0.19377 0,0.12978 0.11084,0.16748 0.24631,0.0838 0.13546,-0.0837 0.32228,-0.0293 0.41515,0.12099 0.0929,0.15026 0.27147,0.2098 0.39688,0.13229 0.12541,-0.0775 0.31417,-0.002 0.41947,0.16886 0.11573,0.18725 0.0771,0.23908 -0.0978,0.13104 -0.15906,-0.0983 -0.41196,0.0321 -0.562,0.28985 -0.15004,0.25772 -0.27642,0.37078 -0.28084,0.25124 -0.004,-0.11953 -0.19515,-0.0302 -0.42382,0.19844 -0.53673,0.53673 -0.71239,0.52381 -1.08955,-0.0801 z m 25.66857,-0.17033 -0.57529,-0.65668 h 0.72081 c 0.39645,0 0.84991,-0.1291 1.00769,-0.28688 0.35858,-0.35857 1.17221,0.69372 0.96132,1.2433 -0.22936,0.59769 -1.48415,0.41982 -2.11453,-0.29974 z m -7.11476,-2.48104 c 0.0805,-0.13027 -0.004,-0.29471 -0.18866,-0.36543 -0.18427,-0.0707 -0.36041,-0.43505 -0.39141,-0.80964 -0.031,-0.37459 -0.0879,-0.83523 -0.12646,-1.02364 -0.0385,-0.1884 0.0787,-0.31279 0.26065,-0.27641 0.1819,0.0364 0.33072,-0.0737 0.33072,-0.24456 0,-0.17089 0.28045,-0.0472 0.62322,0.27478 l 0.62322,0.58549 -0.51857,1.04813 c -0.28522,0.57648 -0.5727,1.04814 -0.63884,1.04814 -0.0661,0 -0.0544,-0.10659 0.0261,-0.23686 z m -15.26255,-0.47469 c -0.25466,-0.0666 -0.46302,-0.23133 -0.46302,-0.36618 0,-0.13486 -0.14883,-0.21542 -0.33073,-0.17904 -0.49917,0.0998 -0.40842,-1.41468 0.10415,-1.738 0.63267,-0.39908 1.15262,0.26565 1.15262,1.47359 0,0.5458 0,0.97847 0,0.96149 0,-0.017 -0.20836,-0.0853 -0.46302,-0.15186 z m 2.83109,-0.32545 c 0.0827,-0.13379 -0.02,-0.41363 -0.22828,-0.62187 -0.54873,-0.54873 -0.68316,-1.97459 -0.15542,-1.64842 0.14553,0.0899 0.26459,0.0287 0.26459,-0.13608 0,-0.16478 0.1998,-0.2611 0.44399,-0.21405 0.47499,0.0915 1.01663,1.54075 0.57584,1.54075 -0.14152,0 -0.18373,0.11907 -0.0938,0.26459 0.0899,0.14552 0.0374,0.26458 -0.11668,0.26458 -0.15411,0 -0.2802,0.17859 -0.2802,0.39687 0,0.21829 -0.12609,0.39688 -0.28019,0.39688 -0.15411,0 -0.21255,-0.10946 -0.12986,-0.24325 z m 2.65901,-0.0213 c 0.0899,-0.14552 0.0304,-0.26459 -0.13229,-0.26459 -0.1627,0 -0.22731,-0.11083 -0.14359,-0.2463 0.0837,-0.13546 0.0312,-0.32109 -0.11668,-0.41249 -0.39517,-0.24423 -0.32744,-1.11421 0.0995,-1.27804 0.88193,-0.33843 1.35244,-0.0157 1.30858,0.89746 -0.0235,0.49034 -0.17312,0.93496 -0.33237,0.98805 -0.15926,0.0531 -0.22227,0.20541 -0.14001,0.3385 0.0823,0.1331 -0.0431,0.24199 -0.27855,0.24199 -0.23546,0 -0.35452,-0.11906 -0.26459,-0.26458 z m -1.85475,-23.55224 c -0.0914,-0.14789 -0.27456,-0.20191 -0.40702,-0.12005 -0.32137,0.19862 -1.35674,-0.36806 -1.79123,-0.98038 -0.19185,-0.27038 -0.47814,-0.41168 -0.63619,-0.314 -0.16134,0.0997 -0.21208,0.0558 -0.11571,-0.10015 0.0944,-0.15275 -0.0138,-0.3489 -0.24047,-0.43588 -0.22667,-0.087 -0.33802,-0.27805 -0.24745,-0.4246 0.0906,-0.14655 0.0684,-0.26645 -0.0494,-0.26645 -0.49681,0 -0.15783,-1.26616 0.51356,-1.91823 0.40018,-0.38867 0.7276,-0.65389 0.7276,-0.58937 0,0.0645 0.43056,-0.12453 0.95681,-0.4201 0.70806,-0.3977 1.3615,-0.5228 2.51354,-0.48123 0.8562,0.0309 1.55673,0.16844 1.55673,0.30565 0,0.13721 0.1786,0.18094 0.39688,0.0972 0.21828,-0.0838 0.39687,-0.0299 0.39687,0.1196 0,0.14954 0.1089,0.20459 0.24199,0.12234 0.13309,-0.0823 0.28821,-0.0109 0.3447,0.15859 0.0565,0.16948 0.34828,0.34562 0.64842,0.39142 0.51158,0.0781 0.55709,-0.0865 0.72761,-2.63209 0.10828,-1.61659 0.0662,-3.4393 -0.10391,-4.50437 -0.15718,-0.98394 -0.22106,-1.89373 -0.14194,-2.02174 0.0791,-0.12802 0.0209,-0.30874 -0.12937,-0.40161 -0.15026,-0.0929 -0.20979,-0.27147 -0.13229,-0.39688 0.0775,-0.12541 0.018,-0.304 -0.13229,-0.39687 -0.15027,-0.0929 -0.20471,-0.27969 -0.12099,-0.41516 0.0837,-0.13546 0.0559,-0.24639 -0.0618,-0.24651 -0.11773,-1.2e-4 -0.24859,-0.5359 -0.2908,-1.19063 -0.0422,-0.65472 0.0289,-1.19041 0.15795,-1.19041 0.4092,0 1.37271,0.97115 1.17075,1.18003 -0.10649,0.11015 0.036,0.1576 0.31673,0.10544 0.2807,-0.0522 0.49918,-0.21391 0.48552,-0.35943 -0.0136,-0.14552 0.0987,-0.41341 0.24965,-0.59531 0.15097,-0.1819 0.17061,-0.33255 0.0437,-0.33478 -0.12696,-0.002 -0.063,-0.11028 0.14205,-0.2401 0.78419,-0.49644 1.09298,-0.0249 0.97051,1.48182 -0.0645,0.79394 -0.25461,1.60894 -0.42241,1.81113 -0.1678,0.20218 -0.23456,0.48171 -0.14837,0.62118 0.0862,0.13946 0.0243,0.2977 -0.13748,0.35164 -0.19882,0.0663 -0.30658,1.58789 -0.33238,4.69346 -0.0348,4.19094 0.003,4.6014 0.4248,4.66362 0.25464,0.0375 0.57844,-0.12961 0.71956,-0.37139 0.14112,-0.24178 0.2602,-0.34059 0.26463,-0.21958 0.004,0.12101 0.43143,-0.0417 0.94889,-0.36146 0.76487,-0.47272 1.22888,-0.56064 2.48081,-0.47009 0.97292,0.0704 1.70512,0.27654 1.98847,0.5599 0.24668,0.24668 0.59784,0.4485 0.78036,0.4485 0.52161,0 1.36453,1.11757 1.446,1.91714 0.0833,0.81777 -0.84619,2.3162 -1.43679,2.3162 -0.20837,0 -0.37886,0.12609 -0.37886,0.2802 0,0.15411 -0.11906,0.20661 -0.26459,0.11667 -0.14552,-0.0899 -0.26458,-0.0304 -0.26458,0.13229 0,0.1627 -0.11084,0.22732 -0.2463,0.1436 -0.13547,-0.0837 -0.31458,-0.0418 -0.39802,0.0933 -0.20931,0.33866 -4.10172,0.21461 -4.33022,-0.138 -0.21555,-0.33262 -1.79899,-1.08046 -2.56608,-1.21194 -0.29105,-0.0499 -0.7466,0.15039 -1.01235,0.44505 -0.26575,0.29466 -0.40551,0.35715 -0.31057,0.13887 0.0949,-0.21828 -0.0746,-0.1158 -0.37672,0.22775 -0.30213,0.34354 -0.54932,0.53732 -0.54932,0.43062 0,-0.1067 -0.17338,-0.0501 -0.38529,0.12576 -0.2119,0.17587 -0.50133,0.24803 -0.64317,0.16037 -0.14184,-0.0877 -0.33268,-0.0384 -0.42408,0.10951 -0.0914,0.1479 -0.62839,0.2689 -1.1933,0.2689 -0.5649,0 -1.10188,-0.121 -1.19329,-0.2689 z m 5.49277,-35.62507 c -0.23171,-0.0935 -0.33324,-0.89918 -0.33914,-2.69109 -0.006,-1.69522 -0.12592,-2.71239 -0.35689,-3.01655 -0.19166,-0.2524 -0.426,-0.38139 -0.52075,-0.28663 -0.0948,0.0948 -0.17228,0.0264 -0.17228,-0.15202 0,-0.17837 -0.1199,-0.25019 -0.26645,-0.15962 -0.14655,0.0906 -0.33762,-0.0208 -0.4246,-0.24745 -0.087,-0.22667 -0.25651,-0.35134 -0.37673,-0.27704 -0.34009,0.21019 -0.57204,-0.35021 -0.38668,-0.93424 0.18354,-0.57826 0.91289,-0.69795 1.38376,-0.22709 0.16484,0.16485 0.48631,0.22812 0.71437,0.1406 0.34454,-0.13221 0.41466,-0.69478 0.41466,-3.32681 0,-1.84512 0.11146,-3.23657 0.26696,-3.33267 0.14682,-0.0907 0.50117,-0.0906 0.78744,2.1e-4 0.49296,0.15646 0.51169,0.33898 0.35401,3.4502 l -0.1665,3.28501 0.63582,0.23886 c 0.36662,0.13773 0.67339,0.13977 0.72456,0.005 0.0488,-0.12873 0.19764,-0.16676 0.33073,-0.0845 0.13309,0.0823 0.24198,0.0397 0.24198,-0.0945 0,-0.20611 0.4996,-0.23686 1.38907,-0.0855 0.64683,0.11007 -0.0162,0.90968 -1.37255,1.65535 -0.86404,0.47501 -1.51694,0.95109 -1.45089,1.05796 0.066,0.10687 -0.004,0.27102 -0.15572,0.36477 -0.17308,0.10697 -0.22756,0.99152 -0.14627,2.37493 0.10725,1.82517 0.0592,2.23147 -0.27931,2.36137 -0.22487,0.0863 -0.42888,0.14749 -0.45336,0.136 -0.0245,-0.0115 -0.19334,-0.0809 -0.37524,-0.15434 z m -0.49153,-34.3529 c -1.42536,-1.46494 -1.50756,-1.66716 -1.55957,-3.83652 -0.0279,-1.16413 0.0464,-2.11661 0.16506,-2.11661 0.11869,0 0.15458,-0.15951 0.0798,-0.35448 -0.0748,-0.19497 0.048,-0.5072 0.27289,-0.69386 0.2249,-0.18665 0.40891,-0.4579 0.40891,-0.60277 0,-0.14487 0.35132,-0.66353 0.78071,-1.15257 0.87551,-0.99716 1.33622,-2.68994 0.81908,-3.00956 -0.17714,-0.10947 -0.3119,-0.27503 -0.29947,-0.3679 0.063,-0.47083 -0.0201,-0.47683 -0.50657,-0.0366 -0.29104,0.26339 -0.52916,0.73045 -0.52916,1.03792 0,0.30747 -0.31329,1.02007 -0.6962,1.58358 -0.38291,0.5635 -0.53173,0.92912 -0.33073,0.8125 0.20101,-0.11662 0.0678,0.11575 -0.29599,0.51638 -0.77442,0.85281 -1.36915,1.20444 -2.33267,1.37916 -0.38432,0.0697 -0.76083,0.20874 -0.83669,0.309 -0.20058,0.26509 -2.65241,0.22399 -2.6519,-0.0445 2.3e-4,-0.1247 -0.16831,-0.16199 -0.37455,-0.0828 -0.20624,0.0791 -0.44352,-0.0347 -0.5273,-0.25304 -0.0844,-0.21999 -0.28933,-0.31227 -0.45965,-0.207 -0.19108,0.1181 -0.23592,0.0744 -0.11855,-0.11552 0.10384,-0.16801 0.0826,-0.30547 -0.0472,-0.30547 -0.27706,0 -0.25542,-0.7924 0.0345,-1.26142 0.11084,-0.17934 0.12795,-0.44514 0.038,-0.59066 -0.0899,-0.14552 -0.0304,-0.26458 0.13229,-0.26458 0.1627,0 0.22223,-0.11906 0.13229,-0.26459 -0.0899,-0.14552 -0.0304,-0.26458 0.13229,-0.26458 0.1627,0 0.23149,-0.10408 0.15287,-0.23129 -0.0786,-0.12722 0.15247,-0.55007 0.51355,-0.93968 0.36108,-0.38961 0.65832,-0.61294 0.66055,-0.49631 0.002,0.11664 0.11695,0.0335 0.25494,-0.1848 0.13798,-0.21828 0.34451,-0.40516 0.45897,-0.41528 0.11444,-0.0101 0.72799,-0.16728 1.36344,-0.34924 0.9262,-0.26522 1.52629,-0.26455 3.02565,0.003 1.4484,0.25884 1.89418,0.26264 1.9761,0.0169 0.0582,-0.17456 0.21469,-0.25008 0.34778,-0.16782 0.13309,0.0823 0.24199,-0.0361 0.24199,-0.26294 0,-0.22687 0.12428,-0.41249 0.27618,-0.41249 0.1519,0 0.25218,-0.14883 0.22285,-0.33073 -0.0293,-0.1819 0.0402,-0.54542 0.1544,-0.80781 0.11425,-0.2624 0.0897,-1.09583 -0.0546,-1.85208 -0.14425,-0.75625 -0.20477,-2.81966 -0.13448,-4.58536 l 0.1278,-3.21035 -1.10962,-0.10582 c -0.6103,-0.0582 -1.16729,-0.0125 -1.23776,0.1015 -0.0705,0.11402 -0.26993,0.20549 -0.44324,0.20326 -0.21465,-0.003 -0.20246,-0.0754 0.0382,-0.22802 0.19433,-0.12318 0.3134,-0.29609 0.26459,-0.38424 -0.0488,-0.0881 0.11845,-0.40226 0.37168,-0.69802 0.25324,-0.29576 0.3723,-0.54137 0.26459,-0.54579 -0.10772,-0.004 0.015,-0.13081 0.27273,-0.28085 0.25773,-0.15004 0.39953,-0.38454 0.31512,-0.52112 -0.0844,-0.13658 -0.0403,-0.24832 0.098,-0.24832 0.13834,0 0.32293,-0.28452 0.41021,-0.63228 0.16347,-0.65133 0.81735,-1.07276 1.24978,-0.80551 0.13477,0.0833 0.18022,0.2563 0.10101,0.38446 -0.0792,0.12817 0.10764,0.36771 0.41522,0.53232 0.30758,0.16461 0.502,0.35653 0.43205,0.42648 -0.07,0.07 0.15798,0.43488 0.50651,0.81095 0.34853,0.37607 0.63369,0.83906 0.63369,1.02886 0,0.1898 0.20737,0.46114 0.46081,0.60298 0.70674,0.39551 0.29691,0.55798 -0.78944,0.31296 -0.68007,-0.15338 -1.11522,-0.11759 -1.43774,0.11824 -0.41572,0.30398 -0.45463,0.81616 -0.38466,5.06322 0.0586,3.55745 0.17772,4.93693 0.48202,5.58259 0.22229,0.47166 0.51016,0.79206 0.63972,0.71199 0.12954,-0.0801 0.23554,-0.0431 0.23554,0.0822 0,0.12527 0.41672,0.23958 0.92604,0.25402 0.50932,0.0144 0.92604,-0.0513 0.92604,-0.146 0,-0.0947 0.77391,-0.17225 1.71979,-0.17225 0.94589,0 1.71979,0.0702 1.71979,0.15608 0,0.0858 0.47625,0.31327 1.05834,0.50537 0.58208,0.19211 1.05833,0.42074 1.05833,0.50808 0,0.0873 0.3038,0.48642 0.67511,0.88687 0.37131,0.40044 0.6075,0.83748 0.52485,0.9712 -0.0826,0.13372 -0.0273,0.31911 0.12296,0.41198 0.15027,0.0929 0.20623,0.27723 0.12437,0.40969 -0.0819,0.13246 -0.0239,0.47419 0.12869,0.75941 0.18768,0.35068 0.19024,0.57252 0.008,0.68521 -0.14829,0.0916 -0.22064,0.2477 -0.16077,0.34679 0.13235,0.21908 -0.3818,0.6791 -0.88365,0.79063 -0.94871,0.21083 -3.71447,0.20661 -3.71447,-0.006 0,-0.13153 -0.11906,-0.16557 -0.26458,-0.0756 -0.14552,0.0899 -0.26459,0.0304 -0.26459,-0.1323 0,-0.16269 -0.11906,-0.22222 -0.26458,-0.13229 -0.14552,0.0899 -0.26458,0.0374 -0.26458,-0.11667 0,-0.15411 -0.11293,-0.2802 -0.25095,-0.2802 -0.13803,0 -0.57213,-0.29766 -0.96468,-0.66146 -0.39255,-0.3638 -0.6283,-0.66146 -0.5239,-0.66146 0.1044,0 0.002,-0.18819 -0.22838,-0.4182 -0.23001,-0.23002 -0.35055,-0.52767 -0.26787,-0.66146 0.0827,-0.13379 0.0115,-0.24326 -0.15816,-0.24326 -0.16968,0 -0.24144,-0.17478 -0.15947,-0.3884 0.082,-0.21362 0.0271,-0.46379 -0.12202,-0.55593 -0.14908,-0.0921 -0.2239,-0.30431 -0.16625,-0.47149 0.13727,-0.39812 -0.7257,-1.21627 -1.05516,-1.00034 -0.36991,0.24244 -0.65717,2.68075 -0.31582,2.68075 0.15133,0 0.20351,0.11589 0.11597,0.25753 -0.0875,0.14165 0.084,0.46576 0.38126,0.72026 0.29724,0.2545 0.54043,0.61067 0.54043,0.79149 0,0.18082 0.24832,0.46166 0.55183,0.6241 0.3035,0.16243 0.48719,0.35995 0.40821,0.43894 -0.079,0.079 0.0894,0.60038 0.37421,1.15865 0.64842,1.27101 0.64793,1.74707 -0.003,3.26654 -0.28668,0.66878 -0.49504,1.26437 -0.46303,1.32353 0.12023,0.22221 -1.21892,1.45089 -1.43546,1.31706 -0.12438,-0.0769 -0.22613,-0.0434 -0.22613,0.0743 0,0.43416 -1.51456,0.19705 -2.01289,-0.31511 z m 1.30297,-51.366205 c -0.37742,-0.153792 -0.48811,-12.183838 -0.11738,-12.75742 0.13698,-0.211928 0.44449,-0.291624 0.75048,-0.194503 0.49491,0.157075 0.51877,0.442886 0.52617,6.300957 0.006,4.672068 -0.0739,6.218018 -0.3342,6.478357 -0.18807,0.188068 -0.38021,0.332539 -0.42698,0.321051 -0.0468,-0.01148 -0.22591,-0.07829 -0.39809,-0.148442 z m 7.01051,-4.581991 c -0.39098,-0.121573 -0.77793,-0.153982 -0.8599,-0.07201 -0.082,0.08196 -0.14903,0.0031 -0.14903,-0.175265 0,-0.178364 -0.11174,-0.255233 -0.24832,-0.170823 -0.13658,0.08441 -0.37108,-0.05739 -0.52112,-0.315116 -0.15004,-0.257723 -0.27642,-0.352753 -0.28084,-0.211183 -0.008,0.243372 -1.69738,-1.431906 -1.72743,-1.712611 -0.008,-0.07276 -0.22969,-0.454477 -0.49311,-0.848259 -0.26343,-0.393785 -0.40722,-0.832041 -0.31954,-0.973908 0.0877,-0.141864 0.0384,-0.332721 -0.10949,-0.424124 -0.80653,-0.498464 0.17702,-2.804649 1.19668,-2.805925 0.54052,-7.94e-4 2.37088,0.226973 2.37088,0.294876 0,0.02141 0.2701,0.06881 0.60023,0.105325 0.33012,0.03651 0.77282,0.294481 0.98377,0.573265 0.21095,0.278781 0.38733,0.417578 0.39196,0.308438 0.005,-0.109141 0.27631,0.06945 0.60373,0.396875 0.32742,0.327422 0.56444,0.687922 0.52671,0.801113 -0.0377,0.113189 0.11042,0.274492 0.32921,0.358452 0.2188,0.08396 0.33194,0.259242 0.25143,0.389512 -0.0805,0.130273 -0.0133,0.23686 0.14942,0.23686 0.1627,0 0.22732,0.110837 0.14359,0.246301 -0.0837,0.135467 -0.0312,0.321088 0.11668,0.412491 0.45318,0.280077 0.31538,2.507527 -0.19412,3.137913 -0.50253,0.621758 -1.61946,0.802889 -2.76139,0.447807 z m -13.84122,-0.211341 c -2.67138,-0.171318 -2.66556,-0.16736 -2.70467,-1.838129 -0.0263,-1.121315 0.0995,-1.694807 0.49283,-2.247167 0.29045,-0.407893 0.44796,-0.741625 0.35002,-0.741625 -0.23881,0 2.28176,-2.372167 2.56537,-2.414323 0.12237,-0.01818 0.33163,-0.04796 0.46503,-0.06615 0.13339,-0.01818 0.32363,-0.114165 0.42274,-0.213281 0.0991,-0.09911 0.33786,-0.119711 0.53054,-0.04577 0.19269,0.07394 0.59054,0.0059 0.88412,-0.151236 0.3832,-0.205081 0.58406,-0.204324 0.71199,0.0027 0.098,0.158593 0.39627,0.231327 0.66278,0.161631 0.36909,-0.09652 0.53163,0.0714 0.682,0.704553 0.10859,0.4572 0.16361,0.950336 0.12227,1.095857 -0.0413,0.145521 -0.1059,0.638141 -0.14348,1.094711 -0.0376,0.45657 -0.35339,1.230476 -0.70181,1.719792 -0.34843,0.489315 -0.63087,0.949195 -0.62765,1.021955 0.0136,0.307777 -1.03283,1.293035 -1.2384,1.165987 -0.1236,-0.07638 -0.22472,-0.0058 -0.22472,0.156933 0,0.162697 -0.10946,0.22816 -0.24325,0.145475 -0.13379,-0.08269 -0.40168,-5.29e-4 -0.59531,0.182822 -0.19364,0.183237 -0.82831,0.302617 -1.4104,0.26529 z"
         id="path1162" />
      <path
         style="fill:#e0127e;stroke-width:0.264583"
         d="m 124.79405,172.47316 c -1.19261,-0.83534 -0.60533,-1.67628 1.35657,-1.94251 0.82223,-0.11158 1.49497,-0.15618 1.49497,-0.0991 0,0.1813 -1.95762,2.4535 -2.11382,2.4535 -0.0823,0 -0.4143,-0.18535 -0.73772,-0.41188 z m 0.4613,-3.53636 c -1.27079,-0.24901 -1.57851,-0.47784 -1.57851,-1.17384 0,-0.76161 0.47326,-1.22792 1.24621,-1.22792 0.57289,0 2.98712,1.97271 2.98712,2.44082 0,0.2407 -1.32671,0.22118 -2.65482,-0.0391 z m 33.92051,-0.92366 c -0.46123,-0.64225 -0.8386,-1.22683 -0.8386,-1.29905 0,-0.27745 2.99005,0.57956 3.20489,0.91858 0.31763,0.50124 0.29242,0.65893 -0.18108,1.13243 -0.6886,0.6886 -1.30235,0.4774 -2.18521,-0.75196 z m -31.19954,-1.34672 c -1.62104,-1.68866 -1.5073,-3.30638 0.23246,-3.30638 0.88053,0 1.55348,0.62256 1.55348,1.43718 0,1.04755 -0.32936,3.06118 -0.49899,3.05066 -0.0894,-0.006 -0.66849,-0.5372 -1.28695,-1.18146 z m 30.6027,-1.82689 c 1.04878,-1.11637 2.55132,-2.03708 3.02668,-1.85466 0.55448,0.21277 0.86351,1.37964 0.51311,1.93747 -0.1951,0.31061 -0.77971,0.44291 -2.21374,0.50098 l -1.94862,0.0789 z m -2.09385,-2.36816 c 0,-1.8275 0.0548,-2.02643 0.69715,-2.53171 0.88963,-0.69979 1.19467,-0.68953 1.90257,0.064 0.91632,0.97538 0.72333,1.56076 -1.01221,3.0703 l -1.58751,1.38076 z m -27.36571,-50.85651 c -0.26851,-0.26851 -0.36314,-0.66721 -0.26688,-1.12448 0.082,-0.38966 0.20558,-0.98482 0.27458,-1.32258 0.1699,-0.83173 0.5241,-0.65014 1.31331,0.67332 l 0.66349,1.11263 -0.53856,0.53856 c -0.6476,0.6476 -0.89954,0.66895 -1.44594,0.12255 z m 25.92206,0.0603 c -0.59821,-0.43742 -0.43896,-1.25947 0.48695,-2.5137 l 0.65337,-0.88503 0.28248,1.01732 c 0.41229,1.48479 0.35076,2.15438 -0.22633,2.46323 -0.64071,0.3429 -0.61305,0.34479 -1.19647,-0.0818 z m -29.92531,-1.08654 c -0.64466,-0.98387 -0.27703,-1.57175 1.47045,-2.35143 0.86812,-0.38733 1.63356,-0.70423 1.70098,-0.70423 0.0674,0 -0.17611,0.6846 -0.54119,1.52135 -0.97684,2.23892 -1.83902,2.74186 -2.63024,1.53431 z m 33.84759,0.44601 c -0.41349,-0.26836 -1.92591,-3.50167 -1.63796,-3.50167 0.12802,0 0.94374,0.3589 1.81271,0.79756 1.27368,0.64294 1.57996,0.92138 1.57996,1.4363 0,1.05567 -0.98502,1.76736 -1.75471,1.26781 z m -35.64908,-4.57243 c -0.44443,-0.75235 -0.44721,-0.85043 -0.0416,-1.46942 0.67515,-1.03042 1.11273,-1.04265 3.0895,-0.0863 l 1.83941,0.88985 -0.87352,0.31092 c -0.48043,0.171 -1.2307,0.50149 -1.66726,0.73441 -1.18689,0.63326 -1.80759,0.53289 -2.3465,-0.37941 z m 35.94858,0.13325 c -0.7276,-0.35375 -1.50151,-0.6453 -1.71979,-0.64788 -0.21828,-0.003 0.42542,-0.42668 1.43045,-0.94243 2.08327,-1.06906 2.66039,-1.07819 3.27995,-0.0519 0.40923,0.67788 0.40924,0.77732 1.2e-4,1.45521 -0.5675,0.94031 -1.34168,0.98871 -2.99073,0.18697 z m -22.71849,-1.46295 c -1.23627,-0.97245 -0.81437,-2.92811 0.71043,-3.29306 0.70603,-0.16898 4.51541,-0.64253 4.58765,-0.5703 0.0836,0.0836 -2.04487,3.16419 -2.63678,3.81642 -0.67708,0.74607 -1.74847,0.76497 -2.6613,0.0469 z m 10.31494,-0.62064 c -0.52685,-0.64295 -0.95791,-1.25679 -0.95791,-1.36409 0,-0.10729 -0.31078,-0.60253 -0.69062,-1.10053 l -0.69063,-0.90546 1.28594,0.17239 c 4.40903,0.59104 4.85781,0.81403 4.85781,2.41369 0,0.60991 -0.20058,1.01405 -0.69714,1.40464 -1.13665,0.89409 -2.00901,0.71986 -3.10745,-0.62064 z M 129.8435,99.574574 c -2.8712,-1.83914 -0.50731,-6.773058 2.61132,-5.450332 0.80429,0.341133 5.32371,4.675812 5.84352,5.604648 0.19222,0.34349 -0.2955,0.39514 -3.69429,0.39127 -3.48832,-0.004 -4.00797,-0.0635 -4.76055,-0.545586 z m 20.42741,-2.198298 c 2.80883,-3.020539 3.89975,-3.745267 5.20586,-3.458398 1.82995,0.401926 3.04956,2.709907 2.24953,4.256998 -0.89093,1.722874 -1.15474,1.809355 -5.80277,1.902314 l -4.24313,0.0849 z m -8.54204,2.062183 c -0.92799,-0.405646 -1.90984,-1.754044 -1.91146,-2.625047 -0.001,-0.667962 0.89244,-2.355183 1.88676,-3.562094 0.93003,-1.128887 0.93657,-1.340646 0.0731,-2.366811 -0.82926,-0.985518 -0.53224,-1.050629 0.68751,-0.150723 0.70166,0.517668 1.09016,0.627483 1.76921,0.500095 0.47856,-0.08978 1.07512,-0.08456 1.3257,0.01159 0.39385,0.151133 0.36722,0.218663 -0.19644,0.498224 -0.91739,0.455001 -0.95303,1.487321 -0.11362,3.290983 1.43086,3.074516 1.40321,3.779525 -0.17298,4.410188 -1.25092,0.500523 -2.19223,0.498721 -3.34779,-0.0064 z m -5.5469,-4.439615 c -0.90754,-0.970815 -1.72287,-2.055151 -1.81184,-2.409637 -0.20168,-0.803572 0.71861,-2.186419 1.60276,-2.408325 0.62607,-0.157134 1.69635,0.254124 2.05355,0.789077 0.23744,0.355603 0.22841,3.042089 -0.0156,4.63006 l -0.17883,1.163942 -1.65007,-1.765117 z m 11.91846,-0.893493 c -0.31757,-2.420231 -0.0439,-3.238084 1.26483,-3.780184 0.7104,-0.294259 0.94964,-0.288872 1.52549,0.03435 0.88348,0.495882 1.28047,1.819836 0.84288,2.810989 -0.31274,0.708382 -2.71724,2.98537 -3.15255,2.98537 -0.11638,0 -0.33268,-0.922734 -0.48065,-2.050521 z m -0.67723,-28.4349 c 0.32742,-0.157911 0.59531,-0.395004 0.59531,-0.526875 0,-0.131871 0.10527,-0.174707 0.23392,-0.09519 0.4377,0.270513 2.33435,-1.693651 3.1954,-3.309136 2.50395,-4.697894 0.0896,-10.443197 -5.10065,-12.137643 -1.13762,-0.371397 -1.65996,-1.205772 -1.40093,-2.237817 0.5128,-2.043165 4.93843,-0.237658 7.19427,2.935018 1.30574,1.836417 1.82332,3.550218 1.82332,6.037275 0,2.702835 -0.56516,4.348641 -2.18773,6.370838 -1.1433,1.424893 -3.82906,3.294917 -4.68364,3.261106 -0.14552,-0.0058 0.003,-0.139665 0.33073,-0.297574 z m -8.26823,-0.44646 c -1.57962,-0.73609 -3.22954,-2.445801 -4.2505,-4.404535 -0.86364,-1.656919 -0.90888,-1.87924 -0.90888,-4.467053 0,-2.591316 0.0456,-2.814479 0.94034,-4.602966 0.63024,-1.259784 1.38337,-2.267181 2.28384,-3.054888 1.34687,-1.178214 3.69109,-2.280343 4.85026,-2.280343 0.75582,0 1.45056,0.64842 1.45056,1.353842 0,0.664252 -1.14285,1.821158 -1.79904,1.821158 -0.71093,0 -3.46872,1.844586 -4.47345,2.992138 -1.56373,1.786004 -2.10046,5.235065 -1.25678,8.076068 0.4183,1.40857 1.83809,3.333919 2.26426,3.070529 0.13086,-0.08088 0.23793,0.02886 0.23793,0.243861 0,0.215003 0.41672,0.648457 0.92604,0.963237 0.50932,0.31478 0.92604,0.622147 0.92604,0.683038 0,0.157911 -0.0209,0.150979 -1.19062,-0.394086 z m 2.64583,-0.771875 c -1.26358,-0.597773 -1.82559,-1.189095 -2.37116,-2.494825 -1.62879,-3.898246 2.0747,-7.787695 6.13213,-6.440032 1.49994,0.498197 2.24943,1.184082 2.84098,2.599872 0.90027,2.154622 0.25972,4.618609 -1.52753,5.875978 -1.43323,1.008309 -3.51522,1.196634 -5.07442,0.459007 z"
         id="path1160" />
      <path
         style="fill:#73b533;stroke-width:0.264583"
         d="m 136.05867,229.04424 c 1.20746,-0.0491 3.11246,-0.0489 4.23334,5.3e-4 1.12088,0.0495 0.13296,0.0897 -2.19538,0.0893 -2.32833,-2.7e-4 -3.24541,-0.0408 -2.03796,-0.0899 z m 10.31093,0.005 c 0.47555,-0.0589 1.18992,-0.0577 1.5875,0.003 0.39758,0.0604 0.008,0.10855 -0.86463,0.10706 -0.87313,-0.002 -1.19842,-0.0509 -0.72287,-0.10976 z m -11.51411,-1.3239 c 0.5457,-0.0571 1.43867,-0.0571 1.98437,0 0.5457,0.0571 0.0992,0.10378 -0.99219,0.10378 -1.0914,0 -1.53789,-0.0467 -0.99218,-0.10378 z m 10.71562,0.006 c 0.32742,-0.0631 0.86321,-0.0631 1.19063,0 0.32742,0.0631 0.0595,0.11467 -0.59532,0.11467 -0.65484,0 -0.92273,-0.0516 -0.59531,-0.11467 z m -1.19005,-1.53305 c 0.003,-0.58209 0.0571,-0.78906 0.12041,-0.45994 0.0633,0.32912 0.0609,0.80537 -0.005,1.05834 -0.0662,0.25296 -0.11801,-0.0163 -0.11507,-0.5984 z m -1.54183,-7.01146 c 0,-3.1287 0.0383,-4.40862 0.0851,-2.84427 0.0468,1.56435 0.0468,4.12419 0,5.68854 -0.0468,1.56435 -0.0851,0.28443 -0.0851,-2.84427 z m 1.28259,-4.23333 c 0,-0.65485 0.0516,-0.92274 0.11466,-0.59532 0.0631,0.32743 0.0631,0.86321 0,1.19063 -0.0631,0.32742 -0.11466,0.0595 -0.11466,-0.59531 z m -0.26097,-18.65313 c 0.002,-0.7276 0.0534,-0.99385 0.11418,-0.59167 0.0608,0.40218 0.0592,0.99749 -0.004,1.32291 -0.0628,0.32543 -0.11256,-0.004 -0.11058,-0.73124 z m -1.31391,-3.30729 c 0,-0.94588 0.048,-1.33284 0.10672,-0.8599 0.0587,0.47295 0.0587,1.24685 0,1.7198 -0.0587,0.47294 -0.10672,0.086 -0.10672,-0.8599 z m 1.04571,-29.63333 c 0,-0.65485 0.0516,-0.92274 0.11467,-0.59531 0.0631,0.32742 0.0631,0.8632 0,1.19062 -0.0631,0.32742 -0.11467,0.0595 -0.11467,-0.59531 z m 0.0219,-6.48229 c -8e-4,-1.30969 0.0439,-1.87883 0.0994,-1.26476 0.0555,0.61407 0.0562,1.68564 0.002,2.38125 -0.0548,0.69562 -0.10021,0.19319 -0.10101,-1.11649 z m -8.36215,-30.7461 c 0.32742,-0.0631 0.8632,-0.0631 1.19063,0 0.32742,0.0631 0.0595,0.11466 -0.59532,0.11466 -0.65484,0 -0.92273,-0.0516 -0.59531,-0.11466 z m 7.57237,-15.42369 c 0,-1.52797 0.0437,-2.15305 0.0972,-1.38907 0.0534,0.76399 0.0534,2.01414 0,2.77813 -0.0534,0.76398 -0.0972,0.1389 -0.0972,-1.38906 z m -8.50991,-34.356465 c -0.19099,-0.121166 0.33515,-0.168968 1.19063,-0.108175 2.09009,0.148534 2.36468,0.288107 0.60681,0.308446 -0.80037,0.0093 -1.60921,-0.08086 -1.79744,-0.200271 z"
         id="path1158" />
    </g>
  </g>
</svg>
