<?xml version="1.0" encoding="UTF-8" standalone="no"?>
<!-- Created with Inkscape (http://www.inkscape.org/) -->

<svg
   viewBox="0 0 143.18234 43.945191"
   version="1.1"
   id="main"
   xmlns="http://www.w3.org/2000/svg"
   xmlns:svg="http://www.w3.org/2000/svg">
  <defs
     id="defs13119" />
  <g
     id="layer1"
     transform="translate(-33.70136,-126.35901)">
    <g
       id="lt"
       transform="matrix(0.35277777,0,0,-0.35277777,-1.20115,338.26436)">
      <path
         d="m 460.9188,523.8392 0.288,-0.173 0.025,0.294 z m 26.711,-31.549 c 6.649,-0.34 13.145,5.701 13.466,12.523 0.315,6.717 -4.971,12.48 -11.831,12.895 -7.177,0.434 -13.534,-5.221 -13.909,-12.371 -0.35,-6.671 5.313,-12.69 12.274,-13.047 m -258.062,78.302 c 5.69,-5.331 12.626,-7.968 20.101,-9.715 20.866,-4.876 39.98,-14.158 58.936,-23.803 9.908,-5.041 19.315,-11.038 29.535,-15.483 0.613,-0.266 1.185,-0.815 2.194,-0.249 -1.669,3.287 -4.169,6.259 -4.659,10.057 -0.443,3.436 0.14,6.534 3.702,8.169 3.386,1.554 6.156,0.708 8.494,-2.098 -1.089,-1.343 -1.631,-0.331 -2.234,0.091 -2.075,1.448 -4.176,1.563 -6.291,0.13 -2.162,-1.465 -2.607,-3.629 -2.079,-5.969 1.512,-6.713 5.272,-12.059 11.55,-14.705 22.243,-9.375 45.296,-14.455 69.583,-11.272 14.754,1.935 28.198,7.41 40.393,15.93 0.417,0.291 0.677,0.807 1.522,1.85 -5.748,-1.355 -10.651,-2.98 -15.773,-3.687 -12.781,-1.764 -25.33,-1.324 -37.269,4.027 -3.174,1.424 -3.676,-1.883 -5.697,-2.266 -0.939,1.948 0.983,2.539 1.799,3.542 6.436,7.911 8.05,16.738 4.11,26.057 -5.828,13.79 -21.654,19.287 -34.982,12.586 -12.711,-6.389 -17.443,-22.297 -10.319,-34.681 7.201,-12.518 23.525,-16.359 36.007,-8.522 1.004,0.63 1.767,2.45 3.447,1.083 -7.336,-7.027 -18.996,-8.799 -28.64,-4.352 -10.51,4.846 -16.334,14.817 -15.558,26.634 0.649,9.909 8.252,19.627 17.708,22.636 11.111,3.535 22.379,0.548 29.552,-7.835 7.164,-8.373 8.364,-19.524 3.024,-29.977 -1.03,-2.015 -1.398,-3.137 1.17,-4.053 20.577,-7.343 40.796,-5.96 59.358,5.077 9.489,5.643 15.574,15.715 21.484,25.195 5.887,9.444 10.672,19.439 14.471,30.558 1.192,-2.031 0.318,-3.341 -0.134,-4.679 -3.123,-9.249 -7.649,-17.826 -12.641,-26.165 -5.566,-9.298 -8.312,-19.262 -8.01,-30.148 0.104,-3.773 0.545,-5.659 5.224,-5.451 7.392,0.33 12.993,-5.135 13.743,-12.2 0.75,-7.054 -3.797,-13.93 -10.291,-15.566 -7.564,-1.903 -14.555,1.549 -17.248,8.518 -2.206,5.707 -0.498,12.224 4.661,16.26 2.012,1.575 2.76,3.08 2.494,5.631 -0.709,6.785 0.178,13.484 1.797,20.09 0.483,0.366 0.785,1.017 0.381,1.362 -0.62,0.531 -0.706,-0.385 -1.032,-0.67 -9.51,-11.491 -20.617,-21.077 -33.452,-28.749 -6.831,-4.082 -10.359,-10.221 -9.153,-18.476 0.729,-4.992 4.439,-8.654 9.129,-9.096 6.461,-0.607 11.864,2.154 13.618,6.959 1.382,3.786 -0.015,8.314 -3.255,9.932 -3.81,1.902 -6.403,-0.061 -8.599,-3.014 -0.3,-0.404 -0.751,-0.696 -1.615,-1.474 0.434,4.598 3.275,5.909 6.491,6.584 3.485,0.734 6.068,-0.882 7.698,-3.884 4.022,-7.408 -1.415,-15.954 -10.615,-16.783 -10.209,-0.918 -16.834,7.226 -14.323,17.612 0.695,2.87 2.143,5.429 4.172,8.932 -13.92,-5.17 -21.005,-14.854 -24.446,-27.992 -2.038,4.09 1.557,11.104 11.695,23.298 -5.283,-0.786 -10.082,-2.038 -15.009,-2.547 -22.274,-2.299 -43.377,2.511 -64,10.297 -10.366,3.913 -20.841,7.187 -31.999,4.013 -6.652,-1.892 -12.61,-5.041 -14.751,-12.434 -1.588,-5.489 0.626,-11.271 5.548,-14.836 3.85,-2.788 10.293,-2.813 14.325,-0.056 3.502,2.394 4.842,6.314 3.473,9.91 -1.001,2.63 -2.944,4.216 -5.61,4.523 -2.717,0.315 -4.904,-0.915 -6.223,-3.434 -0.301,-0.575 -0.634,-1.131 -1.184,-2.107 -0.274,4.136 1.868,6.577 5.633,7.054 4.19,0.53 8.24,-2.297 9.146,-6.383 1.601,-7.224 -4.457,-13.653 -12.483,-13.247 -6.47,0.327 -12.124,4.719 -14.107,10.957 -1.786,5.618 0.342,12.356 5.447,16.177 5.332,3.989 10.965,6.975 18.153,5.92 2.06,-0.303 4.573,0.604 7.148,0.796 -12.108,9.976 -25.934,10.573 -35.651,1.76 -6.109,-5.54 -7.385,-10.745 -4.502,-18.558 0.295,-0.8 0.714,-1.523 0.01,-2.298 -6.75,9.219 -3.18,18.037 10.936,27.039 -10.567,4.382 -19.265,-5.636 -19.75,-23.216 -1.789,2.342 -1.773,4.689 -1.553,6.988 1.305,13.72 11.286,20.991 24.853,18.055 2.258,-0.488 4.339,-0.803 6.98,1.046 -7.109,3.623 -13.773,7.178 -20.572,10.455 -19.075,9.195 -38.703,16.791 -59.675,20.55 -14.084,2.523 -26.772,-5.48 -30.025,-19.238 -1.719,-7.271 0.805,-13.762 6.346,-16.316 3.614,-1.666 8.088,-0.909 10.851,1.984 2.488,2.605 2.945,5.684 1.575,8.986 -1.727,4.163 -5.643,5.202 -11.838,3.215 1.282,2.298 2.984,3.058 6.282,2.601 3.658,-0.507 6.302,-2.418 7.358,-6.048 1.574,-5.415 -0.863,-10.302 -6.019,-12.347 -5.601,-2.223 -12.355,0.436 -15,5.987 -2.686,5.639 -1.778,11.247 0.32,16.814 0.15,0.57 0.183,1.005 -0.591,0.511 -2.243,-0.043 -4.531,-0.383 -6.721,-0.062 -3.486,0.512 -4.382,2.948 -2.313,6.957 0.282,-2.345 -0.397,-4.857 2.341,-5.285 3.262,-0.512 7.026,-0.856 9.133,1.794 3.634,4.567 7.726,8.365 12.939,11.209 -9.719,0.998 -18.999,-0.322 -28.044,-3.473 -13.661,-4.76 -24.514,-13.526 -34.132,-24.032 -3.429,-3.744 -7.155,-7.107 -11.252,-10.151 -4.611,-3.428 -7.441,-8.34 -9.607,-13.612 -0.366,-0.89 -1.055,-1.88 0.376,-2.443 5.763,-2.27 7.887,-7.009 8.15,-12.665 0.274,-5.893 -1.849,-11.014 -6.201,-15.115 -0.24,0.319 -0.481,0.638 -0.721,0.956 4.23,5.466 6.757,11.332 4.565,18.415 -1.304,4.211 -4.12,6.776 -8.392,7.302 -4.462,0.549 -7.543,-1.927 -9.465,-5.714 -3.291,-6.486 -3.21,-12.996 0.477,-19.343 3.898,-6.712 4.798,-6.871 10.914,-2.148 0.331,0.256 0.709,0.453 1.064,0.678 0.32,-0.254 0.638,-0.509 0.956,-0.763 -8.382,-7.779 -8.695,-6.931 -14.236,1.62 -4.361,6.731 -3.844,13.911 -0.494,20.95 0.973,2.045 2.443,4.502 4.559,4.747 8.128,0.94 7.956,8.712 12.52,13.75 -4.876,-0.822 -8.595,-0.664 -11.524,-4.799 -3.269,-4.614 -11.771,-4.599 -18.394,-0.993 -5.902,3.213 -8.975,8.737 -11.604,14.578 -0.504,1.118 -0.435,2.074 0.771,2.9 8.381,5.741 21.155,7.285 29.318,-1.445 -1.254,-1.162 -1.978,0.168 -2.736,0.692 -7.678,5.317 -15.521,5.009 -23.472,0.751 -1.106,-0.592 -2.639,-0.852 -2.178,-2.962 1.841,-8.416 12.304,-16.207 20.903,-15.395 7.36,0.694 11.208,7.523 8.009,14.137 -0.416,0.861 -1.708,1.635 -0.593,2.848 2.419,-1.678 3.354,-4.201 3.352,-6.926 -0.003,-2.488 1.159,-2.84 3.15,-2.533 7.552,1.164 13.041,5.827 17.954,11.109 1.946,2.091 -0.758,1.896 -1.86,1.937 -5.961,0.22 -11.773,1.081 -17.188,3.744 -8.678,4.269 -14.588,10.857 -16.968,20.381 -0.272,1.091 -0.613,2.166 -0.086,3.31 1.481,-0.046 1.215,-1.256 1.396,-2.094 3.811,-17.694 22.028,-25.535 36.989,-23.423 1.036,0.146 1.871,0.507 2.622,1.193 3.74,3.418 7.32,7.038 11.28,10.179 3.818,3.027 8.031,5.556 12.269,8.438 -7.376,6.201 -11.342,13.709 -9.369,23.474 1.07,-2.491 0.464,-5.256 1.135,-7.888 0.885,-3.476 2.139,-6.699 4.343,-9.51 4.462,-5.692 6.486,-6.015 13.124,-2.051 -7.117,6.123 -10.826,13.564 -9.522,22.866 0.369,0.102 0.739,0.202 1.108,0.304 0.115,-2.09 0.124,-4.192 0.367,-6.266 0.429,-3.683 1.677,-7.078 3.853,-10.129 4.345,-6.089 6.258,-6.768 13.925,-4.457 -6.783,6.343 -10.717,13.671 -8.794,23.16 1.984,-11.113 2.561,-23.392 19.917,-22.246 -3.282,3.966 -6.223,7.035 -7.549,11.078 -1.313,4.008 -2.429,8.074 -0.94,12.398 1.736,-0.677 0.861,-1.992 0.835,-2.924 -0.166,-5.919 1.798,-11.102 5.525,-15.56 2.485,-2.972 5.447,-5.212 9.802,-4.706 4.393,0.509 8.78,-1.315 13.225,-0.566 -1.523,1.671 -2.894,3.174 -4.266,4.678 0.228,0.263 0.457,0.524 0.685,0.787"
         style="fill:#c9dff8;fill-opacity:1;fill-rule:nonzero;stroke:none"
         id="path74" />
      <path
         d="m 214.6629,509.6253 c 0.268,-2.237 1.17,-3.931 2.833,-5.137 2.282,-1.654 2.507,-2.785 -0.232,-4.415 -2.227,-1.325 -5.343,-3.958 -3.991,-6.13 1.533,-2.462 4.736,-0.003 7.099,1.007 0.253,0.109 0.478,0.299 0.69,0.482 1.404,1.198 2.305,1.242 2.969,-0.827 0.816,-2.538 2.638,-4.159 5.247,-4.684 0.676,0.784 0.426,1.477 0.342,2.167 -1.008,8.258 2.027,12.206 10.291,13.071 3.632,0.38 7.31,0.303 10.957,0.57 8.192,0.598 15.796,2.565 21.548,9.082 6.536,7.407 6.251,18.405 -0.83,26.575 -6.776,7.817 -17.856,9.68 -25.872,4.504 -7.158,-4.623 -10.018,-11.866 -12.304,-19.511 -1.243,-4.156 -1.589,-8.585 -3.818,-12.442 -2.797,-4.837 -6.402,-6.322 -11.698,-4.794 -0.908,0.261 -1.694,1.049 -3.231,0.482 m 64.061,17.535 c 0.069,-11.115 -9.498,-20.579 -22.498,-22.357 -4.894,-0.67 -9.803,-0.88 -14.73,-1.045 -8.536,-0.286 -11.651,-4.234 -10.107,-12.523 0.194,-1.047 0.97,-2.344 -0.091,-3.155 -0.956,-0.73 -2.168,-0.114 -3.205,0.353 -0.512,0.23 -1.201,0.375 -1.473,0.783 -2.825,4.218 -6.556,4.305 -10.893,2.755 -1.534,-0.549 -3.84,-0.767 -4.735,0.644 -1.058,1.669 0.4,3.64 1.643,4.797 3.361,3.133 4.39,6.134 1.027,9.968 -0.985,1.124 -1.054,3.124 0.026,4.378 1.33,1.545 2.525,-0.244 3.684,-0.718 5.145,-2.102 9.413,-0.454 11.494,5.011 1.446,3.796 2.367,7.801 3.399,11.745 0.967,3.706 2.426,7.194 4.294,10.518 5.376,9.569 14.542,13.947 23.945,11.468 10.725,-2.827 18.153,-12.051 18.22,-22.622"
         style="fill:#c9dff8;fill-opacity:1;fill-rule:nonzero;stroke:none"
         id="path158" />
      <path
         d="m 474.2557,547.5169 c -2.198,-3.637 -5.203,-6.027 -8.414,-8.094 -9.134,-5.879 -19.111,-8.481 -29.806,-5.894 -14.901,3.604 -21.663,17.437 -16.345,31.822 2.752,7.447 2.082,15.022 -1.77,22.011 -3.377,6.126 -8.876,8.684 -17.122,7.504 11.523,5.233 19.414,-3.421 22.42,-22.953 4.741,4.704 9.911,7.991 16.784,7.429 7.037,-0.575 12.205,-5.597 12.884,-12.807 0.661,-7.019 -3.585,-13.768 -9.5,-15.098 -4.562,-1.026 -8.773,0.867 -10.671,4.799 -1.772,3.667 -0.847,7.397 2.446,9.85 0.568,-0.744 -0.013,-1.274 -0.32,-1.885 -2.121,-4.229 -1.657,-7.55 1.344,-9.815 3.216,-2.428 7.716,-2.203 10.903,0.543 3.923,3.383 5.368,10.241 3.288,15.611 -1.726,4.459 -6.859,7.507 -12.278,7.289 -14.306,-0.574 -23.616,-19.459 -15.947,-32.348 5.498,-9.236 16.004,-13.11 28.464,-10.632 7.834,1.558 14.517,5.156 20.219,10.712 0.807,0.787 1.239,2.285 3.421,1.956"
         style="fill:#c9dff8;fill-opacity:1;fill-rule:nonzero;stroke:none"
         id="path178" />
      <path
         d="m 303.9334,553.3421 c -3.408,9.139 -3.717,18.158 1.28,26.867 2.543,4.432 6.348,7.215 11.692,7.932 -9.44,-4.047 -13.633,-11.573 -13.95,-21.236 -0.309,-9.432 3.444,-17.49 10.187,-24.1 -1.472,-1.223 -2.057,-0.08 -2.736,0.477 -6.742,5.533 -12.382,11.901 -15.178,20.368 -4.049,12.263 2.469,27.957 13.765,33.019 1.55,0.695 3.158,1.875 5.73,0.564 -11.048,-3.218 -16.689,-10.839 -18.749,-21.14 -1.785,-8.922 1.491,-16.573 7.27,-23.292 l 0.58,-0.46 c 0.036,0.334 0.073,0.667 0.109,1.001"
         style="fill:#c9dff8;fill-opacity:1;fill-rule:nonzero;stroke:none"
         id="path206" />
      <path
         d="m 148.6473,547.9046 c 9.474,-0.008 17.329,7.421 17.381,16.436 0.053,9.359 -7.384,16.62 -17.001,16.599 -9.366,-0.02 -17.199,-7.583 -17.208,-16.613 -0.01,-8.98 7.609,-16.414 16.828,-16.422 m 18.847,16.61 c 0.02,-9.979 -8.515,-18.291 -18.778,-18.287 -10.15,0.004 -18.415,8.198 -18.298,18.14 0.121,10.163 8.477,18.287 18.773,18.247 10.239,-0.039 18.281,-7.992 18.303,-18.1"
         style="fill:#c9dff8;fill-opacity:1;fill-rule:nonzero;stroke:none"
         id="path210" />
      <path
         d="m 282.0477,562.678 c -1.419,4.878 -2.776,9.761 -1.474,14.909 1.417,5.602 4.33,9.832 11.299,11.858 -16.545,-12.697 -11.068,-24.61 -0.416,-36.544 -9.995,2.581 -19.197,15.63 -18.555,26.01 0.585,9.461 6.755,17.919 14.076,18.625 -6.895,-3.419 -10.851,-8.937 -12.203,-16.337 -1.384,-7.574 1.209,-13.786 6.478,-19.096 0.29,-0.148 0.58,-0.294 0.87,-0.442 -0.025,0.339 -0.05,0.678 -0.075,1.017"
         style="fill:#c9dff8;fill-opacity:1;fill-rule:nonzero;stroke:none"
         id="path218" />
      <path
         d="m 179.6307,516.4671 c 8.227,-0.048 14.566,5.916 14.528,13.667 -0.036,7.503 -6.413,13.613 -14.231,13.638 -7.837,0.024 -14.239,-6.051 -14.252,-13.525 -0.014,-7.75 6.046,-13.734 13.955,-13.78 m 15.901,13.684 c 0.028,-8.734 -6.631,-15.266 -15.592,-15.296 -8.733,-0.029 -15.872,6.788 -15.906,15.187 -0.034,8.398 7.055,15.309 15.771,15.376 8.727,0.067 15.701,-6.702 15.727,-15.267"
         style="fill:#c9dff8;fill-opacity:1;fill-rule:nonzero;stroke:none"
         id="path238" />
      <path
         d="m 365.8963,503.3802 c -3.843,-1.247 -7.706,-1.878 -11.183,-3.807 -8.492,-4.712 -9.251,-8.378 -3.067,-15.146 -3.392,0.558 -5.46,2.207 -5.726,5.323 -0.641,7.55 5.773,9.495 10.604,12.711 -6.553,1.935 -16.924,-5.25 -18.168,-10.814 -0.704,-3.146 0.136,-5 4.47,-9.254 -4.128,0.195 -7.015,4.628 -6.003,9.239 0.768,3.497 2.939,6.075 5.714,8.108 7.143,5.234 15.016,6.252 23.359,3.64"
         style="fill:#c9dff8;fill-opacity:1;fill-rule:nonzero;stroke:none"
         id="path290" />
      <path
         d="m 261.5965,569.8021 -0.15,-0.262 0.262,-0.018 z m 5.89,20.049 c -9.24,-7.104 -8.452,-17.511 2.342,-26.291 -7.337,0.329 -15.72,9.563 -16.368,16.178 -0.602,6.169 2.112,15.991 8.897,16.952 -9.295,-10.972 -9.88,-20.708 -1.555,-25.852 -2.088,12.452 -0.763,16.824 6.684,19.013"
         style="fill:#c9dff8;fill-opacity:1;fill-rule:nonzero;stroke:none"
         id="path302" />
      <path
         d="m 458.4881,586.4671 c -0.362,1.841 -1.352,2.951 -3.408,2.843 -2.135,-0.114 -3.42,-1.192 -3.467,-3.34 -0.05,-2.293 1.489,-3.281 3.522,-3.158 2.072,0.127 3.155,1.547 3.353,3.655 m 32.921,-5.763 c -9.14,-10.367 -23.093,-10.593 -32.596,-0.345 -1.416,1.527 -2.749,0.89 -4.176,0.996 -3.027,0.225 -4.816,1.924 -4.652,4.856 0.174,3.107 2.383,4.885 5.404,4.761 2.841,-0.116 4.66,-1.837 4.579,-4.963 -0.14,-5.48 1.609,-8.231 6.796,-10.238 6.306,-2.439 12.447,-1.777 18.231,1.573 2.044,1.184 3.787,2.887 5.667,4.353 z"
         style="fill:#c9dff8;fill-opacity:1;fill-rule:nonzero;stroke:none"
         id="path346" />
      <path
         d="m 351.5682,577.5296 c 0.044,-4.935 4.312,-9.144 9.18,-9.052 4.823,0.091 9.133,4.393 9.224,9.205 0.093,4.956 -4.413,9.266 -9.55,9.134 -5.042,-0.129 -8.899,-4.175 -8.854,-9.287 m 19.763,0.214 c 0.058,-5.991 -4.612,-10.661 -10.645,-10.646 -6.124,0.015 -10.713,4.533 -10.751,10.583 -0.036,5.924 4.745,10.732 10.672,10.731 6,0 10.664,-4.641 10.724,-10.668"
         style="fill:#c9dff8;fill-opacity:1;fill-rule:nonzero;stroke:none"
         id="path374" />
      <path
         d="m 378.3563,498.7054 c -0.166,-0.13 -0.333,-0.261 -0.499,-0.392 0.207,-0.091 0.407,-0.211 0.624,-0.26 0.074,-0.018 0.189,0.138 0.286,0.215 -0.134,0.142 -0.267,0.285 -0.411,0.437 m -1.094,-1.061 c -4.373,0.028 -9.765,-3.553 -11.003,-7.252 -1.256,-3.759 0.437,-6.453 4.123,-8.565 -3.07,-0.01 -3.933,0.433 -5.044,2.404 -1.511,2.685 -1.399,5.409 0.109,8.033 3.238,5.637 8.669,7.575 14.661,8.263 2.375,0.274 4.903,0.525 7.959,-0.825 -3.821,-1.681 -7.313,-2.095 -10.187,-4.113 -5.878,-4.128 -6.213,-7.112 -1.076,-11.643 -2.796,0.088 -3.821,0.603 -4.691,2.7 -2.2,5.304 2.227,7.761 5.149,10.998"
         style="fill:#c9dff8;fill-opacity:1;fill-rule:nonzero;stroke:none"
         id="path386" />
      <path
         d="m 228.8826,569.805 c -4.354,3.911 -6.416,8.792 -5.865,14.621 0.519,5.5 4.531,8.99 10.932,9.798 4.76,0.602 9.561,-2.12 11.225,-6.362 1.46,-3.722 0.163,-8.356 -2.938,-10.494 -3.46,-2.385 -6.998,-1.936 -10.571,1.343 0.321,0.242 0.643,0.484 0.963,0.726 2.855,-2.034 5.816,-2.851 8.891,-0.528 2.509,1.895 3.381,4.578 2.514,7.484 -1.094,3.672 -3.798,5.897 -7.644,6.247 -4.313,0.393 -8.163,-0.859 -10.511,-4.735 -2.608,-4.308 -1.489,-8.659 0.648,-12.794 0.828,-1.603 2.017,-3.019 3.042,-4.519 -0.229,-0.263 -0.457,-0.524 -0.686,-0.787"
         style="fill:#c9dff8;fill-opacity:1;fill-rule:nonzero;stroke:none"
         id="path394" />
      <path
         d="m 351.3514,590.346 c -4.747,2.836 -9.384,5.63 -15.224,5.072 -3.088,-0.295 -5.72,-1.384 -7.833,-3.614 -2.708,-2.86 -2.552,-7.067 0.276,-9.84 2.543,-2.494 5.363,-2.376 8.536,0.406 0.408,0.357 0.648,0.907 1.724,0.687 -0.511,-2.266 -1.928,-3.461 -4.096,-3.918 -2.912,-0.613 -5.625,-0.303 -7.713,2.078 -3.653,4.165 -2.626,10.319 2.217,13.532 6.542,4.341 17.413,2.325 22.113,-4.403"
         style="fill:#c9dff8;fill-opacity:1;fill-rule:nonzero;stroke:none"
         id="path422" />
      <path
         d="m 411.3211,569.7025 c -6.218,17.623 -18.281,24.306 -36.511,20.138 8.154,4.057 16.196,3.301 23.803,-1.013 7.312,-4.146 11.816,-10.495 12.708,-19.125"
         style="fill:#c9dff8;fill-opacity:1;fill-rule:nonzero;stroke:none"
         id="path446" />
      <path
         d="m 350.1238,564.1673 c 3.968,-4.688 3.885,-10.56 -0.207,-14.695 -3.702,-3.742 -10.58,-4.003 -14.559,-0.555 -4.6,3.989 -5.042,9.567 -1.182,14.944 0.233,-0.273 0.466,-0.548 0.699,-0.821 -1.288,-3.102 -2.713,-6.142 -1.009,-9.614 2.427,-4.944 8.065,-6.976 12.711,-4.388 5.505,3.066 6.713,9.449 2.64,14.297 0.303,0.277 0.604,0.555 0.907,0.832"
         style="fill:#c9dff8;fill-opacity:1;fill-rule:nonzero;stroke:none"
         id="path490" />
      <path
         d="m 168.6385,503.058 c -0.011,2.999 -2.64,5.354 -5.93,5.231 -3.49,-0.13 -5.493,-2.033 -5.783,-5.457 -0.256,-3.025 2.472,-5.594 5.615,-5.574 3.121,0.021 6.11,2.862 6.098,5.8 m 1.345,-0.404 c -0.162,-4.118 -3.699,-7.271 -7.855,-7 -4.106,0.265 -7.051,3.55 -6.775,7.557 0.26,3.778 3.764,6.831 7.764,6.764 4.21,-0.071 7.034,-3.081 6.866,-7.321"
         style="fill:#c9dff8;fill-opacity:1;fill-rule:nonzero;stroke:none"
         id="path502" />
      <path
         d="m 391.5193,494.3539 c 4.147,4.414 9.3,5.207 16.045,4.206 -3.173,-1.51 -5.602,-2.381 -7.726,-3.732 -4.946,-3.149 -5.089,-5.364 -0.919,-9.309 -2.146,-0.575 -2.754,-0.359 -3.827,1.666 -2.498,4.72 1.523,6.764 4.245,9.723 -2.955,-0.281 -4.785,-2.094 -6.898,-3.289 z"
         style="fill:#c9dff8;fill-opacity:1;fill-rule:nonzero;stroke:none"
         id="path546" />
      <path
         d="m 488.201,564.679 c -4.625,-10.611 -22.837,-12.206 -28.901,-4.538 4.934,-2.167 9.849,-4.116 15.418,-3.16 5.465,0.937 9.675,3.856 13.483,7.698"
         style="fill:#c9dff8;fill-opacity:1;fill-rule:nonzero;stroke:none"
         id="path554" />
      <path
         d="m 398.7879,573.4544 c -5.696,5.936 -12.351,8.149 -20.881,5.194 5.089,5.546 17.245,2.309 20.881,-5.194"
         style="fill:#c9dff8;fill-opacity:1;fill-rule:nonzero;stroke:none"
         id="path590" />
      <path
         d="m 328.1932,554.9769 c -7.185,-2.566 -7.959,-5.82 -3.258,-13.696 -3.76,1.315 -5.574,5.585 -4.131,9.72 1.343,3.847 3.893,5.219 7.389,3.976"
         style="fill:#c9dff8;fill-opacity:1;fill-rule:nonzero;stroke:none"
         id="path598" />
      <path
         d="m 209.3768,503.1615 c -8.164,-0.712 -13.744,5.083 -12.752,13.163 1.318,-7.238 5.045,-12.089 12.752,-13.163"
         style="fill:#c9dff8;fill-opacity:1;fill-rule:nonzero;stroke:none"
         id="path606" />
      <path
         d="m 328.4666,559.6048 c -3.587,-1.124 -5.498,0.86 -7.192,3.03 -2.332,2.988 -2.451,6.48 -0.229,10.361 -0.828,-6.269 0.238,-11.487 7.421,-13.391"
         style="fill:#c9dff8;fill-opacity:1;fill-rule:nonzero;stroke:none"
         id="path618" />
      <path
         d="m 366.5789,600.1849 c -6.871,-1.738 -7.36,-2.256 -8.877,-8.479 -1.37,2.622 -1.343,4.015 0.46,6.123 1.877,2.194 4.108,3.661 8.417,2.356"
         style="fill:#c9dff8;fill-opacity:1;fill-rule:nonzero;stroke:none"
         id="path650" />
      <path
         d="m 334.1756,563.8616 c 4.427,4.721 9.517,5.117 15.117,1.179 -0.273,-0.317 -0.547,-0.632 -0.82,-0.949 -4.825,3.427 -9.316,2.53 -13.598,-1.051 -0.233,0.273 -0.466,0.548 -0.699,0.821"
         style="fill:#c9dff8;fill-opacity:1;fill-rule:nonzero;stroke:none"
         id="path674" />
      <path
         d="m 391.6942,492.6751 c -2.6,-3.623 -1.848,-6.649 2.454,-9.274 -2.979,-0.663 -4.173,0.782 -4.83,2.314 -1.249,2.913 -0.832,5.717 1.583,8.016 0.264,-0.353 0.528,-0.704 0.793,-1.056"
         style="fill:#c9dff8;fill-opacity:1;fill-rule:nonzero;stroke:none"
         id="path686" />
      <path
         d="m 231.6658,578.7112 c -1.998,2.319 -2.316,4.879 -0.237,7.139 1.458,1.585 3.482,1.905 5.824,0.13 -5.591,-0.551 -6.398,-1.84 -4.624,-6.543 -0.32,-0.243 -0.642,-0.484 -0.963,-0.726"
         style="fill:#c9dff8;fill-opacity:1;fill-rule:nonzero;stroke:none"
         id="path690" />
      <path
         d="m 490.6619,581.6976 c 1.119,1.07 1.917,2.537 3.947,3.275 -0.326,-2.377 -1.875,-3.241 -3.2,-4.268 z"
         style="fill:#c9dff8;fill-opacity:1;fill-rule:nonzero;stroke:none"
         id="path702" />
      <path
         d="m 139.0067,482.0736 c -0.2,-0.206 -0.401,-0.411 -0.602,-0.617 -0.318,0.254 -0.636,0.509 -0.956,0.763 0.28,0.27 0.558,0.54 0.837,0.81 0.241,-0.318 0.481,-0.638 0.721,-0.956"
         style="fill:#c9dff8;fill-opacity:1;fill-rule:nonzero;stroke:none"
         id="path722" />
      <path
         d="m 349.2928,565.0403 c 0.277,-0.291 0.554,-0.582 0.831,-0.873 -0.303,-0.277 -0.604,-0.555 -0.907,-0.832 -0.248,0.253 -0.496,0.505 -0.744,0.757 0.273,0.316 0.547,0.632 0.82,0.948"
         style="fill:#c9dff8;fill-opacity:1;fill-rule:nonzero;stroke:none"
         id="path726" />
      <path
         d="m 392.4393,493.6185 c -0.248,-0.314 -0.497,-0.629 -0.745,-0.943 -0.265,0.351 -0.529,0.703 -0.793,1.055 0.206,0.208 0.412,0.415 0.618,0.623 z"
         style="fill:#c9dff8;fill-opacity:1;fill-rule:nonzero;stroke:none"
         id="path730" />
      <path
         d="m 368.8406,532.1077 c 5.497,-6.272 11.948,-9.826 20.641,-7.215 -7.271,2.021 -13.474,5.315 -16.518,12.752 5.273,-6.93 11.718,-11.261 20.853,-10.075 -3.304,2.409 -7.341,3.617 -10.222,6.627 0.259,0.327 0.517,0.654 0.775,0.981 3.34,-2.005 6.494,-4.38 10.356,-5.355 0.709,-0.18 2.215,-1.161 1.535,0.99 0.258,0.333 0.515,0.666 0.771,0.999 2.388,1.094 0.251,2.267 -0.168,3.012 -1.976,3.513 -5.263,5.985 -7.543,9.339 4.317,-2.166 7.129,-5.925 10.198,-10.349 1.039,5.246 -1.64,8.483 -3.816,11.884 0.286,0.216 0.573,0.431 0.859,0.646 2.642,-1.633 3.107,-4.77 4.793,-7.303 1.982,9.942 -4.845,17.55 -18.01,20.41 4.257,2.539 12.848,-1.598 17.079,-8.223 5.705,-8.934 3.373,-20.297 -5.342,-26.027 -8.656,-5.692 -20.61,-2.966 -27.105,6.18 z"
         style="fill:#c9dff8;fill-opacity:1;fill-rule:nonzero;stroke:none"
         id="path790" />
      <path
         d="m 396.2606,530.8128 c -3.947,3.108 -7.896,6.217 -11.844,9.326 0.312,0.391 0.622,0.781 0.933,1.172 3.894,-3.166 7.789,-6.333 11.682,-9.5 -0.256,-0.332 -0.513,-0.665 -0.771,-0.998"
         style="fill:#c9dff8;fill-opacity:1;fill-rule:nonzero;stroke:none"
         id="path794" />
      <path
         d="m 367.9764,531.3812 c -1.809,2.409 -3.023,4.998 -2.203,8.245 1.022,-2.506 2.045,-5.013 3.067,-7.518 z"
         style="fill:#c9dff8;fill-opacity:1;fill-rule:nonzero;stroke:none"
         id="path798" />
      <path
         d="m 383.5945,534.1966 c -2.115,1.194 -4.036,2.588 -5.771,5.56 3.279,-1.063 4.611,-3.264 6.546,-4.579 -0.258,-0.327 -0.516,-0.654 -0.775,-0.981"
         style="fill:#c9dff8;fill-opacity:1;fill-rule:nonzero;stroke:none"
         id="path802" />
      <path
         d="m 393.1395,548.2425 c 0.017,0.628 0.074,1.128 0.599,0.897 0.424,-0.186 0.814,-0.61 1.041,-1.026 0.131,-0.238 0.055,-0.888 -0.552,-0.642 -0.44,0.177 -0.798,0.557 -1.088,0.771"
         style="fill:#c9dff8;fill-opacity:1;fill-rule:nonzero;stroke:none"
         id="path806" />
      <path
         d="m 395.7029,545.6976 c -0.465,0.446 -1.328,1.074 -0.792,1.564 0.923,0.845 1.225,-0.344 1.65,-0.918 -0.286,-0.215 -0.572,-0.43 -0.858,-0.646"
         style="fill:#c9dff8;fill-opacity:1;fill-rule:nonzero;stroke:none"
         id="path810" />
      <path
         d="m 126.9725,522.97 c -6.413,-0.198 -12.377,1.612 -17.946,4.896 5.932,-1.72 11.903,-3.275 17.946,-4.896"
         style="fill:#c9dff8;fill-opacity:1;fill-rule:nonzero;stroke:none"
         id="path814" />
      <path
         d="m 131.4715,488.305 c -0.854,5.181 -0.704,10.268 2.227,14.925 -1.089,-4.917 -1.123,-9.966 -2.227,-14.925"
         style="fill:#c9dff8;fill-opacity:1;fill-rule:nonzero;stroke:none"
         id="path818" />
      <path
         d="m 492.8152,501.0462 c -0.287,2.077 -1.533,3.383 -3.573,3.319 -1.983,-0.062 -3.558,-1.353 -3.565,-3.419 -0.007,-2.234 1.503,-3.687 3.769,-3.547 2.015,0.124 3.161,1.545 3.369,3.647 m -3.751,-5.26 c -3.098,0.379 -4.872,2.012 -4.759,5.247 0.114,3.263 2.016,4.794 5.156,4.779 3.298,-0.016 4.94,-2.069 4.855,-5.079 -0.087,-3.095 -2.223,-4.648 -5.252,-4.947"
         style="fill:#c9dff8;fill-opacity:1;fill-rule:nonzero;stroke:none"
         id="path822" />
      <path
         d="m 494.2,510.3539 c -9.152,2.267 -9.996,1.997 -14.599,-4.669 -0.405,3.129 1.054,5.284 4.703,6.948 3.696,1.686 7.32,0.851 9.896,-2.279"
         style="fill:#c9dff8;fill-opacity:1;fill-rule:nonzero;stroke:none"
         id="path826" />
      <path
         d="m 252.5818,543.4036 c 0.394,-6.894 0.491,-7.009 8.261,-7.405 1.265,-0.065 1.631,-0.282 1.44,-1.703 -1.246,-9.312 -0.316,-10.205 9.946,-9.59 -2.901,-2.453 -5.783,-2.647 -8.745,-1.143 -2.799,1.423 -4.274,4.107 -3.662,6.992 0.703,3.316 -0.574,3.507 -3.26,3.796 -4.739,0.51 -6.676,5.266 -3.98,9.053"
         style="fill:#c9dff8;fill-opacity:1;fill-rule:nonzero;stroke:none"
         id="path954" />
      <path
         d="m 245.699,511.7767 c 7.686,-0.546 14.599,1.269 21.329,7.247 -3.19,-6.729 -14.419,-10.129 -21.329,-7.247"
         style="fill:#c9dff8;fill-opacity:1;fill-rule:nonzero;stroke:none"
         id="path958" />
      <path
         d="m 238.5565,521.4427 c 0.039,6.493 3.049,11.563 7.988,15.655 -3.157,-4.959 -6.505,-9.817 -7.988,-15.655"
         style="fill:#c9dff8;fill-opacity:1;fill-rule:nonzero;stroke:none"
         id="path962" />
      <path
         d="m 144.5838,566.2562 c 2.313,0.186 3.96,1.442 3.944,3.926 -0.016,2.516 -1.809,3.873 -4.175,3.802 -2.434,-0.074 -3.946,-1.703 -3.834,-4.159 0.101,-2.266 1.6,-3.493 4.065,-3.569 m -0.505,9.138 c 3.615,0.006 5.635,-1.689 6.062,-4.938 0.386,-2.941 -2.342,-5.656 -5.463,-5.746 -3.41,-0.097 -5.71,2.031 -5.647,5.369 0.065,3.426 2.05,5.044 5.048,5.315"
         style="fill:#c9dff8;fill-opacity:1;fill-rule:nonzero;stroke:none"
         id="path986" />
      <path
         d="m 158.5018,558.4671 c -4.207,-5.423 -9.529,-6.883 -15.446,-3.814 5.733,-1.018 10.715,0.176 14.62,4.539 0.275,-0.242 0.551,-0.484 0.826,-0.725"
         style="fill:#c9dff8;fill-opacity:1;fill-rule:nonzero;stroke:none"
         id="path990" />
      <path
         d="m 157.6756,559.1917 c 1.158,2.606 2.045,5.291 2.582,8.119 0.801,-3.196 0.565,-6.2 -1.756,-8.844 -0.275,0.242 -0.551,0.484 -0.826,0.725"
         style="fill:#c9dff8;fill-opacity:1;fill-rule:nonzero;stroke:none"
         id="path994" />
      <path
         d="m 152.2733,560.3694 c -2.435,-2.063 -5.082,-2.354 -8.915,-0.786 3.296,0.759 5.998,0.095 8.17,1.595 0.248,-0.27 0.497,-0.539 0.745,-0.809"
         style="fill:#c9dff8;fill-opacity:1;fill-rule:nonzero;stroke:none"
         id="path998" />
      <path
         d="m 151.5281,561.178 c 0.654,1.042 1.328,2.072 1.956,3.129 0.591,0.994 -0.24,2.514 1.148,3.291 1.08,-3.463 0.804,-4.288 -2.359,-7.229 -0.248,0.27 -0.497,0.539 -0.745,0.809"
         style="fill:#c9dff8;fill-opacity:1;fill-rule:nonzero;stroke:none"
         id="path1002" />
      <path
         d="m 181.9852,521.8626 c 1.918,0.222 3.199,1.285 3.226,3.203 0.028,1.951 -1.264,3.145 -3.208,3.169 -1.785,0.023 -2.878,-1.094 -2.995,-2.881 -0.13,-2.03 1.131,-3.021 2.977,-3.491 m 4.838,3.305 c -0.201,-3.276 -2.192,-4.661 -5,-4.603 -2.965,0.061 -4.593,1.874 -4.467,4.924 0.121,2.96 2.151,4.264 4.723,4.288 2.908,0.028 4.58,-1.732 4.744,-4.609"
         style="fill:#c9dff8;fill-opacity:1;fill-rule:nonzero;stroke:none"
         id="path1038" />
      <path
         d="m 187.8465,535.64 c -9.989,3.062 -11.221,2.572 -16.41,-5.919 -0.36,3.392 1.424,6.462 4.722,8.131 3.709,1.877 7.889,1.262 11.688,-2.212"
         style="fill:#c9dff8;fill-opacity:1;fill-rule:nonzero;stroke:none"
         id="path1042" />
      <path
         d="m 360.1824,577.2103 c 1.414,0.256 2.509,1.08 2.491,2.668 -0.017,1.532 -0.893,2.649 -2.574,2.633 -1.638,-0.016 -2.562,-1.035 -2.609,-2.617 -0.051,-1.656 1.006,-2.456 2.692,-2.684 m -0.039,-1.529 c -2.712,0.113 -4.276,1.465 -4.291,4.139 -0.016,2.681 1.739,4.242 4.189,4.286 2.509,0.043 4.205,-1.645 4.251,-4.235 0.047,-2.64 -1.551,-4.038 -4.149,-4.19"
         style="fill:#c9dff8;fill-opacity:1;fill-rule:nonzero;stroke:none"
         id="path1058" />
      <path
         d="m 340.4793,560.3401 c -1.595,-0.407 -2.955,-1.124 -2.854,-2.992 0.084,-1.561 1.137,-2.606 2.689,-2.627 1.51,-0.022 2.704,0.855 2.832,2.463 0.144,1.801 -1.026,2.717 -2.667,3.156 m -0.177,1.474 c 2.803,-0.266 4.444,-1.64 4.45,-4.258 0.008,-2.796 -1.661,-4.467 -4.46,-4.412 -2.831,0.055 -4.326,1.845 -4.198,4.63 0.122,2.66 1.886,3.847 4.208,4.04"
         style="fill:#c9dff8;fill-opacity:1;fill-rule:nonzero;stroke:none"
         id="path1066" />
    </g>
  </g>
</svg>
