<?xml version="1.0" encoding="UTF-8" standalone="no"?>
<svg
  width="181.13"
  height="31.549999"
  viewBox="0 0 181.13 31.549999"
  version="1.1"
  id="Vrstva_1"
  xmlns="http://www.w3.org/2000/svg"
>
  <defs
    id="defs894"/>
  <path
    fill="#0000dc"
    d="M 0,0 V 26.6 H 4.14 V 0 Z m 4.29,0 2.59,26.6 h 1.4 L 5.7,0 Z m 6.73,0 -2.58,26.6 h 1.4 L 12.43,0 Z m 1.56,0 v 26.6 h 4.18 V 0 Z m 15.69,0 v 20.48 c 0,3.57 3.23,6.35 6.69,6.35 3.46,0 6.69,-2.78 6.69,-6.35 V 0 h -4.18 v 20.33 c 0,1.44 -1.29,2.47 -2.51,2.47 -1.22,0 -2.51,-1.03 -2.51,-2.47 V 0 Z m 26.26,0 v 26.6 h 4.18 V 0 Z m 4.33,0 3.95,26.6 h 1.45 L 60.31,0 Z m 5.55,0 v 26.6 h 4.18 V 0 Z M 82.46,25.12 V 26.6 H 93.82 V 25.12 H 90.21 V 1.48 h 3.61 V 0 H 82.46 v 1.48 h 3.57 v 23.64 z"
    id="path883"/>
  <path
    fill="#0000dc"
    d="M 123.59,10.69 V 0.01 h -3.54 l -1.55,4.9 c -0.4,1.29 -0.76,2.63 -1.04,3.93 h -0.03 c -0.29,-1.3 -0.65,-2.64 -1.06,-3.93 l -1.54,-4.9 h -3.54 v 10.68 h 2.11 V 5.38 c 0,-1.34 -0.03,-2.67 -0.09,-4 h 0.03 c 0.35,1.3 0.74,2.63 1.15,3.92 l 1.69,5.39 h 2.52 l 1.7,-5.39 c 0.4,-1.29 0.79,-2.62 1.13,-3.92 h 0.03 c -0.06,1.33 -0.09,2.66 -0.09,4 v 5.31 z m 5.23,-7.86 c -2.17,0 -3.22,1.17 -3.29,2.62 h 2.03 c 0.03,-0.72 0.48,-1.15 1.26,-1.15 0.74,0 1.25,0.39 1.25,1.35 v 0.27 c -0.48,0.03 -1.34,0.12 -1.91,0.21 -2.2,0.34 -2.95,1.18 -2.95,2.43 0,1.32 0.98,2.31 2.6,2.31 1.04,0 1.9,-0.39 2.47,-1.2 h 0.03 c 0,0.37 0.03,0.7 0.1,1.02 h 1.9 C 132.17,10.18 132.09,9.56 132.09,8.6 V 5.84 c 0,-1.99 -1.11,-3.01 -3.27,-3.01 z m 1.25,4.65 c 0,0.69 -0.07,1.09 -0.44,1.45 -0.3,0.3 -0.76,0.44 -1.19,0.44 -0.74,0 -1.13,-0.39 -1.13,-0.96 0,-0.62 0.36,-0.9 1.23,-1.05 0.45,-0.08 1.08,-0.14 1.53,-0.17 z m 6.81,-4.65 c -1.89,0 -3.15,0.97 -3.15,2.34 0,1.77 1.36,2.07 2.64,2.4 1.19,0.31 1.75,0.45 1.75,1.11 0,0.45 -0.37,0.73 -1.1,0.73 -0.87,0 -1.34,-0.43 -1.34,-1.2 h -2.13 c 0,1.85 1.31,2.72 3.42,2.72 2.07,0 3.36,-0.96 3.36,-2.39 0,-1.86 -1.5,-2.2 -2.86,-2.56 -1.16,-0.3 -1.64,-0.44 -1.64,-0.98 0,-0.43 0.36,-0.7 1.04,-0.7 0.75,0 1.19,0.33 1.19,1.11 h 2.02 c 0,-1.7 -1.21,-2.58 -3.2,-2.58 z m 8.23,0 c -2.17,0 -3.22,1.17 -3.3,2.62 h 2.04 c 0.03,-0.72 0.48,-1.15 1.26,-1.15 0.74,0 1.25,0.39 1.25,1.35 v 0.27 c -0.48,0.03 -1.34,0.12 -1.91,0.21 -2.2,0.34 -2.95,1.18 -2.95,2.43 0,1.32 0.97,2.31 2.59,2.31 1.05,0 1.91,-0.39 2.48,-1.2 h 0.03 c 0,0.37 0.03,0.7 0.1,1.02 h 1.89 C 148.46,10.18 148.38,9.56 148.38,8.6 V 5.84 c 0,-1.99 -1.11,-3.01 -3.27,-3.01 z m 1.25,4.65 c 0,0.69 -0.08,1.09 -0.44,1.45 -0.3,0.3 -0.76,0.44 -1.2,0.44 -0.73,0 -1.12,-0.39 -1.12,-0.96 0,-0.62 0.36,-0.9 1.23,-1.05 0.45,-0.08 1.08,-0.14 1.53,-0.17 z m 8.02,-4.53 c -0.9,0 -1.57,0.37 -2.08,1.2 h -0.03 V 3.07 h -1.93 v 7.62 h 2.1 v -3.6 c 0,-1.5 0.68,-2.31 1.97,-2.31 0.21,0 0.43,0.03 0.66,0.07 V 3.04 c -0.2,-0.06 -0.48,-0.09 -0.69,-0.09 z m 8.48,0.12 h -2.16 l -0.83,2.55 c -0.34,1.05 -0.62,2.13 -0.88,3.19 h -0.03 c -0.24,-1.06 -0.52,-2.14 -0.84,-3.19 l -0.78,-2.55 h -2.25 l 2.16,6.19 c 0.3,0.86 0.36,1.1 0.36,1.38 0,0.75 -0.55,1.24 -1.39,1.24 -0.32,0 -0.61,-0.05 -0.82,-0.13 v 1.68 c 0.32,0.08 0.72,0.12 1.1,0.12 1.9,0 2.86,-0.67 3.63,-2.82 z m 8.19,7.62 -3.21,-4.11 2.89,-3.51 h -2.36 l -2.47,3.07 h -0.03 V 0.01 h -2.09 v 10.68 h 2.09 V 7.12 h 0.03 l 2.55,3.57 z"
    id="path885"/>
  <path
    fill="#0000dc"
    d="m 119.69,18.01 h -2.2 v 6.52 c 0,1.6 -0.72,2.45 -2.05,2.45 -1.32,0 -2.04,-0.85 -2.04,-2.45 v -6.52 h -2.2 v 6.6 c 0,2.82 1.53,4.32 4.24,4.32 2.72,0 4.25,-1.5 4.25,-4.32 z m 6.39,2.88 c -0.97,0 -1.74,0.46 -2.24,1.14 h -0.02 v -0.96 h -1.97 v 7.62 h 2.1 v -4.08 c 0,-1.38 0.63,-2.07 1.5,-2.07 0.83,0 1.34,0.52 1.34,1.68 v 4.47 h 2.1 v -4.68 c 0,-2.07 -1.1,-3.12 -2.81,-3.12 z m 6.87,-1.08 v -1.8 h -2.1 v 1.8 z m 0,8.88 v -7.62 h -2.1 v 7.62 z m 6.21,0 2.56,-7.62 h -2.19 l -0.88,3 c -0.31,1.08 -0.6,2.19 -0.84,3.3 h -0.03 c -0.24,-1.11 -0.53,-2.22 -0.84,-3.3 l -0.88,-3 h -2.19 l 2.56,7.62 z m 6.69,-1.24 c -0.9,0 -1.66,-0.56 -1.73,-2.14 h 5.48 c 0,-0.84 -0.07,-1.42 -0.24,-1.95 -0.48,-1.54 -1.77,-2.53 -3.52,-2.53 -2.39,0 -3.78,1.74 -3.78,3.99 0,2.43 1.39,4.11 3.79,4.11 2.02,0 3.34,-1.16 3.65,-2.55 h -2.15 c -0.1,0.61 -0.66,1.07 -1.5,1.07 z m -0.01,-5.14 c 0.84,0 1.53,0.53 1.66,1.68 h -3.33 c 0.17,-1.15 0.81,-1.68 1.67,-1.68 z m 9.35,-1.36 c -0.9,0 -1.57,0.37 -2.08,1.2 h -0.03 v -1.08 h -1.93 v 7.62 h 2.1 v -3.6 c 0,-1.5 0.69,-2.31 1.97,-2.31 0.22,0 0.43,0.03 0.66,0.07 v -1.81 c -0.2,-0.06 -0.48,-0.09 -0.69,-0.09 z m 4.55,-0.12 c -1.89,0 -3.15,0.97 -3.15,2.34 0,1.77 1.36,2.07 2.64,2.4 1.18,0.31 1.75,0.45 1.75,1.11 0,0.45 -0.37,0.73 -1.11,0.73 -0.87,0 -1.33,-0.43 -1.33,-1.2 h -2.13 c 0,1.85 1.31,2.72 3.42,2.72 2.07,0 3.36,-0.96 3.36,-2.39 0,-1.86 -1.5,-2.2 -2.87,-2.56 -1.15,-0.3 -1.63,-0.43 -1.63,-0.98 0,-0.43 0.36,-0.7 1.03,-0.7 0.75,0 1.2,0.33 1.2,1.11 h 2.02 c 0,-1.7 -1.21,-2.58 -3.2,-2.58 z m 7.13,-1.02 v -1.8 h -2.1 v 1.8 z m 0,8.88 v -7.62 h -2.1 v 7.62 z m 5.45,-1.58 c -0.72,0 -0.99,-0.33 -0.99,-1.16 v -3.32 h 1.46 v -1.56 h -1.46 v -1.98 h -2.1 v 1.98 H 168 v 1.56 h 1.23 v 3.69 c 0,1.77 0.77,2.47 2.52,2.47 0.36,0 0.83,-0.06 1.11,-0.15 v -1.6 c -0.13,0.05 -0.34,0.07 -0.54,0.07 z m 8.81,-6.04 h -2.16 l -0.83,2.55 c -0.34,1.05 -0.63,2.13 -0.88,3.19 h -0.03 c -0.24,-1.06 -0.53,-2.14 -0.84,-3.19 l -0.78,-2.55 h -2.25 l 2.16,6.2 c 0.3,0.85 0.36,1.09 0.36,1.37 0,0.75 -0.56,1.24 -1.4,1.24 -0.31,0 -0.6,-0.05 -0.81,-0.13 v 1.68 c 0.32,0.08 0.72,0.12 1.1,0.12 1.9,0 2.86,-0.67 3.63,-2.82 z"
    id="path887"/>
  <desc
    id="desc889">Masaryk University
  </desc>
</svg>
