<?xml version="1.0" encoding="UTF-8" standalone="no"?>
<!-- Created with Inkscape (http://www.inkscape.org/) -->

<svg
  version="1.1"
  id="svg2"
  xml:space="preserve"
  width="286.89066"
  height="337.76749"
  viewBox="0 0 286.89065 337.76749"
  xmlns="http://www.w3.org/2000/svg"
><defs
     id="defs6"><clipPath
       clipPathUnits="userSpaceOnUse"
       id="clipPath16"><path
         d="M 0,344 H 322 V 0 H 0 Z"
         id="path14" /></clipPath></defs>
  <g
    id="g8"
    transform="matrix(1.3333333,0,0,-1.3333333,-74.148265,407.81415)"><g
       id="g10"><g
         id="g12"
         clip-path="url(#clipPath16)"><g
           id="g18"
           transform="translate(218.4512,74.375)"><path
             d="M 0,0 C -0.089,-0.023 -0.207,0.061 -0.217,0.178 -0.229,1.244 0.385,2.367 1.312,2.627 1.929,2.799 2.75,2.244 2.924,1.625 3.071,1.096 2.713,0.758 2.36,0.66 1.258,0.352 0.58,0.139 0,0 M 6.334,-3.178 C 5.946,-4.428 5.15,-5.578 3.341,-6.084 0.803,-6.793 -1.277,-5.305 -1.98,-2.789 -2.474,-1.023 -1.996,1.014 -0.398,2.363 0.079,2.781 0.697,3.121 1.293,3.287 2.176,3.533 3.179,3.434 3.913,3.02 4.556,2.678 5.078,2.086 5.294,1.312 5.338,1.158 5.221,0.723 4.957,0.648 4.691,0.574 1.184,-0.406 0.146,-0.695 0.036,-0.727 -0.056,-0.824 -0.053,-0.918 -0.07,-1.113 0.007,-1.473 0.08,-1.736 c 0.137,-0.487 0.685,-1.428 1.258,-1.862 0.749,-0.552 1.787,-0.691 2.757,-0.42 0.926,0.26 1.505,0.659 1.77,1.329 0.051,0.156 0.125,0.32 0.213,0.343 0.088,0.026 0.242,-0.097 0.279,-0.23 0.038,-0.133 0.039,-0.395 -0.023,-0.602 m -10.199,-3.24 c -0.582,-0.973 -1.726,-1.953 -3.113,-2.26 -1.633,-0.361 -3.073,0.213 -3.907,1.014 -0.601,0.594 -1.109,1.514 -1.312,2.432 -0.385,1.744 0.227,3.216 1.377,4.386 0.664,0.711 2.047,1.461 2.941,1.658 0.672,0.149 1.83,0.217 2.301,-0.005 0.336,-0.139 0.494,-0.432 0.558,-0.723 0.089,-0.402 -0.505,-1.215 -0.64,-1.244 -0.201,-0.045 -0.594,0.033 -1.152,0.332 -0.713,0.359 -1.286,0.724 -1.98,0.572 -0.246,-0.055 -0.597,-0.273 -0.853,-0.705 -0.431,-0.705 -0.497,-1.893 -0.269,-2.922 0.326,-1.476 1.093,-2.082 1.234,-2.191 0.555,-0.487 1.498,-0.936 2.705,-0.668 0.65,0.142 1.329,0.574 1.985,1.213 0.097,0.092 0.291,0.064 0.331,-0.116 0.05,-0.224 -0.066,-0.554 -0.206,-0.773 m -10.033,-3.5 c -0.159,-0.027 -1.389,-0.176 -1.885,-0.264 -0.723,-0.127 -1.789,-0.41 -2.174,-0.478 -0.36,-0.063 -0.655,0.023 -0.684,0.181 -0.027,0.159 0.11,0.299 0.516,0.51 0.513,0.254 0.713,0.571 0.719,0.803 0.034,0.332 -0.205,1.943 -0.489,3.545 -0.084,0.475 -0.312,1.76 -0.404,2.023 -0.055,0.176 -0.366,0.354 -0.912,0.676 -0.159,0.111 -0.314,0.201 -0.334,0.315 -0.033,0.179 0.184,0.404 0.533,0.535 0.893,0.345 2.219,1.138 2.565,1.293 0.112,0.019 0.257,-0.141 0.269,-0.209 0.09,-0.776 0.559,-3.811 0.79,-5.119 0.124,-0.7 0.286,-1.487 0.45,-2.272 0.141,-0.674 0.428,-0.715 1.047,-0.793 0.359,-0.053 0.541,-0.16 0.573,-0.34 0.032,-0.181 -0.264,-0.349 -0.58,-0.406 m -7.979,7.213 c -0.498,-0.25 -0.781,-0.565 -1.084,-1.252 -0.425,-1.164 -0.881,-2.795 -1.302,-4.354 -0.447,-1.699 -0.516,-2.054 -0.723,-3.121 -0.069,-0.355 -0.378,-0.65 -0.559,-0.673 -0.113,-0.016 -0.27,0.125 -0.394,0.363 -0.221,0.457 -0.481,1.023 -1.199,2.269 -0.758,1.381 -2.329,4.018 -2.913,4.774 -0.252,0.336 -0.501,0.65 -1.093,0.758 -0.358,0.091 -0.575,0.156 -0.602,0.359 -0.018,0.137 0.306,0.318 0.601,0.355 0.273,0.038 2.106,0.161 2.377,0.198 0.592,0.076 1.288,0.236 1.582,0.275 0.364,0.049 0.561,-0.041 0.582,-0.201 0.02,-0.158 -0.161,-0.367 -0.49,-0.502 -0.55,-0.211 -0.52,-0.439 -0.307,-0.826 0.727,-1.5 2.045,-3.615 2.265,-3.887 0.083,-0.105 0.142,-0.027 0.176,0.068 0.19,0.489 0.904,3.332 1.039,4.067 0.105,0.613 -0.11,0.84 -0.841,0.951 -0.214,0.043 -0.478,0.123 -0.502,0.305 -0.018,0.136 0.168,0.299 0.532,0.347 0.273,0.036 0.827,0.039 1.259,0.096 0.453,0.059 1.053,0.252 1.507,0.313 0.25,0.033 0.534,-0.024 0.556,-0.182 0.02,-0.158 -0.075,-0.311 -0.467,-0.5 m -12.186,-9.287 c -0.884,-0.735 -2.027,-1.102 -3.078,-1.184 -1.027,-0.082 -2.344,0.297 -3.246,0.94 -1.045,0.72 -1.888,2.103 -1.99,3.382 -0.126,1.598 0.486,2.866 1.297,3.665 0.639,0.648 1.86,1.48 3.551,1.613 2.284,0.18 4.96,-1.403 5.194,-4.371 0.153,-1.942 -0.925,-3.43 -1.728,-4.045 m -9.958,-1.541 c -0.549,-0.014 -2.064,0.086 -3.254,0.033 l -1.1,-0.049 c -0.251,-0.008 -0.597,0.053 -0.603,0.305 -0.002,0.139 0.109,0.232 0.496,0.357 0.34,0.123 0.451,0.309 0.285,0.533 -0.617,0.833 -1.183,1.485 -2.295,2.901 -0.237,0.291 -0.355,0.449 -0.446,0.447 -0.093,-0.002 -0.089,-0.117 -0.11,-0.209 -0.085,-0.254 -0.009,-2.406 0.095,-2.885 0.078,-0.433 0.177,-0.683 0.822,-0.828 0.253,-0.062 0.486,-0.217 0.488,-0.332 0.008,-0.299 -0.357,-0.353 -0.609,-0.359 -0.572,-0.014 -1.605,0.029 -2.178,0.015 -0.8,-0.019 -1.783,-0.136 -2.082,-0.142 -0.48,-0.012 -0.644,0.098 -0.648,0.281 -0.005,0.207 0.359,0.33 0.654,0.43 0.682,0.222 0.883,0.433 0.937,1.053 0.012,0.435 0.061,4.035 -0.013,7.035 -0.074,2.955 -0.178,4.42 -0.263,5.058 -0.026,0.16 -0.145,0.319 -0.702,0.625 -0.232,0.11 -0.376,0.358 -0.379,0.473 -0.002,0.068 0.156,0.186 0.362,0.236 0.728,0.18 2.115,0.604 2.68,0.938 0.226,0.121 0.362,0.215 0.476,0.219 0.068,0.002 0.234,-0.202 0.214,-0.293 -0.099,-0.668 -0.052,-6.282 0.004,-8.526 0.013,-0.549 0.023,-1.879 0.122,-2.174 0.025,-0.113 0.072,-0.136 0.187,-0.132 0.091,0.002 0.203,0.119 0.36,0.259 0.673,0.59 2.056,2.092 2.457,2.606 0.088,0.117 0.15,0.392 -0.632,0.512 -0.323,0.06 -0.486,0.193 -0.49,0.308 -0.002,0.137 0.222,0.326 0.452,0.332 l 0.961,0.024 c 1.375,0.033 2.697,0.318 3.315,0.334 0.114,0.002 0.208,-0.065 0.21,-0.178 0.008,-0.276 -0.375,-0.537 -0.467,-0.563 -1.32,-0.33 -1.842,-0.595 -2.808,-1.351 -0.428,-0.309 -1.233,-1.108 -1.342,-1.34 -0.022,-0.047 -0.02,-0.16 -0.02,-0.16 0.334,-0.496 2.746,-3.531 3.568,-4.313 0.444,-0.379 0.794,-0.599 1.417,-0.744 0.369,-0.105 0.578,-0.262 0.581,-0.353 0.006,-0.274 -0.266,-0.373 -0.702,-0.383 m 24.763,16.656 c 0.227,0.295 0.629,0.529 1.057,0.606 0.791,0.14 1.352,-0.668 1.444,-1.188 0.132,-0.744 -0.546,-1.518 -1.11,-1.617 -0.203,-0.035 -0.678,0.019 -0.971,0.224 -0.266,0.186 -0.524,0.465 -0.604,0.916 -0.048,0.272 -0.015,0.743 0.184,1.059 m -37.833,-14.211 c -0.082,-0.502 -0.616,-1.635 -0.773,-2.34 -0.025,-0.092 -0.214,-0.316 -0.352,-0.312 -0.138,0.004 -3.683,0.236 -4.761,0.265 -1.007,0.026 -1.72,-0.046 -2.247,-0.054 -0.068,0 -0.27,0.166 -0.265,0.373 0.005,0.136 0.815,1.306 1.529,2.32 0.714,0.988 2.157,3.541 3.211,5.231 0.048,0.068 0.074,0.205 -0.017,0.23 -0.183,0.027 -1.394,0.152 -2.448,0.18 -0.206,0.006 -0.959,-0.731 -1.46,-1.496 -0.142,-0.18 -0.264,-0.383 -0.424,-0.379 -0.16,0.004 -0.291,0.236 -0.239,0.465 0.028,0.205 0.081,0.457 0.204,0.796 0.151,0.455 0.237,1.139 0.248,1.53 0.002,0.113 0.003,0.136 0.12,0.226 0.14,0.088 0.232,0.084 0.3,0.061 0.315,-0.238 0.836,-0.459 1.248,-0.469 l 2.176,-0.059 c 1.648,-0.044 2.682,0.02 3.186,0.006 0.091,-0.002 0.251,-0.05 0.34,-0.123 0.09,-0.07 0.063,-0.23 0.015,-0.32 -0.215,-0.293 -0.645,-0.945 -1.193,-1.756 -0.643,-0.9 -2.422,-3.992 -3.426,-5.594 -0.095,-0.089 0.017,-0.207 0.085,-0.23 0.159,-0.074 1.462,-0.201 2.354,-0.225 0.207,-0.006 0.439,0.104 0.581,0.283 0.165,0.157 0.849,0.872 1.251,1.366 0.262,0.359 0.45,0.492 0.54,0.488 0.206,-0.004 0.244,-0.326 0.217,-0.463 m -10.72,2.334 c -0.152,-1.941 -1.449,-3.242 -2.336,-3.725 -0.989,-0.587 -2.175,-0.771 -3.226,-0.689 -1.027,0.08 -2.27,0.66 -3.059,1.434 -0.92,0.877 -1.539,2.373 -1.439,3.652 0.125,1.6 0.928,2.754 1.853,3.418 0.732,0.539 2.069,1.17 3.758,1.039 2.285,-0.18 4.682,-2.158 4.449,-5.129 m -13.188,-3.512 c -0.545,0.077 -1.425,0.243 -2.06,0.328 -0.568,0.079 -1.485,0.133 -1.803,0.176 -0.318,0.045 -0.604,0.153 -0.57,0.403 0.022,0.158 0.29,0.261 0.598,0.312 0.55,0.133 0.691,0.32 0.839,1.065 0.147,0.742 0.532,3.558 0.622,4.216 0.061,0.454 -0.037,1.092 -0.314,1.43 -0.219,0.262 -0.752,0.59 -1.23,0.654 -0.794,0.108 -1.211,-0.066 -1.56,-0.25 -0.1,-0.054 -0.253,-0.336 -0.295,-0.468 -0.075,-0.383 -0.696,-5.27 -0.71,-5.547 -0.021,-0.321 0.025,-0.489 0.698,-0.811 0.192,-0.119 0.352,-0.303 0.334,-0.439 -0.022,-0.158 -0.294,-0.283 -0.679,-0.231 -0.432,0.059 -1.266,0.219 -1.743,0.283 -0.84,0.116 -1.734,0.168 -2.121,0.221 -0.385,0.053 -0.594,0.219 -0.566,0.424 0.025,0.182 0.267,0.264 0.526,0.299 0.783,0.146 0.922,0.312 1.105,1.144 0.161,0.672 0.454,2.481 0.767,4.774 0.034,0.25 -0.094,0.5 -0.531,1.021 -0.158,0.207 -0.216,0.283 -0.207,0.352 0.019,0.137 0.309,0.398 0.477,0.443 0.472,0.076 1.544,0.299 1.931,0.432 0.389,0.131 0.706,0.25 0.819,0.234 0.091,-0.011 0.216,-0.283 0.204,-0.375 -0.034,-0.248 -0.132,-0.791 -0.159,-0.996 -0.019,-0.135 0.143,-0.135 0.143,-0.135 1.001,0.559 2.029,0.973 3.05,0.834 1.113,-0.152 1.698,-0.787 1.965,-1.193 0.443,-0.662 0.602,-1.701 0.444,-2.859 -0.066,-0.477 -0.475,-3.821 -0.496,-4.143 -0.001,-0.346 0.121,-0.641 0.689,-0.879 0.416,-0.174 0.56,-0.308 0.535,-0.49 -0.025,-0.182 -0.317,-0.279 -0.702,-0.229 m -11.938,6.354 c -0.379,-1.91 -1.821,-3.049 -2.761,-3.422 -1.05,-0.469 -2.251,-0.51 -3.284,-0.305 -1.012,0.201 -2.176,0.924 -2.869,1.785 -0.81,0.979 -1.248,2.54 -0.998,3.797 0.313,1.575 1.247,2.627 2.245,3.176 0.79,0.449 2.191,0.918 3.855,0.588 2.248,-0.447 4.394,-2.697 3.812,-5.619 m -10.329,7.918 c -0.485,-1.815 -1.564,-2.57 -2.354,-2.951 -0.705,-0.332 -2.058,-0.516 -2.921,-0.285 -0.244,0.064 -0.851,0.275 -1.109,0.462 -0.275,0.215 -0.4,0.368 -0.347,0.567 0.024,0.09 0.215,0.18 0.392,0.133 0.176,-0.047 0.243,-0.065 0.332,-0.088 0.929,-0.25 2.596,0.49 3.212,2.791 0.474,1.769 -0.224,3.947 -2.038,4.433 -0.199,0.053 -0.545,0.004 -0.651,-0.039 -0.083,-0.049 -0.259,-0.263 -0.418,-0.765 -0.14,-0.438 -0.874,-3.18 -1.571,-5.698 -0.539,-2.013 -0.88,-3.462 -1.028,-4.015 -0.339,-1.356 -0.379,-1.772 0.815,-2.447 0.419,-0.208 0.549,-0.432 0.495,-0.631 -0.047,-0.176 -0.459,-0.209 -0.768,-0.125 -0.575,0.154 -1.801,0.623 -2.775,0.884 -0.641,0.172 -1.749,0.373 -2.435,0.557 -0.509,0.135 -0.789,0.33 -0.724,0.572 0.042,0.155 0.399,0.25 0.638,0.256 1.155,-0.023 1.509,0.237 1.848,1.237 0.303,0.867 0.755,2.289 1.056,3.416 0.19,0.709 1.516,5.664 1.643,6.318 0.141,0.791 0.125,1.176 -1.05,1.656 -0.276,0.121 -0.455,0.336 -0.42,0.467 0.047,0.178 0.282,0.258 0.559,0.23 0.139,-0.013 0.537,-0.119 0.736,-0.173 1.416,-0.379 3.278,-0.688 4.274,-0.954 2.124,-0.568 3.455,-1.351 4.125,-2.478 0.768,-1.297 0.691,-2.557 0.484,-3.33 m 39.932,-0.551 c 0.205,-0.006 0.563,-0.336 0.674,-0.5 0.508,-0.701 0.949,-1.377 1.368,-1.984 0.066,-0.094 0.249,-0.098 0.298,-0.032 0.498,0.676 0.948,1.213 1.519,1.977 0.095,0.135 0.376,0.381 0.628,0.373 0.161,-0.004 0.243,-0.326 0.122,-0.6 -0.416,-0.951 -1.204,-2.168 -1.781,-3.207 -0.265,-0.451 -0.525,-0.787 -0.732,-0.781 -0.183,0.004 -0.425,0.377 -0.709,0.936 -0.215,0.486 -0.849,1.672 -1.479,2.996 -0.086,0.185 -0.298,0.832 0.092,0.822 M 13.32,19.403 C -6.587,13.828 -29.901,7.942 -55.275,7.942 c -25.134,0 -48.399,5.842 -68.279,11.376 l -11.474,-26.144 c 28.692,-10.102 54.788,-15.014 79.753,-15.014 25.154,0 51.347,4.945 80.057,15.118 z M -71.179,-5.389 c 0.63,-1.058 0.719,-2.56 0.644,-3.519 -0.102,-1.303 -0.562,-2.485 -1.09,-3.065 -0.373,-0.361 -0.821,-0.509 -1.049,-0.492 -0.96,0.076 -1.949,0.934 -2.305,2.57 -0.138,0.586 -0.162,1.461 -0.102,2.215 0.118,1.508 0.607,2.481 1.171,2.92 0.391,0.313 0.769,0.446 1.158,0.414 0.639,-0.05 1.203,-0.484 1.573,-1.043 m -24.705,3.219 c 0.5,-1.129 0.411,-2.629 0.224,-3.574 -0.255,-1.281 -0.852,-2.401 -1.444,-2.914 -0.414,-0.315 -0.876,-0.408 -1.101,-0.365 -0.944,0.189 -1.827,1.158 -1.985,2.826 -0.068,0.597 0.012,1.468 0.159,2.211 0.296,1.484 0.897,2.392 1.508,2.761 0.426,0.266 0.817,0.352 1.199,0.276 0.63,-0.125 1.138,-0.625 1.44,-1.221 m 60.882,-6.355 c 0.104,-1.303 -0.167,-2.541 -0.598,-3.198 -0.312,-0.414 -0.732,-0.631 -0.961,-0.648 -0.959,-0.076 -2.07,0.617 -2.676,2.178 -0.228,0.556 -0.388,1.418 -0.447,2.172 -0.119,1.507 0.213,2.544 0.701,3.066 0.338,0.371 0.691,0.56 1.079,0.59 0.64,0.051 1.264,-0.291 1.716,-0.783 0.788,-0.95 1.111,-2.418 1.186,-3.377 m 84.078,199.242 c -4.166,-3.463 -8.556,-6.823 -12.031,-10.925 -5.459,-6.427 -10.492,-13.252 -15.168,-20.27 -2.049,-3.081 -4.205,-3.867 -7.463,-3.328 -5.31,0.881 -9.998,3.219 -14.482,6.053 -1.909,1.208 -2.897,1.719 -4.754,2.991 -2.934,2.014 -7.67,5.533 -10.174,8.034 0.945,-2.678 6.189,-8.376 8.295,-9.977 6.879,-5.234 13.349,-9.411 22.347,-10.248 3.52,-0.328 7.235,0.985 9.351,4.035 0.819,0.855 0.795,0.935 3.827,5.482 0.16,0.242 0.321,0.478 0.481,0.713 0.851,-2.91 2.039,-6.187 2.28,-8.931 0.581,-6.68 -3.345,-11.262 -10.168,-12.357 -5.52,-0.891 -10.907,0.164 -16.011,2.104 -16.402,6.245 -29.543,16.539 -38.25,32.004 -2.094,3.718 -3.58,7.751 -3.471,12.174 0.134,5.729 3.42,10.136 9.063,11.139 3.464,0.62 4.84,0.947 8.368,0.391 2.042,-0.321 3.64,-1.273 3.64,-1.273 6.379,7.951 13.449,17.589 17.078,27.284 0.586,-2.34 1.717,-4.859 3.46,-7.504 3.993,-6.056 11.38,-11.555 22.993,-17.27 l -3.574,2.132 c -7.739,4.701 -14.143,10.537 -18.03,16.434 -2.098,3.183 -3.286,6.142 -3.601,8.757 1.424,2.189 3.719,3.003 6.49,3.11 5.229,0.205 9.799,-1.773 14.229,-4.243 9.189,-5.124 17.197,-11.671 23.285,-20.271 2.021,-2.857 3.226,-6.369 4.432,-9.709 0.953,-2.634 -0.247,-4.707 -2.442,-6.531 M -108.41,17.054 c -3.602,0.925 -9.292,2.571 -12.707,3.519 l 18.24,5.763 -4.98,-9.423 z M -132.416,4.433 c -12.205,3.942 -21.93,8.502 -30.424,14.06 l 23.819,3.403 -1.577,18.278 c 10.685,-5.129 23.332,-9.288 37.331,-12.21 l -21.975,-6.673 z m 129.76,12.48 -4.979,9.423 18.24,-5.763 C 7.189,19.625 1.5,17.979 -2.103,17.054 Z m 17.386,4.378 -21.976,6.673 c 14,2.922 26.646,7.081 37.332,12.21 L 28.51,21.896 52.328,18.493 C 43.834,12.935 34.109,8.375 21.904,4.433 Z m -87.826,93.359 c 0,0.348 2.713,8.888 6.183,18.336 3.472,9.46 6.806,18.586 7.398,20.279 0.6,1.689 1.867,4.097 3.22,4.761 l 0.031,-43.397 z m 45.342,-70.131 c -2.039,-1.196 -4.071,-1.536 -9.92,-1.67 -4.103,-0.103 -8.817,0.215 -10.662,0.722 -2.913,0.789 -3.274,1.113 -3.066,2.731 0.435,3.355 3.58,9.302 5.728,10.826 1.164,0.824 3.332,1.836 4.83,2.251 2.835,0.78 3.53,0.571 12.346,-3.747 5.566,-2.726 5.92,-8.086 0.744,-11.113 m -30.501,2.292 c -4.536,2.435 -6.756,4.723 -10.175,10.484 -1.939,3.257 -4.659,7.118 -6.039,8.585 -2.054,2.176 -2.522,3.252 -2.522,5.77 0,3.731 1.121,7.209 3.427,10.653 0.941,1.399 1.712,2.796 1.712,3.093 0,0.305 -1.959,2.5 -4.351,4.888 -3.082,3.067 -4.608,5.25 -5.193,7.443 -0.833,3.071 -0.817,3.115 2.127,5.825 2.718,2.512 5.893,7.957 5.935,10.177 0.003,0.123 0.088,0.547 0.234,1.18 h -48.324 l -0.467,62.912 65.627,-0.065 V 158.38 c 0.967,0.433 1.682,0.35 1.682,0.35 1.538,-0.613 24.867,-11.016 26.244,-12.258 0.721,-0.651 1.315,-1.991 1.315,-2.966 0,-0.968 -3.125,-7 -6.942,-13.4 -10.559,-17.702 -15.238,-27.066 -15.636,-31.312 -0.224,-2.422 0.275,-6.066 1.505,-10.968 1.014,-4.042 2.047,-9.624 2.3,-12.402 0.463,-5.047 2.22,-9.64 4.39,-11.44 1.677,-1.395 1.43,-2.075 -0.962,-2.595 -4.614,-1.013 -10.175,-7.535 -11.447,-13.429 -0.579,-2.68 -1.259,-2.857 -4.44,-1.149 M -79.199,73.39 c 0,-1.56 -0.258,-2.841 -0.578,-2.841 -1.343,0 -7.42,4.868 -9.047,7.24 -1.386,2.029 -1.762,3.527 -1.755,7.042 0,4.565 1.432,7.985 5.012,11.983 l 1.467,1.649 1.324,-2.95 c 0.721,-1.621 2.818,-4.318 4.657,-5.98 1.828,-1.669 3.325,-3.399 3.318,-3.848 0,-0.441 -0.99,-2.748 -2.199,-5.133 -1.316,-2.583 -2.199,-5.467 -2.199,-7.162 m 92.142,63.728 c -8.564,1.063 -18.732,5.165 -28.358,12.026 -13.013,9.272 -21.601,21.128 -23.327,30.78 h -16.13 c -0.296,0.001 -29.978,0.112 -49.512,0.112 -4.907,0 -9.197,-0.006 -12.265,-0.023 -1.543,-0.009 -2.781,-0.022 -3.634,-0.035 -1.645,-0.028 -3.668,0.03 -3.777,-1.649 l -0.004,-6.347 c -0.008,-24.178 -0.018,-57.292 1.229,-73.647 2.803,-36.781 19.63,-56.838 33.252,-67.186 14.527,-11.039 33.749,-14.466 33.749,-14.466 0,0 18.746,2.537 33.476,14.126 C 0.814,49.04 8.92,77.46 11.639,98.093 c 1.222,9.279 1.406,23.588 1.304,39.025"
             style="fill:#1b1615;fill-opacity:1;fill-rule:nonzero;stroke:none"
             id="path20" /></g></g></g></g></svg>
