<?xml version="1.0" encoding="UTF-8" standalone="no"?>
<!-- Created with Inkscape (http://www.inkscape.org/) -->

<svg
  version="1.1"
  id="svg2"
  xml:space="preserve"
  width="379.67691"
  height="88.566902"
  viewBox="0 0 379.67691 88.566901"
  xmlns="http://www.w3.org/2000/svg"
><defs
     id="defs6"><clipPath
       clipPathUnits="userSpaceOnUse"
       id="clipPath16"><path
         d="M 0,841.89 H 595.276 V 0 H 0 Z"
         id="path14" /></clipPath></defs>
  <g
    id="g8"
    transform="matrix(1.3333333,0,0,-1.3333333,-207.01223,605.54329)"><g
       id="g10"><g
         id="g12"
         clip-path="url(#clipPath16)"><g
           id="g18"
           transform="translate(243.4092,439.9054)"><path
             d="m 0,0 c 0.496,-0.067 0.998,-0.085 1.505,-0.061 3.862,0.188 7.673,1.756 10.636,4.521 1.585,1.479 2.747,3.117 2.959,5.23 0.091,0.914 -0.494,1.595 -1.142,1.866 -0.632,0.263 -1.383,0.108 -2.119,-0.441 C 9.46,9.342 6.027,7.438 2.962,7.853 1.662,8.03 0.566,8.729 -0.388,9.993 -0.833,10.582 -1.382,10.662 -1.754,10.625 -3.028,10.504 -4.326,8.914 -5.046,7.391 -5.85,5.696 -5.937,4.164 -5.279,3.293 -3.839,1.388 -2.063,0.28 0,0"
             style="fill:#000000;fill-opacity:1;fill-rule:nonzero;stroke:none"
             id="path20" /></g><g
    id="g22"
    transform="translate(285.1431,437.5348)"><path
             d="m 0,0 c -0.286,0.945 -1.002,1.697 -1.965,2.06 -3.056,1.153 -6.528,1.501 -10.603,1.056 0.524,1.276 0.818,1.739 1.339,2.758 0.334,0.651 0.18,1.257 -0.423,1.663 -1.28,0.86 -4.548,0.684 -6.269,-1.315 -1.565,-1.819 -2.23,-2.562 -3.542,-4.699 l -0.13,-0.239 c -3.313,-0.874 -5.925,-1.774 -8.213,-2.829 -1.088,-0.502 -1.702,-1.058 -1.876,-1.697 -0.124,-0.452 -0.016,-0.927 0.32,-1.413 1.059,-1.531 5.644,-0.547 6.379,-0.424 -0.169,-0.42 -0.908,-2.073 -1.15,-2.625 -2.102,-4.783 -4.303,-10.442 -4.687,-16.156 -0.195,-2.898 0.313,-5.292 1.509,-7.119 1.656,-2.53 4.609,-3.906 8.076,-3.824 0.483,0.012 0.976,0.052 1.477,0.12 4.231,0.581 10.566,4.851 12.207,7.613 0.697,1.174 0.611,2.216 -0.238,2.86 -0.696,0.529 -1.587,0.575 -2.726,0.137 -0.268,-0.103 -0.733,-0.343 -1.377,-0.675 -1.888,-0.975 -5.026,-2.594 -7.547,-2.987 -0.727,1.23 -0.728,3.377 -0.599,4.973 0.165,2.039 0.63,4.235 1.016,5.92 0.794,3.456 1.718,6.245 2.788,9.474 0.183,0.551 0.585,1.769 0.776,2.349 l 0.092,0.279 c 2.373,0.124 4.178,-0.032 6.456,-0.229 0.579,-0.049 1.189,-0.102 1.847,-0.153 2.202,-0.172 5.216,0.534 6.621,2.488 C 0.111,-1.863 0.273,-0.903 0,0"
             style="fill:#000000;fill-opacity:1;fill-rule:nonzero;stroke:none"
             id="path24" /></g><g
    id="g26"
    transform="translate(240.4073,428.5832)"><path
             d="M 0,0 C 0.631,0.791 1.174,1.393 1.707,1.896 1.879,2.058 2.428,2.464 2.913,2.822 L 3.102,2.951 C 3.129,2.925 3.365,2.753 3.392,2.727 3.563,2.567 3.741,2.402 3.844,2.245 4.445,1.339 4.678,0.417 4.598,-0.745 4.498,-2.227 3.786,-3.549 2.542,-4.569 1.021,-5.815 -1.411,-6.327 -3.415,-6.107 -2.585,-3.869 -1.408,-1.762 0,0 m -34.379,-18.303 c -1.44,4.703 -0.578,11.02 -0.336,12.887 0.31,2.409 0.638,4.873 1.582,7.751 0.124,0.377 0.238,0.751 0.373,1.133 0.246,0.699 0.359,0.991 0.03,1.383 -0.463,0.552 -1.392,1.003 -2.368,0.988 -3.507,-0.052 -5.456,-3.438 -6.495,-5.87 h 0.002 c -1.689,-3.407 -2.614,-6.875 -2.975,-10.596 -0.443,-4.565 0.112,-8.402 1.699,-11.731 1.058,-2.219 2.804,-3.388 5.562,-3.496 0.233,-0.009 0.542,0 0.766,0 2.522,0 4.704,0.568 6.545,1.837 6.205,4.274 10.135,11.047 12.413,16.258 0.465,-0.14 0.931,-0.274 1.395,-0.398 0.475,-0.126 0.95,-0.247 1.426,-0.363 -0.654,-2.42 -1.866,-8.48 0.838,-12.911 1.322,-2.168 3.379,-3.544 6.112,-4.089 l 0.123,-0.002 c 0.779,-0.163 1.582,-0.245 2.401,-0.245 0.476,0 0.956,0.028 1.441,0.083 6.173,0.705 12.678,5.563 14.626,8.737 0.738,1.203 0.674,2.289 -0.174,2.98 -0.697,0.569 -1.606,0.637 -2.776,0.21 -0.28,-0.103 -0.878,-0.418 -1.706,-0.856 -2.348,-1.238 -6.963,-3.42 -9.731,-3.745 -0.319,0.63 -0.817,1.791 -1.002,3.192 -0.133,1.004 -0.143,2.098 -0.032,3.25 0.056,0.584 0.142,1.199 0.259,1.828 2.418,-0.339 5.439,-0.176 8.224,0.674 2.773,0.847 5.844,2.1 7.597,4.971 C 13.176,-1.599 13.107,2 11.268,4.514 8.832,7.841 4.917,9.213 0.8,8.188 -5.081,6.723 -10.299,1.996 -13.296,-4.527 c -0.931,0.223 -1.857,0.458 -2.768,0.741 l 0.137,0.373 0.004,0.009 c 0.257,0.816 0.465,1.572 0.635,2.312 0.059,0.26 0.124,0.523 0.189,0.785 0.459,1.857 0.933,3.777 -0.147,5.576 -0.948,1.577 -2.939,2.402 -5.02,2.402 -0.385,0 -2.198,-0.235 -3.232,-0.597 -0.006,-0.002 -0.015,-0.004 -0.02,-0.005 -0.696,-0.228 -1.39,-0.55 -2.012,-0.939 -1.264,-0.792 -2.256,-1.928 -2.557,-3.435 -0.407,-2.029 0.417,-3.863 1.681,-5.358 -1.175,-3.977 -2.881,-7.772 -5.219,-11.577 -0.773,-1.257 -1.869,-2.995 -2.754,-4.063"
             style="fill:#000000;fill-opacity:1;fill-rule:nonzero;stroke:none"
             id="path28" /></g><g
    id="g30"
    transform="translate(392.1714,424.0602)"><path
             d="m 0,0 c -0.862,-3.255 -1.638,-6.572 -2.044,-9.92 -1.38,-1.46 -2.629,-2.588 -4.317,-3.614 -0.365,-0.222 -1.352,-0.845 -1.707,-0.981 -0.76,0.832 -1.33,2.312 -1.432,3.563 C -9.87,-6.415 -7.06,8.017 0.115,4.809 0.48,4.646 1.219,4.279 1.219,4.279 0.777,2.815 0.392,1.479 0,0 m -19.842,-11.615 c 0.72,-5.318 4.541,-8.901 9.89,-9.378 3.189,-0.284 6.076,0.646 8.508,2.321 0.02,-0.031 0.046,-0.069 0.046,-0.069 0.108,-0.175 0.224,-0.345 0.352,-0.504 1.575,-1.963 4.206,-2.499 6.623,-2.038 1.133,0.166 4.034,1.085 5.992,2.921 1.336,1.296 2.237,2.437 2.563,3.813 0.249,1.052 -0.601,2.146 -1.776,2.267 -1.158,0.12 -2.902,-1.299 -4.966,-1.421 0,0 0.379,2.342 0.742,3.779 0.572,2.26 1.093,4.411 1.631,6.494 0.955,3.688 2.057,7.327 3.246,10.946 0.978,2.98 2.136,5.887 3.227,8.826 0.823,2.212 2.265,5.867 2.626,7.387 0.553,2.322 -3.076,4.928 -7.127,3.508 -7.304,-2.56 -11.017,-4.914 -18.83,-5.303 -6.12,-0.306 -11.758,0.012 -17.75,1.445 -6.777,1.621 -13.318,3.561 -20.395,2.466 -4.121,-0.638 -7.822,-2.063 -10.981,-4.411 -0.956,-0.629 -1.835,-1.421 -2.64,-2.311 -0.571,-0.587 -1.119,-1.209 -1.642,-1.876 -1.831,-2.338 -3.143,-5.027 -4.279,-7.767 -1.653,-3.983 -2.87,-7.709 -3.566,-11.97 -0.49,-2.996 -0.782,-6.445 -0.623,-9.479 0.096,-1.806 0.148,-4.034 0.979,-5.763 0.095,-0.293 0.493,-0.887 0.493,-0.887 0.108,-0.175 0.225,-0.345 0.353,-0.505 1.575,-1.962 4.206,-2.499 6.623,-2.038 1.133,0.166 4.034,1.085 5.992,2.922 1.337,1.296 2.237,2.436 2.563,3.813 0.249,1.051 -0.601,2.145 -1.775,2.266 -1.159,0.12 -2.836,-1.255 -4.9,-1.378 -0.052,-0.009 -0.107,-0.013 -0.161,-0.013 -0.054,1.515 0.386,5.995 0.743,7.741 0.718,3.511 1.781,7.81 3.038,11.382 1.012,2.875 2.063,4.867 3.402,7.371 0.507,0.948 1.458,2.431 2.5,3.75 2.211,2.665 5.067,4.475 9.39,4.698 3.485,0.178 6.627,-0.612 9.953,-1.485 3.992,-1.049 7.962,-2.01 12.067,-2.483 9.132,-1.052 16.041,-1.398 24.164,0.721 -0.631,-1.242 -1.162,-2.491 -1.62,-3.601 -0.514,-1.248 -1,-2.504 -1.463,-3.769 -5.437,2.642 -12.895,0.655 -17.086,-3.464 -3.315,-3.259 -5.616,-9.303 -6.18,-14.479 0,0 -0.122,-1.45 -0.115,-1.96 0.014,-1.167 0.063,-1.749 0.169,-2.485"
             style="fill:#000000;fill-opacity:1;fill-rule:nonzero;stroke:none"
             id="path32" /></g><g
    id="g34"
    transform="translate(425.4038,445.0421)"><path
             d="m 0,0 c 0.494,1.137 1.139,2.303 1.883,3.125 0.761,0.84 1.569,1.123 1.569,1.123 0,0 0.494,-0.579 0.716,-1.546 C 4.421,1.605 4.197,-0.039 3.817,-1.208 3.297,-2.806 1.781,-5.279 -0.044,-5.1 -1.213,-3.731 -0.67,-1.543 0,0 M -4.267,-8.412 C 0.275,-10.205 6.541,-9.08 9.788,-4.932 12.941,-0.903 13.117,5.22 8.262,7.975 3.447,10.707 -2.764,8.168 -6.042,4.188 -8.971,0.633 -9.509,-5.354 -5.139,-8.005 c 0.27,-0.163 0.556,-0.282 0.872,-0.407"
             style="fill:#000000;fill-opacity:1;fill-rule:nonzero;stroke:none"
             id="path36" /></g><g
    id="g38"
    transform="translate(307.106,412.3424)"><path
             d="m 0,0 c -0.854,-1.254 -2.102,-3.259 -3.35,-2.781 -1.217,0.465 -2.371,1.101 -3.561,1.668 0.095,0.579 0.187,1.159 0.299,1.736 0.685,3.549 1.995,8.454 3.267,11.973 0.124,0.298 0.25,0.594 0.378,0.889 0.977,1.148 4.83,3.347 5.221,3.344 C 2.592,16.826 2.729,16.572 2.937,16.091 4.787,11.813 2.516,3.689 0,0 M 9.521,22.875 C 7.09,24.148 4.1,23.473 1.282,22.035 c 0.095,0.153 0.068,0.099 0.157,0.23 0.577,0.844 0.877,1.938 0.688,2.62 -0.178,0.636 -1.567,1.6 -2.924,1.777 -1.215,0.158 -2.506,0.055 -3.535,-0.295 -3.105,-1.057 -4.661,-3.324 -6.066,-5.787 -1.855,-3.247 -3.348,-7.225 -4.551,-11.417 -1.184,-4.123 -2.18,-8.449 -2.619,-12.862 -0.827,-5.772 -1.347,-12.837 -0.099,-16.609 1.09,-3.295 3.519,-4.034 5.321,-4.27 1.201,-0.157 3.191,0.257 3.845,1.351 0.397,0.665 0.322,1.707 0.266,2.437 -0.203,2.645 -0.293,7.945 0.234,12.187 3.365,-1.31 7.445,-1.17 10.798,0.117 6.316,2.424 9.658,8.94 10.767,15.372 0.936,5.424 1.437,13.119 -4.043,15.989"
             style="fill:#000000;fill-opacity:1;fill-rule:nonzero;stroke:none"
             id="path40" /></g><g
    id="g42"
    transform="translate(353.3091,409.612)"><path
             d="m 0,0 c 0,0 -3.848,2.781 -1.773,11.106 1.852,7.434 7.055,9.726 7.055,9.726 0,0 3.571,-4.171 0.984,-11.901 C 3.885,1.814 0,0 0,0 m 15.337,20.884 c -0.679,1.487 -2.719,4.558 -6.556,5.393 -3.832,0.834 -6.936,0.3 -10.611,-1.604 -5.321,-2.756 -8.766,-8.135 -9.985,-14.322 C -13.103,3.816 -11.98,-2.846 -5.307,-5.708 8.94,-11.82 20.857,8.788 15.337,20.884"
             style="fill:#000000;fill-opacity:1;fill-rule:nonzero;stroke:none"
             id="path44" /></g><g
    id="g46"
    transform="translate(438.2095,412.2536)"><path
             d="m 0,0 c -1.15,0.119 -2.871,-1.288 -4.92,-1.41 0,0 0.275,3.681 0.899,6.694 1.073,5.197 2.428,8.699 4.594,13.94 0.968,2.34 -0.988,3.952 -2.794,4.233 -1.05,0.163 -2.63,-0.138 -3.615,-0.735 -1.864,-1.13 -2.815,-2.037 -3.897,-4.292 -4.689,-9.772 -5.529,-15.861 -10.111,-19.177 -0.286,-0.206 -0.618,-0.373 -0.934,-0.591 -0.196,1.269 -0.325,2.692 -0.366,4.036 -0.178,5.893 0.992,11.892 2.902,17.452 0.803,2.339 -2.449,2.508 -4.596,1.556 -1.176,-0.522 -2.464,-1.416 -3.508,-3.211 -1.661,-2.855 -2.676,-5.664 -3.471,-8.799 -0.816,-3.218 -1.107,-6.688 -0.8,-10.58 0.61,-7.772 8.612,-9.486 14.873,-6.474 0.846,0.406 1.625,0.888 2.354,1.425 0.095,-0.154 0.173,-0.272 0.173,-0.272 0.108,-0.174 0.223,-0.342 0.351,-0.501 1.563,-1.948 3.731,-2.691 6.133,-2.234 1.125,0.165 4.006,1.078 5.951,2.901 1.328,1.288 2.221,2.421 2.546,3.788 C 2.012,-1.207 1.166,-0.121 0,0"
             style="fill:#000000;fill-opacity:1;fill-rule:nonzero;stroke:none"
             id="path48" /></g><g
    id="g50"
    transform="translate(408.1031,449.9372)"><path
             d="M 0,0 C 0,0 -0.024,0.038 -0.045,0.068"
             style="fill:#000000;fill-opacity:1;fill-rule:nonzero;stroke:none"
             id="path52" /></g><g
    id="g54"
    transform="translate(182.0186,433.4396)"><path
             d="m 0,0 c -0.273,-0.39 -0.226,-0.732 -0.139,-0.951 0.33,-0.829 1.767,-1.289 2.293,-1.396 1.694,-0.346 3.607,-0.103 4.995,0.633 3.059,1.619 5.522,4.359 6.936,7.715 1.617,3.838 0.646,6.895 -2.883,9.088 -4.374,2.717 -10.489,2.437 -14.846,1.725 -4.683,-0.764 -8.739,-2.221 -12.054,-4.328 -4.362,-2.773 -7.395,-6.505 -8.113,-9.984 -0.882,-4.27 1.411,-8.305 6.29,-11.069 1.496,-0.847 3.08,-1.613 4.612,-2.354 1.809,-0.875 3.68,-1.78 5.405,-2.819 0.433,-0.26 0.872,-0.51 1.309,-0.759 2.31,-1.311 4.492,-2.549 5.451,-5.299 0.451,-1.293 0.309,-2.627 -0.379,-3.568 -0.522,-0.714 -1.274,-1.106 -2.113,-1.089 -1.848,0.05 -4.772,1.446 -6.241,2.667 -2.913,2.421 -4.475,4.062 -7.345,7.227 -1.219,1.345 -4.435,1.35 -7.503,-0.986 -2.323,-1.769 -3.049,-3.999 -1.894,-5.822 4.04,-6.377 12.209,-10.334 21.329,-10.334 h 0.046 c 5.601,0.009 11.856,2.809 14.241,6.374 2.406,3.596 2.604,7.706 0.545,11.279 -2.892,5.013 -8.355,7.552 -13.637,10.008 -1.888,0.878 -3.841,1.787 -5.632,2.79 -0.992,0.556 -1.674,1.152 -1.773,2.254 -0.14,1.552 1.249,3.144 2.263,4.306 0.98,1.123 2.212,1.941 3.518,2.806 l 0.115,0.076 c 0.478,0.318 2.228,1.237 2.972,1.472 1.138,0.359 4.601,1.453 5.973,0.412 C 4.174,9.745 4.374,9.228 4.35,8.493 4.258,5.742 2.729,3.692 1.111,1.522 0.744,1.029 0.364,0.52 0,0"
             style="fill:#000000;fill-opacity:1;fill-rule:nonzero;stroke:none"
             id="path56" /></g></g></g></g></svg>
