<svg xmlns="http://www.w3.org/2000/svg" width="216.931" height="39.795" viewBox="0 0 216.931 39.795">
  <g id="Group_268" data-name="Group 268" transform="translate(-1924.348 -326.26)">
    <path id="Path_284" data-name="Path 284"
          d="M1930.014,359.966V355.06q0-4.564,1.984-7.091a6.808,6.808,0,0,1,5.692-2.526,6.532,6.532,0,0,1,4.044,1.153,3.572,3.572,0,0,1,1.52,2.968,3.308,3.308,0,0,1-.215,1.2h5.159a6,6,0,0,0-1.313-2.771,9.281,9.281,0,0,0-3.839-2.674,14.468,14.468,0,0,0-5.357-.956,14.218,14.218,0,0,0-6.542,1.546,12.341,12.341,0,0,0-4.92,4.538,13,13,0,0,0-1.88,7.065,13.322,13.322,0,0,0,1.777,6.893,12.267,12.267,0,0,0,4.817,4.661,13.951,13.951,0,0,0,6.749,1.644,11.164,11.164,0,0,0,6.928-2.159,9.262,9.262,0,0,0,3.581-5.789h-1.185a7.88,7.88,0,0,1-3.22,4.98,10.116,10.116,0,0,1-6.1,1.889,6.653,6.653,0,0,1-5.744-2.649,11.645,11.645,0,0,1-1.932-7.016"
          transform="translate(0 -4.657)"/>
    <path id="Path_285" data-name="Path 285"
          d="M1969.848,370.39h10.915v-.981l-2.881-.027V345.024h-8.034v.981l2.881.052v23.324l-2.881.027Z"
          transform="translate(-11.704 -4.826)"/>
    <path id="Path_286" data-name="Path 286"
          d="M2023.755,366.451V333.633h-8.033v.981l2.882.081v12.5a10.406,10.406,0,0,0-3.5-4.1,9.082,9.082,0,0,0-5.2-1.5,12.575,12.575,0,0,0-6.44,1.619,11.124,11.124,0,0,0-4.327,4.587,16.365,16.365,0,0,0,0,13.885,11.281,11.281,0,0,0,4.327,4.611,12.414,12.414,0,0,0,6.44,1.644,9.071,9.071,0,0,0,5.2-1.5,10.39,10.39,0,0,0,3.5-4.1v5.1h8.034v-.981ZM2018.6,357.6a9.995,9.995,0,0,1-1.159,4.538,9.2,9.2,0,0,1-2.937,3.337,7.093,7.093,0,0,1-4.095,1.251q-7.162,0-7.162-9.518V352.3q0-9.469,7.162-9.47a7.093,7.093,0,0,1,4.095,1.251,9.2,9.2,0,0,1,2.937,3.337,10,10,0,0,1,1.159,4.538Z"
          transform="translate(-18.839 -1.896)"/>
    <path id="Path_287" data-name="Path 287"
          d="M2069.626,367.718a10.677,10.677,0,0,1-6.285,1.913,6.958,6.958,0,0,1-5.9-2.674,11.227,11.227,0,0,1-2.034-6.991v-4.858h18.958a11.078,11.078,0,0,0-1.494-5.569,10.106,10.106,0,0,0-4.018-3.8,12.181,12.181,0,0,0-5.822-1.373,13.8,13.8,0,0,0-6.723,1.644,12.434,12.434,0,0,0-4.791,4.612,14.212,14.212,0,0,0,.026,13.811,12.411,12.411,0,0,0,4.894,4.636,14.464,14.464,0,0,0,6.9,1.644,11.755,11.755,0,0,0,7.161-2.159,9.153,9.153,0,0,0,3.657-5.789h-1.185A7.8,7.8,0,0,1,2069.626,367.718Zm-12-19.969a6.563,6.563,0,0,1,5.357-2.306,4.835,4.835,0,0,1,4.328,2.085q1.39,2.086,1.39,6.354h-13.239A10.468,10.468,0,0,1,2057.624,347.749Z"
          transform="translate(-32.255 -4.657)"/>
    <path id="Path_288" data-name="Path 288" d="M2066.9,339.154l12.024-7.243v-5.65l-10.865,6.545v-1.069H2066.9v7.418Z"
          transform="translate(-36.667)"/>
    <path id="Path_289" data-name="Path 289"
          d="M2110.978,350.764h5.36v-2.173h-.088a3.339,3.339,0,0,0,.05-.547,3.052,3.052,0,0,0-1.494-2.724,6.266,6.266,0,0,0-3.451-.956q-4.071,0-7.316,4.22v-3.779H2096v.982l2.882.1v23.324l-2.882.027v.981h11.431v-.981l-3.4-.027V350.4a16.688,16.688,0,0,1,2.575-2.968,3.478,3.478,0,0,1,2.216-.957,2.31,2.31,0,0,1,1.571.515,1.7,1.7,0,0,1,.593,1.35,2.266,2.266,0,0,1-.047.253h.031Z"
          transform="translate(-44.155 -4.657)"/>
    <path id="Path_290" data-name="Path 290"
          d="M2150.494,367.46H2161.1v-.981l-1.908-.028-12.2-15.623,9.886-7.7,1.238-.1v-.981h-8.96v.981l5.694.1-13.01,10.251V333.633H2133.8v.981l2.882.081v31.756l-2.882.028v.981h10.4v-.981l-2.367-.028V354.9l1.34-1.08,10.077,12.631-2.758.028Z"
          transform="translate(-53.878 -1.896)"/>
    <path id="Path_291" data-name="Path 291"
          d="M2205.971,367.03a2.208,2.208,0,0,1-.515,1.546,1.79,1.79,0,0,1-1.391.565,1.772,1.772,0,0,1-1.417-.565,2.432,2.432,0,0,1-.49-1.644V352.9q0-8.537-10.3-8.536a14.816,14.816,0,0,0-7.469,1.717,5.737,5.737,0,0,0-2.609,2.8h-.155v1.884h4.781v-1.811h.068c0-.061-.025-.111-.025-.175a2.9,2.9,0,0,1,1.185-2.428,5.905,5.905,0,0,1,3.607-.908,8.2,8.2,0,0,1,3.348.565,3.591,3.591,0,0,1,1.83,1.962,10.472,10.472,0,0,1,.593,3.95V355.7h-3.452a21.692,21.692,0,0,0-9.427,1.938,6.717,6.717,0,0,0-4.071,6.551,5.8,5.8,0,0,0,2.113,4.881,8.542,8.542,0,0,0,5.409,1.644,11.382,11.382,0,0,0,5.641-1.423,8.982,8.982,0,0,0,3.787-3.925,5,5,0,0,0,1.674,4.047,6.182,6.182,0,0,0,3.992,1.3,4.838,4.838,0,0,0,3.22-.981,3.346,3.346,0,0,0,1.159-2.7Zm-8.963-5.151a7.546,7.546,0,0,1-1.237,3.605,7.082,7.082,0,0,1-2.5,2.283,6.055,6.055,0,0,1-2.859.784,5.925,5.925,0,0,1-3.915-1.128,4.761,4.761,0,0,1-1.34-3.828,6.27,6.27,0,0,1,2.086-5.029q2.087-1.79,6.311-1.791h3.452Z"
          transform="translate(-65.776 -4.657)"/>
  </g>
</svg>
