<?xml version="1.0" encoding="UTF-8" standalone="no"?>
<svg
  xmlns:xlink="http://www.w3.org/1999/xlink"
  class="header__logo-icon"
  viewBox="0 0 47.817001 47.794998"
  version="1.1"
  id="svg899"
  width="47.817001"
  height="47.794998"
  xmlns="http://www.w3.org/2000/svg"
>
  <defs
    id="defs880">
    <path
      id="a"
      d="M 0,0.184 H 47.817 V 47.979 H 0 Z"/>
  </defs>
  <g
    fill="none"
    fill-rule="evenodd"
    id="g897"
    transform="translate(0,-0.184)">
    <path
      fill="#4b88bb"
      d="M 1.967,46.033 H 22.925 V 25.075 H 1.967 Z"
      id="path882"/>
    <path
      fill="#dd475a"
      d="M 1.967,23.109 H 22.925 V 2.15 H 1.967 Z"
      id="path884"/>
    <path
      fill="#f6bd33"
      d="M 24.892,23.109 H 45.85 V 2.15 H 24.892 Z"
      id="path886"/>
    <path
      fill="#161616"
      d="m 10.937739,15.010435 v -4.641044 h 1.126609 c 1.061217,0 1.801391,0.883826 1.801391,2.320696 0,1.436522 -0.740174,2.320348 -1.801391,2.320348 z m -2.1328694,1.602087 h 3.2594784 c 2.354087,0 4.022608,-1.580174 4.022608,-3.922435 0,-2.342609 -1.668521,-3.9227826 -4.022608,-3.9227826 H 8.8048696 Z m 0.7186087,22.524174 c 0.7850437,0.276521 1.7572177,0.497043 2.6187827,0.497043 2.265391,0 3.380869,-1.105043 3.380869,-2.573913 0,-2.044869 -2.286608,-2.398261 -3.269913,-2.641391 -0.420521,-0.110609 -0.752,-0.243131 -0.752,-0.651478 0,-0.36487 0.287653,-0.630261 0.861913,-0.630261 0.81774,0 1.536,0.265391 2.409392,0.530434 l 0.353043,-1.657739 C 14.34087,31.733217 13.424696,31.52313 12.573217,31.52313 c -2.254261,0 -3.2045214,1.171131 -3.2045214,2.486261 0,2.044174 2.1993044,2.376 3.1495654,2.597218 0.474782,0.132521 0.88313,0.243478 0.88313,0.695652 0,0.409043 -0.341913,0.707478 -0.949565,0.707478 -0.828869,0 -1.701913,-0.265043 -2.5860869,-0.552348 l -0.3422608,1.679305"
      id="path888"/>
    <mask
      id="b"
      fill="#ffffff">
      <use
        xlink:href="#a"
        id="use890"
        x="0"
        y="0"
        width="100%"
        height="100%"/>
    </mask>
    <path
      fill="#161616"
      mask="url(#b)"
      d="m 32.405,16.613 h 5.845 l 0.088,-1.603 h -3.414 l 0.906,-1.138 2.508,-3.503 V 8.767 h -5.845 l -0.088,1.602 h 3.414 l -0.906,1.139 -2.508,3.502 v 1.603"
      id="path893"/>
    <path
      fill="#161616"
      d="M 0,0.18365217 V 48 H 24.891826 V 25.075478 H 47.817391 V 0.18365217 Z M 24.891826,23.107826 V 2.1506087 H 45.850435 V 23.109217 H 24.891826 Z m -22.9248695,0 H 22.925565 V 2.1506087 H 1.9669565 Z m 0,22.925565 H 22.925565 V 25.075478 H 1.9669565 Z"
      mask="url(#b)"
      id="path895"/>
  </g>
</svg>
