<?xml version="1.0" encoding="UTF-8" standalone="no"?>
<svg
  width="95.190002"
  height="65.330002"
  viewBox="0 0 95.190002 65.330002"
  version="1.1"
  id="svg893"
  xmlns="http://www.w3.org/2000/svg"
>
  <defs
    id="defs897"/>
  <path
    fill="#0000dc"
    d="M 0,0 V 26.6 H 4.14 V 0 Z m 4.29,0 2.59,26.6 h 1.4 L 5.7,0 Z m 6.73,0 -2.58,26.6 h 1.4 L 12.43,0 Z m 1.56,0 v 26.6 h 4.18 V 0 Z m 15.69,0 v 20.48 c 0,3.57 3.23,6.35 6.69,6.35 3.46,0 6.69,-2.78 6.69,-6.35 V 0 h -4.18 v 20.33 c 0,1.44 -1.29,2.47 -2.51,2.47 -1.22,0 -2.51,-1.03 -2.51,-2.47 V 0 Z m 26.26,0 v 26.6 h 4.18 V 0 Z m 4.33,0 3.95,26.6 h 1.45 L 60.31,0 Z m 5.55,0 v 26.6 h 4.18 V 0 Z M 82.46,25.12 V 26.6 H 93.82 V 25.12 H 90.21 V 1.48 h 3.61 V 0 H 82.46 v 1.48 h 3.57 v 23.64 z"
    id="path881"/>
  <path
    fill="#0000dc"
    d="M 2.55,65.1 H 15.24 V 63.2 H 4.6 V 52.1 H 14.78 V 50.2 H 4.6 V 40.4 H 15.24 V 38.5 H 2.55 Z m 32.68,0.23 c 3.64,0 6.57,-2.59 6.57,-6.35 v -0.91 h -2.05 v 0.87 c 0,2.47 -2.17,4.41 -4.52,4.41 -2.44,0 -4.53,-1.94 -4.53,-4.41 V 44.66 c 0,-2.47 2.09,-4.41 4.53,-4.41 2.35,0 4.52,1.94 4.52,4.41 v 0.95 h 2.05 v -0.99 c 0,-3.65 -2.93,-6.35 -6.57,-6.35 -3.61,0 -6.58,2.7 -6.58,6.35 v 14.36 c 0,3.76 2.97,6.35 6.58,6.35 z M 54.99,44.62 v 14.36 c 0,3.76 2.92,6.35 6.57,6.35 3.65,0 6.57,-2.59 6.57,-6.35 V 44.62 c 0,-3.69 -2.92,-6.35 -6.57,-6.35 -3.65,0 -6.57,2.66 -6.57,6.35 z m 11.09,0.04 v 14.28 c 0,2.7 -2.16,4.41 -4.52,4.41 -2.43,0 -4.52,-1.71 -4.52,-4.41 V 44.66 c 0,-2.7 2.09,-4.41 4.52,-4.41 2.36,0 4.52,1.71 4.52,4.41 z M 81.13,38.5 v 26.6 h 2.05 V 38.5 Z m 2.2,0 8.17,26.6 h 1.49 L 84.74,38.5 Z m 9.81,0 v 26.6 h 2.05 V 38.5 Z"
    id="path883"/>
  <desc
    id="desc891">Masarykova univerzita Ekonomicko-správní fakulta
  </desc>
</svg>
