<?xml version="1.0" encoding="UTF-8" standalone="no"?>
<!-- Generator: Adobe Illustrator 23.0.6, SVG Export Plug-In . SVG Version: 6.00 Build 0)  -->

<svg
  version="1.1"
  id="Vrstva_1"
  x="0px"
  y="0px"
  viewBox="0 0 106.74 71.490021"
  xml:space="preserve"
  width="106.74"
  height="71.490021"
  xmlns="http://www.w3.org/2000/svg"
><defs
   id="defs1036" />
  <style
    type="text/css"
    id="style961">
	.st0{fill:#FFFFFF;}
	.st1{fill:#78BE14;}
</style>
  <rect
    x="-13.17"
    class="st0"
    width="135"
    height="100"
    id="rect963"
    y="-13.18"/>
  <g
    id="g1031"
    transform="translate(-13.17,-13.18)">
	<g
    id="g973">
		<path
      class="st1"
      d="m 29.53,58.78 c 0,-3.76 3.05,-6.82 6.81,-6.82 3.76,0 6.81,3.06 6.81,6.82 0,3.76 -3.05,6.81 -6.81,6.81 -3.76,0.01 -6.81,-3.05 -6.81,-6.81 z"
      id="path965"/>
    <path
      class="st1"
      d="m 37.71,77.86 c 0,-3.77 3.05,-6.81 6.81,-6.81 3.76,0 6.81,3.04 6.81,6.81 0,3.77 -3.05,6.81 -6.81,6.81 -3.76,0.01 -6.81,-3.04 -6.81,-6.81 z"
      id="path967"/>
    <path
      class="st1"
      d="m 13.17,20.62 c 0,-3.76 3.05,-6.81 6.81,-6.81 3.76,0 6.82,3.05 6.82,6.81 0,3.77 -3.05,6.81 -6.82,6.81 -3.75,0 -6.81,-3.05 -6.81,-6.81 z"
      id="path969"/>
    <path
      class="st1"
      d="m 21.35,39.7 c 0,-3.76 3.05,-6.81 6.81,-6.81 3.76,0 6.82,3.05 6.82,6.81 0,3.76 -3.05,6.82 -6.82,6.82 -3.76,0 -6.81,-3.06 -6.81,-6.82 z"
      id="path971"/>
	</g>
    <g
      id="g997">
		<g
      id="g995">
			<path
        d="m 45.5,32.86 v 6.39 c 0,1.71 1.14,2.81 2.76,2.81 1.62,0 2.76,-1.09 2.76,-2.81 v -6.39 h 2.18 v 6.41 c 0,2.73 -2.07,4.66 -4.94,4.66 -2.88,0 -4.94,-1.93 -4.94,-4.66 v -6.41 z"
        id="path975"/>
      <path
        d="m 55.06,35.7 h 1.99 v 1.06 c 0.56,-0.76 1.46,-1.21 2.56,-1.21 1.92,0 3.26,1.37 3.26,3.3 v 4.92 h -1.99 v -4.68 c 0,-1.11 -0.79,-1.88 -1.92,-1.88 -1.11,0 -1.9,0.78 -1.9,1.9 v 4.66 h -1.99 z"
        id="path977"/>
      <path
        d="m 65.65,32.21 c 0.67,0 1.18,0.51 1.18,1.18 0,0.65 -0.51,1.17 -1.18,1.17 -0.65,0 -1.17,-0.52 -1.17,-1.17 0,-0.67 0.52,-1.18 1.17,-1.18 z m -0.99,3.49 h 1.99 v 8.07 h -1.99 z"
        id="path979"/>
      <path
        d="m 67.66,35.7 h 2.24 l 2.26,5.92 2.26,-5.92 h 2.12 l -3.33,8.07 H 71 Z"
        id="path981"/>
      <path
        d="m 81.12,35.54 c 2.62,0 4.53,2.01 4.21,4.78 h -6.4 c 0.16,1.18 1.08,2.01 2.2,2.01 0.95,0 1.56,-0.5 1.9,-1.19 h 2.1 c -0.55,1.68 -2.04,2.77 -4.02,2.77 -2.46,0 -4.25,-1.78 -4.25,-4.19 -0.01,-2.42 1.8,-4.18 4.26,-4.18 z m 2.15,3.38 c -0.22,-0.95 -1.03,-1.79 -2.15,-1.79 -1.12,0 -1.93,0.83 -2.15,1.79 z"
        id="path983"/>
      <path
        d="m 86.93,35.7 h 1.99 v 1.08 c 0.62,-0.92 1.7,-1.39 2.8,-1.17 v 1.87 c -1.64,-0.3 -2.8,0.45 -2.8,1.79 v 4.5 h -1.99 z"
        id="path985"/>
      <path
        d="m 94.44,41.25 c 0.09,0.72 0.64,1.18 1.71,1.18 1.12,0 1.62,-0.39 1.62,-0.92 0,-1.76 -5.14,-0.03 -5.14,-3.48 0,-1.36 1.26,-2.49 3.46,-2.49 2.09,0 3.26,1.01 3.46,2.66 h -1.99 c -0.11,-0.7 -0.65,-1.17 -1.53,-1.17 -0.94,0 -1.43,0.39 -1.43,0.92 0,1.76 5.16,-0.03 5.16,3.48 0,1.34 -1.28,2.49 -3.66,2.49 -2.28,0 -3.46,-1.01 -3.66,-2.68 z"
        id="path987"/>
      <path
        d="m 102.31,32.21 c 0.67,0 1.18,0.51 1.18,1.18 0,0.65 -0.51,1.17 -1.18,1.17 -0.65,0 -1.17,-0.52 -1.17,-1.17 0,-0.67 0.51,-1.18 1.17,-1.18 z m -1,3.49 h 1.99 v 8.07 h -1.99 z"
        id="path989"/>
      <path
        d="m 106.08,33.49 h 1.99 v 2.21 h 2.49 v 1.64 h -2.49 v 3.4 c 0,1.18 0.7,1.81 2.49,1.31 v 1.67 c -3.18,0.75 -4.49,-0.73 -4.49,-2.96 v -3.41 h -1.45 V 35.7 h 1.45 v -2.21 z"
        id="path991"/>
      <path
        d="m 114.44,43.97 -3.41,-8.28 h 2.24 l 2.26,5.92 2.26,-5.92 h 2.12 l -4.63,11.19 h -2.09 z"
        id="path993"/>
		</g>
	</g>
    <g
      id="g1013">
		<g
      id="g1011">
			<path
        d="m 52.49,51.29 c 0.67,0 1.18,0.51 1.18,1.18 0,0.65 -0.51,1.17 -1.18,1.17 -0.65,0 -1.17,-0.52 -1.17,-1.17 0,-0.67 0.51,-1.18 1.17,-1.18 z m -1,3.49 h 1.99 v 8.07 h -1.99 z"
        id="path999"/>
      <path
        d="m 55.35,54.78 h 1.99 v 1.06 c 0.56,-0.76 1.46,-1.21 2.56,-1.21 1.92,0 3.26,1.37 3.26,3.3 v 4.92 h -1.99 v -4.68 c 0,-1.11 -0.79,-1.88 -1.92,-1.88 -1.11,0 -1.9,0.78 -1.9,1.9 v 4.66 h -1.99 z"
        id="path1001"/>
      <path
        d="m 69.31,51.94 h 5.61 c 1.89,0 3.18,1.29 3.18,2.98 0,1 -0.48,1.87 -1.26,2.38 0.98,0.48 1.57,1.43 1.57,2.57 0,1.67 -1.29,2.98 -3.18,2.98 h -5.92 z m 5.16,4.55 c 0.87,0 1.43,-0.59 1.43,-1.37 0,-0.78 -0.56,-1.39 -1.43,-1.39 h -3.05 v 2.76 z m 0.31,4.57 c 0.87,0 1.43,-0.61 1.43,-1.39 0,-0.78 -0.56,-1.39 -1.43,-1.39 h -3.37 v 2.77 z"
        id="path1003"/>
      <path
        d="m 79.81,54.78 h 1.99 v 1.08 c 0.62,-0.92 1.7,-1.39 2.8,-1.17 v 1.87 c -1.64,-0.3 -2.8,0.45 -2.8,1.79 v 4.5 h -1.99 z"
        id="path1005"/>
      <path
        d="m 85.93,54.78 h 1.99 v 1.06 c 0.56,-0.76 1.46,-1.21 2.56,-1.21 1.92,0 3.26,1.37 3.26,3.3 v 4.92 h -1.99 v -4.68 c 0,-1.11 -0.79,-1.88 -1.92,-1.88 -1.11,0 -1.9,0.78 -1.9,1.9 v 4.66 h -1.99 v -8.07 z"
        id="path1007"/>
      <path
        d="m 99.52,54.62 c 2.49,0 4.3,1.76 4.3,4.19 0,2.41 -1.81,4.19 -4.3,4.19 -2.48,0 -4.3,-1.78 -4.3,-4.19 0,-2.43 1.82,-4.19 4.3,-4.19 z m 0,6.72 c 1.26,0 2.21,-1.06 2.21,-2.52 0,-1.48 -0.95,-2.52 -2.21,-2.52 -1.26,0 -2.21,1.04 -2.21,2.52 0,1.46 0.95,2.52 2.21,2.52 z"
        id="path1009"/>
		</g>
	</g>
    <g
      id="g1029">
		<g
      id="g1027">
			<path
        d="m 35.87,13.8 h 2.07 l 3.72,5.22 3.66,-5.22 h 2.03 v 10.91 h -2.18 v -7.25 l -3.55,5.02 -3.57,-4.97 v 7.2 h -2.18 z"
        id="path1015"/>
      <path
        d="m 53.18,16.48 c 2.62,0 4.53,2.01 4.21,4.78 h -6.4 c 0.16,1.18 1.08,2.01 2.2,2.01 0.95,0 1.56,-0.5 1.9,-1.19 h 2.1 c -0.55,1.68 -2.04,2.77 -4.02,2.77 -2.46,0 -4.25,-1.78 -4.25,-4.19 -0.01,-2.42 1.8,-4.18 4.26,-4.18 z m 2.15,3.39 c -0.22,-0.95 -1.03,-1.79 -2.15,-1.79 -1.12,0 -1.93,0.83 -2.15,1.79 0,0 4.3,0 4.3,0 z"
        id="path1017"/>
      <path
        d="m 58.99,16.64 h 1.99 v 1.06 c 0.56,-0.76 1.46,-1.21 2.56,-1.21 1.92,0 3.26,1.37 3.26,3.3 v 4.92 h -2 v -4.68 c 0,-1.11 -0.79,-1.88 -1.92,-1.88 -1.11,0 -1.9,0.78 -1.9,1.9 v 4.66 h -1.99 z"
        id="path1019"/>
      <path
        d="m 74.79,23.5 c -0.67,0.86 -1.65,1.37 -2.8,1.37 -2.13,0 -3.71,-1.78 -3.71,-4.19 0,-2.43 1.57,-4.19 3.79,-4.19 1.14,0 2.1,0.48 2.73,1.31 v -4.61 h 1.99 V 24.72 H 74.8 V 23.5 Z m -2.22,-0.3 c 1.26,0 2.21,-1.06 2.21,-2.52 0,-1.48 -0.95,-2.52 -2.21,-2.52 -1.26,0 -2.21,1.04 -2.21,2.52 0,1.46 0.95,2.52 2.21,2.52 z"
        id="path1021"/>
      <path
        d="m 82.61,16.48 c 2.62,0 4.54,2.01 4.21,4.78 h -6.41 c 0.16,1.18 1.08,2.01 2.2,2.01 0.95,0 1.56,-0.5 1.9,-1.19 h 2.1 c -0.55,1.68 -2.04,2.77 -4.02,2.77 -2.46,0 -4.25,-1.78 -4.25,-4.19 0,-2.42 1.8,-4.18 4.27,-4.18 z m 2.15,3.39 c -0.22,-0.95 -1.03,-1.79 -2.15,-1.79 -1.12,0 -1.93,0.83 -2.15,1.79 0,0 4.3,0 4.3,0 z"
        id="path1023"/>
      <path
        d="M 88.41,13.18 H 90.4 V 24.71 H 88.41 Z"
        id="path1025"/>
		</g>
	</g>
</g>
</svg>
