<?xml version="1.0" encoding="UTF-8" standalone="no"?>
<!-- Generator: Adobe Illustrator 23.0.1, SVG Export Plug-In . SVG Version: 6.00 Build 0)  -->

<svg
  version="1.1"
  id="Vrstva_1"
  x="0px"
  y="0px"
  viewBox="0 0 310.60002 99.199995"
  xml:space="preserve"
  width="310.60001"
  height="99.199997"
  xmlns="http://www.w3.org/2000/svg"
><defs
   id="defs1014" />
  <style
    type="text/css"
    id="style939">
	.st0{fill:#FFFFFF;}
	.st1{font-family:'VafleVUT-Regular';}
	.st2{font-size:27.5791px;}
	.st3{letter-spacing:1;}
	.st4{fill:#EF373E;}
</style>
  <text
    id="text945"
    x="103.2072"
    y="92.982498"><tspan
     x="103.2072"
     y="92.982498"
     class="st0 st1 st2 st3"
     id="tspan941"> </tspan>
    <tspan
      x="111.0072"
      y="92.982498"
      class="st0 st1 st2"
      id="tspan943"> </tspan></text>
  <g
    id="g951"
    transform="translate(-33.099998,-33)">
	<polygon
    class="st4"
    points="218.1,66.1 218.1,33 136.3,33 136.3,132.2 343.7,132.2 343.7,99.2 290.4,99.2 290.4,66.1 "
    id="polygon947"/>
    <rect
      x="33.099998"
      y="33"
      class="st4"
      width="99.199997"
      height="99.199997"
      id="rect949"/>
</g>
  <g
    id="g1009"
    transform="translate(-33.099998,-33)">
	<path
    class="st0"
    d="m 165.5,52 h 2.8 l 3.3,6.4 h 3.1 l -3.4,-6.5 c 1.8,-0.4 2.9,-1.9 2.9,-3.9 v -2.1 c 0,-2.4 -1.6,-4 -4,-4 h -7.5 v 16.5 h 2.8 z m 0,-7.7 h 4.5 c 0.8,0 1.4,0.6 1.4,1.4 v 2.4 c 0,0.8 -0.6,1.4 -1.4,1.4 h -4.5 z"
    id="path953"/>
    <polygon
      class="st0"
      points="187.6,58.3 190.5,58.3 190.5,41.9 187.6,41.9 187.6,53.1 187.6,53.1 181.1,41.9 178.2,41.9 178.2,58.3 181.1,58.3 181.1,47.1 "
      id="polygon955"/>
    <path
      class="st0"
      d="m 199,58.3 h 4.2 c 2.4,0 4,-1.6 4,-4 v -8.5 c 0,-2.4 -1.6,-4 -4,-4 H 199 c -2.4,0 -4,1.6 -4,4 v 8.5 c 0,2.4 1.6,4 4,4 z m -1.2,-12.6 c 0,-0.8 0.6,-1.4 1.4,-1.4 h 3.8 c 0.8,0 1.4,0.6 1.4,1.4 v 8.8 c 0,0.8 -0.6,1.4 -1.4,1.4 h -3.8 c -0.8,0 -1.4,-0.6 -1.4,-1.4 z"
      id="path957"/>
    <path
      class="st0"
      d="m 158.7,54.3 v -1 c 0,-1.6 -0.8,-2.8 -2.1,-3.3 v -0.1 c 1.1,-0.6 1.7,-1.7 1.7,-3.1 v -0.9 c 0,-2.4 -1.6,-4 -4,-4 h -7.4 v 16.5 h 7.8 c 2.4,-0.1 4,-1.7 4,-4.1 z m -9,-10 h 4.4 c 0.8,0 1.4,0.6 1.4,1.4 v 1.8 c 0,0.8 -0.5,1.3 -1.3,1.3 h -4.5 z m 0,11.6 v -4.6 h 4.9 c 0.8,0 1.3,0.5 1.3,1.3 v 1.9 c 0,0.8 -0.6,1.4 -1.4,1.4 z"
      id="path959"/>
    <polygon
      class="st0"
      points="266.5,77.4 266.5,74.9 254.2,74.9 254.2,77.4 258.9,77.4 258.9,91.4 261.7,91.4 261.7,77.4 "
      id="polygon961"/>
    <path
      class="st0"
      d="m 156.3,87.5 c 0,0.8 -0.6,1.4 -1.4,1.4 h -3.8 c -0.8,0 -1.4,-0.6 -1.4,-1.4 V 74.9 h -2.8 v 12.5 c 0,2.4 1.6,4 4,4 h 4.2 c 2.4,0 4,-1.6 4,-4 V 74.9 h -2.8 z"
      id="path963"/>
    <path
      class="st0"
      d="m 244.1,85.9 c 0,-2.4 -1.6,-4 -4,-4 h -3.3 c -0.8,0 -1.4,-0.6 -1.4,-1.4 v -1.7 c 0,-0.8 0.6,-1.4 1.4,-1.4 h 2.9 c 0.8,0 1.4,0.6 1.4,1.4 V 80 h 2.8 v -1 c 0,-2.4 -1.6,-4 -4,-4 h -3.4 c -2.4,0 -4,1.6 -4,4 v 1.4 c 0,2.4 1.6,4 4,4 h 3.3 c 0.8,0 1.4,0.6 1.4,1.4 v 1.8 c 0,0.8 -0.6,1.4 -1.4,1.4 h -3.3 c -0.8,0 -1.4,-0.6 -1.4,-1.4 v -1.2 h -2.8 v 1 c 0,2.4 1.6,4 4,4 h 3.8 c 2.4,0 4,-1.6 4,-4 z"
      id="path965"/>
    <polygon
      class="st0"
      points="202.9,74.9 202.9,91.4 213.2,91.4 213.2,89 205.7,89 205.7,84.3 212.5,84.3 212.5,81.9 205.7,81.9 205.7,77.4 213,77.4 213,74.9 "
      id="polygon967"/>
    <polygon
      class="st0"
      points="274.8,81.7 271.1,74.9 267.9,74.9 273.2,84.4 273.2,91.4 276,91.4 276,84.4 281.6,74.9 278.7,74.9 274.9,81.7 "
      id="polygon969"/>
    <rect
      x="248.3"
      y="74.900002"
      class="st0"
      width="2.8"
      height="16.5"
      id="rect971"/>
    <path
      class="st0"
      d="m 225.6,84.9 c 1.8,-0.4 2.9,-1.9 2.9,-3.9 v -2.1 c 0,-2.4 -1.6,-4 -4,-4 H 217 v 16.5 h 2.8 V 85 h 2.8 l 3.3,6.4 h 3.1 z m -1.3,-2.3 h -4.5 v -5.2 h 4.5 c 0.8,0 1.4,0.6 1.4,1.4 v 2.4 c 0,0.8 -0.6,1.4 -1.4,1.4 z"
      id="path973"/>
    <polygon
      class="st0"
      points="166.5,74.9 163.6,74.9 163.6,91.4 166.5,91.4 166.5,80.1 166.5,80.1 173,91.4 175.9,91.4 175.9,74.9 173,74.9 173,86.2 "
      id="polygon975"/>
    <polygon
      class="st0"
      points="193.1,87.5 189.2,74.9 186.2,74.9 191.6,91.4 194.5,91.4 199.8,74.9 197.1,74.9 193.2,87.5 "
      id="polygon977"/>
    <rect
      x="180.3"
      y="74.900002"
      class="st0"
      width="2.8"
      height="16.5"
      id="rect979"/>
    <path
      class="st0"
      d="m 315.1,108 h -3.8 c -2.4,0 -4,1.6 -4,4 v 8.5 c 0,2.4 1.6,4 4,4 h 3.8 c 2.4,0 4,-1.6 4,-4 v -4.3 H 313 v 2.5 h 3.3 v 2 c 0,0.8 -0.6,1.4 -1.4,1.4 h -3.3 c -0.8,0 -1.4,-0.6 -1.4,-1.4 v -8.8 c 0,-0.8 0.6,-1.4 1.4,-1.4 h 3.3 c 0.8,0 1.4,0.6 1.4,1.4 v 1.2 h 2.8 v -1 c 0,-2.5 -1.7,-4.1 -4,-4.1 z"
      id="path981"/>
    <polygon
      class="st0"
      points="328.1,114.8 324.4,108 321.2,108 326.5,117.5 326.5,124.5 329.4,124.5 329.4,117.5 335,108 332,108 328.2,114.8 "
      id="polygon983"/>
    <polygon
      class="st0"
      points="207.1,115 200.3,115 200.3,110.4 207.6,110.4 207.6,108 197.4,108 197.4,124.5 207.8,124.5 207.8,122 200.3,122 200.3,117.4 207.1,117.4 "
      id="polygon985"/>
    <polygon
      class="st0"
      points="277.5,124.5 287.2,124.5 287.2,122 280.3,122 280.3,108 277.5,108 "
      id="polygon987"/>
    <path
      class="st0"
      d="m 219.3,108 h -3.8 c -2.4,0 -4,1.6 -4,4 v 8.5 c 0,2.4 1.6,4 4,4 h 3.8 c 2.4,0 4,-1.6 4,-4 v -1 h -2.8 v 1.2 c 0,0.8 -0.6,1.4 -1.4,1.4 h -3.3 c -0.8,0 -1.4,-0.6 -1.4,-1.4 v -8.8 c 0,-0.8 0.6,-1.4 1.4,-1.4 h 3.3 c 0.8,0 1.4,0.6 1.4,1.4 v 1.2 h 2.8 v -1 c 0,-2.5 -1.6,-4.1 -4,-4.1 z"
      id="path989"/>
    <polygon
      class="st0"
      points="166.5,117.4 172.8,117.4 172.8,115 166.5,115 166.5,110.4 173.3,110.4 173.3,108 163.6,108 163.6,124.5 166.5,124.5 "
      id="polygon991"/>
    <path
      class="st0"
      d="m 269,108 h -4.2 c -2.4,0 -4,1.6 -4,4 v 8.5 c 0,2.4 1.6,4 4,4 h 4.2 c 2.4,0 4,-1.6 4,-4 V 112 c 0,-2.4 -1.6,-4 -4,-4 z m 1.2,12.6 c 0,0.8 -0.6,1.4 -1.4,1.4 H 265 c -0.8,0 -1.4,-0.6 -1.4,-1.4 v -8.8 c 0,-0.8 0.6,-1.4 1.4,-1.4 h 3.8 c 0.8,0 1.4,0.6 1.4,1.4 z"
      id="path993"/>
    <polygon
      class="st0"
      points="186.8,124.5 189.7,124.5 189.7,110.4 194.4,110.4 194.4,108 182.1,108 182.1,110.4 186.8,110.4 "
      id="polygon995"/>
    <polygon
      class="st0"
      points="230.2,108 227.3,108 227.3,124.5 230.2,124.5 230.2,117.4 236.8,117.4 236.8,124.5 239.6,124.5 239.6,108 236.8,108 236.8,115 230.2,115 "
      id="polygon997"/>
    <polygon
      class="st0"
      points="246.9,108 244.1,108 244.1,124.5 246.9,124.5 246.9,113.2 247,113.2 253.5,124.5 256.3,124.5 256.3,108 253.5,108 253.5,119.3 253.4,119.3 "
      id="polygon999"/>
    <path
      class="st0"
      d="m 155.1,108 h -4.2 c -2.4,0 -4,1.6 -4,4 v 8.5 c 0,2.4 1.6,4 4,4 h 4.2 c 2.4,0 4,-1.6 4,-4 V 112 c 0.1,-2.4 -1.6,-4 -4,-4 z m 1.2,12.6 c 0,0.8 -0.6,1.4 -1.4,1.4 h -3.8 c -0.8,0 -1.4,-0.6 -1.4,-1.4 v -8.8 c 0,-0.8 0.6,-1.4 1.4,-1.4 h 3.8 c 0.8,0 1.4,0.6 1.4,1.4 z"
      id="path1001"/>
    <path
      class="st0"
      d="m 298.8,108 h -4.2 c -2.4,0 -4,1.6 -4,4 v 8.5 c 0,2.4 1.6,4 4,4 h 4.2 c 2.4,0 4,-1.6 4,-4 V 112 c 0,-2.4 -1.6,-4 -4,-4 z m 1.2,12.6 c 0,0.8 -0.6,1.4 -1.4,1.4 h -3.8 c -0.8,0 -1.4,-0.6 -1.4,-1.4 v -8.8 c 0,-0.8 0.6,-1.4 1.4,-1.4 h 3.8 c 0.8,0 1.4,0.6 1.4,1.4 z"
      id="path1003"/>
    <rect
      x="49"
      y="48.200001"
      class="st0"
      width="30.700001"
      height="11.2"
      id="rect1005"/>
    <path
      class="st0"
      d="M 79.7,115.7 H 91.2 V 76.8 c 0,-4 3.4,-7.2 7.7,-7.2 h 17.2 V 59.4 H 79.7 Z"
      id="path1007"/>
</g>
</svg>
